<?xml version="1.0" encoding="UTF-8" standalone="no"?>
<!-- Created with Inkscape (http://www.inkscape.org/) -->

<svg
   xmlns:dc="http://purl.org/dc/elements/1.1/"
   xmlns:cc="http://creativecommons.org/ns#"
   xmlns:rdf="http://www.w3.org/1999/02/22-rdf-syntax-ns#"
   xmlns:svg="http://www.w3.org/2000/svg"
   xmlns="http://www.w3.org/2000/svg"
   xmlns:sodipodi="http://sodipodi.sourceforge.net/DTD/sodipodi-0.dtd"
   xmlns:inkscape="http://www.inkscape.org/namespaces/inkscape"
   width="247.31813"
   height="85.369377"
   id="svg5459"
   version="1.1"
   inkscape:version="0.48.3.1 r9886"
   sodipodi:docname="New document 6">
  <defs
     id="defs5461">
    <clipPath
       clipPathUnits="userSpaceOnUse"
       id="clipPath4257">
      <path
         inkscape:connector-curvature="0"
         d="M 0,0 612,0 612,936 0,936 0,0 z"
         id="path4259" />
    </clipPath>
    <clipPath
       clipPathUnits="userSpaceOnUse"
       id="clipPath3731">
      <path
         inkscape:connector-curvature="0"
         d="M 48.309,891.486 C 38.513,891.485 28.818,885.905 22.35,873.671 l 0,0 C 13.704,850 33.968,832.956 45.859,833.744 l 0,0 c 12.024,-1.125 29.718,5.042 31.635,28.703 l 0,0 c 0.028,7.597 -3.018,14.103 -6.557,18.346 l 0,0 c -6.462,6.929 -14.575,10.693 -22.622,10.693 l 0,0 -0.006,0 z"
         id="path3733" />
    </clipPath>
    <clipPath
       clipPathUnits="userSpaceOnUse"
       id="clipPath3581">
      <path
         inkscape:connector-curvature="0"
         d="M 0,0 612,0 612,936 0,936 0,0 z"
         id="path3583" />
    </clipPath>
  </defs>
  <sodipodi:namedview
     id="base"
     pagecolor="#ffffff"
     bordercolor="#666666"
     borderopacity="1.0"
     inkscape:pageopacity="0.0"
     inkscape:pageshadow="2"
     inkscape:zoom="0.79725404"
     inkscape:cx="92.904226"
     inkscape:cy="32.215184"
     inkscape:document-units="px"
     inkscape:current-layer="g4253"
     showgrid="false"
     fit-margin-top="0"
     fit-margin-left="0"
     fit-margin-right="0"
     fit-margin-bottom="0"
     inkscape:window-width="1920"
     inkscape:window-height="1018"
     inkscape:window-x="-8"
     inkscape:window-y="-8"
     inkscape:window-maximized="1" />
  <metadata
     id="metadata5464">
    <rdf:RDF>
      <cc:Work
         rdf:about="">
        <dc:format>image/svg+xml</dc:format>
        <dc:type
           rdf:resource="http://purl.org/dc/dcmitype/StillImage" />
        <dc:title></dc:title>
      </cc:Work>
    </rdf:RDF>
  </metadata>
  <g
     inkscape:label="Layer 1"
     inkscape:groupmode="layer"
     id="layer1"
     transform="translate(-279.14302,-473.0269)">
    <g
       transform="matrix(1.25,0,0,-1.25,257.58089,1596.4524)"
       id="g3577">
      <g
         id="g3579"
         clip-path="url(#clipPath3581)">
        <g
           id="g3585"
           transform="translate(139.343,848.9397)">
          <path
             inkscape:connector-curvature="0"
             d="m 0,0 c 0,-1.573 0.256,-1.81 1.863,-1.81 5.525,0 7.806,1.981 7.806,6.312 0,3.964 -1.703,6.356 -7.806,6.356 C 0.256,10.858 0,10.728 0,9.046 L 0,0 z m -2.859,-0.453 0,9.952 c 0,1.616 -1.06,1.766 -2.796,1.766 l 0,0.432 7.518,0 c 5.333,0 10.988,-0.775 10.988,-7.195 0,-6.399 -5.945,-7.152 -10.988,-7.152 l -4.699,0 -0.023,2.197"
             style="fill:#3674c3;fill-opacity:1;fill-rule:nonzero;stroke:none"
             id="path3587" />
        </g>
        <g
           id="g3589"
           transform="translate(102.5234,858.4381)">
          <path
             inkscape:connector-curvature="0"
             d="m 0,0 0,-7.174 c 0,-2.948 -0.642,-5.192 -7.325,-5.192 -6.65,0 -7.678,2.155 -7.678,5.192 l 0,7.174 c 0,1.617 -1.028,1.766 -2.796,1.766 l 0,0.432 5.582,0 0,-0.432 c 0,0 0.072,-0.149 0.072,-1.766 l 0,-7.174 c 0,-2.195 0.771,-4.35 4.949,-4.35 4.625,0 5.363,1.787 5.363,4.35 l 0,7.174 c 0,1.617 -1.058,1.766 -2.794,1.766 l 0,0.432 4.67,0 L 0,0"
             style="fill:#3674c3;fill-opacity:1;fill-rule:nonzero;stroke:none"
             id="path3591" />
        </g>
        <g
           id="g3593"
           transform="translate(114.8804,847.0425)">
          <path
             inkscape:connector-curvature="0"
             d="m 0,0 c -7.035,0 -7.935,4.287 -7.935,7.067 0,2.217 0.418,5.904 5.591,5.904 3.982,0 5.267,-1.94 5.686,-3.147 l 0.802,0 -0.288,3.383 c -1.415,0.259 -3.6,0.602 -6.169,0.602 -6.875,0 -8.803,-2.931 -8.803,-6.916 0,-4.587 3.085,-7.863 9.51,-7.863 1.865,0 3.373,0.12 4.696,0.362 l 0,0.894 C 2.352,0.135 1.382,0 0,0"
             style="fill:#3674c3;fill-opacity:1;fill-rule:nonzero;stroke:none"
             id="path3595" />
        </g>
        <g
           id="g3597"
           transform="translate(129.5574,854.0227)">
          <path
             inkscape:connector-curvature="0"
             d="m 0,0 c -2.935,1.099 -6.948,1.723 -6.948,3.641 0,1.422 1.991,2.35 4.25,2.35 3.609,0 4.958,-1.337 5.262,-2.479 l 0.843,0 -0.236,2.952 c -1.518,0.193 -2.968,0.364 -5.227,0.364 -4.252,0 -7.591,-1.053 -7.591,-3.641 0,-1.377 0.709,-2.153 2.193,-2.885 3.136,-1.53 8.736,-2.241 8.736,-4.567 0,-1.487 -1.923,-2.715 -4.89,-2.715 -0.314,0 -0.612,0.01 -0.897,0.03 -0.893,-0.03 -2.892,0.169 -4.432,0.39 l 0,-1.059 c 1.194,-0.127 3.242,-0.331 5.059,-0.331 4.62,0 8.332,1.293 8.332,4.03 0,2.047 -1.79,2.93 -4.454,3.92"
             style="fill:#3674c3;fill-opacity:1;fill-rule:nonzero;stroke:none"
             id="path3599" />
        </g>
        <g
           id="g3601"
           transform="translate(167.9972,846.9858)">
          <path
             inkscape:connector-curvature="0"
             d="m 0,0 c -1.012,-0.322 -2.651,-0.817 -5.717,-0.817 -6.463,0 -8.786,2.816 -8.786,7.653 0,3.915 1.667,7.095 8.309,7.095 2.649,0 4.586,-0.322 5.955,-0.644 l 0.179,-3.591 -0.864,0 c -0.118,1.096 -1.756,3.203 -4.972,3.203 -4.379,0 -5.093,-3.375 -5.093,-6.063 0,-3.397 1.639,-6.45 5.778,-6.45 2.828,0 4.287,0.646 5.211,1.098 L 0,0"
             style="fill:#211d1d;fill-opacity:1;fill-rule:nonzero;stroke:none"
             id="path3603" />
        </g>
        <g
           id="g3605"
           transform="translate(180.8623,857.1976)">
          <path
             inkscape:connector-curvature="0"
             d="m 0,0 c -0.238,1.16 -1.013,2.687 -4.169,2.687 -2.412,0 -3.752,-0.881 -3.752,-1.999 0,-2.106 5.062,-3.095 7.295,-4.344 1.459,-0.816 2.502,-1.763 2.502,-3.224 0,-3.031 -3.245,-4.149 -7.772,-4.149 -2.353,0 -4.289,0.387 -5.301,0.58 l -0.179,3.547 0.863,0 c 0.358,-1.096 1.043,-3.095 4.943,-3.095 2.593,0 4.051,1.011 4.051,2.321 0,2.108 -3.484,2.881 -6.223,4.149 -1.787,0.84 -3.246,1.873 -3.246,3.591 0,2.322 2.471,3.656 6.819,3.656 1.994,0 3.96,-0.278 4.852,-0.388 L 0.864,0 0,0"
             style="fill:#211d1d;fill-opacity:1;fill-rule:nonzero;stroke:none"
             id="path3607" />
        </g>
        <g
           id="g3609"
           transform="translate(182.7973,846.9202)">
          <path
             inkscape:connector-curvature="0"
             d="m 0,0 c 2.085,0 2.532,0.323 2.532,1.999 l 0,9.247 c 0,1.675 -0.447,1.999 -2.532,1.999 l 0,0.539 14.027,0 0.178,-3.118 -0.864,0 c -0.118,1.159 -0.504,2.128 -3.841,2.128 l -1.907,0 c -1.458,0 -1.786,-0.346 -1.786,-1.548 l 0,-3.806 3.903,0 c 1.935,0 2.232,0.301 2.232,1.72 l 0.805,0 0,-4.451 -0.805,0 c 0,1.288 -0.297,1.742 -2.232,1.742 l -3.903,0 0,-4.452 c 0,-1.44 0.238,-1.548 1.786,-1.548 l 2.742,0 c 2.56,0 3.395,0.775 3.484,2.129 l 0.863,0 L 14.504,-0.536 0,-0.536 0,0"
             style="fill:#211d1d;fill-opacity:1;fill-rule:nonzero;stroke:none"
             id="path3611" />
        </g>
        <g
           id="g3613"
           transform="translate(88.12,839.8846)">
          <path
             inkscape:connector-curvature="0"
             d="m 0,0 c -0.108,1.223 -0.495,1.738 -1.15,1.738 -0.979,0 -1.408,-0.859 -1.408,-3.276 0,-2.417 0.429,-3.277 1.408,-3.277 0.785,0 1.235,0.538 1.256,1.976 l 0.839,0 C 0.923,-4.557 0.171,-5.524 -1.15,-5.524 c -1.387,0 -2.245,1.054 -2.245,3.986 0,2.935 0.858,3.987 2.245,3.987 C 0,2.449 0.708,1.655 0.837,0 L 0,0"
             style="fill:#211d1d;fill-opacity:1;fill-rule:nonzero;stroke:none"
             id="path3615" />
        </g>
        <g
           id="g3617"
           transform="translate(91.6872,835.0052)">
          <path
             inkscape:connector-curvature="0"
             d="M 0,0 C 0.655,0 0.935,0.41 0.935,2.258 0.935,4.105 0.655,4.512 0,4.512 -0.654,4.512 -0.937,4.105 -0.937,2.258 -0.937,0.41 -0.654,0 0,0 m 0,5.158 c 1.171,0 1.707,-0.882 1.707,-2.9 0,-2.022 -0.536,-2.902 -1.707,-2.902 -1.172,0 -1.709,0.88 -1.709,2.902 0,2.018 0.537,2.9 1.709,2.9"
             style="fill:#211d1d;fill-opacity:1;fill-rule:nonzero;stroke:none"
             id="path3619" />
        </g>
        <g
           id="g3621"
           transform="translate(94.6406,834.4698)">
          <path
             inkscape:connector-curvature="0"
             d="m 0,0 0,5.586 0.709,0 0,-0.613 c 0.301,0.355 0.764,0.72 1.299,0.72 0.442,0 0.861,-0.289 1.001,-0.709 0.311,0.344 0.751,0.709 1.3,0.709 0.73,0 1.127,-0.495 1.127,-1.288 l 0,-4.405 -0.773,0 0,4.297 c 0,0.579 -0.171,0.75 -0.58,0.75 -0.472,0 -0.741,-0.333 -0.978,-0.578 l 0,-4.469 -0.774,0 0,4.297 c 0,0.579 -0.203,0.75 -0.612,0.75 -0.472,0 -0.741,-0.333 -0.945,-0.578 L 0.774,0 0,0"
             style="fill:#211d1d;fill-opacity:1;fill-rule:nonzero;stroke:none"
             id="path3623" />
        </g>
        <g
           id="g3625"
           transform="translate(102.56,835.5)">
          <path
             inkscape:connector-curvature="0"
             d="m 0,0 c 0.226,-0.227 0.494,-0.495 0.838,-0.495 0.655,0 1.031,0.538 1.031,2.257 0,1.719 -0.407,2.255 -1.053,2.255 C 0.58,4.017 0.236,3.803 0,3.481 L 0,0 z m -0.129,4.017 0.022,0 c 0.257,0.399 0.643,0.645 1.137,0.645 0.882,0 1.611,-0.751 1.611,-2.9 0,-2.148 -0.729,-2.901 -1.611,-2.901 -0.419,0 -0.773,0.259 -1.03,0.516 l 0,-2.234 -0.774,0 0,7.413 0.645,0 0,-0.539"
             style="fill:#211d1d;fill-opacity:1;fill-rule:nonzero;stroke:none"
             id="path3627" />
        </g>
        <g
           id="g3629"
           transform="translate(109.7156,834.4698)">
          <path
             inkscape:connector-curvature="0"
             d="m 0,0 -0.73,0 0,0.612 c -0.366,-0.377 -0.903,-0.721 -1.268,-0.721 -0.774,0 -1.226,0.431 -1.226,1.461 l 0,4.234 0.774,0 0,-4.126 c 0,-0.645 0.193,-0.925 0.612,-0.925 0.376,0 0.719,0.259 1.065,0.688 l 0,4.363 L 0,5.586 0,0"
             style="fill:#211d1d;fill-opacity:1;fill-rule:nonzero;stroke:none"
             id="path3631" />
        </g>
        <g
           id="g3633"
           transform="translate(110.5751,840.0552)">
          <path
             inkscape:connector-curvature="0"
             d="m 0,0 0.751,0 0,1.87 0.774,0 0,-1.87 1.031,0 0,-0.644 -1.031,0 0,-3.912 c 0,-0.32 0.171,-0.557 0.558,-0.557 0.151,0 0.345,0.063 0.473,0.106 l 0,-0.579 C 2.343,-5.652 2.147,-5.695 1.825,-5.695 c -0.73,0 -1.074,0.344 -1.074,1.204 l 0,3.847 L 0,-0.644 0,0"
             style="fill:#211d1d;fill-opacity:1;fill-rule:nonzero;stroke:none"
             id="path3635" />
        </g>
        <g
           id="g3637"
           transform="translate(116.4948,837.7783)">
          <path
             inkscape:connector-curvature="0"
             d="M 0,0 C -0.022,1.202 -0.237,1.738 -0.935,1.738 -1.493,1.738 -1.858,1.332 -1.87,0 L 0,0 z m -1.87,-0.644 0,-0.312 c 0,-1.365 0.313,-1.817 1.041,-1.817 0.592,0 0.839,0.548 0.936,1.056 L 0.838,-1.806 C 0.72,-2.643 0.086,-3.418 -0.935,-3.418 c -1.171,0 -1.707,0.881 -1.707,2.902 0,2.019 0.536,2.901 1.707,2.901 1.181,0 1.709,-1.053 1.709,-2.663 l 0,-0.366 -2.644,0"
             style="fill:#211d1d;fill-opacity:1;fill-rule:nonzero;stroke:none"
             id="path3639" />
        </g>
        <g
           id="g3641"
           transform="translate(118.3655,840.0552)">
          <path
             inkscape:connector-curvature="0"
             d="m 0,0 0.771,0 0,-0.678 0.022,0 C 1.255,0 1.6,0.108 2.213,0.108 l 0,-0.731 c -0.582,0 -1.021,-0.193 -1.442,-0.989 l 0,-3.974 L 0,-5.586 0,0"
             style="fill:#211d1d;fill-opacity:1;fill-rule:nonzero;stroke:none"
             id="path3643" />
        </g>
        <g
           id="g3645"
           transform="translate(126.5088,840.227)">
          <path
             inkscape:connector-curvature="0"
             d="m 0,0 c -0.065,0.795 -0.388,1.397 -1.194,1.397 -0.644,0 -1.063,-0.428 -1.063,-1.021 0,-1.75 3.116,-1.773 3.116,-4.266 0,-1.234 -0.709,-1.976 -1.988,-1.976 -1.214,0 -1.945,0.892 -1.965,2.193 l 0.772,0 c 0.022,-0.915 0.454,-1.485 1.279,-1.485 0.698,0 1.149,0.454 1.149,1.279 0,1.763 -3.115,1.967 -3.115,4.18 0,1.096 0.752,1.805 1.87,1.805 1.118,0 1.847,-0.751 1.913,-2.106 L 0,0"
             style="fill:#211d1d;fill-opacity:1;fill-rule:nonzero;stroke:none"
             id="path3647" />
        </g>
        <g
           id="g3649"
           transform="translate(130.7633,838.4016)">
          <path
             inkscape:connector-curvature="0"
             d="m 0,0 c -0.075,0.837 -0.409,1.116 -0.882,1.116 -0.654,0 -0.935,-0.408 -0.935,-2.255 0,-1.848 0.281,-2.258 0.935,-2.258 0.495,0 0.774,0.259 0.902,1.226 l 0.753,0 c -0.129,-1.096 -0.644,-1.87 -1.655,-1.87 -1.171,0 -1.707,0.881 -1.707,2.902 0,2.018 0.536,2.9 1.707,2.9 C 0.129,1.761 0.601,1.096 0.752,0 L 0,0"
             style="fill:#211d1d;fill-opacity:1;fill-rule:nonzero;stroke:none"
             id="path3651" />
        </g>
        <path
           inkscape:connector-curvature="0"
           d="m 132.783,840.055 0.773,0 0,-5.586 -0.773,0 0,5.586 z m 0,2.171 0.773,0 0,-0.901 -0.773,0 0,0.901 z"
           style="fill:#211d1d;fill-opacity:1;fill-rule:nonzero;stroke:none"
           id="path3653" />
        <g
           id="g3655"
           transform="translate(137.3807,837.7783)">
          <path
             inkscape:connector-curvature="0"
             d="M 0,0 C -0.02,1.202 -0.236,1.738 -0.934,1.738 -1.495,1.738 -1.859,1.332 -1.869,0 L 0,0 z m -1.869,-0.644 0,-0.312 c 0,-1.365 0.312,-1.817 1.043,-1.817 0.59,0 0.837,0.548 0.935,1.056 l 0.73,-0.089 C 0.72,-2.643 0.086,-3.418 -0.934,-3.418 c -1.171,0 -1.708,0.881 -1.708,2.902 0,2.019 0.537,2.901 1.708,2.901 1.183,0 1.707,-1.053 1.707,-2.663 l 0,-0.366 -2.642,0"
             style="fill:#211d1d;fill-opacity:1;fill-rule:nonzero;stroke:none"
             id="path3657" />
        </g>
        <g
           id="g3659"
           transform="translate(139.3158,840.0552)">
          <path
             inkscape:connector-curvature="0"
             d="m 0,0 0.731,0 0,-0.612 c 0.364,0.375 0.901,0.72 1.265,0.72 0.774,0 1.227,-0.43 1.227,-1.461 l 0,-4.233 -0.774,0 0,4.125 c 0,0.645 -0.193,0.922 -0.614,0.922 -0.374,0 -0.718,-0.255 -1.062,-0.686 l 0,-4.361 L 0,-5.586 0,0"
             style="fill:#211d1d;fill-opacity:1;fill-rule:nonzero;stroke:none"
             id="path3661" />
        </g>
        <g
           id="g3663"
           transform="translate(146.2769,838.4016)">
          <path
             inkscape:connector-curvature="0"
             d="m 0,0 c -0.074,0.837 -0.408,1.116 -0.881,1.116 -0.656,0 -0.933,-0.408 -0.933,-2.255 0,-1.848 0.277,-2.258 0.933,-2.258 0.494,0 0.773,0.259 0.902,1.226 l 0.753,0 c -0.129,-1.096 -0.644,-1.87 -1.655,-1.87 -1.171,0 -1.707,0.881 -1.707,2.902 0,2.018 0.536,2.9 1.707,2.9 C 0.13,1.761 0.601,1.096 0.752,0 L 0,0"
             style="fill:#211d1d;fill-opacity:1;fill-rule:nonzero;stroke:none"
             id="path3665" />
        </g>
        <g
           id="g3667"
           transform="translate(150.5106,837.7783)">
          <path
             inkscape:connector-curvature="0"
             d="M 0,0 C -0.021,1.202 -0.236,1.738 -0.935,1.738 -1.493,1.738 -1.859,1.332 -1.87,0 L 0,0 z m -1.87,-0.644 0,-0.312 c 0,-1.365 0.313,-1.817 1.042,-1.817 0.592,0 0.838,0.548 0.935,1.056 L 0.839,-1.806 C 0.72,-2.643 0.086,-3.418 -0.935,-3.418 c -1.17,0 -1.707,0.881 -1.707,2.902 0,2.019 0.537,2.901 1.707,2.901 1.181,0 1.708,-1.053 1.708,-2.663 l 0,-0.366 -2.643,0"
             style="fill:#211d1d;fill-opacity:1;fill-rule:nonzero;stroke:none"
             id="path3669" />
        </g>
        <g
           id="g3671"
           transform="translate(157.2026,837.4777)">
          <path
             inkscape:connector-curvature="0"
             d="m 0,0 c -0.707,-0.215 -1.857,-0.731 -1.857,-1.611 0,-0.529 0.237,-0.862 0.795,-0.862 0.419,0 0.784,0.291 1.062,0.581 L 0,0 z m -2.479,1.053 c 0.15,0.88 0.665,1.632 1.653,1.632 1.032,0 1.601,-0.601 1.601,-1.591 l 0,-3.114 c 0,-0.495 0.053,-0.861 0.141,-0.988 l -0.806,0 -0.097,0.472 c -0.302,-0.3 -0.839,-0.581 -1.193,-0.581 -0.871,0 -1.45,0.559 -1.45,1.439 0,1.376 1.514,2.075 2.63,2.322 l 0,0.397 c 0,0.612 -0.312,0.998 -0.806,0.998 -0.591,0 -0.88,-0.589 -0.964,-1.094 l -0.709,0.108"
             style="fill:#211d1d;fill-opacity:1;fill-rule:nonzero;stroke:none"
             id="path3673" />
        </g>
        <g
           id="g3675"
           transform="translate(159.5992,840.0552)">
          <path
             inkscape:connector-curvature="0"
             d="m 0,0 0.73,0 0,-0.612 c 0.366,0.375 0.903,0.72 1.27,0.72 0.773,0 1.224,-0.43 1.224,-1.461 l 0,-4.233 -0.773,0 0,4.125 c 0,0.645 -0.194,0.922 -0.614,0.922 -0.375,0 -0.718,-0.255 -1.062,-0.686 l 0,-4.361 L 0,-5.586 0,0"
             style="fill:#211d1d;fill-opacity:1;fill-rule:nonzero;stroke:none"
             id="path3677" />
        </g>
        <g
           id="g3679"
           transform="translate(166.7549,839.0237)">
          <path
             inkscape:connector-curvature="0"
             d="m 0,0 c -0.224,0.227 -0.494,0.493 -0.838,0.493 -0.655,0 -1.03,-0.536 -1.03,-2.254 0,-1.72 0.407,-2.257 1.053,-2.257 0.237,0 0.579,0.215 0.815,0.537 L 0,0 z m 0.139,-4.018 -0.019,0 c -0.27,-0.398 -0.656,-0.645 -1.151,-0.645 -0.88,0 -1.61,0.754 -1.61,2.902 0,2.149 0.73,2.9 1.61,2.9 0.421,0 0.774,-0.257 1.031,-0.516 l 0,2.579 0.774,0 0,-6.253 c 0,-0.731 0.042,-1.181 0.129,-1.503 l -0.73,0 -0.034,0.536"
             style="fill:#211d1d;fill-opacity:1;fill-rule:nonzero;stroke:none"
             id="path3681" />
        </g>
        <g
           id="g3683"
           transform="translate(175.0069,842.2258)">
          <path
             inkscape:connector-curvature="0"
             d="m 0,0 0,-0.708 -2.708,0 0,-2.644 2,0 0,-0.71 -2,0 0,-2.985 2.836,0 0,-0.709 -3.673,0 0,7.756 L 0,0 z"
             style="fill:#211d1d;fill-opacity:1;fill-rule:nonzero;stroke:none"
             id="path3685" />
        </g>
        <g
           id="g3687"
           transform="translate(176.2972,840.0552)">
          <path
             inkscape:connector-curvature="0"
             d="m 0,0 0.729,0 0,-0.612 c 0.367,0.375 0.902,0.72 1.267,0.72 0.775,0 1.226,-0.43 1.226,-1.461 l 0,-4.233 -0.773,0 0,4.125 c 0,0.645 -0.195,0.922 -0.612,0.922 -0.376,0 -0.721,-0.255 -1.064,-0.686 l 0,-4.361 L 0,-5.586 0,0"
             style="fill:#211d1d;fill-opacity:1;fill-rule:nonzero;stroke:none"
             id="path3689" />
        </g>
        <g
           id="g3691"
           transform="translate(182.612,836.769)">
          <path
             inkscape:connector-curvature="0"
             d="M 0,0 C 0.453,0 0.818,0.344 0.818,1.406 0.818,2.47 0.453,2.813 0,2.813 -0.451,2.813 -0.814,2.47 -0.814,1.406 -0.814,0.344 -0.451,0 0,0 m -0.342,-1.999 c -0.451,-0.194 -0.754,-0.452 -0.754,-0.764 0,-0.46 0.389,-0.784 1.226,-0.784 0.858,0 1.161,0.343 1.161,0.795 0,0.515 -0.967,0.602 -1.633,0.753 M 2.063,2.685 C 1.979,2.704 1.913,2.704 1.838,2.704 1.635,2.704 1.495,2.622 1.356,2.493 1.464,2.148 1.527,1.867 1.527,1.416 c 0,-1.396 -0.645,-1.997 -1.503,-1.997 -0.174,0 -0.344,0.043 -0.516,0.043 C -0.62,-0.57 -0.88,-0.687 -0.88,-0.903 -0.88,-1.3 -0.246,-1.324 0.474,-1.474 1.279,-1.645 2,-1.902 2,-2.816 c 0,-0.731 -0.709,-1.31 -1.891,-1.31 -1.268,0 -1.913,0.47 -1.913,1.202 0,0.493 0.311,0.903 0.817,1.118 -0.333,0.107 -0.601,0.374 -0.601,0.752 0,0.418 0.365,0.676 0.73,0.742 -0.44,0.312 -0.666,1.02 -0.666,1.6 0,1.334 0.644,2.106 1.622,2.106 0.367,0 0.837,-0.161 1.022,-0.516 0.171,0.302 0.47,0.516 0.943,0.516 l 0,-0.709"
             style="fill:#211d1d;fill-opacity:1;fill-rule:nonzero;stroke:none"
             id="path3693" />
        </g>
        <path
           inkscape:connector-curvature="0"
           d="m 185.868,840.055 0.773,0 0,-5.586 -0.773,0 0,5.586 z m 0,2.171 0.773,0 0,-0.901 -0.773,0 0,0.901 z"
           style="fill:#211d1d;fill-opacity:1;fill-rule:nonzero;stroke:none"
           id="path3695" />
        <g
           id="g3697"
           transform="translate(188.2226,840.0552)">
          <path
             inkscape:connector-curvature="0"
             d="m 0,0 0.731,0 0,-0.612 c 0.364,0.375 0.901,0.72 1.266,0.72 0.774,0 1.226,-0.43 1.226,-1.461 l 0,-4.233 -0.774,0 0,4.125 c 0,0.645 -0.192,0.922 -0.612,0.922 -0.376,0 -0.72,-0.255 -1.064,-0.686 l 0,-4.361 L 0,-5.586 0,0"
             style="fill:#211d1d;fill-opacity:1;fill-rule:nonzero;stroke:none"
             id="path3699" />
        </g>
        <g
           id="g3701"
           transform="translate(195.238,837.7783)">
          <path
             inkscape:connector-curvature="0"
             d="M 0,0 C -0.022,1.202 -0.238,1.738 -0.935,1.738 -1.493,1.738 -1.859,1.332 -1.868,0 L 0,0 z m -1.868,-0.644 0,-0.312 c 0,-1.365 0.309,-1.817 1.041,-1.817 0.589,0 0.838,0.548 0.934,1.056 l 0.73,-0.089 C 0.72,-2.643 0.086,-3.418 -0.935,-3.418 c -1.171,0 -1.707,0.881 -1.707,2.902 0,2.019 0.536,2.901 1.707,2.901 1.182,0 1.708,-1.053 1.708,-2.663 l 0,-0.366 -2.641,0"
             style="fill:#211d1d;fill-opacity:1;fill-rule:nonzero;stroke:none"
             id="path3703" />
        </g>
        <g
           id="g3705"
           transform="translate(199.4173,837.7783)">
          <path
             inkscape:connector-curvature="0"
             d="M 0,0 C -0.023,1.202 -0.236,1.738 -0.935,1.738 -1.493,1.738 -1.859,1.332 -1.869,0 L 0,0 z m -1.869,-0.644 0,-0.312 c 0,-1.365 0.31,-1.817 1.041,-1.817 0.592,0 0.837,0.548 0.935,1.056 l 0.73,-0.089 c -0.117,-0.837 -0.75,-1.612 -1.772,-1.612 -1.172,0 -1.708,0.881 -1.708,2.902 0,2.019 0.536,2.901 1.708,2.901 1.181,0 1.709,-1.053 1.709,-2.663 l 0,-0.366 -2.643,0"
             style="fill:#211d1d;fill-opacity:1;fill-rule:nonzero;stroke:none"
             id="path3707" />
        </g>
        <g
           id="g3709"
           transform="translate(201.2858,840.0552)">
          <path
             inkscape:connector-curvature="0"
             d="m 0,0 0.774,0 0,-0.678 0.021,0 C 1.26,0 1.601,0.108 2.215,0.108 l 0,-0.731 c -0.582,0 -1.023,-0.193 -1.441,-0.989 l 0,-3.974 L 0,-5.586 0,0"
             style="fill:#211d1d;fill-opacity:1;fill-rule:nonzero;stroke:none"
             id="path3711" />
        </g>
        <path
           inkscape:connector-curvature="0"
           d="m 204.371,840.055 0.773,0 0,-5.586 -0.773,0 0,5.586 z m 0,2.171 0.773,0 0,-0.901 -0.773,0 0,0.901 z"
           style="fill:#211d1d;fill-opacity:1;fill-rule:nonzero;stroke:none"
           id="path3713" />
        <g
           id="g3715"
           transform="translate(206.7233,840.0552)">
          <path
             inkscape:connector-curvature="0"
             d="m 0,0 0.73,0 0,-0.612 c 0.366,0.375 0.902,0.72 1.269,0.72 0.772,0 1.225,-0.43 1.225,-1.461 l 0,-4.233 -0.773,0 0,4.125 c 0,0.645 -0.194,0.922 -0.614,0.922 -0.375,0 -0.721,-0.255 -1.064,-0.686 l 0,-4.361 L 0,-5.586 0,0"
             style="fill:#211d1d;fill-opacity:1;fill-rule:nonzero;stroke:none"
             id="path3717" />
        </g>
        <g
           id="g3719"
           transform="translate(213.0402,836.769)">
          <path
             inkscape:connector-curvature="0"
             d="M 0,0 C 0.451,0 0.816,0.344 0.816,1.406 0.816,2.47 0.451,2.813 0,2.813 -0.451,2.813 -0.816,2.47 -0.816,1.406 -0.816,0.344 -0.451,0 0,0 m -0.344,-1.999 c -0.451,-0.194 -0.752,-0.452 -0.752,-0.764 0,-0.46 0.389,-0.784 1.225,-0.784 0.86,0 1.162,0.343 1.162,0.795 0,0.515 -0.969,0.602 -1.635,0.753 M 2.064,2.685 C 1.977,2.704 1.913,2.704 1.838,2.704 1.634,2.704 1.494,2.622 1.354,2.493 1.463,2.148 1.527,1.867 1.527,1.416 c 0,-1.396 -0.646,-1.997 -1.506,-1.997 -0.171,0 -0.342,0.043 -0.516,0.043 -0.127,-0.032 -0.385,-0.149 -0.385,-0.365 0,-0.397 0.633,-0.421 1.353,-0.571 0.805,-0.171 1.525,-0.428 1.525,-1.342 0,-0.731 -0.707,-1.31 -1.891,-1.31 -1.266,0 -1.912,0.47 -1.912,1.202 0,0.493 0.311,0.903 0.817,1.118 -0.334,0.107 -0.602,0.374 -0.602,0.752 0,0.418 0.366,0.676 0.731,0.742 -0.442,0.312 -0.666,1.02 -0.666,1.6 0,1.334 0.645,2.106 1.622,2.106 0.368,0 0.838,-0.161 1.021,-0.516 0.173,0.302 0.472,0.516 0.946,0.516 l 0,-0.709"
             style="fill:#211d1d;fill-opacity:1;fill-rule:nonzero;stroke:none"
             id="path3721" />
        </g>
        <g
           id="g3723"
           transform="translate(72.7169,845.5357)">
          <path
             inkscape:connector-curvature="0"
             d="m 0,0 c -6.721,-10.266 -18.26,-13.165 -26.916,-12.356 -6.16,-0.408 -14.524,3.883 -20.105,11.364 l 0,-11.723 47.021,0 L 0,0 z"
             style="fill:#100f0d;fill-opacity:1;fill-rule:nonzero;stroke:none"
             id="path3725" />
        </g>
      </g>
    </g>
    <g
       transform="matrix(1.25,0,0,-1.25,257.58089,1596.4524)"
       id="g3727">
      <g
         id="g3729"
         clip-path="url(#clipPath3731)">
        <path
           inkscape:connector-curvature="0"
           d="m 13.335,896.514 64.488,0 0,-64.209 -64.488,0 0,64.209 z"
           style="fill:#346fc0;fill-opacity:1;fill-rule:nonzero;stroke:none"
           id="path3735" />
        <g
           id="g3737"
           transform="translate(77.7939,862.5524)">
          <path
             inkscape:connector-curvature="0"
             d="m 0,0 c 0,16.147 -12.945,29.238 -28.915,29.238 -15.97,0 -28.916,-13.091 -28.916,-29.238 0,-16.147 12.946,-29.239 28.916,-29.239 C -12.945,-29.239 0,-16.147 0,0"
             style="fill:#346fc0;fill-opacity:1;fill-rule:nonzero;stroke:none"
             id="path3739" />
        </g>
        <g
           id="g3741"
           transform="translate(77.5628,862.5524)">
          <path
             inkscape:connector-curvature="0"
             d="m 0,0 c 0,16.018 -12.842,29.004 -28.684,29.004 -15.842,0 -28.684,-12.986 -28.684,-29.004 0,-16.018 12.842,-29.004 28.684,-29.004 C -12.842,-29.004 0,-16.018 0,0"
             style="fill:#3470c1;fill-opacity:1;fill-rule:nonzero;stroke:none"
             id="path3743" />
        </g>
        <g
           id="g3745"
           transform="translate(77.3316,862.5524)">
          <path
             inkscape:connector-curvature="0"
             d="m 0,0 c 0,15.89 -12.739,28.77 -28.453,28.77 -15.714,0 -28.453,-12.88 -28.453,-28.77 0,-15.891 12.739,-28.77 28.453,-28.77 C -12.739,-28.77 0,-15.891 0,0"
             style="fill:#3571c1;fill-opacity:1;fill-rule:nonzero;stroke:none"
             id="path3747" />
        </g>
        <g
           id="g3749"
           transform="translate(77.0999,862.5524)">
          <path
             inkscape:connector-curvature="0"
             d="M 0,0 C 0,15.76 -12.635,28.535 -28.222,28.535 -43.807,28.535 -56.443,15.76 -56.443,0 c 0,-15.76 12.636,-28.536 28.221,-28.536 C -12.635,-28.536 0,-15.76 0,0"
             style="fill:#3572c1;fill-opacity:1;fill-rule:nonzero;stroke:none"
             id="path3751" />
        </g>
        <g
           id="g3753"
           transform="translate(76.8689,862.5524)">
          <path
             inkscape:connector-curvature="0"
             d="m 0,0 c 0,15.631 -12.532,28.301 -27.99,28.301 -15.459,0 -27.991,-12.67 -27.991,-28.301 0,-15.632 12.532,-28.303 27.991,-28.303 C -12.532,-28.303 0,-15.632 0,0"
             style="fill:#3673c2;fill-opacity:1;fill-rule:nonzero;stroke:none"
             id="path3755" />
        </g>
        <g
           id="g3757"
           transform="translate(76.6375,862.5524)">
          <path
             inkscape:connector-curvature="0"
             d="m 0,0 c 0,15.502 -12.428,28.068 -27.759,28.068 -15.331,0 -27.76,-12.566 -27.76,-28.068 0,-15.502 12.429,-28.069 27.76,-28.069 C -12.428,-28.069 0,-15.502 0,0"
             style="fill:#3674c3;fill-opacity:1;fill-rule:nonzero;stroke:none"
             id="path3759" />
        </g>
        <g
           id="g3761"
           transform="translate(76.4063,862.5524)">
          <path
             inkscape:connector-curvature="0"
             d="M 0,0 C 0,15.372 -12.324,27.834 -27.527,27.834 -42.73,27.834 -55.056,15.372 -55.056,0 c 0,-15.373 12.326,-27.834 27.529,-27.834 C -12.324,-27.834 0,-15.373 0,0"
             style="fill:#3775c4;fill-opacity:1;fill-rule:nonzero;stroke:none"
             id="path3763" />
        </g>
        <g
           id="g3765"
           transform="translate(76.1753,862.5524)">
          <path
             inkscape:connector-curvature="0"
             d="m 0,0 c 0,15.242 -12.221,27.6 -27.296,27.6 -15.076,0 -27.297,-12.358 -27.297,-27.6 0,-15.244 12.221,-27.6 27.297,-27.6 C -12.221,-27.6 0,-15.244 0,0"
             style="fill:#3775c4;fill-opacity:1;fill-rule:nonzero;stroke:none"
             id="path3767" />
        </g>
        <g
           id="g3769"
           transform="translate(75.9436,862.5524)">
          <path
             inkscape:connector-curvature="0"
             d="M 0,0 C 0,15.114 -12.117,27.366 -27.065,27.366 -42.012,27.366 -54.13,15.114 -54.13,0 c 0,-15.114 12.118,-27.366 27.065,-27.366 C -12.117,-27.366 0,-15.114 0,0"
             style="fill:#3776c4;fill-opacity:1;fill-rule:nonzero;stroke:none"
             id="path3771" />
        </g>
        <g
           id="g3773"
           transform="translate(75.7126,862.5524)">
          <path
             inkscape:connector-curvature="0"
             d="m 0,0 c 0,14.984 -12.014,27.133 -26.834,27.133 -14.82,0 -26.834,-12.149 -26.834,-27.133 0,-14.985 12.014,-27.134 26.834,-27.134 C -12.014,-27.134 0,-14.985 0,0"
             style="fill:#3877c5;fill-opacity:1;fill-rule:nonzero;stroke:none"
             id="path3775" />
        </g>
        <g
           id="g3777"
           transform="translate(75.4813,862.5524)">
          <path
             inkscape:connector-curvature="0"
             d="m 0,0 c 0,14.856 -11.91,26.898 -26.602,26.898 -14.693,0 -26.603,-12.042 -26.603,-26.898 0,-14.856 11.91,-26.899 26.603,-26.899 C -11.91,-26.899 0,-14.856 0,0"
             style="fill:#3878c6;fill-opacity:1;fill-rule:nonzero;stroke:none"
             id="path3779" />
        </g>
        <g
           id="g3781"
           transform="translate(75.25,862.5524)">
          <path
             inkscape:connector-curvature="0"
             d="m 0,0 c 0,14.726 -11.808,26.665 -26.371,26.665 -14.564,0 -26.372,-11.939 -26.372,-26.665 0,-14.727 11.808,-26.665 26.372,-26.665 C -11.808,-26.665 0,-14.727 0,0"
             style="fill:#3878c6;fill-opacity:1;fill-rule:nonzero;stroke:none"
             id="path3783" />
        </g>
        <g
           id="g3785"
           transform="translate(75.0186,862.5524)">
          <path
             inkscape:connector-curvature="0"
             d="m 0,0 c 0,14.597 -11.704,26.431 -26.14,26.431 -14.437,0 -26.14,-11.834 -26.14,-26.431 0,-14.598 11.703,-26.431 26.14,-26.431 C -11.704,-26.431 0,-14.598 0,0"
             style="fill:#397ac7;fill-opacity:1;fill-rule:nonzero;stroke:none"
             id="path3787" />
        </g>
        <g
           id="g3789"
           transform="translate(74.7869,862.5524)">
          <path
             inkscape:connector-curvature="0"
             d="m 0,0 c 0,14.468 -11.6,26.198 -25.909,26.198 -14.308,0 -25.908,-11.73 -25.908,-26.198 0,-14.469 11.6,-26.198 25.908,-26.198 C -11.6,-26.198 0,-14.469 0,0"
             style="fill:#397bc7;fill-opacity:1;fill-rule:nonzero;stroke:none"
             id="path3791" />
        </g>
        <g
           id="g3793"
           transform="translate(74.5557,862.5524)">
          <path
             inkscape:connector-curvature="0"
             d="m 0,0 c 0,14.338 -11.496,25.964 -25.677,25.964 -14.181,0 -25.677,-11.626 -25.677,-25.964 0,-14.339 11.496,-25.964 25.677,-25.964 C -11.496,-25.964 0,-14.339 0,0"
             style="fill:#3a7cc8;fill-opacity:1;fill-rule:nonzero;stroke:none"
             id="path3795" />
        </g>
        <g
           id="g3797"
           transform="translate(74.324,862.5524)">
          <path
             inkscape:connector-curvature="0"
             d="M 0,0 C 0,14.21 -11.392,25.729 -25.445,25.729 -39.499,25.729 -50.892,14.21 -50.892,0 c 0,-14.21 11.393,-25.73 25.447,-25.73 C -11.392,-25.73 0,-14.21 0,0"
             style="fill:#3a7cc8;fill-opacity:1;fill-rule:nonzero;stroke:none"
             id="path3799" />
        </g>
        <g
           id="g3801"
           transform="translate(74.093,862.5524)">
          <path
             inkscape:connector-curvature="0"
             d="M 0,0 C 0,14.08 -11.289,25.495 -25.215,25.495 -39.14,25.495 -50.429,14.08 -50.429,0 c 0,-14.081 11.289,-25.495 25.214,-25.495 C -11.289,-25.495 0,-14.081 0,0"
             style="fill:#3b7dc9;fill-opacity:1;fill-rule:nonzero;stroke:none"
             id="path3803" />
        </g>
        <g
           id="g3805"
           transform="translate(73.8616,862.5524)">
          <path
             inkscape:connector-curvature="0"
             d="M 0,0 C 0,13.95 -11.185,25.261 -24.983,25.261 -38.781,25.261 -49.966,13.95 -49.966,0 c 0,-13.951 11.185,-25.261 24.983,-25.261 C -11.185,-25.261 0,-13.951 0,0"
             style="fill:#3b7ec9;fill-opacity:1;fill-rule:nonzero;stroke:none"
             id="path3807" />
        </g>
        <g
           id="g3809"
           transform="translate(73.6304,862.5524)">
          <path
             inkscape:connector-curvature="0"
             d="m 0,0 c 0,13.823 -11.081,25.027 -24.752,25.027 -13.67,0 -24.751,-11.204 -24.751,-25.027 0,-13.823 11.081,-25.028 24.751,-25.028 C -11.081,-25.028 0,-13.823 0,0"
             style="fill:#3c7fca;fill-opacity:1;fill-rule:nonzero;stroke:none"
             id="path3811" />
        </g>
        <g
           id="g3813"
           transform="translate(73.3994,862.5524)">
          <path
             inkscape:connector-curvature="0"
             d="m 0,0 c 0,13.693 -10.978,24.793 -24.521,24.793 -13.542,0 -24.52,-11.1 -24.52,-24.793 0,-13.694 10.978,-24.794 24.52,-24.794 C -10.978,-24.794 0,-13.694 0,0"
             style="fill:#3c7fca;fill-opacity:1;fill-rule:nonzero;stroke:none"
             id="path3815" />
        </g>
        <g
           id="g3817"
           transform="translate(73.1677,862.5524)">
          <path
             inkscape:connector-curvature="0"
             d="m 0,0 c 0,13.564 -10.875,24.559 -24.289,24.559 -13.414,0 -24.289,-10.995 -24.289,-24.559 0,-13.564 10.875,-24.56 24.289,-24.56 C -10.875,-24.56 0,-13.564 0,0"
             style="fill:#3d80cb;fill-opacity:1;fill-rule:nonzero;stroke:none"
             id="path3819" />
        </g>
        <g
           id="g3821"
           transform="translate(72.9367,862.5524)">
          <path
             inkscape:connector-curvature="0"
             d="m 0,0 c 0,13.435 -10.772,24.325 -24.058,24.325 -13.288,0 -24.058,-10.89 -24.058,-24.325 0,-13.436 10.77,-24.326 24.058,-24.326 C -10.772,-24.326 0,-13.436 0,0"
             style="fill:#3d81cb;fill-opacity:1;fill-rule:nonzero;stroke:none"
             id="path3823" />
        </g>
        <g
           id="g3825"
           transform="translate(72.7054,862.5524)">
          <path
             inkscape:connector-curvature="0"
             d="m 0,0 c 0,13.305 -10.669,24.092 -23.827,24.092 -13.159,0 -23.827,-10.787 -23.827,-24.092 0,-13.306 10.668,-24.093 23.827,-24.093 C -10.669,-24.093 0,-13.306 0,0"
             style="fill:#3d82cc;fill-opacity:1;fill-rule:nonzero;stroke:none"
             id="path3827" />
        </g>
        <g
           id="g3829"
           transform="translate(72.4741,862.5524)">
          <path
             inkscape:connector-curvature="0"
             d="M 0,0 C 0,13.176 -10.564,23.858 -23.595,23.858 -36.626,23.858 -47.19,13.176 -47.19,0 c 0,-13.177 10.564,-23.858 23.595,-23.858 C -10.564,-23.858 0,-13.177 0,0"
             style="fill:#3e82cc;fill-opacity:1;fill-rule:nonzero;stroke:none"
             id="path3831" />
        </g>
        <g
           id="g3833"
           transform="translate(72.242,862.5524)">
          <path
             inkscape:connector-curvature="0"
             d="m 0,0 c 0,13.047 -10.46,23.624 -23.363,23.624 -12.905,0 -23.365,-10.577 -23.365,-23.624 0,-13.047 10.46,-23.625 23.365,-23.625 C -10.46,-23.625 0,-13.047 0,0"
             style="fill:#3e83cd;fill-opacity:1;fill-rule:nonzero;stroke:none"
             id="path3835" />
        </g>
        <g
           id="g3837"
           transform="translate(72.0114,862.5524)">
          <path
             inkscape:connector-curvature="0"
             d="m 0,0 c 0,12.918 -10.357,23.39 -23.133,23.39 -12.775,0 -23.132,-10.472 -23.132,-23.39 0,-12.919 10.357,-23.389 23.132,-23.389 C -10.357,-23.389 0,-12.919 0,0"
             style="fill:#3f84cd;fill-opacity:1;fill-rule:nonzero;stroke:none"
             id="path3839" />
        </g>
        <g
           id="g3841"
           transform="translate(71.7798,862.5524)">
          <path
             inkscape:connector-curvature="0"
             d="m 0,0 c 0,12.789 -10.253,23.156 -22.901,23.156 -12.647,0 -22.902,-10.367 -22.902,-23.156 0,-12.79 10.255,-23.157 22.902,-23.157 C -10.253,-23.157 0,-12.79 0,0"
             style="fill:#4085ce;fill-opacity:1;fill-rule:nonzero;stroke:none"
             id="path3843" />
        </g>
        <g
           id="g3845"
           transform="translate(71.5481,862.5524)">
          <path
             inkscape:connector-curvature="0"
             d="M 0,0 C 0,12.66 -10.149,22.923 -22.669,22.923 -35.19,22.923 -45.34,12.66 -45.34,0 c 0,-12.66 10.15,-22.923 22.671,-22.923 C -10.149,-22.923 0,-12.66 0,0"
             style="fill:#4085ce;fill-opacity:1;fill-rule:nonzero;stroke:none"
             id="path3847" />
        </g>
        <g
           id="g3849"
           transform="translate(71.3171,862.5524)">
          <path
             inkscape:connector-curvature="0"
             d="M 0,0 C 0,12.53 -10.046,22.688 -22.438,22.688 -34.831,22.688 -44.877,12.53 -44.877,0 c 0,-12.531 10.046,-22.689 22.439,-22.689 C -10.046,-22.689 0,-12.531 0,0"
             style="fill:#4086cf;fill-opacity:1;fill-rule:nonzero;stroke:none"
             id="path3851" />
        </g>
        <g
           id="g3853"
           transform="translate(71.0857,862.5524)">
          <path
             inkscape:connector-curvature="0"
             d="m 0,0 c 0,12.401 -9.942,22.454 -22.207,22.454 -12.265,0 -22.208,-10.053 -22.208,-22.454 0,-12.401 9.943,-22.454 22.208,-22.454 C -9.942,-22.454 0,-12.401 0,0"
             style="fill:#4187cf;fill-opacity:1;fill-rule:nonzero;stroke:none"
             id="path3855" />
        </g>
        <g
           id="g3857"
           transform="translate(70.8545,862.5524)">
          <path
             inkscape:connector-curvature="0"
             d="m 0,0 c 0,12.272 -9.838,22.22 -21.976,22.22 -12.137,0 -21.976,-9.948 -21.976,-22.22 0,-12.273 9.839,-22.221 21.976,-22.221 C -9.838,-22.221 0,-12.273 0,0"
             style="fill:#4289d0;fill-opacity:1;fill-rule:nonzero;stroke:none"
             id="path3859" />
        </g>
        <g
           id="g3861"
           transform="translate(70.6231,862.5524)">
          <path
             inkscape:connector-curvature="0"
             d="m 0,0 c 0,12.142 -9.736,21.987 -21.745,21.987 -12.009,0 -21.744,-9.845 -21.744,-21.987 0,-12.143 9.735,-21.987 21.744,-21.987 C -9.736,-21.987 0,-12.143 0,0"
             style="fill:#4288d0;fill-opacity:1;fill-rule:nonzero;stroke:none"
             id="path3863" />
        </g>
        <g
           id="g3865"
           transform="translate(70.3918,862.5524)">
          <path
             inkscape:connector-curvature="0"
             d="m 0,0 c 0,12.014 -9.632,21.753 -21.513,21.753 -11.882,0 -21.513,-9.739 -21.513,-21.753 0,-12.014 9.631,-21.753 21.513,-21.753 C -9.632,-21.753 0,-12.014 0,0"
             style="fill:#438ad0;fill-opacity:1;fill-rule:nonzero;stroke:none"
             id="path3867" />
        </g>
        <g
           id="g3869"
           transform="translate(70.1608,862.5524)">
          <path
             inkscape:connector-curvature="0"
             d="m 0,0 c 0,11.884 -9.529,21.519 -21.282,21.519 -11.754,0 -21.282,-9.635 -21.282,-21.519 0,-11.885 9.528,-21.519 21.282,-21.519 C -9.529,-21.519 0,-11.885 0,0"
             style="fill:#438bd1;fill-opacity:1;fill-rule:nonzero;stroke:none"
             id="path3871" />
        </g>
        <g
           id="g3873"
           transform="translate(69.9296,862.5524)">
          <path
             inkscape:connector-curvature="0"
             d="m 0,0 c 0,11.755 -9.425,21.284 -21.051,21.284 -11.626,0 -21.05,-9.529 -21.05,-21.284 0,-11.756 9.424,-21.284 21.05,-21.284 C -9.425,-21.284 0,-11.756 0,0"
             style="fill:#448cd2;fill-opacity:1;fill-rule:nonzero;stroke:none"
             id="path3875" />
        </g>
        <g
           id="g3877"
           transform="translate(69.6982,862.5524)">
          <path
             inkscape:connector-curvature="0"
             d="m 0,0 c 0,11.627 -9.321,21.051 -20.82,21.051 -11.498,0 -20.819,-9.424 -20.819,-21.051 0,-11.627 9.321,-21.052 20.819,-21.052 C -9.321,-21.052 0,-11.627 0,0"
             style="fill:#448cd2;fill-opacity:1;fill-rule:nonzero;stroke:none"
             id="path3879" />
        </g>
        <g
           id="g3881"
           transform="translate(69.4668,862.5524)">
          <path
             inkscape:connector-curvature="0"
             d="m 0,0 c 0,11.497 -9.218,20.817 -20.588,20.817 -11.371,0 -20.588,-9.32 -20.588,-20.817 0,-11.497 9.217,-20.817 20.588,-20.817 C -9.218,-20.817 0,-11.497 0,0"
             style="fill:#458dd2;fill-opacity:1;fill-rule:nonzero;stroke:none"
             id="path3883" />
        </g>
        <g
           id="g3885"
           transform="translate(69.2348,862.5524)">
          <path
             inkscape:connector-curvature="0"
             d="m 0,0 c 0,11.367 -9.113,20.584 -20.356,20.584 -11.243,0 -20.356,-9.217 -20.356,-20.584 0,-11.368 9.113,-20.584 20.356,-20.584 C -9.113,-20.584 0,-11.368 0,0"
             style="fill:#468ed3;fill-opacity:1;fill-rule:nonzero;stroke:none"
             id="path3887" />
        </g>
        <g
           id="g3889"
           transform="translate(69.0039,862.5524)">
          <path
             inkscape:connector-curvature="0"
             d="m 0,0 c 0,11.239 -9.01,20.349 -20.125,20.349 -11.116,0 -20.126,-9.11 -20.126,-20.349 0,-11.239 9.01,-20.349 20.126,-20.349 C -9.01,-20.349 0,-11.239 0,0"
             style="fill:#468fd4;fill-opacity:1;fill-rule:nonzero;stroke:none"
             id="path3891" />
        </g>
        <g
           id="g3893"
           transform="translate(68.7722,862.5524)">
          <path
             inkscape:connector-curvature="0"
             d="m 0,0 c 0,11.109 -8.906,20.115 -19.894,20.115 -10.987,0 -19.894,-9.006 -19.894,-20.115 0,-11.11 8.907,-20.117 19.894,-20.117 C -8.906,-20.117 0,-11.11 0,0"
             style="fill:#478fd3;fill-opacity:1;fill-rule:nonzero;stroke:none"
             id="path3895" />
        </g>
        <g
           id="g3897"
           transform="translate(68.5412,862.5524)">
          <path
             inkscape:connector-curvature="0"
             d="m 0,0 c 0,10.98 -8.802,19.882 -19.663,19.882 -10.858,0 -19.663,-8.902 -19.663,-19.882 0,-10.98 8.805,-19.882 19.663,-19.882 C -8.802,-19.882 0,-10.98 0,0"
             style="fill:#4790d4;fill-opacity:1;fill-rule:nonzero;stroke:none"
             id="path3899" />
        </g>
        <g
           id="g3901"
           transform="translate(68.3099,862.5524)">
          <path
             inkscape:connector-curvature="0"
             d="m 0,0 c 0,10.85 -8.7,19.648 -19.431,19.648 -10.732,0 -19.432,-8.798 -19.432,-19.648 0,-10.852 8.7,-19.649 19.432,-19.649 C -8.7,-19.649 0,-10.852 0,0"
             style="fill:#4891d5;fill-opacity:1;fill-rule:nonzero;stroke:none"
             id="path3903" />
        </g>
        <g
           id="g3905"
           transform="translate(68.0786,862.5524)">
          <path
             inkscape:connector-curvature="0"
             d="m 0,0 c 0,10.722 -8.596,19.414 -19.2,19.414 -10.603,0 -19.2,-8.692 -19.2,-19.414 0,-10.723 8.597,-19.414 19.2,-19.414 C -8.596,-19.414 0,-10.723 0,0"
             style="fill:#4992d5;fill-opacity:1;fill-rule:nonzero;stroke:none"
             id="path3907" />
        </g>
        <g
           id="g3909"
           transform="translate(67.8472,862.5524)">
          <path
             inkscape:connector-curvature="0"
             d="m 0,0 c 0,10.593 -8.493,19.179 -18.969,19.179 -10.476,0 -18.968,-8.586 -18.968,-19.179 0,-10.593 8.492,-19.18 18.968,-19.18 C -8.493,-19.18 0,-10.593 0,0"
             style="fill:#4992d5;fill-opacity:1;fill-rule:nonzero;stroke:none"
             id="path3911" />
        </g>
        <g
           id="g3913"
           transform="translate(67.6159,862.5524)">
          <path
             inkscape:connector-curvature="0"
             d="m 0,0 c 0,10.463 -8.389,18.946 -18.737,18.946 -10.349,0 -18.738,-8.483 -18.738,-18.946 0,-10.464 8.389,-18.947 18.738,-18.947 C -8.389,-18.947 0,-10.464 0,0"
             style="fill:#4a93d6;fill-opacity:1;fill-rule:nonzero;stroke:none"
             id="path3915" />
        </g>
        <g
           id="g3917"
           transform="translate(67.3845,862.5524)">
          <path
             inkscape:connector-curvature="0"
             d="m 0,0 c 0,10.334 -8.285,18.712 -18.506,18.712 -10.22,0 -18.505,-8.378 -18.505,-18.712 0,-10.334 8.285,-18.712 18.505,-18.712 C -8.285,-18.712 0,-10.334 0,0"
             style="fill:#4b94d7;fill-opacity:1;fill-rule:nonzero;stroke:none"
             id="path3919" />
        </g>
        <g
           id="g3921"
           transform="translate(67.1537,862.5524)">
          <path
             inkscape:connector-curvature="0"
             d="m 0,0 c 0,10.205 -8.182,18.478 -18.275,18.478 -10.093,0 -18.274,-8.273 -18.274,-18.478 0,-10.205 8.181,-18.479 18.274,-18.479 C -8.182,-18.479 0,-10.205 0,0"
             style="fill:#4c95d7;fill-opacity:1;fill-rule:nonzero;stroke:none"
             id="path3923" />
        </g>
        <g
           id="g3925"
           transform="translate(66.9223,862.5524)">
          <path
             inkscape:connector-curvature="0"
             d="m 0,0 c 0,10.075 -8.078,18.244 -18.043,18.244 -9.966,0 -18.044,-8.169 -18.044,-18.244 0,-10.076 8.078,-18.244 18.044,-18.244 C -8.078,-18.244 0,-10.076 0,0"
             style="fill:#4c95d7;fill-opacity:1;fill-rule:nonzero;stroke:none"
             id="path3927" />
        </g>
        <g
           id="g3929"
           transform="translate(66.691,862.5524)">
          <path
             inkscape:connector-curvature="0"
             d="m 0,0 c 0,9.946 -7.975,18.01 -17.813,18.01 -9.837,0 -17.811,-8.064 -17.811,-18.01 0,-9.947 7.974,-18.012 17.811,-18.012 C -7.975,-18.012 0,-9.947 0,0"
             style="fill:#4d97d8;fill-opacity:1;fill-rule:nonzero;stroke:none"
             id="path3931" />
        </g>
        <g
           id="g3933"
           transform="translate(66.4596,862.5524)">
          <path
             inkscape:connector-curvature="0"
             d="m 0,0 c 0,9.817 -7.871,17.776 -17.581,17.776 -9.709,0 -17.581,-7.959 -17.581,-17.776 0,-9.818 7.872,-17.777 17.581,-17.777 C -7.871,-17.777 0,-9.818 0,0"
             style="fill:#4d98d8;fill-opacity:1;fill-rule:nonzero;stroke:none"
             id="path3935" />
        </g>
        <g
           id="g3937"
           transform="translate(66.228,862.5524)">
          <path
             inkscape:connector-curvature="0"
             d="m 0,0 c 0,9.689 -7.767,17.543 -17.349,17.543 -9.582,0 -17.349,-7.854 -17.349,-17.543 0,-9.689 7.767,-17.544 17.349,-17.544 C -7.767,-17.544 0,-9.689 0,0"
             style="fill:#4e99d9;fill-opacity:1;fill-rule:nonzero;stroke:none"
             id="path3939" />
        </g>
        <g
           id="g3941"
           transform="translate(65.9963,862.5524)">
          <path
             inkscape:connector-curvature="0"
             d="m 0,0 c 0,9.559 -7.665,17.308 -17.117,17.308 -9.455,0 -17.119,-7.749 -17.119,-17.308 0,-9.56 7.664,-17.309 17.119,-17.309 C -7.665,-17.309 0,-9.56 0,0"
             style="fill:#4e99d9;fill-opacity:1;fill-rule:nonzero;stroke:none"
             id="path3943" />
        </g>
        <g
           id="g3945"
           transform="translate(65.7653,862.5524)">
          <path
             inkscape:connector-curvature="0"
             d="m 0,0 c 0,9.43 -7.561,17.075 -16.887,17.075 -9.327,0 -16.887,-7.645 -16.887,-17.075 0,-9.431 7.56,-17.075 16.887,-17.075 C -7.561,-17.075 0,-9.431 0,0"
             style="fill:#4f9ad9;fill-opacity:1;fill-rule:nonzero;stroke:none"
             id="path3947" />
        </g>
        <g
           id="g3949"
           transform="translate(65.534,862.5524)">
          <path
             inkscape:connector-curvature="0"
             d="m 0,0 c 0,9.301 -7.457,16.841 -16.656,16.841 -9.198,0 -16.655,-7.54 -16.655,-16.841 0,-9.301 7.457,-16.842 16.655,-16.842 C -7.457,-16.842 0,-9.301 0,0"
             style="fill:#509bda;fill-opacity:1;fill-rule:nonzero;stroke:none"
             id="path3951" />
        </g>
        <g
           id="g3953"
           transform="translate(65.3027,862.5524)">
          <path
             inkscape:connector-curvature="0"
             d="m 0,0 c 0,9.171 -7.353,16.607 -16.424,16.607 -9.071,0 -16.424,-7.436 -16.424,-16.607 0,-9.172 7.353,-16.607 16.424,-16.607 C -7.353,-16.607 0,-9.172 0,0"
             style="fill:#519cdb;fill-opacity:1;fill-rule:nonzero;stroke:none"
             id="path3955" />
        </g>
        <g
           id="g3957"
           transform="translate(65.0714,862.5524)">
          <path
             inkscape:connector-curvature="0"
             d="m 0,0 c 0,9.043 -7.25,16.373 -16.192,16.373 -8.945,0 -16.194,-7.33 -16.194,-16.373 0,-9.043 7.249,-16.374 16.194,-16.374 C -7.25,-16.374 0,-9.043 0,0"
             style="fill:#519cdb;fill-opacity:1;fill-rule:nonzero;stroke:none"
             id="path3959" />
        </g>
        <g
           id="g3961"
           transform="translate(64.84,862.5524)">
          <path
             inkscape:connector-curvature="0"
             d="m 0,0 c 0,8.913 -7.146,16.139 -15.962,16.139 -8.815,0 -15.961,-7.226 -15.961,-16.139 0,-8.914 7.146,-16.139 15.961,-16.139 C -7.146,-16.139 0,-8.914 0,0"
             style="fill:#529ddb;fill-opacity:1;fill-rule:nonzero;stroke:none"
             id="path3963" />
        </g>
        <g
           id="g3965"
           transform="translate(64.6086,862.5524)">
          <path
             inkscape:connector-curvature="0"
             d="m 0,0 c 0,8.784 -7.043,15.906 -15.73,15.906 -8.687,0 -15.729,-7.122 -15.729,-15.906 0,-8.784 7.042,-15.906 15.729,-15.906 C -7.043,-15.906 0,-8.784 0,0"
             style="fill:#529edc;fill-opacity:1;fill-rule:nonzero;stroke:none"
             id="path3967" />
        </g>
        <g
           id="g3969"
           transform="translate(64.3777,862.5524)">
          <path
             inkscape:connector-curvature="0"
             d="m 0,0 c 0,8.655 -6.94,15.671 -15.499,15.671 -8.56,0 -15.499,-7.016 -15.499,-15.671 0,-8.656 6.939,-15.672 15.499,-15.672 C -6.94,-15.672 0,-8.656 0,0"
             style="fill:#539fdd;fill-opacity:1;fill-rule:nonzero;stroke:none"
             id="path3971" />
        </g>
        <g
           id="g3973"
           transform="translate(64.1464,862.5524)">
          <path
             inkscape:connector-curvature="0"
             d="m 0,0 c 0,8.527 -6.835,15.437 -15.268,15.437 -8.432,0 -15.267,-6.91 -15.267,-15.437 0,-8.527 6.835,-15.438 15.267,-15.438 C -6.835,-15.438 0,-8.527 0,0"
             style="fill:#549fdc;fill-opacity:1;fill-rule:nonzero;stroke:none"
             id="path3975" />
        </g>
        <g
           id="g3977"
           transform="translate(63.9151,862.5524)">
          <path
             inkscape:connector-curvature="0"
             d="m 0,0 c 0,8.397 -6.732,15.203 -15.036,15.203 -8.305,0 -15.037,-6.806 -15.037,-15.203 0,-8.397 6.732,-15.204 15.037,-15.204 C -6.732,-15.204 0,-8.397 0,0"
             style="fill:#55a1dd;fill-opacity:1;fill-rule:nonzero;stroke:none"
             id="path3979" />
        </g>
        <g
           id="g3981"
           transform="translate(63.683,862.5524)">
          <path
             inkscape:connector-curvature="0"
             d="m 0,0 c 0,8.267 -6.628,14.969 -14.805,14.969 -8.176,0 -14.804,-6.702 -14.804,-14.969 0,-8.268 6.628,-14.969 14.804,-14.969 C -6.628,-14.969 0,-8.268 0,0"
             style="fill:#55a2de;fill-opacity:1;fill-rule:nonzero;stroke:none"
             id="path3983" />
        </g>
        <g
           id="g3985"
           transform="translate(63.4521,862.5524)">
          <path
             inkscape:connector-curvature="0"
             d="m 0,0 c 0,8.138 -6.525,14.736 -14.574,14.736 -8.048,0 -14.573,-6.598 -14.573,-14.736 0,-8.138 6.525,-14.736 14.573,-14.736 C -6.525,-14.736 0,-8.138 0,0"
             style="fill:#57a3de;fill-opacity:1;fill-rule:nonzero;stroke:none"
             id="path3987" />
        </g>
        <g
           id="g3989"
           transform="translate(63.2204,862.5524)">
          <path
             inkscape:connector-curvature="0"
             d="m 0,0 c 0,8.009 -6.421,14.502 -14.342,14.502 -7.92,0 -14.342,-6.493 -14.342,-14.502 0,-8.009 6.422,-14.503 14.342,-14.503 C -6.421,-14.503 0,-8.009 0,0"
             style="fill:#57a3de;fill-opacity:1;fill-rule:nonzero;stroke:none"
             id="path3991" />
        </g>
        <g
           id="g3993"
           transform="translate(62.9894,862.5524)">
          <path
             inkscape:connector-curvature="0"
             d="m 0,0 c 0,7.879 -6.318,14.267 -14.11,14.267 -7.794,0 -14.112,-6.388 -14.112,-14.267 0,-7.879 6.318,-14.268 14.112,-14.268 C -6.318,-14.268 0,-7.879 0,0"
             style="fill:#58a4df;fill-opacity:1;fill-rule:nonzero;stroke:none"
             id="path3995" />
        </g>
        <g
           id="g3997"
           transform="translate(62.7581,862.5524)">
          <path
             inkscape:connector-curvature="0"
             d="m 0,0 c 0,7.75 -6.214,14.034 -13.88,14.034 -7.665,0 -13.879,-6.284 -13.879,-14.034 0,-7.752 6.214,-14.034 13.879,-14.034 C -6.214,-14.034 0,-7.752 0,0"
             style="fill:#59a5df;fill-opacity:1;fill-rule:nonzero;stroke:none"
             id="path3999" />
        </g>
        <g
           id="g4001"
           transform="translate(62.5269,862.5524)">
          <path
             inkscape:connector-curvature="0"
             d="m 0,0 c 0,7.622 -6.11,13.801 -13.648,13.801 -7.537,0 -13.648,-6.179 -13.648,-13.801 0,-7.623 6.111,-13.801 13.648,-13.801 C -6.11,-13.801 0,-7.623 0,0"
             style="fill:#59a7e0;fill-opacity:1;fill-rule:nonzero;stroke:none"
             id="path4003" />
        </g>
        <g
           id="g4005"
           transform="translate(62.2955,862.5524)">
          <path
             inkscape:connector-curvature="0"
             d="m 0,0 c 0,7.493 -6.007,13.567 -13.417,13.567 -7.41,0 -13.417,-6.074 -13.417,-13.567 0,-7.493 6.007,-13.567 13.417,-13.567 C -6.007,-13.567 0,-7.493 0,0"
             style="fill:#5aa6e0;fill-opacity:1;fill-rule:nonzero;stroke:none"
             id="path4007" />
        </g>
        <g
           id="g4009"
           transform="translate(62.0642,862.5524)">
          <path
             inkscape:connector-curvature="0"
             d="M 0,0 C 0,7.363 -5.903,13.332 -13.185,13.332 -20.468,13.332 -26.37,7.363 -26.37,0 c 0,-7.363 5.902,-13.333 13.185,-13.333 C -5.903,-13.333 0,-7.363 0,0"
             style="fill:#5ba8e1;fill-opacity:1;fill-rule:nonzero;stroke:none"
             id="path4011" />
        </g>
        <g
           id="g4013"
           transform="translate(61.8328,862.5524)">
          <path
             inkscape:connector-curvature="0"
             d="m 0,0 c 0,7.234 -5.799,13.098 -12.954,13.098 -7.154,0 -12.954,-5.864 -12.954,-13.098 0,-7.235 5.8,-13.099 12.954,-13.099 C -5.799,-13.099 0,-7.235 0,0"
             style="fill:#5ca9e1;fill-opacity:1;fill-rule:nonzero;stroke:none"
             id="path4015" />
        </g>
        <g
           id="g4017"
           transform="translate(61.6019,862.5524)">
          <path
             inkscape:connector-curvature="0"
             d="m 0,0 c 0,7.105 -5.696,12.864 -12.724,12.864 -7.026,0 -12.722,-5.759 -12.722,-12.864 0,-7.105 5.696,-12.866 12.722,-12.866 C -5.696,-12.866 0,-7.105 0,0"
             style="fill:#5caae2;fill-opacity:1;fill-rule:nonzero;stroke:none"
             id="path4019" />
        </g>
        <g
           id="g4021"
           transform="translate(61.3705,862.5524)">
          <path
             inkscape:connector-curvature="0"
             d="m 0,0 c 0,6.975 -5.593,12.631 -12.492,12.631 -6.898,0 -12.492,-5.656 -12.492,-12.631 0,-6.975 5.594,-12.631 12.492,-12.631 C -5.593,-12.631 0,-6.975 0,0"
             style="fill:#5daae2;fill-opacity:1;fill-rule:nonzero;stroke:none"
             id="path4023" />
        </g>
        <g
           id="g4025"
           transform="translate(61.1392,862.5524)">
          <path
             inkscape:connector-curvature="0"
             d="m 0,0 c 0,6.846 -5.49,12.397 -12.26,12.397 -6.772,0 -12.261,-5.551 -12.261,-12.397 0,-6.846 5.489,-12.397 12.261,-12.397 C -5.49,-12.397 0,-6.846 0,0"
             style="fill:#5dabe2;fill-opacity:1;fill-rule:nonzero;stroke:none"
             id="path4027" />
        </g>
        <g
           id="g4029"
           transform="translate(60.9078,862.5524)">
          <path
             inkscape:connector-curvature="0"
             d="m 0,0 c 0,6.717 -5.386,12.163 -12.029,12.163 -6.644,0 -12.029,-5.446 -12.029,-12.163 0,-6.719 5.385,-12.163 12.029,-12.163 C -5.386,-12.163 0,-6.719 0,0"
             style="fill:#5face3;fill-opacity:1;fill-rule:nonzero;stroke:none"
             id="path4031" />
        </g>
        <g
           id="g4033"
           transform="translate(60.6758,862.5524)">
          <path
             inkscape:connector-curvature="0"
             d="m 0,0 c 0,6.588 -5.282,11.928 -11.798,11.928 -6.514,0 -11.797,-5.34 -11.797,-11.928 0,-6.589 5.283,-11.929 11.797,-11.929 C -5.282,-11.929 0,-6.589 0,0"
             style="fill:#5fade3;fill-opacity:1;fill-rule:nonzero;stroke:none"
             id="path4035" />
        </g>
        <g
           id="g4037"
           transform="translate(60.4445,862.5524)">
          <path
             inkscape:connector-curvature="0"
             d="m 0,0 c 0,6.459 -5.178,11.695 -11.566,11.695 -6.388,0 -11.567,-5.236 -11.567,-11.695 0,-6.459 5.179,-11.695 11.567,-11.695 C -5.178,-11.695 0,-6.459 0,0"
             style="fill:#60ade3;fill-opacity:1;fill-rule:nonzero;stroke:none"
             id="path4039" />
        </g>
        <g
           id="g4041"
           transform="translate(60.2135,862.5524)">
          <path
             inkscape:connector-curvature="0"
             d="m 0,0 c 0,6.329 -5.075,11.461 -11.335,11.461 -6.26,0 -11.335,-5.132 -11.335,-11.461 0,-6.33 5.075,-11.462 11.335,-11.462 C -5.075,-11.462 0,-6.33 0,0"
             style="fill:#61aee4;fill-opacity:1;fill-rule:nonzero;stroke:none"
             id="path4043" />
        </g>
        <g
           id="g4045"
           transform="translate(59.9822,862.5524)">
          <path
             inkscape:connector-curvature="0"
             d="M 0,0 C 0,6.2 -4.971,11.227 -11.103,11.227 -17.236,11.227 -22.207,6.2 -22.207,0 c 0,-6.202 4.971,-11.227 11.104,-11.227 C -4.971,-11.227 0,-6.202 0,0"
             style="fill:#62afe5;fill-opacity:1;fill-rule:nonzero;stroke:none"
             id="path4047" />
        </g>
        <g
           id="g4049"
           transform="translate(59.7508,862.5524)">
          <path
             inkscape:connector-curvature="0"
             d="m 0,0 c 0,6.071 -4.867,10.993 -10.872,10.993 -6.005,0 -10.873,-4.922 -10.873,-10.993 0,-6.071 4.868,-10.994 10.873,-10.994 C -4.867,-10.994 0,-6.071 0,0"
             style="fill:#62b0e5;fill-opacity:1;fill-rule:nonzero;stroke:none"
             id="path4051" />
        </g>
        <g
           id="g4053"
           transform="translate(59.5196,862.5524)">
          <path
             inkscape:connector-curvature="0"
             d="m 0,0 c 0,5.942 -4.764,10.759 -10.641,10.759 -5.877,0 -10.64,-4.817 -10.64,-10.759 0,-5.942 4.763,-10.76 10.64,-10.76 C -4.764,-10.76 0,-5.942 0,0"
             style="fill:#63b0e5;fill-opacity:1;fill-rule:nonzero;stroke:none"
             id="path4055" />
        </g>
        <g
           id="g4057"
           transform="translate(59.2883,862.5524)">
          <path
             inkscape:connector-curvature="0"
             d="m 0,0 c 0,5.813 -4.66,10.526 -10.41,10.526 -5.749,0 -10.41,-4.713 -10.41,-10.526 0,-5.813 4.661,-10.526 10.41,-10.526 C -4.66,-10.526 0,-5.813 0,0"
             style="fill:#64b1e5;fill-opacity:1;fill-rule:nonzero;stroke:none"
             id="path4059" />
        </g>
        <g
           id="g4061"
           transform="translate(59.0569,862.5524)">
          <path
             inkscape:connector-curvature="0"
             d="M 0,0 C 0,5.683 -4.557,10.292 -10.178,10.292 -15.8,10.292 -20.356,5.683 -20.356,0 c 0,-5.685 4.556,-10.292 10.178,-10.292 C -4.557,-10.292 0,-5.685 0,0"
             style="fill:#65b3e6;fill-opacity:1;fill-rule:nonzero;stroke:none"
             id="path4063" />
        </g>
        <g
           id="g4065"
           transform="translate(58.8259,862.5524)">
          <path
             inkscape:connector-curvature="0"
             d="m 0,0 c 0,5.555 -4.454,10.058 -9.947,10.058 -5.494,0 -9.948,-4.503 -9.948,-10.058 0,-5.555 4.454,-10.058 9.948,-10.058 C -4.454,-10.058 0,-5.555 0,0"
             style="fill:#66b4e7;fill-opacity:1;fill-rule:nonzero;stroke:none"
             id="path4067" />
        </g>
        <g
           id="g4069"
           transform="translate(58.5946,862.5524)">
          <path
             inkscape:connector-curvature="0"
             d="m 0,0 c 0,5.426 -4.35,9.823 -9.716,9.823 -5.366,0 -9.715,-4.397 -9.715,-9.823 0,-5.426 4.349,-9.825 9.715,-9.825 C -4.35,-9.825 0,-5.426 0,0"
             style="fill:#66b4e7;fill-opacity:1;fill-rule:nonzero;stroke:none"
             id="path4071" />
        </g>
        <g
           id="g4073"
           transform="translate(58.3633,862.5524)">
          <path
             inkscape:connector-curvature="0"
             d="m 0,0 c 0,5.297 -4.247,9.59 -9.485,9.59 -5.238,0 -9.484,-4.293 -9.484,-9.59 0,-5.297 4.246,-9.591 9.484,-9.591 C -4.247,-9.591 0,-5.297 0,0"
             style="fill:#68b5e7;fill-opacity:1;fill-rule:nonzero;stroke:none"
             id="path4075" />
        </g>
        <g
           id="g4077"
           transform="translate(58.1313,862.5524)">
          <path
             inkscape:connector-curvature="0"
             d="m 0,0 c 0,5.167 -4.142,9.356 -9.253,9.356 -5.11,0 -9.253,-4.189 -9.253,-9.356 0,-5.167 4.143,-9.356 9.253,-9.356 C -4.142,-9.356 0,-5.167 0,0"
             style="fill:#69b7e8;fill-opacity:1;fill-rule:nonzero;stroke:none"
             id="path4079" />
        </g>
        <g
           id="g4081"
           transform="translate(57.9007,862.5524)">
          <path
             inkscape:connector-curvature="0"
             d="m 0,0 c 0,5.038 -4.04,9.122 -9.022,9.122 -4.983,0 -9.021,-4.084 -9.021,-9.122 0,-5.038 4.038,-9.122 9.021,-9.122 C -4.04,-9.122 0,-5.038 0,0"
             style="fill:#6ab8e9;fill-opacity:1;fill-rule:nonzero;stroke:none"
             id="path4083" />
        </g>
        <g
           id="g4085"
           transform="translate(57.6687,862.5524)">
          <path
             inkscape:connector-curvature="0"
             d="m 0,0 c 0,4.909 -3.935,8.888 -8.79,8.888 -4.855,0 -8.791,-3.979 -8.791,-8.888 0,-4.909 3.936,-8.888 8.791,-8.888 C -3.935,-8.888 0,-4.909 0,0"
             style="fill:#6bb8e9;fill-opacity:1;fill-rule:nonzero;stroke:none"
             id="path4087" />
        </g>
        <g
           id="g4089"
           transform="translate(57.4376,862.5524)">
          <path
             inkscape:connector-curvature="0"
             d="m 0,0 c 0,4.779 -3.832,8.655 -8.559,8.655 -4.727,0 -8.559,-3.876 -8.559,-8.655 0,-4.78 3.832,-8.654 8.559,-8.654 C -3.832,-8.654 0,-4.78 0,0"
             style="fill:#6cb9e9;fill-opacity:1;fill-rule:nonzero;stroke:none"
             id="path4091" />
        </g>
        <g
           id="g4093"
           transform="translate(57.2063,862.5524)">
          <path
             inkscape:connector-curvature="0"
             d="m 0,0 c 0,4.65 -3.728,8.42 -8.328,8.42 -4.599,0 -8.328,-3.77 -8.328,-8.42 0,-4.651 3.729,-8.421 8.328,-8.421 4.6,0 8.328,3.77 8.328,8.421"
             style="fill:#6dbaea;fill-opacity:1;fill-rule:nonzero;stroke:none"
             id="path4095" />
        </g>
        <g
           id="g4097"
           transform="translate(56.9749,862.5524)">
          <path
             inkscape:connector-curvature="0"
             d="m 0,0 c 0,4.522 -3.624,8.186 -8.096,8.186 -4.472,0 -8.097,-3.664 -8.097,-8.186 0,-4.522 3.625,-8.186 8.097,-8.186 C -3.624,-8.186 0,-4.522 0,0"
             style="fill:#6ebcea;fill-opacity:1;fill-rule:nonzero;stroke:none"
             id="path4099" />
        </g>
        <g
           id="g4101"
           transform="translate(56.7437,862.5524)">
          <path
             inkscape:connector-curvature="0"
             d="m 0,0 c 0,4.392 -3.522,7.953 -7.865,7.953 -4.344,0 -7.866,-3.561 -7.866,-7.953 0,-4.393 3.522,-7.953 7.866,-7.953 C -3.522,-7.953 0,-4.393 0,0"
             style="fill:#6fbcea;fill-opacity:1;fill-rule:nonzero;stroke:none"
             id="path4103" />
        </g>
        <g
           id="g4105"
           transform="translate(56.5124,862.5524)">
          <path
             inkscape:connector-curvature="0"
             d="m 0,0 c 0,4.263 -3.418,7.718 -7.634,7.718 -4.215,0 -7.633,-3.455 -7.633,-7.718 0,-4.263 3.418,-7.719 7.633,-7.719 C -3.418,-7.719 0,-4.263 0,0"
             style="fill:#70bdeb;fill-opacity:1;fill-rule:nonzero;stroke:none"
             id="path4107" />
        </g>
        <g
           id="g4109"
           transform="translate(56.281,862.5524)">
          <path
             inkscape:connector-curvature="0"
             d="m 0,0 c 0,4.133 -3.314,7.485 -7.403,7.485 -4.088,0 -7.402,-3.352 -7.402,-7.485 0,-4.134 3.314,-7.486 7.402,-7.486 C -3.314,-7.486 0,-4.134 0,0"
             style="fill:#71beeb;fill-opacity:1;fill-rule:nonzero;stroke:none"
             id="path4111" />
        </g>
        <g
           id="g4113"
           transform="translate(56.05,862.5524)">
          <path
             inkscape:connector-curvature="0"
             d="m 0,0 c 0,4.004 -3.211,7.251 -7.171,7.251 -3.961,0 -7.171,-3.247 -7.171,-7.251 0,-4.005 3.21,-7.251 7.171,-7.251 C -3.211,-7.251 0,-4.005 0,0"
             style="fill:#71bfec;fill-opacity:1;fill-rule:nonzero;stroke:none"
             id="path4115" />
        </g>
        <g
           id="g4117"
           transform="translate(55.8184,862.5524)">
          <path
             inkscape:connector-curvature="0"
             d="m 0,0 c 0,3.875 -3.107,7.017 -6.939,7.017 -3.834,0 -6.941,-3.142 -6.941,-7.017 0,-3.876 3.107,-7.018 6.941,-7.018 C -3.107,-7.018 0,-3.876 0,0"
             style="fill:#72bfec;fill-opacity:1;fill-rule:nonzero;stroke:none"
             id="path4119" />
        </g>
        <g
           id="g4121"
           transform="translate(55.5874,862.5524)">
          <path
             inkscape:connector-curvature="0"
             d="m 0,0 c 0,3.745 -3.004,6.782 -6.708,6.782 -3.706,0 -6.709,-3.037 -6.709,-6.782 0,-3.746 3.003,-6.783 6.709,-6.783 C -3.004,-6.783 0,-3.746 0,0"
             style="fill:#73c0ec;fill-opacity:1;fill-rule:nonzero;stroke:none"
             id="path4123" />
        </g>
        <g
           id="g4125"
           transform="translate(55.356,862.5524)">
          <path
             inkscape:connector-curvature="0"
             d="m 0,0 c 0,3.617 -2.9,6.55 -6.478,6.55 -3.576,0 -6.476,-2.933 -6.476,-6.55 0,-3.618 2.9,-6.549 6.476,-6.549 C -2.9,-6.549 0,-3.618 0,0"
             style="fill:#74c1ed;fill-opacity:1;fill-rule:nonzero;stroke:none"
             id="path4127" />
        </g>
        <g
           id="g4129"
           transform="translate(55.124,862.5524)">
          <path
             inkscape:connector-curvature="0"
             d="m 0,0 c 0,3.488 -2.796,6.315 -6.245,6.315 -3.45,0 -6.246,-2.827 -6.246,-6.315 0,-3.488 2.796,-6.316 6.246,-6.316 C -2.796,-6.316 0,-3.488 0,0"
             style="fill:#75c2ed;fill-opacity:1;fill-rule:nonzero;stroke:none"
             id="path4131" />
        </g>
        <g
           id="g4133"
           transform="translate(54.8928,862.5524)">
          <path
             inkscape:connector-curvature="0"
             d="m 0,0 c 0,3.358 -2.692,6.081 -6.014,6.081 -3.322,0 -6.014,-2.723 -6.014,-6.081 0,-3.359 2.692,-6.081 6.014,-6.081 C -2.692,-6.081 0,-3.359 0,0"
             style="fill:#76c2ed;fill-opacity:1;fill-rule:nonzero;stroke:none"
             id="path4135" />
        </g>
        <g
           id="g4137"
           transform="translate(54.6614,862.5524)">
          <path
             inkscape:connector-curvature="0"
             d="m 0,0 c 0,3.23 -2.588,5.847 -5.782,5.847 -3.194,0 -5.784,-2.617 -5.784,-5.847 0,-3.23 2.59,-5.848 5.784,-5.848 C -2.588,-5.848 0,-3.23 0,0"
             style="fill:#77c3ee;fill-opacity:1;fill-rule:nonzero;stroke:none"
             id="path4139" />
        </g>
        <g
           id="g4141"
           transform="translate(54.4304,862.5524)">
          <path
             inkscape:connector-curvature="0"
             d="m 0,0 c 0,3.1 -2.486,5.613 -5.552,5.613 -3.066,0 -5.551,-2.513 -5.551,-5.613 0,-3.101 2.485,-5.614 5.551,-5.614 C -2.486,-5.614 0,-3.101 0,0"
             style="fill:#78c5ee;fill-opacity:1;fill-rule:nonzero;stroke:none"
             id="path4143" />
        </g>
        <g
           id="g4145"
           transform="translate(54.199,862.5524)">
          <path
             inkscape:connector-curvature="0"
             d="m 0,0 c 0,2.971 -2.382,5.379 -5.321,5.379 -2.938,0 -5.321,-2.408 -5.321,-5.379 0,-2.971 2.383,-5.38 5.321,-5.38 C -2.382,-5.38 0,-2.971 0,0"
             style="fill:#78c6ef;fill-opacity:1;fill-rule:nonzero;stroke:none"
             id="path4147" />
        </g>
        <g
           id="g4149"
           transform="translate(53.9678,862.5524)">
          <path
             inkscape:connector-curvature="0"
             d="m 0,0 c 0,2.842 -2.279,5.145 -5.089,5.145 -2.811,0 -5.089,-2.303 -5.089,-5.145 0,-2.842 2.278,-5.146 5.089,-5.146 C -2.279,-5.146 0,-2.842 0,0"
             style="fill:#79c6ef;fill-opacity:1;fill-rule:nonzero;stroke:none"
             id="path4151" />
        </g>
        <g
           id="g4153"
           transform="translate(53.7365,862.5524)">
          <path
             inkscape:connector-curvature="0"
             d="m 0,0 c 0,2.712 -2.175,4.912 -4.858,4.912 -2.683,0 -4.858,-2.2 -4.858,-4.912 0,-2.713 2.175,-4.913 4.858,-4.913 C -2.175,-4.913 0,-2.713 0,0"
             style="fill:#7ac7ef;fill-opacity:1;fill-rule:nonzero;stroke:none"
             id="path4155" />
        </g>
        <g
           id="g4157"
           transform="translate(53.5051,862.5524)">
          <path
             inkscape:connector-curvature="0"
             d="m 0,0 c 0,2.583 -2.071,4.677 -4.626,4.677 -2.555,0 -4.627,-2.094 -4.627,-4.677 0,-2.584 2.072,-4.679 4.627,-4.679 C -2.071,-4.679 0,-2.584 0,0"
             style="fill:#7bc8f0;fill-opacity:1;fill-rule:nonzero;stroke:none"
             id="path4159" />
        </g>
        <g
           id="g4161"
           transform="translate(53.2741,862.5524)">
          <path
             inkscape:connector-curvature="0"
             d="M 0,0 C 0,2.455 -1.968,4.444 -4.396,4.444 -6.823,4.444 -8.79,2.455 -8.79,0 c 0,-2.455 1.967,-4.445 4.394,-4.445 C -1.968,-4.445 0,-2.455 0,0"
             style="fill:#7cc9f0;fill-opacity:1;fill-rule:nonzero;stroke:none"
             id="path4163" />
        </g>
        <g
           id="g4165"
           transform="translate(53.0425,862.5524)">
          <path
             inkscape:connector-curvature="0"
             d="m 0,0 c 0,2.325 -1.864,4.21 -4.164,4.21 -2.299,0 -4.164,-1.885 -4.164,-4.21 0,-2.326 1.865,-4.211 4.164,-4.211 C -1.864,-4.211 0,-2.326 0,0"
             style="fill:#7dc9f0;fill-opacity:1;fill-rule:nonzero;stroke:none"
             id="path4167" />
        </g>
        <g
           id="g4169"
           transform="translate(52.8112,862.5524)">
          <path
             inkscape:connector-curvature="0"
             d="m 0,0 c 0,2.196 -1.761,3.976 -3.932,3.976 -2.173,0 -3.932,-1.78 -3.932,-3.976 0,-2.197 1.759,-3.976 3.932,-3.976 C -1.761,-3.976 0,-2.197 0,0"
             style="fill:#7dcaf1;fill-opacity:1;fill-rule:nonzero;stroke:none"
             id="path4171" />
        </g>
        <g
           id="g4173"
           transform="translate(52.5795,862.5524)">
          <path
             inkscape:connector-curvature="0"
             d="m 0,0 c 0,2.067 -1.656,3.742 -3.7,3.742 -2.045,0 -3.702,-1.675 -3.702,-3.742 0,-2.067 1.657,-3.743 3.702,-3.743 2.044,0 3.7,1.676 3.7,3.743"
             style="fill:#7ecbf1;fill-opacity:1;fill-rule:nonzero;stroke:none"
             id="path4175" />
        </g>
        <g
           id="g4177"
           transform="translate(52.3488,862.5524)">
          <path
             inkscape:connector-curvature="0"
             d="M 0,0 C 0,1.937 -1.553,3.509 -3.471,3.509 -5.387,3.509 -6.94,1.937 -6.94,0 c 0,-1.938 1.553,-3.509 3.469,-3.509 C -1.553,-3.509 0,-1.938 0,0"
             style="fill:#7fcdf2;fill-opacity:1;fill-rule:nonzero;stroke:none"
             id="path4179" />
        </g>
        <g
           id="g4181"
           transform="translate(52.1169,862.5524)">
          <path
             inkscape:connector-curvature="0"
             d="m 0,0 c 0,1.808 -1.45,3.274 -3.238,3.274 -1.789,0 -3.239,-1.466 -3.239,-3.274 0,-1.808 1.45,-3.275 3.239,-3.275 C -1.45,-3.275 0,-1.808 0,0"
             style="fill:#80ccf2;fill-opacity:1;fill-rule:nonzero;stroke:none"
             id="path4183" />
        </g>
        <g
           id="g4185"
           transform="translate(51.8855,862.5524)">
          <path
             inkscape:connector-curvature="0"
             d="m 0,0 c 0,1.679 -1.346,3.04 -3.007,3.04 -1.66,0 -3.007,-1.361 -3.007,-3.04 0,-1.679 1.347,-3.041 3.007,-3.041 C -1.346,-3.041 0,-1.679 0,0"
             style="fill:#81cef2;fill-opacity:1;fill-rule:nonzero;stroke:none"
             id="path4187" />
        </g>
        <g
           id="g4189"
           transform="translate(51.6545,862.5524)">
          <path
             inkscape:connector-curvature="0"
             d="m 0,0 c 0,1.549 -1.243,2.806 -2.776,2.806 -1.533,0 -2.776,-1.257 -2.776,-2.806 0,-1.551 1.243,-2.807 2.776,-2.807 C -1.243,-2.807 0,-1.551 0,0"
             style="fill:#82cff3;fill-opacity:1;fill-rule:nonzero;stroke:none"
             id="path4191" />
        </g>
        <g
           id="g4193"
           transform="translate(51.4231,862.5524)">
          <path
             inkscape:connector-curvature="0"
             d="M 0,0 C 0,1.421 -1.139,2.572 -2.545,2.572 -3.95,2.572 -5.089,1.421 -5.089,0 c 0,-1.422 1.139,-2.574 2.544,-2.574 C -1.139,-2.574 0,-1.422 0,0"
             style="fill:#83d0f3;fill-opacity:1;fill-rule:nonzero;stroke:none"
             id="path4195" />
        </g>
        <g
           id="g4197"
           transform="translate(51.1919,862.5524)">
          <path
             inkscape:connector-curvature="0"
             d="m 0,0 c 0,1.292 -1.036,2.339 -2.313,2.339 -1.279,0 -2.314,-1.047 -2.314,-2.339 0,-1.292 1.035,-2.339 2.314,-2.339 C -1.036,-2.339 0,-1.292 0,0"
             style="fill:#84d0f3;fill-opacity:1;fill-rule:nonzero;stroke:none"
             id="path4199" />
        </g>
        <g
           id="g4201"
           transform="translate(50.9605,862.5524)">
          <path
             inkscape:connector-curvature="0"
             d="m 0,0 c 0,1.162 -0.933,2.105 -2.082,2.105 -1.15,0 -2.081,-0.943 -2.081,-2.105 0,-1.163 0.931,-2.105 2.081,-2.105 C -0.933,-2.105 0,-1.163 0,0"
             style="fill:#85d1f4;fill-opacity:1;fill-rule:nonzero;stroke:none"
             id="path4203" />
        </g>
        <g
           id="g4205"
           transform="translate(50.7292,862.5524)">
          <path
             inkscape:connector-curvature="0"
             d="M 0,0 C 0,1.034 -0.828,1.871 -1.85,1.871 -2.872,1.871 -3.7,1.034 -3.7,0 c 0,-1.034 0.828,-1.871 1.85,-1.871 C -0.828,-1.871 0,-1.034 0,0"
             style="fill:#86d2f4;fill-opacity:1;fill-rule:nonzero;stroke:none"
             id="path4207" />
        </g>
        <g
           id="g4209"
           transform="translate(50.4982,862.5524)">
          <path
             inkscape:connector-curvature="0"
             d="m 0,0 c 0,0.904 -0.725,1.636 -1.619,1.636 -0.896,0 -1.62,-0.732 -1.62,-1.636 0,-0.904 0.724,-1.637 1.62,-1.637 C -0.725,-1.637 0,-0.904 0,0"
             style="fill:#87d3f5;fill-opacity:1;fill-rule:nonzero;stroke:none"
             id="path4211" />
        </g>
        <g
           id="g4213"
           transform="translate(50.2666,862.5524)">
          <path
             inkscape:connector-curvature="0"
             d="m 0,0 c 0,0.775 -0.621,1.404 -1.388,1.404 -0.766,0 -1.388,-0.629 -1.388,-1.404 0,-0.775 0.622,-1.404 1.388,-1.404 C -0.621,-1.404 0,-0.775 0,0"
             style="fill:#87d3f4;fill-opacity:1;fill-rule:nonzero;stroke:none"
             id="path4215" />
        </g>
        <g
           id="g4217"
           transform="translate(50.0353,862.5524)">
          <path
             inkscape:connector-curvature="0"
             d="m 0,0 c 0,0.645 -0.518,1.169 -1.157,1.169 -0.638,0 -1.156,-0.524 -1.156,-1.169 0,-0.646 0.518,-1.17 1.156,-1.17 C -0.518,-1.17 0,-0.646 0,0"
             style="fill:#88d4f5;fill-opacity:1;fill-rule:nonzero;stroke:none"
             id="path4219" />
        </g>
        <g
           id="g4221"
           transform="translate(49.8042,862.5524)">
          <path
             inkscape:connector-curvature="0"
             d="m 0,0 c 0,0.516 -0.415,0.936 -0.925,0.936 -0.512,0 -0.926,-0.42 -0.926,-0.936 0,-0.518 0.414,-0.936 0.926,-0.936 C -0.415,-0.936 0,-0.518 0,0"
             style="fill:#8ad5f5;fill-opacity:1;fill-rule:nonzero;stroke:none"
             id="path4223" />
        </g>
        <g
           id="g4225"
           transform="translate(49.5722,862.5524)">
          <path
             inkscape:connector-curvature="0"
             d="m 0,0 c 0,0.388 -0.311,0.701 -0.693,0.701 -0.384,0 -0.695,-0.313 -0.695,-0.701 0,-0.388 0.311,-0.702 0.695,-0.702 C -0.311,-0.702 0,-0.388 0,0"
             style="fill:#8ad6f6;fill-opacity:1;fill-rule:nonzero;stroke:none"
             id="path4227" />
        </g>
        <g
           id="g4229"
           transform="translate(49.341,862.5524)">
          <path
             inkscape:connector-curvature="0"
             d="m 0,0 c 0,0.259 -0.207,0.467 -0.463,0.467 -0.254,0 -0.462,-0.208 -0.462,-0.467 0,-0.259 0.208,-0.469 0.462,-0.469 C -0.207,-0.469 0,-0.259 0,0"
             style="fill:#8cd6f5;fill-opacity:1;fill-rule:nonzero;stroke:none"
             id="path4231" />
        </g>
        <g
           id="g4233"
           transform="translate(49.1096,862.5524)">
          <path
             inkscape:connector-curvature="0"
             d="M 0,0 C 0,0.13 -0.103,0.234 -0.231,0.234 -0.359,0.234 -0.463,0.13 -0.463,0 c 0,-0.129 0.104,-0.234 0.232,-0.234 C -0.103,-0.234 0,-0.129 0,0"
             style="fill:#8cd6f6;fill-opacity:1;fill-rule:nonzero;stroke:none"
             id="path4235" />
        </g>
        <g
           id="g4237"
           transform="translate(21.056,870.9781)">
          <path
             inkscape:connector-curvature="0"
             d="M 0,0 -0.331,0.395 C 13.592,12.087 29.22,16.87 46.117,14.61 L 46.049,14.1 C 29.302,16.339 13.809,11.596 0,0"
             style="fill:#ffffff;fill-opacity:1;fill-rule:nonzero;stroke:none"
             id="path4239" />
        </g>
        <g
           id="g4241"
           transform="translate(20.1293,857.0076)">
          <path
             inkscape:connector-curvature="0"
             d="m 0,0 -0.365,0.363 c 8.378,8.42 17.511,14.489 27.143,18.036 9.008,3.318 18.362,4.286 27.054,2.801 L 53.746,20.693 C 45.142,22.162 35.879,21.202 26.957,17.917 17.395,14.395 8.325,8.367 0,0"
             style="fill:#ffffff;fill-opacity:1;fill-rule:nonzero;stroke:none"
             id="path4243" />
        </g>
        <g
           id="g4245"
           transform="translate(65.5322,838.2479)">
          <path
             inkscape:connector-curvature="0"
             d="M 0,0 -0.501,0.121 C 0.869,5.78 1.1,11.548 0.185,17.263 -0.627,22.34 -2.343,27.393 -4.912,32.28 -9.169,40.375 -15.823,47.977 -23.166,53.138 l 0.295,0.422 C -15.462,48.353 -8.749,40.684 -4.457,32.519 -1.861,27.583 -0.128,22.478 0.693,17.344 1.619,11.562 1.386,5.726 0,0"
             style="fill:#ffffff;fill-opacity:1;fill-rule:nonzero;stroke:none"
             id="path4247" />
        </g>
        <g
           id="g4249"
           transform="translate(71.6162,844.0023)">
          <path
             inkscape:connector-curvature="0"
             d="m 0,0 -0.496,0.139 c 2.97,10.604 1.927,20.489 -3.103,29.379 -3.74,6.615 -9.605,12.683 -17.929,18.553 l 0.296,0.421 C -12.845,42.577 -6.929,36.454 -3.15,29.772 1.948,20.758 3.008,10.741 0,0"
             style="fill:#ffffff;fill-opacity:1;fill-rule:nonzero;stroke:none"
             id="path4251" />
        </g>
      </g>
    </g>
    <g
       transform="matrix(1.25,0,0,-1.25,257.58089,1596.4524)"
       id="g4253">
      <g
         id="g4255"
         clip-path="url(#clipPath4257)">
        <g
           id="g4261"
           transform="translate(31.1037,865.4684)">
          <path
             inkscape:connector-curvature="0"
             d="m 0,0 c 0,-0.753 -0.608,-1.365 -1.359,-1.365 -0.75,0 -1.358,0.612 -1.358,1.365 0,0.753 0.608,1.365 1.358,1.365 C -0.608,1.365 0,0.753 0,0"
             style="fill:#f1491f;fill-opacity:1;fill-rule:nonzero;stroke:none"
             id="path4263" />
        </g>
        <g
           id="g4265"
           transform="translate(29.7454,866.7349)">
          <path
             inkscape:connector-curvature="0"
             d="m 0,0 c -0.695,0 -1.261,-0.568 -1.261,-1.267 0,-0.698 0.566,-1.267 1.261,-1.267 0.695,0 1.261,0.569 1.261,1.267 C 1.261,-0.568 0.695,0 0,0 m 0,-2.729 c -0.803,0 -1.457,0.656 -1.457,1.462 0,0.806 0.654,1.463 1.457,1.463 0.802,0 1.456,-0.657 1.456,-1.463 0,-0.806 -0.654,-1.462 -1.456,-1.462"
             style="fill:#ffffff;fill-opacity:1;fill-rule:nonzero;stroke:none"
             id="path4267" />
        </g>
        <g
           id="g4269"
           transform="translate(66.1647,878.5057)">
          <path
             inkscape:connector-curvature="0"
             d="m 0,0 c 0,-0.753 -0.608,-1.365 -1.359,-1.365 -0.75,0 -1.358,0.612 -1.358,1.365 0,0.753 0.608,1.365 1.358,1.365 C -0.608,1.365 0,0.753 0,0"
             style="fill:#f1491f;fill-opacity:1;fill-rule:nonzero;stroke:none"
             id="path4271" />
        </g>
        <g
           id="g4273"
           transform="translate(64.8061,879.7728)">
          <path
             inkscape:connector-curvature="0"
             d="m 0,0 c -0.695,0 -1.261,-0.568 -1.261,-1.267 0,-0.698 0.566,-1.268 1.261,-1.268 0.695,0 1.261,0.57 1.261,1.268 C 1.261,-0.568 0.695,0 0,0 m 0,-2.729 c -0.803,0 -1.457,0.656 -1.457,1.462 0,0.806 0.654,1.463 1.457,1.463 0.802,0 1.457,-0.657 1.457,-1.463 0,-0.806 -0.655,-1.462 -1.457,-1.462"
             style="fill:#ffffff;fill-opacity:1;fill-rule:nonzero;stroke:none"
             id="path4275" />
        </g>
        <g
           id="g4277"
           transform="translate(74.2206,857.0306)">
          <path
             inkscape:connector-curvature="0"
             d="m 0,0 c 0,-0.753 -0.608,-1.365 -1.359,-1.365 -0.75,0 -1.358,0.612 -1.358,1.365 0,0.754 0.608,1.365 1.358,1.365 C -0.608,1.365 0,0.754 0,0"
             style="fill:#f1491f;fill-opacity:1;fill-rule:nonzero;stroke:none"
             id="path4279" />
        </g>
        <g
           id="g4281"
           transform="translate(72.8623,858.2976)">
          <path
             inkscape:connector-curvature="0"
             d="m 0,0 c -0.695,0 -1.261,-0.568 -1.261,-1.267 0,-0.698 0.566,-1.268 1.261,-1.268 0.695,0 1.261,0.57 1.261,1.268 C 1.261,-0.568 0.695,0 0,0 m 0,-2.729 c -0.803,0 -1.457,0.655 -1.457,1.462 0,0.806 0.654,1.462 1.457,1.462 0.802,0 1.457,-0.656 1.457,-1.462 0,-0.807 -0.655,-1.462 -1.457,-1.462"
             style="fill:#ffffff;fill-opacity:1;fill-rule:nonzero;stroke:none"
             id="path4283" />
        </g>
        <g
           id="g4285"
           transform="translate(59.4909,886.0373)">
          <path
             inkscape:connector-curvature="0"
             d="m 0,0 c 0,-0.753 -0.608,-1.364 -1.359,-1.364 -0.75,0 -1.358,0.611 -1.358,1.364 0,0.753 0.608,1.365 1.358,1.365 C -0.608,1.365 0,0.753 0,0"
             style="fill:#f1491f;fill-opacity:1;fill-rule:nonzero;stroke:none"
             id="path4287" />
        </g>
        <g
           id="g4289"
           transform="translate(58.1323,887.3045)">
          <path
             inkscape:connector-curvature="0"
             d="m 0,0 c -0.695,0 -1.261,-0.568 -1.261,-1.267 0,-0.698 0.566,-1.267 1.261,-1.267 0.695,0 1.261,0.569 1.261,1.267 C 1.261,-0.568 0.695,0 0,0 m 0,-2.729 c -0.803,0 -1.456,0.656 -1.456,1.462 0,0.806 0.653,1.463 1.456,1.463 0.803,0 1.457,-0.657 1.457,-1.463 0,-0.806 -0.654,-1.462 -1.457,-1.462"
             style="fill:#ffffff;fill-opacity:1;fill-rule:nonzero;stroke:none"
             id="path4291" />
        </g>
        <g
           id="g4293"
           transform="translate(57.8821,877.9456)">
          <path
             inkscape:connector-curvature="0"
             d="m 0,0 c 0,-1.01 -0.789,-1.829 -1.764,-1.829 -0.973,0 -1.764,0.819 -1.764,1.829 0,1.01 0.791,1.829 1.764,1.829 C -0.789,1.829 0,1.01 0,0"
             style="fill:#f1491f;fill-opacity:1;fill-rule:nonzero;stroke:none"
             id="path4295" />
        </g>
        <g
           id="g4297"
           transform="translate(56.1182,879.701)">
          <path
             inkscape:connector-curvature="0"
             d="m 0,0 c -0.932,0 -1.689,-0.787 -1.689,-1.755 0,-0.968 0.757,-1.756 1.689,-1.756 0.932,0 1.689,0.788 1.689,1.756 C 1.689,-0.787 0.932,0 0,0 m 0,-3.659 c -1.013,0 -1.837,0.854 -1.837,1.904 0,1.05 0.824,1.903 1.837,1.903 1.014,0 1.838,-0.853 1.838,-1.903 0,-1.05 -0.824,-1.904 -1.838,-1.904"
             style="fill:#ffffff;fill-opacity:1;fill-rule:nonzero;stroke:none"
             id="path4299" />
        </g>
        <g
           id="g4301"
           transform="translate(55.8715,834.3364)">
          <path
             inkscape:connector-curvature="0"
             d="m 0,0 c 0,0 -0.698,3.994 -0.841,4.783 -0.073,0.409 -0.296,1.533 -0.283,4.195 0.013,2.637 0.285,4.724 0.917,7.049 0.789,2.906 1.195,3.566 5.552,9.038 1.072,1.346 2.151,2.769 2.398,3.163 0.247,0.392 0.537,0.769 0.644,0.835 0.656,0.405 4.108,6.293 4.478,7.458 0.211,0.666 0.675,1.591 1.008,2.213 l 0.173,0.996 -1.024,1.945 c 0,-0.574 -0.728,-1.58 -1.118,-2.025 C 9.74,37.083 7.687,34.445 5.336,32.029 2.813,29.518 0.622,28.181 -2.86,26.999 c -2.008,-0.683 -2.475,-0.574 -2.09,2.008 0.741,4.965 -0.03,5.161 -2.586,5.121 -1.737,-0.026 -3.019,-0.512 -3.398,-1.342 -0.909,-1.984 0.299,-4.531 1.98,-6.01 0.587,-0.517 0.767,-0.798 0.787,-1.234 0.022,-0.487 -0.057,-0.604 -0.59,-0.866 -3.023,-1.478 -14.742,-0.249 -19.798,2.31 l 0.255,-1.961 c 0.157,0 1.04,-0.494 1.964,-1.096 2.162,-1.413 4.44,-2.668 6.533,-3.603 2.011,-0.899 2.996,-1.233 5.351,-1.81 l 1.796,-0.442 0.475,-1.534"
             style="fill:#3473c2;fill-opacity:1;fill-rule:nonzero;stroke:none"
             id="path4303" />
        </g>
        <g
           id="g4305"
           transform="translate(43.6703,833.2189)">
          <path
             inkscape:connector-curvature="0"
             d="m 0,0 c 0.288,0.292 0.837,5.937 1.117,11.217 0.105,1.982 0.086,2.156 -0.492,4.376 -1.186,4.568 -1.501,5.077 -3.293,5.325 -5.012,0.689 -7.69,1.65 -11.27,4.043 l -1.924,1.284 -1.342,-0.116 c -1.273,-0.111 -1.4,-0.09 -2.427,0.416 -1.11,0.547 -2,1.241 -2,1.562 0,0.228 0.281,0.226 1.381,-0.009 1.169,-0.252 1.451,-0.014 0.797,0.669 -0.818,0.854 -0.569,1.125 0.531,0.573 0.351,-0.175 0.869,-0.371 1.152,-0.436 0.283,-0.066 1.373,-0.464 2.421,-0.884 3.643,-1.463 8.314,-2.405 12.852,-2.593 2.127,-0.088 2.823,-0.053 4.007,0.204 2.266,0.491 2.493,1.068 0.995,2.532 -1.198,1.168 -1.678,2.377 -1.786,4.503 -0.126,2.488 0.259,3.071 2.4,3.633 0.978,0.256 1.287,0.269 2.128,0.094 C 7.091,36.006 7.652,34.987 7.489,32.32 7.357,30.153 7.087,29.098 6.412,28.093 6.09,27.614 5.826,27.192 5.826,27.155 c 0,-0.193 0.725,0.007 2.804,0.772 5.173,1.903 7.384,3.488 11.154,7.996 3.948,4.72 5.063,6.538 5.263,8.582 0.153,1.563 1.193,3.921 1.687,3.823 0.223,-0.044 0.287,-0.254 0.29,-0.942 0.002,-0.489 0.054,-0.937 0.114,-0.998 0.062,-0.061 0.426,0.205 0.812,0.59 1.09,1.09 1.533,0.923 1.19,-0.449 C 28.873,45.463 28.259,44.07 27.504,42.826 27.175,42.282 26.613,41.155 26.257,40.323 24.871,37.078 20.609,31.64 14.801,25.704 12.211,23.057 11.827,22.593 11.678,21.926 11.584,21.507 11.31,20.642 11.069,20.003 9.842,16.744 9.653,10.449 10.67,6.667 c 0.189,-0.709 0.454,-1.714 0.587,-2.234 0.663,-2.211 1.29,-4.4 2.021,-6.565 L 13.554,-2.774 0,0 z"
             style="fill:#100f0d;fill-opacity:1;fill-rule:nonzero;stroke:none"
             id="path4307" />
        </g>
        <g
           id="g4309"
           transform="translate(50.016,895.4258)">
          <path
             inkscape:connector-curvature="0"
             d="m 0,0 c -13.641,0 -25.109,-9.581 -28.336,-22.524 4.051,11.663 15.046,20.03 27.96,20.03 5.955,0 11.502,-1.781 16.148,-4.842 -0.003,0.068 -0.005,0.134 -0.005,0.203 0,0.744 0.187,1.445 0.514,2.06 C 11.627,-1.87 6.025,0 0,0"
             style="fill:#80cdf1;fill-opacity:1;fill-rule:nonzero;stroke:none"
             id="path4311" />
        </g>
        <g
           id="g4313"
           transform="translate(49.0617,898.7404)">
          <path
             inkscape:connector-curvature="0"
             d="m 0,0 c -17.562,0 -31.812,-13.528 -31.812,-30.193 0,-0.187 0.001,-0.371 0.005,-0.557 1.829,15.644 14.031,27.591 30.697,27.591 6.852,0 13.182,-1.844 18.292,-5.331 0.484,0.966 1.312,1.735 2.327,2.146 C 14.12,-2.367 7.351,0 0,0"
             style="fill:#100f0d;fill-opacity:1;fill-rule:nonzero;stroke:none"
             id="path4315" />
        </g>
        <g
           id="g4317"
           transform="translate(74.0626,888.2944)">
          <path
             inkscape:connector-curvature="0"
             d="m 0,0 c 0.002,-2.065 -1.692,-3.741 -3.784,-3.743 -2.093,-0.002 -3.792,1.67 -3.794,3.735 l 0,0.008 C -7.58,2.065 -5.885,3.74 -3.792,3.742 -1.7,3.745 -0.002,2.072 0,0.008 L 0,0 z"
             style="fill:#3673c2;fill-opacity:1;fill-rule:nonzero;stroke:none"
             id="path4319" />
        </g>
      </g>
    </g>
  </g>
</svg>
