#define milk_barcode_width 107
#define milk_barcode_height 68
static char milk_barcode_bits[] = {
   0x00 ,0xc0 ,0x01 ,0x03 ,0x80 ,0x07, 0x80, 0x00 ,0xe0, 0x00 ,
   0x30, 0x00 ,0x00 ,0x00 ,0x00, 0x40 ,0x02 ,0x02, 0x80 ,0x00, 
   0x00 ,0x10 ,0x20, 0x01 ,0x20 ,0x00 ,0x00, 0x00 ,0x00 ,0x40 ,
   0x7a ,0xe2 ,0x81 ,0xf0, 0xd2, 0x78 ,0x20 ,0xbd, 0x24, 0x1e ,
   0x00, 0x00, 0x00 ,0x40, 0x4a ,0x22 ,0x81, 0x17 ,0x92 ,0x10, 
   0xe0, 0xa4 ,0x24, 0x02 ,0x00, 0x00 ,0x00 ,0x40, 0x4a ,0xe2, 
   0x81 ,0x10 ,0x92, 0x10 ,0x20, 0xa5, 0x27, 0x1e ,0x00, 0x00 ,
   0x00, 0x40 ,0x4a ,0x22 ,0x80 ,0x10 ,0x92, 0x10 ,0x20, 0xa5 ,
   0x27, 0x10 ,0x00 ,0x00 ,0x00 ,0xc0 ,0x79, 0xe7 ,0x81, 0x10 ,
   0xde, 0x71, 0xe0 ,0xbc ,0x74, 0x1e ,0x00 ,0x00, 0x00 ,0x00, 
   0x00 ,0x00 ,0x00, 0x00 ,0x00, 0x00, 0x00, 0x00, 0x00, 0x00, 
   0x00, 0x00, 0x40, 0xb1, 0x5e, 0x3b, 0x1a, 0x8b, 0x55, 0x91, 
   0xc8, 0xe6, 0x12, 0x39, 0x15, 0x00, 0x40, 0xb1, 0x5e ,0x3b ,
   0x1a ,0x8b ,0x55 ,0x91, 0xc8, 0xe6 ,0x12, 0x39 ,0x15, 0x00 ,
   0x40 ,0xb1 ,0x5e, 0x3b ,0x1a ,0x8b, 0x55 ,0x91, 0xc8 ,0xe6 ,
   0x12, 0x39 ,0x15 ,0x00 ,0x40, 0xb1 ,0x5e ,0x3b ,0x1a ,0x8b ,
   0x55 ,0x91, 0xc8, 0xe6 ,0x12 ,0x39, 0x15, 0x00 ,0x40, 0xb1, 
   0x5e ,0x3b, 0x1a ,0x8b ,0x55, 0x91 ,0xc8 ,0xe6, 0x12, 0x39 ,
   0x15, 0x00 ,0x40, 0xb1 ,0x5e ,0x3b, 0x1a ,0x8b, 0x55 ,0x91 ,
   0xc8, 0xe6 ,0x12, 0x39, 0x15, 0x00 ,0x40, 0xb1 ,0x5e, 0x3b ,
   0x1a ,0x8b ,0x55 ,0x91 ,0xc8, 0xe6 ,0x12, 0x39 ,0x15, 0x00 ,
   0x40 ,0xb1 ,0x5e ,0x3b ,0x1a, 0x8b ,0x55, 0x91 ,0xc8, 0xe6, 
   0x12 ,0x39 ,0x15, 0x00 ,0x40 ,0xb1, 0x5e ,0x3b, 0x1a ,0x8b ,
   0x55, 0x91 ,0xc8, 0xe6, 0x12, 0x39, 0x15, 0x00, 0x40, 0xb1, 
   0x5e, 0x3b, 0x1a, 0x8b, 0x55, 0x91, 0xc8, 0xe6, 0x12, 0x39, 
   0x15, 0x00, 0x40, 0xb1, 0x5e, 0x3b, 0x1a ,0x8b ,0x55 ,0x91 ,
   0xc8 ,0xe6, 0x12, 0x39 ,0x15, 0x00 ,0x40, 0xb1 ,0x5e ,0x3b ,
   0x1a, 0x8b ,0x55 ,0x91, 0xc8 ,0xe6, 0x12 ,0x39 ,0x15, 0x00 ,
   0x40 ,0xb1 ,0x5e, 0x3b ,0x1a ,0x8b ,0x55 ,0x91 ,0xc8 ,0xe6, 
   0x12, 0x39 ,0x15 ,0x00, 0x40, 0xb1 ,0x5e, 0x3b, 0x1a ,0x8b, 
   0x55 ,0x91 ,0xc8, 0xe6 ,0x12 ,0x39, 0x15, 0x00 ,0x40, 0xb1 ,
   0x5e, 0x3b ,0x1a ,0x8b, 0x55 ,0x91, 0xc8 ,0xe6 ,0x12, 0x39 ,
   0x15, 0x00, 0x40, 0xb1 ,0x5e, 0x3b ,0x1a, 0x8b ,0x55 ,0x91 ,
   0xc8 ,0xe6 ,0x12, 0x39 ,0x15, 0x00 ,0x40, 0xb1 ,0x5e ,0x3b ,
   0x1a ,0x8b ,0x55, 0x91 ,0xc8, 0xe6 ,0x12, 0x39, 0x15 ,0x00 ,
   0x40, 0xb1 ,0x5e ,0x3b, 0x1a ,0x8b, 0x55 ,0x91 ,0xc8, 0xe6 ,
   0x12, 0x39, 0x15, 0x00, 0x40, 0xb1, 0x5e, 0x3b, 0x1a, 0x8b, 
   0x55, 0x91, 0xc8, 0xe6, 0x12, 0x39, 0x15, 0x00, 0x40, 0xb1, 
   0x5e, 0x3b, 0x1a, 0x8b, 0x55 ,0x91 ,0xc8 ,0xe6 ,0x12 ,0x39, 
   0x15, 0x00 ,0x40, 0xb1 ,0x5e, 0x3b ,0x1a ,0x8b ,0x55, 0x91 ,
   0xc8 ,0xe6, 0x12 ,0x39, 0x15 ,0x00 ,0x40, 0xb1 ,0x5e ,0x3b ,
   0x1a, 0x8b ,0x55 ,0x91 ,0xc8 ,0xe6 ,0x12 ,0x39, 0x15, 0x00 ,
   0x40 ,0xb1, 0x5e, 0x3b ,0x1a, 0x8b, 0x55 ,0x91, 0xc8 ,0xe6 ,
   0x12, 0x39 ,0x15 ,0x00, 0x40, 0xb1 ,0x5e, 0x3b ,0x1a, 0x8b ,
   0x55 ,0x91, 0xc8 ,0xe6, 0x12 ,0x39 ,0x15, 0x00 ,0x40, 0xb1, 
   0x5e, 0x3b ,0x1a, 0x8b ,0x55, 0x91 ,0xc8 ,0xe6 ,0x12 ,0x39 ,
   0x15, 0x00 ,0x40, 0xb1 ,0x5e, 0x3b ,0x1a ,0x8b ,0x55 ,0x91 ,
   0xc8, 0xe6 ,0x12, 0x39 ,0x15, 0x00, 0x40 ,0xb1 ,0x5e, 0x3b ,
   0x1a ,0x8b, 0x55 ,0x91, 0xc8 ,0xe6 ,0x12, 0x39 ,0x15, 0x00, 
   0x40, 0xb1, 0x5e, 0x3b, 0x1a, 0x8b, 0x55, 0x91, 0xc8, 0xe6, 
   0x12, 0x39, 0x15, 0x00, 0x40, 0xb1, 0x5e, 0x3b, 0x1a, 0x8b, 
   0x55, 0x91, 0xc8 ,0xe6 ,0x12 ,0x39 ,0x15 ,0x00, 0x40, 0xb1 ,
   0x5e, 0x3b ,0x1a, 0x8b ,0x55 ,0x91 ,0xc8, 0xe6 ,0x12 ,0x39, 
   0x15 ,0x00, 0x40 ,0xb1 ,0x5e, 0x3b ,0x1a ,0x8b ,0x55, 0x91 ,
   0xc8 ,0xe6 ,0x12 ,0x39 ,0x15 ,0x00, 0x40, 0xb1 ,0x5e ,0x3b, 
   0x1a, 0x8b ,0x55, 0x91, 0xc8 ,0xe6, 0x12 ,0x39 ,0x15, 0x00 ,
   0x40 ,0xb1, 0x5e, 0x3b ,0x1a, 0x8b ,0x55, 0x91 ,0xc8 ,0xe6, 
   0x12 ,0x39, 0x15 ,0x00 ,0x40, 0xb1 ,0x5e, 0x3b, 0x1a, 0x8b ,
   0x55, 0x91 ,0xc8, 0xe6 ,0x12 ,0x39 ,0x15 ,0x00 ,0x40, 0xb1 ,
   0x5e, 0x3b ,0x1a, 0x8b ,0x55 ,0x91 ,0xc8 ,0xe6 ,0x12, 0x39 ,
   0x15, 0x00 ,0x40, 0xb1, 0x5e ,0x3b ,0x1a, 0x8b ,0x55 ,0x91, 
   0xc8 ,0xe6, 0x12 ,0x39 ,0x15, 0x00 ,0x40, 0xb1, 0x5e, 0x3b, 
   0x1a, 0x8b, 0x55, 0x91, 0xc8, 0xe6, 0x12, 0x39, 0x15, 0x00, 
   0x40, 0xb1, 0x5e, 0x3b, 0x1a, 0x8b, 0x55, 0x91, 0xc8, 0xe6, 
   0x12 ,0x39 ,0x15 ,0x00 ,0x40 ,0xb1, 0x5e, 0x3b ,0x1a, 0x8b ,
   0x55, 0x91 ,0xc8 ,0xe6 ,0x12, 0x39 ,0x15 ,0x00, 0x40 ,0xb1, 
   0x5e ,0x3b ,0x1a, 0x8b ,0x55 ,0x91 ,0xc8, 0xe6 ,0x12 ,0x39 ,
   0x15 ,0x00 ,0x40 ,0xb1, 0x5e, 0x3b ,0x1a ,0x8b, 0x55, 0x91 ,
   0xc8, 0xe6, 0x12 ,0x39, 0x15 ,0x00 ,0x40, 0xb1 ,0x5e ,0x3b, 
   0x1a, 0x8b ,0x55, 0x91 ,0xc8, 0xe6 ,0x12 ,0x39, 0x15 ,0x00, 
   0x40 ,0xb1 ,0x5e, 0x3b ,0x1a, 0x8b, 0x55, 0x91 ,0xc8, 0xe6 ,
   0x12, 0x39 ,0x15 ,0x00 ,0x40 ,0xb1 ,0x5e, 0x3b ,0x1a, 0x8b ,
   0x55, 0x91 ,0xc8 ,0xe6 ,0x12 ,0x39 ,0x15, 0x00 ,0x40, 0xb1 ,
   0x5e, 0x3b, 0x1a ,0x8b ,0x55, 0x91 ,0xc8 ,0xe6, 0x12 ,0x39, 
   0x15 ,0x00 ,0x40, 0xb1 ,0x5e, 0x3b, 0x1a, 0x8b, 0x55, 0x91, 
   0xc8, 0xe6, 0x12, 0x39, 0x15, 0x00, 0x4f, 0xb1, 0x5e, 0x3b, 
   0x1a, 0x8b, 0x55, 0x91, 0xc8, 0xe6, 0x12, 0x39, 0x95 ,0x07 ,
   0x49 ,0xb1 ,0x5e ,0x3b, 0x1a, 0x8b ,0x55, 0x91 ,0xc8, 0xe6 ,
   0x12 ,0x39 ,0x95, 0x04 ,0x49 ,0xb1, 0x5e ,0x3b, 0x1a ,0x8b ,
   0x55, 0x91 ,0xc8 ,0xe6 ,0x12, 0x39 ,0x95 ,0x04 ,0x49 ,0xb1 ,
   0x5e ,0x3b, 0x1a, 0x8b ,0x55 ,0x91, 0xc8, 0xe6 ,0x12, 0x39, 
   0x95 ,0x04, 0x49 ,0xb1 ,0x5e, 0x3b ,0x1a ,0x8b, 0x55, 0x91 ,
   0xc8, 0xe6 ,0x12, 0x39 ,0x95 ,0x04, 0x49 ,0xb1, 0x00 ,0x00 ,
   0x00, 0x00 ,0x50, 0x00, 0x00, 0x00 ,0x00, 0x38 ,0x95, 0x04 ,
   0x4f ,0xb1 ,0x00 ,0x00 ,0x00, 0x00 ,0x50, 0x00 ,0x00, 0x00 ,
   0x00 ,0x38 ,0x95 ,0x07 ,0x40, 0xb1 ,0x3c, 0x1e ,0x8f, 0xc7, 
   0x53 ,0x1e ,0x8f, 0xc7 ,0xe3 ,0x39, 0x15 ,0x00, 0x40 ,0xb1 ,
   0x20, 0x12 ,0x89, 0x44, 0x52, 0x12, 0x89, 0x44, 0x22, 0x39, 
   0x15, 0x00, 0x40, 0xb1, 0x20, 0x12, 0x89, 0x44, 0x52, 0x12, 
   0x09, 0x44, 0x22, 0x39, 0x15, 0x00, 0x40 ,0xb1 ,0x3c ,0x1e ,
   0x8f ,0x44, 0x52, 0x18 ,0x8c, 0xc7 ,0x83, 0x39 ,0x15 ,0x00 ,
   0x00, 0x00 ,0x20 ,0x12, 0x88 ,0x44, 0x02 ,0x08 ,0x84, 0x00 ,
   0x82 ,0x00 ,0x00, 0x00 ,0x00 ,0x00 ,0x20 ,0x12 ,0x88 ,0x44, 
   0x02, 0x08 ,0x84 ,0x04, 0x82, 0x00 ,0x00, 0x00, 0x00 ,0x00, 
   0x3c ,0x1e ,0x88, 0xc7 ,0x03 ,0x08, 0x84, 0x07 ,0x82, 0x00 ,
   0x00, 0x00 ,};
/* the milk.com barcode generator; http://www.milk.com/barcode/ */
