#define milk_barcode_width 107
#define milk_barcode_height 68
static char milk_barcode_bits[] = {
   0x00 ,0x00 ,0x48 ,0x00 ,0x00 ,0x00, 0xc0, 0x01 ,0x00, 0x1c ,
   0x00, 0x00 ,0x00 ,0x00 ,0x00, 0x00 ,0x48 ,0x00, 0x00 ,0x00, 
   0x40 ,0x02 ,0x00, 0x24 ,0x00 ,0x00 ,0x00, 0x00 ,0x00 ,0x00 ,
   0x48 ,0xef ,0xbd ,0xf7, 0x40, 0x7a ,0x0f ,0xa4, 0xf7, 0x00 ,
   0x00, 0x00, 0x00 ,0x00, 0x78 ,0x08 ,0xa5, 0x94 ,0x5e ,0x42, 
   0x08, 0x1c ,0x14, 0x00 ,0x00, 0x00 ,0x00 ,0x00, 0x48 ,0xef, 
   0xa5 ,0x97 ,0x40, 0x7a ,0x06, 0xa4, 0x17, 0x00 ,0x00, 0x00 ,
   0x00, 0x00 ,0x48 ,0x29 ,0xbd ,0x90 ,0x40, 0x4a ,0x01, 0xa4 ,
   0x14, 0x00 ,0x00 ,0x00 ,0x00 ,0x00 ,0x48, 0xef ,0xa1, 0x97 ,
   0xc0, 0x79, 0x0f ,0x9c ,0x17, 0x00 ,0x00 ,0x00, 0x00 ,0x00, 
   0x00 ,0x00 ,0x30, 0x00 ,0x00, 0x00, 0x00, 0x00, 0x00, 0x00, 
   0x00, 0x00, 0x40, 0xb1, 0x6e, 0xb1, 0xd1, 0x8d, 0x55, 0xa7, 
   0x50, 0x61, 0xb6, 0x89, 0x14, 0x00, 0x40, 0xb1, 0x6e ,0xb1 ,
   0xd1 ,0x8d ,0x55 ,0xa7, 0x50, 0x61 ,0xb6, 0x89 ,0x14, 0x00 ,
   0x40 ,0xb1 ,0x6e, 0xb1 ,0xd1 ,0x8d, 0x55 ,0xa7, 0x50 ,0x61 ,
   0xb6, 0x89 ,0x14 ,0x00 ,0x40, 0xb1 ,0x6e ,0xb1 ,0xd1 ,0x8d ,
   0x55 ,0xa7, 0x50, 0x61 ,0xb6 ,0x89, 0x14, 0x00 ,0x40, 0xb1, 
   0x6e ,0xb1, 0xd1 ,0x8d ,0x55, 0xa7 ,0x50 ,0x61, 0xb6, 0x89 ,
   0x14, 0x00 ,0x40, 0xb1 ,0x6e ,0xb1, 0xd1 ,0x8d, 0x55 ,0xa7 ,
   0x50, 0x61 ,0xb6, 0x89, 0x14, 0x00 ,0x40, 0xb1 ,0x6e, 0xb1 ,
   0xd1 ,0x8d ,0x55 ,0xa7 ,0x50, 0x61 ,0xb6, 0x89 ,0x14, 0x00 ,
   0x40 ,0xb1 ,0x6e ,0xb1 ,0xd1, 0x8d ,0x55, 0xa7 ,0x50, 0x61, 
   0xb6 ,0x89 ,0x14, 0x00 ,0x40 ,0xb1, 0x6e ,0xb1, 0xd1 ,0x8d ,
   0x55, 0xa7 ,0x50, 0x61, 0xb6, 0x89, 0x14, 0x00, 0x40, 0xb1, 
   0x6e, 0xb1, 0xd1, 0x8d, 0x55, 0xa7, 0x50, 0x61, 0xb6, 0x89, 
   0x14, 0x00, 0x40, 0xb1, 0x6e, 0xb1, 0xd1 ,0x8d ,0x55 ,0xa7 ,
   0x50 ,0x61, 0xb6, 0x89 ,0x14, 0x00 ,0x40, 0xb1 ,0x6e ,0xb1 ,
   0xd1, 0x8d ,0x55 ,0xa7, 0x50 ,0x61, 0xb6 ,0x89 ,0x14, 0x00 ,
   0x40 ,0xb1 ,0x6e, 0xb1 ,0xd1 ,0x8d ,0x55 ,0xa7 ,0x50 ,0x61, 
   0xb6, 0x89 ,0x14 ,0x00, 0x40, 0xb1 ,0x6e, 0xb1, 0xd1 ,0x8d, 
   0x55 ,0xa7 ,0x50, 0x61 ,0xb6 ,0x89, 0x14, 0x00 ,0x40, 0xb1 ,
   0x6e, 0xb1 ,0xd1 ,0x8d, 0x55 ,0xa7, 0x50 ,0x61 ,0xb6, 0x89 ,
   0x14, 0x00, 0x40, 0xb1 ,0x6e, 0xb1 ,0xd1, 0x8d ,0x55 ,0xa7 ,
   0x50 ,0x61 ,0xb6, 0x89 ,0x14, 0x00 ,0x40, 0xb1 ,0x6e ,0xb1 ,
   0xd1 ,0x8d ,0x55, 0xa7 ,0x50, 0x61 ,0xb6, 0x89, 0x14 ,0x00 ,
   0x40, 0xb1 ,0x6e ,0xb1, 0xd1 ,0x8d, 0x55 ,0xa7 ,0x50, 0x61 ,
   0xb6, 0x89, 0x14, 0x00, 0x40, 0xb1, 0x6e, 0xb1, 0xd1, 0x8d, 
   0x55, 0xa7, 0x50, 0x61, 0xb6, 0x89, 0x14, 0x00, 0x40, 0xb1, 
   0x6e, 0xb1, 0xd1, 0x8d, 0x55 ,0xa7 ,0x50 ,0x61 ,0xb6 ,0x89, 
   0x14, 0x00 ,0x40, 0xb1 ,0x6e, 0xb1 ,0xd1 ,0x8d ,0x55, 0xa7 ,
   0x50 ,0x61, 0xb6 ,0x89, 0x14 ,0x00 ,0x40, 0xb1 ,0x6e ,0xb1 ,
   0xd1, 0x8d ,0x55 ,0xa7 ,0x50 ,0x61 ,0xb6 ,0x89, 0x14, 0x00 ,
   0x40 ,0xb1, 0x6e, 0xb1 ,0xd1, 0x8d, 0x55 ,0xa7, 0x50 ,0x61 ,
   0xb6, 0x89 ,0x14 ,0x00, 0x40, 0xb1 ,0x6e, 0xb1 ,0xd1, 0x8d ,
   0x55 ,0xa7, 0x50 ,0x61, 0xb6 ,0x89 ,0x14, 0x00 ,0x40, 0xb1, 
   0x6e, 0xb1 ,0xd1, 0x8d ,0x55, 0xa7 ,0x50 ,0x61 ,0xb6 ,0x89 ,
   0x14, 0x00 ,0x40, 0xb1 ,0x6e, 0xb1 ,0xd1 ,0x8d ,0x55 ,0xa7 ,
   0x50, 0x61 ,0xb6, 0x89 ,0x14, 0x00, 0x40 ,0xb1 ,0x6e, 0xb1 ,
   0xd1 ,0x8d, 0x55 ,0xa7, 0x50 ,0x61 ,0xb6, 0x89 ,0x14, 0x00, 
   0x40, 0xb1, 0x6e, 0xb1, 0xd1, 0x8d, 0x55, 0xa7, 0x50, 0x61, 
   0xb6, 0x89, 0x14, 0x00, 0x40, 0xb1, 0x6e, 0xb1, 0xd1, 0x8d, 
   0x55, 0xa7, 0x50 ,0x61 ,0xb6 ,0x89 ,0x14 ,0x00, 0x40, 0xb1 ,
   0x6e, 0xb1 ,0xd1, 0x8d ,0x55 ,0xa7 ,0x50, 0x61 ,0xb6 ,0x89, 
   0x14 ,0x00, 0x40 ,0xb1 ,0x6e, 0xb1 ,0xd1 ,0x8d ,0x55, 0xa7 ,
   0x50 ,0x61 ,0xb6 ,0x89 ,0x14 ,0x00, 0x40, 0xb1 ,0x6e ,0xb1, 
   0xd1, 0x8d ,0x55, 0xa7, 0x50 ,0x61, 0xb6 ,0x89 ,0x14, 0x00 ,
   0x40 ,0xb1, 0x6e, 0xb1 ,0xd1, 0x8d ,0x55, 0xa7 ,0x50 ,0x61, 
   0xb6 ,0x89, 0x14 ,0x00 ,0x40, 0xb1 ,0x6e, 0xb1, 0xd1, 0x8d ,
   0x55, 0xa7 ,0x50, 0x61 ,0xb6 ,0x89 ,0x14 ,0x00 ,0x40, 0xb1 ,
   0x6e, 0xb1 ,0xd1, 0x8d ,0x55 ,0xa7 ,0x50 ,0x61 ,0xb6, 0x89 ,
   0x14, 0x00 ,0x40, 0xb1, 0x6e ,0xb1 ,0xd1, 0x8d ,0x55 ,0xa7, 
   0x50 ,0x61, 0xb6 ,0x89 ,0x14, 0x00 ,0x40, 0xb1, 0x6e, 0xb1, 
   0xd1, 0x8d, 0x55, 0xa7, 0x50, 0x61, 0xb6, 0x89, 0x14, 0x00, 
   0x40, 0xb1, 0x6e, 0xb1, 0xd1, 0x8d, 0x55, 0xa7, 0x50, 0x61, 
   0xb6 ,0x89 ,0x14 ,0x00 ,0x40 ,0xb1, 0x6e, 0xb1 ,0xd1, 0x8d ,
   0x55, 0xa7 ,0x50 ,0x61 ,0xb6, 0x89 ,0x14 ,0x00, 0x40 ,0xb1, 
   0x6e ,0xb1 ,0xd1, 0x8d ,0x55 ,0xa7 ,0x50, 0x61 ,0xb6 ,0x89 ,
   0x14 ,0x00 ,0x40 ,0xb1, 0x6e, 0xb1 ,0xd1 ,0x8d, 0x55, 0xa7 ,
   0x50, 0x61, 0xb6 ,0x89, 0x14 ,0x00 ,0x40, 0xb1 ,0x6e ,0xb1, 
   0xd1, 0x8d ,0x55, 0xa7 ,0x50, 0x61 ,0xb6 ,0x89, 0x14 ,0x00, 
   0x40 ,0xb1 ,0x6e, 0xb1 ,0xd1, 0x8d, 0x55, 0xa7 ,0x50, 0x61 ,
   0xb6, 0x89 ,0x14 ,0x00 ,0x40 ,0xb1 ,0x6e, 0xb1 ,0xd1, 0x8d ,
   0x55, 0xa7 ,0x50 ,0x61 ,0xb6 ,0x89 ,0x14, 0x00 ,0x40, 0xb1 ,
   0x6e, 0xb1, 0xd1 ,0x8d ,0x55, 0xa7 ,0x50 ,0x61, 0xb6 ,0x89, 
   0x14 ,0x00 ,0x40, 0xb1 ,0x6e, 0xb1, 0xd1, 0x8d, 0x55, 0xa7, 
   0x50, 0x61, 0xb6, 0x89, 0x14, 0x00, 0x4f, 0xb1, 0x6e, 0xb1, 
   0xd1, 0x8d, 0x55, 0xa7, 0x50, 0x61, 0xb6, 0x89, 0x94 ,0x07 ,
   0x49 ,0xb1 ,0x6e ,0xb1, 0xd1, 0x8d ,0x55, 0xa7 ,0x50, 0x61 ,
   0xb6 ,0x89 ,0x94, 0x04 ,0x49 ,0xb1, 0x6e ,0xb1, 0xd1 ,0x8d ,
   0x55, 0xa7 ,0x50 ,0x61 ,0xb6, 0x89 ,0x94 ,0x04 ,0x49 ,0xb1 ,
   0x6e ,0xb1, 0xd1, 0x8d ,0x55 ,0xa7, 0x50, 0x61 ,0xb6, 0x89, 
   0x14 ,0x06, 0x49 ,0xb1 ,0x6e, 0xb1 ,0xd1 ,0x8d, 0x55, 0xa7 ,
   0x50, 0x61 ,0xb6, 0x89 ,0x14 ,0x02, 0x49 ,0xb1, 0x00 ,0x00 ,
   0x00, 0x00 ,0x50, 0x00, 0x00, 0x00 ,0x00, 0x88 ,0x14, 0x02 ,
   0x4f ,0xb1 ,0x00 ,0x00 ,0x00, 0x00 ,0x50, 0x00 ,0x00, 0x00 ,
   0x00 ,0x88 ,0x14 ,0x02 ,0x40, 0xb1 ,0x3c, 0x12 ,0x8f, 0xc7, 
   0x53 ,0x1e ,0x8f, 0x81 ,0xe1 ,0x89, 0x14 ,0x00, 0x40 ,0xb1 ,
   0x24, 0x12 ,0x89, 0x44, 0x52, 0x12, 0x88, 0x00, 0x21, 0x89, 
   0x14, 0x00, 0x40, 0xb1, 0x24, 0x12, 0x81, 0x44, 0x52, 0x12, 
   0x88, 0x00, 0x01, 0x89, 0x14, 0x00, 0x40 ,0xb1 ,0x30 ,0x1e ,
   0x0f ,0x46, 0x52, 0x12 ,0x8f, 0x07 ,0xe1, 0x89 ,0x14 ,0x00 ,
   0x00, 0x00 ,0x10 ,0x10, 0x08 ,0x42, 0x02 ,0x12 ,0x88, 0x04 ,
   0x21 ,0x00 ,0x00, 0x00 ,0x00 ,0x00 ,0x10 ,0x10 ,0x09 ,0x42, 
   0x02, 0x12 ,0x88 ,0x04, 0x21, 0x01 ,0x00, 0x00, 0x00 ,0x00, 
   0x10 ,0x10 ,0x0f, 0xc2 ,0x03 ,0x1e, 0x8f, 0xc7 ,0xe3, 0x01 ,
   0x00, 0x00 ,};
/* the milk.com barcode generator; http://www.milk.com/barcode/ */
