#define milk_barcode_width 107
#define milk_barcode_height 68
static char milk_barcode_bits[] = {
   0x00 ,0x00 ,0x18 ,0x02 ,0x00 ,0xe0, 0x00, 0x10 ,0x00, 0x00 ,
   0x00, 0x00 ,0x00 ,0x00 ,0x00, 0x00 ,0x10 ,0x40, 0x00 ,0x20, 
   0x00 ,0x00 ,0x02, 0x00 ,0x00 ,0x00 ,0x00, 0x00 ,0x00 ,0x00 ,
   0x10 ,0xe3 ,0x3d ,0xf0, 0x5e, 0x1a ,0x0f ,0xbc, 0xf4, 0x00 ,
   0x00, 0x00, 0x00 ,0x00, 0x10 ,0x42 ,0x24, 0x20 ,0x42 ,0x12, 
   0x02, 0x84 ,0x94, 0x00 ,0x00, 0x00 ,0x00 ,0x00, 0x10 ,0x42, 
   0x3c ,0x20 ,0x42, 0x12 ,0x02, 0x84, 0x94, 0x00 ,0x00, 0x00 ,
   0x00, 0x00 ,0x10 ,0x42 ,0x04 ,0x20 ,0x42, 0x12 ,0x02, 0x84 ,
   0xf4, 0x00 ,0x00 ,0x00 ,0x00 ,0x00 ,0x38, 0xc7 ,0x3d, 0x20 ,
   0xc2, 0x3b, 0x0e ,0xbc ,0x17, 0x00 ,0x00 ,0x00, 0x00 ,0x00, 
   0x00 ,0x00 ,0x00, 0x00 ,0x00, 0x00, 0x00, 0x00, 0x10, 0x00, 
   0x00, 0x00, 0x40, 0xb1, 0x64, 0x31, 0x16, 0x8b, 0x55, 0xa7, 
   0x50, 0x6e, 0xd3, 0xe9, 0x14, 0x00, 0x40, 0xb1, 0x64 ,0x31 ,
   0x16 ,0x8b ,0x55 ,0xa7, 0x50, 0x6e ,0xd3, 0xe9 ,0x14, 0x00 ,
   0x40 ,0xb1 ,0x64, 0x31 ,0x16 ,0x8b, 0x55 ,0xa7, 0x50 ,0x6e ,
   0xd3, 0xe9 ,0x14 ,0x00 ,0x40, 0xb1 ,0x64 ,0x31 ,0x16 ,0x8b ,
   0x55 ,0xa7, 0x50, 0x6e ,0xd3 ,0xe9, 0x14, 0x00 ,0x40, 0xb1, 
   0x64 ,0x31, 0x16 ,0x8b ,0x55, 0xa7 ,0x50 ,0x6e, 0xd3, 0xe9 ,
   0x14, 0x00 ,0x40, 0xb1 ,0x64 ,0x31, 0x16 ,0x8b, 0x55 ,0xa7 ,
   0x50, 0x6e ,0xd3, 0xe9, 0x14, 0x00 ,0x40, 0xb1 ,0x64, 0x31 ,
   0x16 ,0x8b ,0x55 ,0xa7 ,0x50, 0x6e ,0xd3, 0xe9 ,0x14, 0x00 ,
   0x40 ,0xb1 ,0x64 ,0x31 ,0x16, 0x8b ,0x55, 0xa7 ,0x50, 0x6e, 
   0xd3 ,0xe9 ,0x14, 0x00 ,0x40 ,0xb1, 0x64 ,0x31, 0x16 ,0x8b ,
   0x55, 0xa7 ,0x50, 0x6e, 0xd3, 0xe9, 0x14, 0x00, 0x40, 0xb1, 
   0x64, 0x31, 0x16, 0x8b, 0x55, 0xa7, 0x50, 0x6e, 0xd3, 0xe9, 
   0x14, 0x00, 0x40, 0xb1, 0x64, 0x31, 0x16 ,0x8b ,0x55 ,0xa7 ,
   0x50 ,0x6e, 0xd3, 0xe9 ,0x14, 0x00 ,0x40, 0xb1 ,0x64 ,0x31 ,
   0x16, 0x8b ,0x55 ,0xa7, 0x50 ,0x6e, 0xd3 ,0xe9 ,0x14, 0x00 ,
   0x40 ,0xb1 ,0x64, 0x31 ,0x16 ,0x8b ,0x55 ,0xa7 ,0x50 ,0x6e, 
   0xd3, 0xe9 ,0x14 ,0x00, 0x40, 0xb1 ,0x64, 0x31, 0x16 ,0x8b, 
   0x55 ,0xa7 ,0x50, 0x6e ,0xd3 ,0xe9, 0x14, 0x00 ,0x40, 0xb1 ,
   0x64, 0x31 ,0x16 ,0x8b, 0x55 ,0xa7, 0x50 ,0x6e ,0xd3, 0xe9 ,
   0x14, 0x00, 0x40, 0xb1 ,0x64, 0x31 ,0x16, 0x8b ,0x55 ,0xa7 ,
   0x50 ,0x6e ,0xd3, 0xe9 ,0x14, 0x00 ,0x40, 0xb1 ,0x64 ,0x31 ,
   0x16 ,0x8b ,0x55, 0xa7 ,0x50, 0x6e ,0xd3, 0xe9, 0x14 ,0x00 ,
   0x40, 0xb1 ,0x64 ,0x31, 0x16 ,0x8b, 0x55 ,0xa7 ,0x50, 0x6e ,
   0xd3, 0xe9, 0x14, 0x00, 0x40, 0xb1, 0x64, 0x31, 0x16, 0x8b, 
   0x55, 0xa7, 0x50, 0x6e, 0xd3, 0xe9, 0x14, 0x00, 0x40, 0xb1, 
   0x64, 0x31, 0x16, 0x8b, 0x55 ,0xa7 ,0x50 ,0x6e ,0xd3 ,0xe9, 
   0x14, 0x00 ,0x40, 0xb1 ,0x64, 0x31 ,0x16 ,0x8b ,0x55, 0xa7 ,
   0x50 ,0x6e, 0xd3 ,0xe9, 0x14 ,0x00 ,0x40, 0xb1 ,0x64 ,0x31 ,
   0x16, 0x8b ,0x55 ,0xa7 ,0x50 ,0x6e ,0xd3 ,0xe9, 0x14, 0x00 ,
   0x40 ,0xb1, 0x64, 0x31 ,0x16, 0x8b, 0x55 ,0xa7, 0x50 ,0x6e ,
   0xd3, 0xe9 ,0x14 ,0x00, 0x40, 0xb1 ,0x64, 0x31 ,0x16, 0x8b ,
   0x55 ,0xa7, 0x50 ,0x6e, 0xd3 ,0xe9 ,0x14, 0x00 ,0x40, 0xb1, 
   0x64, 0x31 ,0x16, 0x8b ,0x55, 0xa7 ,0x50 ,0x6e ,0xd3 ,0xe9 ,
   0x14, 0x00 ,0x40, 0xb1 ,0x64, 0x31 ,0x16 ,0x8b ,0x55 ,0xa7 ,
   0x50, 0x6e ,0xd3, 0xe9 ,0x14, 0x00, 0x40 ,0xb1 ,0x64, 0x31 ,
   0x16 ,0x8b, 0x55 ,0xa7, 0x50 ,0x6e ,0xd3, 0xe9 ,0x14, 0x00, 
   0x40, 0xb1, 0x64, 0x31, 0x16, 0x8b, 0x55, 0xa7, 0x50, 0x6e, 
   0xd3, 0xe9, 0x14, 0x00, 0x40, 0xb1, 0x64, 0x31, 0x16, 0x8b, 
   0x55, 0xa7, 0x50 ,0x6e ,0xd3 ,0xe9 ,0x14 ,0x00, 0x40, 0xb1 ,
   0x64, 0x31 ,0x16, 0x8b ,0x55 ,0xa7 ,0x50, 0x6e ,0xd3 ,0xe9, 
   0x14 ,0x00, 0x40 ,0xb1 ,0x64, 0x31 ,0x16 ,0x8b ,0x55, 0xa7 ,
   0x50 ,0x6e ,0xd3 ,0xe9 ,0x14 ,0x00, 0x40, 0xb1 ,0x64 ,0x31, 
   0x16, 0x8b ,0x55, 0xa7, 0x50 ,0x6e, 0xd3 ,0xe9 ,0x14, 0x00 ,
   0x40 ,0xb1, 0x64, 0x31 ,0x16, 0x8b ,0x55, 0xa7 ,0x50 ,0x6e, 
   0xd3 ,0xe9, 0x14 ,0x00 ,0x40, 0xb1 ,0x64, 0x31, 0x16, 0x8b ,
   0x55, 0xa7 ,0x50, 0x6e ,0xd3 ,0xe9 ,0x14 ,0x00 ,0x40, 0xb1 ,
   0x64, 0x31 ,0x16, 0x8b ,0x55 ,0xa7 ,0x50 ,0x6e ,0xd3, 0xe9 ,
   0x14, 0x00 ,0x40, 0xb1, 0x64 ,0x31 ,0x16, 0x8b ,0x55 ,0xa7, 
   0x50 ,0x6e, 0xd3 ,0xe9 ,0x14, 0x00 ,0x40, 0xb1, 0x64, 0x31, 
   0x16, 0x8b, 0x55, 0xa7, 0x50, 0x6e, 0xd3, 0xe9, 0x14, 0x00, 
   0x40, 0xb1, 0x64, 0x31, 0x16, 0x8b, 0x55, 0xa7, 0x50, 0x6e, 
   0xd3 ,0xe9 ,0x14 ,0x00 ,0x40 ,0xb1, 0x64, 0x31 ,0x16, 0x8b ,
   0x55, 0xa7 ,0x50 ,0x6e ,0xd3, 0xe9 ,0x14 ,0x00, 0x40 ,0xb1, 
   0x64 ,0x31 ,0x16, 0x8b ,0x55 ,0xa7 ,0x50, 0x6e ,0xd3 ,0xe9 ,
   0x14 ,0x00 ,0x40 ,0xb1, 0x64, 0x31 ,0x16 ,0x8b, 0x55, 0xa7 ,
   0x50, 0x6e, 0xd3 ,0xe9, 0x14 ,0x00 ,0x40, 0xb1 ,0x64 ,0x31, 
   0x16, 0x8b ,0x55, 0xa7 ,0x50, 0x6e ,0xd3 ,0xe9, 0x14 ,0x00, 
   0x40 ,0xb1 ,0x64, 0x31 ,0x16, 0x8b, 0x55, 0xa7 ,0x50, 0x6e ,
   0xd3, 0xe9 ,0x14 ,0x00 ,0x40 ,0xb1 ,0x64, 0x31 ,0x16, 0x8b ,
   0x55, 0xa7 ,0x50 ,0x6e ,0xd3 ,0xe9 ,0x14, 0x00 ,0x40, 0xb1 ,
   0x64, 0x31, 0x16 ,0x8b ,0x55, 0xa7 ,0x50 ,0x6e, 0xd3 ,0xe9, 
   0x14 ,0x00 ,0x40, 0xb1 ,0x64, 0x31, 0x16, 0x8b, 0x55, 0xa7, 
   0x50, 0x6e, 0xd3, 0xe9, 0x14, 0x00, 0x4f, 0xb1, 0x64, 0x31, 
   0x16, 0x8b, 0x55, 0xa7, 0x50, 0x6e, 0xd3, 0xe9, 0x94 ,0x04 ,
   0x49 ,0xb1 ,0x64 ,0x31, 0x16, 0x8b ,0x55, 0xa7 ,0x50, 0x6e ,
   0xd3 ,0xe9 ,0x94, 0x04 ,0x49 ,0xb1, 0x64 ,0x31, 0x16 ,0x8b ,
   0x55, 0xa7 ,0x50 ,0x6e ,0xd3, 0xe9 ,0x94 ,0x04 ,0x49 ,0xb1 ,
   0x64 ,0x31, 0x16, 0x8b ,0x55 ,0xa7, 0x50, 0x6e ,0xd3, 0xe9, 
   0x94 ,0x07, 0x49 ,0xb1 ,0x64, 0x31 ,0x16 ,0x8b, 0x55, 0xa7 ,
   0x50, 0x6e ,0xd3, 0xe9 ,0x14 ,0x04, 0x49 ,0xb1, 0x00 ,0x00 ,
   0x00, 0x00 ,0x50, 0x00, 0x00, 0x00 ,0x00, 0xe8 ,0x14, 0x04 ,
   0x4f ,0xb1 ,0x00 ,0x00 ,0x00, 0x00 ,0x50, 0x00 ,0x00, 0x00 ,
   0x00 ,0xe8 ,0x14 ,0x04 ,0x40, 0xb1 ,0x3c, 0x12 ,0x8f, 0xc7, 
   0x53 ,0x1e ,0x8f, 0xc7 ,0x23 ,0xe9, 0x14 ,0x00, 0x40 ,0xb1 ,
   0x24, 0x12 ,0x89, 0x44, 0x52, 0x12, 0x88, 0x44, 0x22, 0xe9, 
   0x14, 0x00, 0x40, 0xb1, 0x20, 0x12, 0x89, 0x44, 0x52, 0x12, 
   0x88, 0x00, 0x22, 0xe9, 0x14, 0x00, 0x40 ,0xb1 ,0x3c ,0x1e ,
   0x89 ,0x44, 0x52, 0x12 ,0x8f, 0xc7 ,0xe3, 0xe9 ,0x14 ,0x00 ,
   0x00, 0x00 ,0x04 ,0x10, 0x89 ,0x44, 0x02 ,0x12 ,0x08, 0x44 ,
   0x00 ,0x01 ,0x00, 0x00 ,0x00 ,0x00 ,0x24 ,0x10 ,0x89 ,0x44, 
   0x02, 0x12 ,0x88 ,0x44, 0x02, 0x01 ,0x00, 0x00, 0x00 ,0x00, 
   0x3c ,0x10 ,0x8f, 0xc7 ,0x03 ,0x1e, 0x8f, 0xc7 ,0x03, 0x01 ,
   0x00, 0x00 ,};
/* the milk.com barcode generator; http://www.milk.com/barcode/ */
