#define milk_barcode_width 107
#define milk_barcode_height 68
static char milk_barcode_bits[] = {
   0x00 ,0x00 ,0x00 ,0x04 ,0x00 ,0x00, 0x78, 0x00 ,0x04, 0x00 ,
   0x00, 0x00 ,0x00 ,0x00 ,0x00, 0x00 ,0x00 ,0x04, 0x00 ,0x00, 
   0x48 ,0x00 ,0x04, 0x20 ,0x00 ,0x00 ,0x00, 0x00 ,0x00 ,0x00 ,
   0x00 ,0x84 ,0xf7 ,0x1e, 0x48, 0xef ,0xa5 ,0xf7, 0x00, 0x00 ,
   0x00, 0x00, 0x00 ,0x00, 0x00 ,0x84 ,0x84, 0x12 ,0x78 ,0x29, 
   0x94, 0x24 ,0x00, 0x00 ,0x00, 0x00 ,0x00 ,0x00, 0x00 ,0x84, 
   0xf7 ,0x12 ,0x08, 0x29 ,0x8c, 0x27, 0x00, 0x00 ,0x00, 0x00 ,
   0x00, 0x00 ,0x00 ,0x84 ,0x90 ,0x12 ,0x08, 0x29 ,0x94, 0x20 ,
   0x00, 0x00 ,0x00 ,0x00 ,0x00 ,0x00 ,0x00, 0xbc ,0xf7, 0x12 ,
   0x08, 0xef, 0xa5 ,0xe7 ,0x00, 0x00 ,0x00 ,0x00, 0x00 ,0x00, 
   0x00 ,0x00 ,0x00, 0x00 ,0x00, 0x00, 0x00, 0x00, 0x00, 0x00, 
   0x00, 0x00, 0x40, 0xb1, 0x62, 0xaf, 0x1e, 0x6d, 0x54, 0xa7, 
   0x48, 0x22, 0x97, 0x4b, 0x14, 0x00, 0x40, 0xb1, 0x62 ,0xaf ,
   0x1e ,0x6d ,0x54 ,0xa7, 0x48, 0x22 ,0x97, 0x4b ,0x14, 0x00 ,
   0x40 ,0xb1 ,0x62, 0xaf ,0x1e ,0x6d, 0x54 ,0xa7, 0x48 ,0x22 ,
   0x97, 0x4b ,0x14 ,0x00 ,0x40, 0xb1 ,0x62 ,0xaf ,0x1e ,0x6d ,
   0x54 ,0xa7, 0x48, 0x22 ,0x97 ,0x4b, 0x14, 0x00 ,0x40, 0xb1, 
   0x62 ,0xaf, 0x1e ,0x6d ,0x54, 0xa7 ,0x48 ,0x22, 0x97, 0x4b ,
   0x14, 0x00 ,0x40, 0xb1 ,0x62 ,0xaf, 0x1e ,0x6d, 0x54 ,0xa7 ,
   0x48, 0x22 ,0x97, 0x4b, 0x14, 0x00 ,0x40, 0xb1 ,0x62, 0xaf ,
   0x1e ,0x6d ,0x54 ,0xa7 ,0x48, 0x22 ,0x97, 0x4b ,0x14, 0x00 ,
   0x40 ,0xb1 ,0x62 ,0xaf ,0x1e, 0x6d ,0x54, 0xa7 ,0x48, 0x22, 
   0x97 ,0x4b ,0x14, 0x00 ,0x40 ,0xb1, 0x62 ,0xaf, 0x1e ,0x6d ,
   0x54, 0xa7 ,0x48, 0x22, 0x97, 0x4b, 0x14, 0x00, 0x40, 0xb1, 
   0x62, 0xaf, 0x1e, 0x6d, 0x54, 0xa7, 0x48, 0x22, 0x97, 0x4b, 
   0x14, 0x00, 0x40, 0xb1, 0x62, 0xaf, 0x1e ,0x6d ,0x54 ,0xa7 ,
   0x48 ,0x22, 0x97, 0x4b ,0x14, 0x00 ,0x40, 0xb1 ,0x62 ,0xaf ,
   0x1e, 0x6d ,0x54 ,0xa7, 0x48 ,0x22, 0x97 ,0x4b ,0x14, 0x00 ,
   0x40 ,0xb1 ,0x62, 0xaf ,0x1e ,0x6d ,0x54 ,0xa7 ,0x48 ,0x22, 
   0x97, 0x4b ,0x14 ,0x00, 0x40, 0xb1 ,0x62, 0xaf, 0x1e ,0x6d, 
   0x54 ,0xa7 ,0x48, 0x22 ,0x97 ,0x4b, 0x14, 0x00 ,0x40, 0xb1 ,
   0x62, 0xaf ,0x1e ,0x6d, 0x54 ,0xa7, 0x48 ,0x22 ,0x97, 0x4b ,
   0x14, 0x00, 0x40, 0xb1 ,0x62, 0xaf ,0x1e, 0x6d ,0x54 ,0xa7 ,
   0x48 ,0x22 ,0x97, 0x4b ,0x14, 0x00 ,0x40, 0xb1 ,0x62 ,0xaf ,
   0x1e ,0x6d ,0x54, 0xa7 ,0x48, 0x22 ,0x97, 0x4b, 0x14 ,0x00 ,
   0x40, 0xb1 ,0x62 ,0xaf, 0x1e ,0x6d, 0x54 ,0xa7 ,0x48, 0x22 ,
   0x97, 0x4b, 0x14, 0x00, 0x40, 0xb1, 0x62, 0xaf, 0x1e, 0x6d, 
   0x54, 0xa7, 0x48, 0x22, 0x97, 0x4b, 0x14, 0x00, 0x40, 0xb1, 
   0x62, 0xaf, 0x1e, 0x6d, 0x54 ,0xa7 ,0x48 ,0x22 ,0x97 ,0x4b, 
   0x14, 0x00 ,0x40, 0xb1 ,0x62, 0xaf ,0x1e ,0x6d ,0x54, 0xa7 ,
   0x48 ,0x22, 0x97 ,0x4b, 0x14 ,0x00 ,0x40, 0xb1 ,0x62 ,0xaf ,
   0x1e, 0x6d ,0x54 ,0xa7 ,0x48 ,0x22 ,0x97 ,0x4b, 0x14, 0x00 ,
   0x40 ,0xb1, 0x62, 0xaf ,0x1e, 0x6d, 0x54 ,0xa7, 0x48 ,0x22 ,
   0x97, 0x4b ,0x14 ,0x00, 0x40, 0xb1 ,0x62, 0xaf ,0x1e, 0x6d ,
   0x54 ,0xa7, 0x48 ,0x22, 0x97 ,0x4b ,0x14, 0x00 ,0x40, 0xb1, 
   0x62, 0xaf ,0x1e, 0x6d ,0x54, 0xa7 ,0x48 ,0x22 ,0x97 ,0x4b ,
   0x14, 0x00 ,0x40, 0xb1 ,0x62, 0xaf ,0x1e ,0x6d ,0x54 ,0xa7 ,
   0x48, 0x22 ,0x97, 0x4b ,0x14, 0x00, 0x40 ,0xb1 ,0x62, 0xaf ,
   0x1e ,0x6d, 0x54 ,0xa7, 0x48 ,0x22 ,0x97, 0x4b ,0x14, 0x00, 
   0x40, 0xb1, 0x62, 0xaf, 0x1e, 0x6d, 0x54, 0xa7, 0x48, 0x22, 
   0x97, 0x4b, 0x14, 0x00, 0x40, 0xb1, 0x62, 0xaf, 0x1e, 0x6d, 
   0x54, 0xa7, 0x48 ,0x22 ,0x97 ,0x4b ,0x14 ,0x00, 0x40, 0xb1 ,
   0x62, 0xaf ,0x1e, 0x6d ,0x54 ,0xa7 ,0x48, 0x22 ,0x97 ,0x4b, 
   0x14 ,0x00, 0x40 ,0xb1 ,0x62, 0xaf ,0x1e ,0x6d ,0x54, 0xa7 ,
   0x48 ,0x22 ,0x97 ,0x4b ,0x14 ,0x00, 0x40, 0xb1 ,0x62 ,0xaf, 
   0x1e, 0x6d ,0x54, 0xa7, 0x48 ,0x22, 0x97 ,0x4b ,0x14, 0x00 ,
   0x40 ,0xb1, 0x62, 0xaf ,0x1e, 0x6d ,0x54, 0xa7 ,0x48 ,0x22, 
   0x97 ,0x4b, 0x14 ,0x00 ,0x40, 0xb1 ,0x62, 0xaf, 0x1e, 0x6d ,
   0x54, 0xa7 ,0x48, 0x22 ,0x97 ,0x4b ,0x14 ,0x00 ,0x40, 0xb1 ,
   0x62, 0xaf ,0x1e, 0x6d ,0x54 ,0xa7 ,0x48 ,0x22 ,0x97, 0x4b ,
   0x14, 0x00 ,0x40, 0xb1, 0x62 ,0xaf ,0x1e, 0x6d ,0x54 ,0xa7, 
   0x48 ,0x22, 0x97 ,0x4b ,0x14, 0x00 ,0x40, 0xb1, 0x62, 0xaf, 
   0x1e, 0x6d, 0x54, 0xa7, 0x48, 0x22, 0x97, 0x4b, 0x14, 0x00, 
   0x40, 0xb1, 0x62, 0xaf, 0x1e, 0x6d, 0x54, 0xa7, 0x48, 0x22, 
   0x97 ,0x4b ,0x14 ,0x00 ,0x40 ,0xb1, 0x62, 0xaf ,0x1e, 0x6d ,
   0x54, 0xa7 ,0x48 ,0x22 ,0x97, 0x4b ,0x14 ,0x00, 0x40 ,0xb1, 
   0x62 ,0xaf ,0x1e, 0x6d ,0x54 ,0xa7 ,0x48, 0x22 ,0x97 ,0x4b ,
   0x14 ,0x00 ,0x40 ,0xb1, 0x62, 0xaf ,0x1e ,0x6d, 0x54, 0xa7 ,
   0x48, 0x22, 0x97 ,0x4b, 0x14 ,0x00 ,0x40, 0xb1 ,0x62 ,0xaf, 
   0x1e, 0x6d ,0x54, 0xa7 ,0x48, 0x22 ,0x97 ,0x4b, 0x14 ,0x00, 
   0x40 ,0xb1 ,0x62, 0xaf ,0x1e, 0x6d, 0x54, 0xa7 ,0x48, 0x22 ,
   0x97, 0x4b ,0x14 ,0x00 ,0x40 ,0xb1 ,0x62, 0xaf ,0x1e, 0x6d ,
   0x54, 0xa7 ,0x48 ,0x22 ,0x97 ,0x4b ,0x14, 0x00 ,0x40, 0xb1 ,
   0x62, 0xaf, 0x1e ,0x6d ,0x54, 0xa7 ,0x48 ,0x22, 0x97 ,0x4b, 
   0x14 ,0x00 ,0x40, 0xb1 ,0x62, 0xaf, 0x1e, 0x6d, 0x54, 0xa7, 
   0x48, 0x22, 0x97, 0x4b, 0x14, 0x00, 0x4f, 0xb1, 0x62, 0xaf, 
   0x1e, 0x6d, 0x54, 0xa7, 0x48, 0x22, 0x97, 0x4b, 0x94 ,0x07 ,
   0x49 ,0xb1 ,0x62 ,0xaf, 0x1e, 0x6d ,0x54, 0xa7 ,0x48, 0x22 ,
   0x97 ,0x4b ,0x94, 0x04 ,0x49 ,0xb1, 0x62 ,0xaf, 0x1e ,0x6d ,
   0x54, 0xa7 ,0x48 ,0x22 ,0x97, 0x4b ,0x94 ,0x04 ,0x49 ,0xb1 ,
   0x62 ,0xaf, 0x1e, 0x6d ,0x54 ,0xa7, 0x48, 0x22 ,0x97, 0x4b, 
   0x94 ,0x07, 0x49 ,0xb1 ,0x62, 0xaf ,0x1e ,0x6d, 0x54, 0xa7 ,
   0x48, 0x22 ,0x97, 0x4b ,0x94 ,0x04, 0x49 ,0xb1, 0x00 ,0x00 ,
   0x00, 0x00 ,0x50, 0x00, 0x00, 0x00 ,0x00, 0x48 ,0x94, 0x04 ,
   0x4f ,0xb1 ,0x00 ,0x00 ,0x00, 0x00 ,0x50, 0x00 ,0x00, 0x00 ,
   0x00 ,0x48 ,0x94 ,0x07 ,0x40, 0xb1 ,0x24, 0x1e ,0x83, 0xc7, 
   0x53 ,0x1e ,0x8f, 0xc7 ,0xe3 ,0x49, 0x14 ,0x00, 0x40 ,0xb1 ,
   0x24, 0x10 ,0x81, 0x44, 0x52, 0x12, 0x89, 0x44, 0x22, 0x49, 
   0x14, 0x00, 0x40, 0xb1, 0x24, 0x10, 0x81, 0x44, 0x50, 0x12, 
   0x89, 0x44, 0x20, 0x48, 0x14, 0x00, 0x40 ,0xb1 ,0x3c ,0x1e ,
   0x8f ,0xc7, 0x53, 0x12 ,0x8c, 0xc7 ,0xe3, 0x49 ,0x14 ,0x00 ,
   0x00, 0x00 ,0x20 ,0x10, 0x09 ,0x04, 0x02 ,0x12 ,0x84, 0x04 ,
   0x02 ,0x01 ,0x00, 0x00 ,0x00 ,0x00 ,0x20 ,0x10 ,0x09 ,0x44, 
   0x02, 0x12 ,0x84 ,0x44, 0x22, 0x01 ,0x00, 0x00, 0x00 ,0x00, 
   0x20 ,0x1e ,0x0f, 0xc4 ,0x03 ,0x1e, 0x84, 0xc7 ,0xe3, 0x01 ,
   0x00, 0x00 ,};
/* the milk.com barcode generator; http://www.milk.com/barcode/ */
