#define milk_barcode_width 107
#define milk_barcode_height 68
static char milk_barcode_bits[] = {
   0x00 ,0xc0 ,0x49 ,0x21 ,0x01 ,0x00, 0x04, 0x00 ,0x00, 0x00 ,
   0x00, 0x00 ,0x00 ,0x00 ,0x00, 0x40 ,0x4a ,0x21, 0x01 ,0x00, 
   0x00 ,0x00 ,0x00, 0x00 ,0x01 ,0x00 ,0x00, 0x00 ,0x00 ,0x40 ,
   0x4a ,0x21 ,0x81 ,0xf7, 0xc6, 0x7b ,0xef ,0x81, 0xf7, 0x1e ,
   0x00, 0x00, 0x00 ,0xc0, 0x49 ,0xe1 ,0x3c, 0x14 ,0x04 ,0x4a, 
   0x09, 0x01 ,0x91, 0x10 ,0x00, 0x00 ,0x00 ,0x40, 0x4a ,0x21, 
   0x81 ,0x17 ,0x84, 0x49 ,0xe9, 0x01, 0xf1, 0x1e ,0x00, 0x00 ,
   0x00, 0x40 ,0x4a ,0x21 ,0x81 ,0x14 ,0x44, 0x48 ,0x29, 0x01 ,
   0x11, 0x12 ,0x00 ,0x00 ,0x00 ,0xc0 ,0x79, 0x2f ,0x81, 0x17 ,
   0xce, 0x7b, 0xe9 ,0x3d ,0xf7, 0x1e ,0x00 ,0x00, 0x00 ,0x00, 
   0x00 ,0x00 ,0x00, 0x00 ,0x00, 0x00, 0x00, 0x00, 0x00, 0x00, 
   0x00, 0x00, 0x40, 0xf5, 0x4c, 0x2f, 0x16, 0x6b, 0x57, 0x91, 
   0xd9, 0x29, 0x77, 0x8a, 0x14, 0x00, 0x40, 0xf5, 0x4c ,0x2f ,
   0x16 ,0x6b ,0x57 ,0x91, 0xd9, 0x29 ,0x77, 0x8a ,0x14, 0x00 ,
   0x40 ,0xf5 ,0x4c, 0x2f ,0x16 ,0x6b, 0x57 ,0x91, 0xd9 ,0x29 ,
   0x77, 0x8a ,0x14 ,0x00 ,0x40, 0xf5 ,0x4c ,0x2f ,0x16 ,0x6b ,
   0x57 ,0x91, 0xd9, 0x29 ,0x77 ,0x8a, 0x14, 0x00 ,0x40, 0xf5, 
   0x4c ,0x2f, 0x16 ,0x6b ,0x57, 0x91 ,0xd9 ,0x29, 0x77, 0x8a ,
   0x14, 0x00 ,0x40, 0xf5 ,0x4c ,0x2f, 0x16 ,0x6b, 0x57 ,0x91 ,
   0xd9, 0x29 ,0x77, 0x8a, 0x14, 0x00 ,0x40, 0xf5 ,0x4c, 0x2f ,
   0x16 ,0x6b ,0x57 ,0x91 ,0xd9, 0x29 ,0x77, 0x8a ,0x14, 0x00 ,
   0x40 ,0xf5 ,0x4c ,0x2f ,0x16, 0x6b ,0x57, 0x91 ,0xd9, 0x29, 
   0x77 ,0x8a ,0x14, 0x00 ,0x40 ,0xf5, 0x4c ,0x2f, 0x16 ,0x6b ,
   0x57, 0x91 ,0xd9, 0x29, 0x77, 0x8a, 0x14, 0x00, 0x40, 0xf5, 
   0x4c, 0x2f, 0x16, 0x6b, 0x57, 0x91, 0xd9, 0x29, 0x77, 0x8a, 
   0x14, 0x00, 0x40, 0xf5, 0x4c, 0x2f, 0x16 ,0x6b ,0x57 ,0x91 ,
   0xd9 ,0x29, 0x77, 0x8a ,0x14, 0x00 ,0x40, 0xf5 ,0x4c ,0x2f ,
   0x16, 0x6b ,0x57 ,0x91, 0xd9 ,0x29, 0x77 ,0x8a ,0x14, 0x00 ,
   0x40 ,0xf5 ,0x4c, 0x2f ,0x16 ,0x6b ,0x57 ,0x91 ,0xd9 ,0x29, 
   0x77, 0x8a ,0x14 ,0x00, 0x40, 0xf5 ,0x4c, 0x2f, 0x16 ,0x6b, 
   0x57 ,0x91 ,0xd9, 0x29 ,0x77 ,0x8a, 0x14, 0x00 ,0x40, 0xf5 ,
   0x4c, 0x2f ,0x16 ,0x6b, 0x57 ,0x91, 0xd9 ,0x29 ,0x77, 0x8a ,
   0x14, 0x00, 0x40, 0xf5 ,0x4c, 0x2f ,0x16, 0x6b ,0x57 ,0x91 ,
   0xd9 ,0x29 ,0x77, 0x8a ,0x14, 0x00 ,0x40, 0xf5 ,0x4c ,0x2f ,
   0x16 ,0x6b ,0x57, 0x91 ,0xd9, 0x29 ,0x77, 0x8a, 0x14 ,0x00 ,
   0x40, 0xf5 ,0x4c ,0x2f, 0x16 ,0x6b, 0x57 ,0x91 ,0xd9, 0x29 ,
   0x77, 0x8a, 0x14, 0x00, 0x40, 0xf5, 0x4c, 0x2f, 0x16, 0x6b, 
   0x57, 0x91, 0xd9, 0x29, 0x77, 0x8a, 0x14, 0x00, 0x40, 0xf5, 
   0x4c, 0x2f, 0x16, 0x6b, 0x57 ,0x91 ,0xd9 ,0x29 ,0x77 ,0x8a, 
   0x14, 0x00 ,0x40, 0xf5 ,0x4c, 0x2f ,0x16 ,0x6b ,0x57, 0x91 ,
   0xd9 ,0x29, 0x77 ,0x8a, 0x14 ,0x00 ,0x40, 0xf5 ,0x4c ,0x2f ,
   0x16, 0x6b ,0x57 ,0x91 ,0xd9 ,0x29 ,0x77 ,0x8a, 0x14, 0x00 ,
   0x40 ,0xf5, 0x4c, 0x2f ,0x16, 0x6b, 0x57 ,0x91, 0xd9 ,0x29 ,
   0x77, 0x8a ,0x14 ,0x00, 0x40, 0xf5 ,0x4c, 0x2f ,0x16, 0x6b ,
   0x57 ,0x91, 0xd9 ,0x29, 0x77 ,0x8a ,0x14, 0x00 ,0x40, 0xf5, 
   0x4c, 0x2f ,0x16, 0x6b ,0x57, 0x91 ,0xd9 ,0x29 ,0x77 ,0x8a ,
   0x14, 0x00 ,0x40, 0xf5 ,0x4c, 0x2f ,0x16 ,0x6b ,0x57 ,0x91 ,
   0xd9, 0x29 ,0x77, 0x8a ,0x14, 0x00, 0x40 ,0xf5 ,0x4c, 0x2f ,
   0x16 ,0x6b, 0x57 ,0x91, 0xd9 ,0x29 ,0x77, 0x8a ,0x14, 0x00, 
   0x40, 0xf5, 0x4c, 0x2f, 0x16, 0x6b, 0x57, 0x91, 0xd9, 0x29, 
   0x77, 0x8a, 0x14, 0x00, 0x40, 0xf5, 0x4c, 0x2f, 0x16, 0x6b, 
   0x57, 0x91, 0xd9 ,0x29 ,0x77 ,0x8a ,0x14 ,0x00, 0x40, 0xf5 ,
   0x4c, 0x2f ,0x16, 0x6b ,0x57 ,0x91 ,0xd9, 0x29 ,0x77 ,0x8a, 
   0x14 ,0x00, 0x40 ,0xf5 ,0x4c, 0x2f ,0x16 ,0x6b ,0x57, 0x91 ,
   0xd9 ,0x29 ,0x77 ,0x8a ,0x14 ,0x00, 0x40, 0xf5 ,0x4c ,0x2f, 
   0x16, 0x6b ,0x57, 0x91, 0xd9 ,0x29, 0x77 ,0x8a ,0x14, 0x00 ,
   0x40 ,0xf5, 0x4c, 0x2f ,0x16, 0x6b ,0x57, 0x91 ,0xd9 ,0x29, 
   0x77 ,0x8a, 0x14 ,0x00 ,0x40, 0xf5 ,0x4c, 0x2f, 0x16, 0x6b ,
   0x57, 0x91 ,0xd9, 0x29 ,0x77 ,0x8a ,0x14 ,0x00 ,0x40, 0xf5 ,
   0x4c, 0x2f ,0x16, 0x6b ,0x57 ,0x91 ,0xd9 ,0x29 ,0x77, 0x8a ,
   0x14, 0x00 ,0x40, 0xf5, 0x4c ,0x2f ,0x16, 0x6b ,0x57 ,0x91, 
   0xd9 ,0x29, 0x77 ,0x8a ,0x14, 0x00 ,0x40, 0xf5, 0x4c, 0x2f, 
   0x16, 0x6b, 0x57, 0x91, 0xd9, 0x29, 0x77, 0x8a, 0x14, 0x00, 
   0x40, 0xf5, 0x4c, 0x2f, 0x16, 0x6b, 0x57, 0x91, 0xd9, 0x29, 
   0x77 ,0x8a ,0x14 ,0x00 ,0x40 ,0xf5, 0x4c, 0x2f ,0x16, 0x6b ,
   0x57, 0x91 ,0xd9 ,0x29 ,0x77, 0x8a ,0x14 ,0x00, 0x40 ,0xf5, 
   0x4c ,0x2f ,0x16, 0x6b ,0x57 ,0x91 ,0xd9, 0x29 ,0x77 ,0x8a ,
   0x14 ,0x00 ,0x40 ,0xf5, 0x4c, 0x2f ,0x16 ,0x6b, 0x57, 0x91 ,
   0xd9, 0x29, 0x77 ,0x8a, 0x14 ,0x00 ,0x40, 0xf5 ,0x4c ,0x2f, 
   0x16, 0x6b ,0x57, 0x91 ,0xd9, 0x29 ,0x77 ,0x8a, 0x14 ,0x00, 
   0x40 ,0xf5 ,0x4c, 0x2f ,0x16, 0x6b, 0x57, 0x91 ,0xd9, 0x29 ,
   0x77, 0x8a ,0x14 ,0x00 ,0x40 ,0xf5 ,0x4c, 0x2f ,0x16, 0x6b ,
   0x57, 0x91 ,0xd9 ,0x29 ,0x77 ,0x8a ,0x14, 0x00 ,0x40, 0xf5 ,
   0x4c, 0x2f, 0x16 ,0x6b ,0x57, 0x91 ,0xd9 ,0x29, 0x77 ,0x8a, 
   0x14 ,0x00 ,0x40, 0xf5 ,0x4c, 0x2f, 0x16, 0x6b, 0x57, 0x91, 
   0xd9, 0x29, 0x77, 0x8a, 0x14, 0x00, 0x43, 0xf5, 0x4c, 0x2f, 
   0x16, 0x6b, 0x57, 0x91, 0xd9, 0x29, 0x77, 0x8a, 0x94 ,0x07 ,
   0x41 ,0xf5 ,0x4c ,0x2f, 0x16, 0x6b ,0x57, 0x91 ,0xd9, 0x29 ,
   0x77 ,0x8a ,0x94, 0x04 ,0x41 ,0xf5, 0x4c ,0x2f, 0x16 ,0x6b ,
   0x57, 0x91 ,0xd9 ,0x29 ,0x77, 0x8a ,0x94 ,0x04 ,0x4f ,0xf5 ,
   0x4c ,0x2f, 0x16, 0x6b ,0x57 ,0x91, 0xd9, 0x29 ,0x77, 0x8a, 
   0x14 ,0x06, 0x49 ,0xf5 ,0x4c, 0x2f ,0x16 ,0x6b, 0x57, 0x91 ,
   0xd9, 0x29 ,0x77, 0x8a ,0x14 ,0x02, 0x49 ,0xf5, 0x00 ,0x00 ,
   0x00, 0x00 ,0x50, 0x00, 0x00, 0x00 ,0x00, 0x88 ,0x14, 0x02 ,
   0x4f ,0xf5 ,0x00 ,0x00 ,0x00, 0x00 ,0x50, 0x00 ,0x00, 0x00 ,
   0x00 ,0x88 ,0x14 ,0x02 ,0x40, 0xf5 ,0x18, 0x1e ,0x8f, 0xc7, 
   0x53 ,0x1e ,0x86, 0xc7 ,0xe3 ,0x89, 0x14 ,0x00, 0x40 ,0xf5 ,
   0x10, 0x10 ,0x89, 0x44, 0x52, 0x12, 0x84, 0x44, 0x22, 0x89, 
   0x14, 0x00, 0x40, 0xf5, 0x10, 0x10, 0x89, 0x44, 0x52, 0x12, 
   0x84, 0x44, 0x20, 0x89, 0x14, 0x00, 0x40 ,0xf5 ,0x10 ,0x1e ,
   0x89 ,0xc4, 0x53, 0x18 ,0x84, 0xc4 ,0x23, 0x89 ,0x14 ,0x00 ,
   0x00, 0x00 ,0x10 ,0x10, 0x89 ,0x44, 0x02 ,0x08 ,0x84, 0x04 ,
   0x22 ,0x01 ,0x00, 0x00 ,0x00 ,0x00 ,0x10 ,0x10 ,0x89 ,0x44, 
   0x02, 0x08 ,0x84 ,0x44, 0x22, 0x01 ,0x00, 0x00, 0x00 ,0x00, 
   0x3c ,0x1e ,0x8f, 0xc7 ,0x03 ,0x08, 0x8f, 0xc7 ,0xe3, 0x01 ,
   0x00, 0x00 ,};
/* the milk.com barcode generator; http://www.milk.com/barcode/ */
