#define milk_barcode_width 63
#define milk_barcode_height 68
static char milk_barcode_bits[] = {
   0x85 ,0x04 ,0x40 ,0x00 ,0x00 ,0x00, 0x00, 0x40 ,0x85, 0x04 ,
   0x40, 0x00 ,0x00 ,0x00 ,0x00, 0x40 ,0x85 ,0x04, 0xde ,0x7b, 
   0xef ,0x25 ,0xf0, 0x5e ,0x85 ,0xf3 ,0x42, 0x4a ,0x21 ,0x24 ,
   0x10 ,0x52 ,0x85 ,0x04, 0x42, 0x7a ,0x21 ,0x24, 0x10, 0x52 ,
   0x85, 0x04, 0x42 ,0x0a, 0x21 ,0x3c ,0x10, 0x52 ,0xbd ,0x04, 
   0x5e, 0x7a ,0x21, 0xa0 ,0xf7, 0x5e ,0x00 ,0x00, 0x00 ,0x00, 
   0x00 ,0x30 ,0x00, 0x00 ,0x40, 0xb9, 0x68, 0xb9 ,0x13, 0x8b ,
   0x55, 0x01 ,0x40 ,0xb9 ,0x68 ,0xb9 ,0x13, 0x8b ,0x55, 0x01 ,
   0x40, 0xb9 ,0x68 ,0xb9 ,0x13 ,0x8b ,0x55, 0x01 ,0x40, 0xb9 ,
   0x68, 0xb9, 0x13 ,0x8b ,0x55, 0x01 ,0x40 ,0xb9, 0x68 ,0xb9, 
   0x13 ,0x8b ,0x55, 0x01 ,0x40, 0xb9, 0x68, 0xb9, 0x13, 0x8b, 
   0x55, 0x01, 0x40, 0xb9, 0x68, 0xb9, 0x13, 0x8b, 0x55, 0x01, 
   0x40, 0xb9, 0x68, 0xb9, 0x13, 0x8b, 0x55, 0x01, 0x40 ,0xb9 ,
   0x68 ,0xb9 ,0x13 ,0x8b, 0x55, 0x01 ,0x40, 0xb9 ,0x68, 0xb9 ,
   0x13 ,0x8b ,0x55, 0x01 ,0x40 ,0xb9, 0x68 ,0xb9, 0x13 ,0x8b ,
   0x55, 0x01 ,0x40 ,0xb9 ,0x68, 0xb9 ,0x13 ,0x8b ,0x55 ,0x01 ,
   0x40 ,0xb9, 0x68, 0xb9 ,0x13 ,0x8b, 0x55, 0x01 ,0x40, 0xb9, 
   0x68 ,0xb9, 0x13 ,0x8b ,0x55, 0x01 ,0x40 ,0xb9, 0x68, 0xb9 ,
   0x13, 0x8b ,0x55, 0x01 ,0x40 ,0xb9, 0x68 ,0xb9, 0x13 ,0x8b ,
   0x55, 0x01 ,0x40, 0xb9, 0x68, 0xb9 ,0x13, 0x8b ,0x55, 0x01 ,
   0x40 ,0xb9 ,0x68 ,0xb9 ,0x13, 0x8b ,0x55, 0x01 ,0x40, 0xb9 ,
   0x68 ,0xb9 ,0x13 ,0x8b ,0x55, 0x01 ,0x40, 0xb9 ,0x68, 0xb9, 
   0x13 ,0x8b ,0x55, 0x01 ,0x40 ,0xb9, 0x68 ,0xb9, 0x13 ,0x8b ,
   0x55, 0x01 ,0x40, 0xb9, 0x68, 0xb9, 0x13, 0x8b, 0x55, 0x01, 
   0x40, 0xb9, 0x68, 0xb9, 0x13, 0x8b, 0x55, 0x01, 0x40, 0xb9, 
   0x68, 0xb9, 0x13, 0x8b, 0x55, 0x01, 0x40 ,0xb9 ,0x68 ,0xb9 ,
   0x13 ,0x8b, 0x55, 0x01 ,0x40, 0xb9 ,0x68, 0xb9 ,0x13 ,0x8b ,
   0x55, 0x01 ,0x40 ,0xb9, 0x68 ,0xb9, 0x13 ,0x8b ,0x55, 0x01 ,
   0x40 ,0xb9 ,0x68, 0xb9 ,0x13 ,0x8b ,0x55 ,0x01 ,0x40 ,0xb9, 
   0x68, 0xb9 ,0x13 ,0x8b, 0x55, 0x01 ,0x40, 0xb9, 0x68 ,0xb9, 
   0x13 ,0x8b ,0x55, 0x01 ,0x40 ,0xb9, 0x68, 0xb9 ,0x13, 0x8b ,
   0x55, 0x01 ,0x40 ,0xb9, 0x68 ,0xb9, 0x13 ,0x8b ,0x55, 0x01 ,
   0x40, 0xb9, 0x68, 0xb9 ,0x13, 0x8b ,0x55, 0x01 ,0x40 ,0xb9 ,
   0x68 ,0xb9 ,0x13, 0x8b ,0x55, 0x01 ,0x40, 0xb9 ,0x68 ,0xb9 ,
   0x13 ,0x8b ,0x55, 0x01 ,0x40, 0xb9 ,0x68, 0xb9, 0x13 ,0x8b ,
   0x55, 0x01 ,0x40 ,0xb9, 0x68 ,0xb9, 0x13 ,0x8b ,0x55, 0x01 ,
   0x40, 0xb9, 0x68, 0xb9, 0x13, 0x8b, 0x55, 0x01, 0x40, 0xb9, 
   0x68, 0xb9, 0x13, 0x8b, 0x55, 0x01, 0x40, 0xb9, 0x68, 0xb9, 
   0x13, 0x8b, 0x55, 0x01, 0x40 ,0xb9 ,0x68 ,0xb9 ,0x13 ,0x8b, 
   0x55, 0x01 ,0x40, 0xb9 ,0x68, 0xb9 ,0x13 ,0x8b ,0x55, 0x01 ,
   0x40 ,0xb9, 0x68 ,0xb9, 0x13 ,0x8b ,0x55, 0x01 ,0x40 ,0xb9 ,
   0x68, 0xb9 ,0x13 ,0x8b ,0x55 ,0x01 ,0x40 ,0xb9, 0x68, 0xb9 ,
   0x13 ,0x8b, 0x55, 0x01 ,0x40, 0xb9, 0x68 ,0xb9, 0x13 ,0x8b ,
   0x55, 0x01 ,0x4f ,0xb9, 0x68, 0xb9 ,0x13, 0x8b ,0x55, 0x49 ,
   0x49 ,0xb9, 0x68 ,0xb9, 0x13 ,0x8b ,0x55, 0x49 ,0x49, 0xb9, 
   0x68, 0xb9 ,0x13, 0x8b ,0x55, 0x49 ,0x49 ,0xb9 ,0x68 ,0xb9 ,
   0x13, 0x8b ,0x55, 0x79 ,0x49, 0xb9 ,0x68 ,0xb9 ,0x13 ,0x8b ,
   0x55, 0x41 ,0x49, 0x01 ,0x00, 0x00, 0x00 ,0x00 ,0x50, 0x41 ,
   0x4f ,0x01, 0x00 ,0x00, 0x00 ,0x00 ,0x50, 0x41 ,0x40, 0x49, 
   0x3c, 0x1e, 0x8f, 0xc7, 0x53, 0x01, 0x40, 0x49, 0x24, 0x12, 
   0x89, 0x44, 0x52, 0x01, 0x40, 0x49, 0x24, 0x12, 0x81, 0x44, 
   0x52, 0x01, 0x40 ,0x79 ,0x3c ,0x12 ,0x8f ,0x44, 0x52, 0x01 ,
   0x00, 0x40 ,0x20, 0x12 ,0x88 ,0x44 ,0x02, 0x00 ,0x00 ,0x40, 
   0x20 ,0x12, 0x89 ,0x44 ,0x02, 0x00 ,0x00 ,0x40 ,0x20, 0x1e ,
   0x8f ,0xc7 ,0x03 ,0x00 ,};
/* the milk.com barcode generator; http://www.milk.com/barcode/ */
