#define milk_barcode_width 107
#define milk_barcode_height 68
static char milk_barcode_bits[] = {
   0x00 ,0x00 ,0x00 ,0xe0 ,0xa4 ,0x90, 0x00, 0x08 ,0x02, 0x00 ,
   0x00, 0x00 ,0x00 ,0x00 ,0x00, 0x00 ,0x00 ,0x20, 0xa5 ,0x90, 
   0x00 ,0x08 ,0x00, 0x00 ,0x00 ,0x00 ,0x00, 0x00 ,0x00 ,0x00 ,
   0x00 ,0x20 ,0xa5 ,0x90, 0xc0, 0x7b ,0xe3 ,0x3d, 0x00, 0x00 ,
   0x00, 0x00, 0x00 ,0x00, 0x00 ,0xe0 ,0xa4, 0x70 ,0x5e ,0x48, 
   0x22, 0x05 ,0x00, 0x00 ,0x00, 0x00 ,0x00 ,0x00, 0x00 ,0x20, 
   0xa5 ,0x90 ,0x40, 0x48 ,0x22, 0x3d, 0x00, 0x00 ,0x00, 0x00 ,
   0x00, 0x00 ,0x00 ,0x20 ,0xa5 ,0x90 ,0x40, 0x48 ,0xe2, 0x21 ,
   0x00, 0x00 ,0x00 ,0x00 ,0x00 ,0x00 ,0x00, 0xe0 ,0xbc, 0x97 ,
   0xc0, 0x4b, 0x27 ,0x3c ,0x00, 0x00 ,0x00 ,0x00, 0x00 ,0x00, 
   0x00 ,0x00 ,0x00, 0x00 ,0x00, 0x00, 0x20, 0x00, 0x00, 0x00, 
   0x00, 0x00, 0x40, 0xb1, 0x64, 0xbb, 0x18, 0x8b, 0x55, 0xa7, 
   0xd3, 0x26, 0x72, 0x39, 0x15, 0x00, 0x40, 0xb1, 0x64 ,0xbb ,
   0x18 ,0x8b ,0x55 ,0xa7, 0xd3, 0x26 ,0x72, 0x39 ,0x15, 0x00 ,
   0x40 ,0xb1 ,0x64, 0xbb ,0x18 ,0x8b, 0x55 ,0xa7, 0xd3 ,0x26 ,
   0x72, 0x39 ,0x15 ,0x00 ,0x40, 0xb1 ,0x64 ,0xbb ,0x18 ,0x8b ,
   0x55 ,0xa7, 0xd3, 0x26 ,0x72 ,0x39, 0x15, 0x00 ,0x40, 0xb1, 
   0x64 ,0xbb, 0x18 ,0x8b ,0x55, 0xa7 ,0xd3 ,0x26, 0x72, 0x39 ,
   0x15, 0x00 ,0x40, 0xb1 ,0x64 ,0xbb, 0x18 ,0x8b, 0x55 ,0xa7 ,
   0xd3, 0x26 ,0x72, 0x39, 0x15, 0x00 ,0x40, 0xb1 ,0x64, 0xbb ,
   0x18 ,0x8b ,0x55 ,0xa7 ,0xd3, 0x26 ,0x72, 0x39 ,0x15, 0x00 ,
   0x40 ,0xb1 ,0x64 ,0xbb ,0x18, 0x8b ,0x55, 0xa7 ,0xd3, 0x26, 
   0x72 ,0x39 ,0x15, 0x00 ,0x40 ,0xb1, 0x64 ,0xbb, 0x18 ,0x8b ,
   0x55, 0xa7 ,0xd3, 0x26, 0x72, 0x39, 0x15, 0x00, 0x40, 0xb1, 
   0x64, 0xbb, 0x18, 0x8b, 0x55, 0xa7, 0xd3, 0x26, 0x72, 0x39, 
   0x15, 0x00, 0x40, 0xb1, 0x64, 0xbb, 0x18 ,0x8b ,0x55 ,0xa7 ,
   0xd3 ,0x26, 0x72, 0x39 ,0x15, 0x00 ,0x40, 0xb1 ,0x64 ,0xbb ,
   0x18, 0x8b ,0x55 ,0xa7, 0xd3 ,0x26, 0x72 ,0x39 ,0x15, 0x00 ,
   0x40 ,0xb1 ,0x64, 0xbb ,0x18 ,0x8b ,0x55 ,0xa7 ,0xd3 ,0x26, 
   0x72, 0x39 ,0x15 ,0x00, 0x40, 0xb1 ,0x64, 0xbb, 0x18 ,0x8b, 
   0x55 ,0xa7 ,0xd3, 0x26 ,0x72 ,0x39, 0x15, 0x00 ,0x40, 0xb1 ,
   0x64, 0xbb ,0x18 ,0x8b, 0x55 ,0xa7, 0xd3 ,0x26 ,0x72, 0x39 ,
   0x15, 0x00, 0x40, 0xb1 ,0x64, 0xbb ,0x18, 0x8b ,0x55 ,0xa7 ,
   0xd3 ,0x26 ,0x72, 0x39 ,0x15, 0x00 ,0x40, 0xb1 ,0x64 ,0xbb ,
   0x18 ,0x8b ,0x55, 0xa7 ,0xd3, 0x26 ,0x72, 0x39, 0x15 ,0x00 ,
   0x40, 0xb1 ,0x64 ,0xbb, 0x18 ,0x8b, 0x55 ,0xa7 ,0xd3, 0x26 ,
   0x72, 0x39, 0x15, 0x00, 0x40, 0xb1, 0x64, 0xbb, 0x18, 0x8b, 
   0x55, 0xa7, 0xd3, 0x26, 0x72, 0x39, 0x15, 0x00, 0x40, 0xb1, 
   0x64, 0xbb, 0x18, 0x8b, 0x55 ,0xa7 ,0xd3 ,0x26 ,0x72 ,0x39, 
   0x15, 0x00 ,0x40, 0xb1 ,0x64, 0xbb ,0x18 ,0x8b ,0x55, 0xa7 ,
   0xd3 ,0x26, 0x72 ,0x39, 0x15 ,0x00 ,0x40, 0xb1 ,0x64 ,0xbb ,
   0x18, 0x8b ,0x55 ,0xa7 ,0xd3 ,0x26 ,0x72 ,0x39, 0x15, 0x00 ,
   0x40 ,0xb1, 0x64, 0xbb ,0x18, 0x8b, 0x55 ,0xa7, 0xd3 ,0x26 ,
   0x72, 0x39 ,0x15 ,0x00, 0x40, 0xb1 ,0x64, 0xbb ,0x18, 0x8b ,
   0x55 ,0xa7, 0xd3 ,0x26, 0x72 ,0x39 ,0x15, 0x00 ,0x40, 0xb1, 
   0x64, 0xbb ,0x18, 0x8b ,0x55, 0xa7 ,0xd3 ,0x26 ,0x72 ,0x39 ,
   0x15, 0x00 ,0x40, 0xb1 ,0x64, 0xbb ,0x18 ,0x8b ,0x55 ,0xa7 ,
   0xd3, 0x26 ,0x72, 0x39 ,0x15, 0x00, 0x40 ,0xb1 ,0x64, 0xbb ,
   0x18 ,0x8b, 0x55 ,0xa7, 0xd3 ,0x26 ,0x72, 0x39 ,0x15, 0x00, 
   0x40, 0xb1, 0x64, 0xbb, 0x18, 0x8b, 0x55, 0xa7, 0xd3, 0x26, 
   0x72, 0x39, 0x15, 0x00, 0x40, 0xb1, 0x64, 0xbb, 0x18, 0x8b, 
   0x55, 0xa7, 0xd3 ,0x26 ,0x72 ,0x39 ,0x15 ,0x00, 0x40, 0xb1 ,
   0x64, 0xbb ,0x18, 0x8b ,0x55 ,0xa7 ,0xd3, 0x26 ,0x72 ,0x39, 
   0x15 ,0x00, 0x40 ,0xb1 ,0x64, 0xbb ,0x18 ,0x8b ,0x55, 0xa7 ,
   0xd3 ,0x26 ,0x72 ,0x39 ,0x15 ,0x00, 0x40, 0xb1 ,0x64 ,0xbb, 
   0x18, 0x8b ,0x55, 0xa7, 0xd3 ,0x26, 0x72 ,0x39 ,0x15, 0x00 ,
   0x40 ,0xb1, 0x64, 0xbb ,0x18, 0x8b ,0x55, 0xa7 ,0xd3 ,0x26, 
   0x72 ,0x39, 0x15 ,0x00 ,0x40, 0xb1 ,0x64, 0xbb, 0x18, 0x8b ,
   0x55, 0xa7 ,0xd3, 0x26 ,0x72 ,0x39 ,0x15 ,0x00 ,0x40, 0xb1 ,
   0x64, 0xbb ,0x18, 0x8b ,0x55 ,0xa7 ,0xd3 ,0x26 ,0x72, 0x39 ,
   0x15, 0x00 ,0x40, 0xb1, 0x64 ,0xbb ,0x18, 0x8b ,0x55 ,0xa7, 
   0xd3 ,0x26, 0x72 ,0x39 ,0x15, 0x00 ,0x40, 0xb1, 0x64, 0xbb, 
   0x18, 0x8b, 0x55, 0xa7, 0xd3, 0x26, 0x72, 0x39, 0x15, 0x00, 
   0x40, 0xb1, 0x64, 0xbb, 0x18, 0x8b, 0x55, 0xa7, 0xd3, 0x26, 
   0x72 ,0x39 ,0x15 ,0x00 ,0x40 ,0xb1, 0x64, 0xbb ,0x18, 0x8b ,
   0x55, 0xa7 ,0xd3 ,0x26 ,0x72, 0x39 ,0x15 ,0x00, 0x40 ,0xb1, 
   0x64 ,0xbb ,0x18, 0x8b ,0x55 ,0xa7 ,0xd3, 0x26 ,0x72 ,0x39 ,
   0x15 ,0x00 ,0x40 ,0xb1, 0x64, 0xbb ,0x18 ,0x8b, 0x55, 0xa7 ,
   0xd3, 0x26, 0x72 ,0x39, 0x15 ,0x00 ,0x40, 0xb1 ,0x64 ,0xbb, 
   0x18, 0x8b ,0x55, 0xa7 ,0xd3, 0x26 ,0x72 ,0x39, 0x15 ,0x00, 
   0x40 ,0xb1 ,0x64, 0xbb ,0x18, 0x8b, 0x55, 0xa7 ,0xd3, 0x26 ,
   0x72, 0x39 ,0x15 ,0x00 ,0x40 ,0xb1 ,0x64, 0xbb ,0x18, 0x8b ,
   0x55, 0xa7 ,0xd3 ,0x26 ,0x72 ,0x39 ,0x15, 0x00 ,0x40, 0xb1 ,
   0x64, 0xbb, 0x18 ,0x8b ,0x55, 0xa7 ,0xd3 ,0x26, 0x72 ,0x39, 
   0x15 ,0x00 ,0x40, 0xb1 ,0x64, 0xbb, 0x18, 0x8b, 0x55, 0xa7, 
   0xd3, 0x26, 0x72, 0x39, 0x15, 0x00, 0x4f, 0xb1, 0x64, 0xbb, 
   0x18, 0x8b, 0x55, 0xa7, 0xd3, 0x26, 0x72, 0x39, 0x95 ,0x07 ,
   0x49 ,0xb1 ,0x64 ,0xbb, 0x18, 0x8b ,0x55, 0xa7 ,0xd3, 0x26 ,
   0x72 ,0x39 ,0x95, 0x04 ,0x49 ,0xb1, 0x64 ,0xbb, 0x18 ,0x8b ,
   0x55, 0xa7 ,0xd3 ,0x26 ,0x72, 0x39 ,0x95 ,0x04 ,0x49 ,0xb1 ,
   0x64 ,0xbb, 0x18, 0x8b ,0x55 ,0xa7, 0xd3, 0x26 ,0x72, 0x39, 
   0x95 ,0x04, 0x49 ,0xb1 ,0x64, 0xbb ,0x18 ,0x8b, 0x55, 0xa7 ,
   0xd3, 0x26 ,0x72, 0x39 ,0x95 ,0x04, 0x49 ,0xb1, 0x00 ,0x00 ,
   0x00, 0x00 ,0x50, 0x00, 0x00, 0x00 ,0x00, 0x38 ,0x95, 0x04 ,
   0x4f ,0xb1 ,0x00 ,0x00 ,0x00, 0x00 ,0x50, 0x00 ,0x00, 0x00 ,
   0x00 ,0x38 ,0x95 ,0x07 ,0x40, 0xb1 ,0x3c, 0x1e ,0x89, 0xc7, 
   0x53 ,0x1e ,0x8f, 0xc7 ,0xe3 ,0x39, 0x15 ,0x00, 0x40 ,0xb1 ,
   0x24, 0x12 ,0x89, 0x44, 0x52, 0x12, 0x89, 0x44, 0x22, 0x39, 
   0x15, 0x00, 0x40, 0xb1, 0x20, 0x12, 0x89, 0x44, 0x52, 0x12, 
   0x09, 0x44, 0x22, 0x39, 0x15, 0x00, 0x40 ,0xb1 ,0x3c ,0x1e ,
   0x8f ,0x44, 0x52, 0x12 ,0x89, 0x07 ,0xe3, 0x39 ,0x15 ,0x00 ,
   0x00, 0x00 ,0x04 ,0x12, 0x88 ,0x44, 0x02 ,0x12 ,0x89, 0x00 ,
   0x01 ,0x01 ,0x00, 0x00 ,0x00 ,0x00 ,0x24 ,0x12 ,0x88 ,0x44, 
   0x02, 0x12 ,0x89 ,0x04, 0x01, 0x01 ,0x00, 0x00, 0x00 ,0x00, 
   0x3c ,0x1e ,0x88, 0xc7 ,0x03 ,0x1e, 0x8f, 0x07 ,0x01, 0x01 ,
   0x00, 0x00 ,};
/* the milk.com barcode generator; http://www.milk.com/barcode/ */
