#define milk_barcode_width 107
#define milk_barcode_height 68
static char milk_barcode_bits[] = {
   0x00 ,0xc0 ,0x49 ,0x21 ,0x01 ,0x00, 0x00, 0x00 ,0x00, 0x80 ,
   0x10, 0x00 ,0x00 ,0x00 ,0x00, 0x40 ,0x4a ,0x21, 0x01 ,0x00, 
   0x00 ,0x00 ,0x02, 0x80 ,0x10 ,0x00 ,0x00, 0x00 ,0x00 ,0x40 ,
   0x4a ,0x21 ,0x81 ,0xf7, 0xde, 0x4b ,0xef ,0x81, 0xf7, 0x1e ,
   0x00, 0x00, 0x00 ,0xc0, 0x49 ,0xe1 ,0xbc, 0x90 ,0x42 ,0x4a, 
   0x22, 0x80 ,0x94, 0x12 ,0x00, 0x00 ,0x00 ,0x40, 0x4a ,0x21, 
   0x81 ,0x90 ,0x42, 0x4a ,0xe2, 0x81, 0x94, 0x12 ,0x00, 0x00 ,
   0x00, 0x40 ,0x4a ,0x21 ,0x81 ,0x90 ,0x42, 0x4a ,0x02, 0x81 ,
   0x94, 0x1e ,0x00 ,0x00 ,0x00 ,0xc0 ,0x79, 0x2f ,0x81, 0xf7 ,
   0x42, 0x7a, 0xee ,0xbd ,0xf7, 0x10 ,0x00 ,0x00, 0x00 ,0x00, 
   0x00 ,0x00 ,0x00, 0x00 ,0x00, 0x00, 0x00, 0x00, 0x00, 0x10, 
   0x00, 0x00, 0x40, 0xb1, 0x6e, 0x26, 0xd3, 0x88, 0x56, 0xa7, 
   0xd9, 0x2c, 0xd4, 0x29, 0x14, 0x00, 0x40, 0xb1, 0x6e ,0x26 ,
   0xd3 ,0x88 ,0x56 ,0xa7, 0xd9, 0x2c ,0xd4, 0x29 ,0x14, 0x00 ,
   0x40 ,0xb1 ,0x6e, 0x26 ,0xd3 ,0x88, 0x56 ,0xa7, 0xd9 ,0x2c ,
   0xd4, 0x29 ,0x14 ,0x00 ,0x40, 0xb1 ,0x6e ,0x26 ,0xd3 ,0x88 ,
   0x56 ,0xa7, 0xd9, 0x2c ,0xd4 ,0x29, 0x14, 0x00 ,0x40, 0xb1, 
   0x6e ,0x26, 0xd3 ,0x88 ,0x56, 0xa7 ,0xd9 ,0x2c, 0xd4, 0x29 ,
   0x14, 0x00 ,0x40, 0xb1 ,0x6e ,0x26, 0xd3 ,0x88, 0x56 ,0xa7 ,
   0xd9, 0x2c ,0xd4, 0x29, 0x14, 0x00 ,0x40, 0xb1 ,0x6e, 0x26 ,
   0xd3 ,0x88 ,0x56 ,0xa7 ,0xd9, 0x2c ,0xd4, 0x29 ,0x14, 0x00 ,
   0x40 ,0xb1 ,0x6e ,0x26 ,0xd3, 0x88 ,0x56, 0xa7 ,0xd9, 0x2c, 
   0xd4 ,0x29 ,0x14, 0x00 ,0x40 ,0xb1, 0x6e ,0x26, 0xd3 ,0x88 ,
   0x56, 0xa7 ,0xd9, 0x2c, 0xd4, 0x29, 0x14, 0x00, 0x40, 0xb1, 
   0x6e, 0x26, 0xd3, 0x88, 0x56, 0xa7, 0xd9, 0x2c, 0xd4, 0x29, 
   0x14, 0x00, 0x40, 0xb1, 0x6e, 0x26, 0xd3 ,0x88 ,0x56 ,0xa7 ,
   0xd9 ,0x2c, 0xd4, 0x29 ,0x14, 0x00 ,0x40, 0xb1 ,0x6e ,0x26 ,
   0xd3, 0x88 ,0x56 ,0xa7, 0xd9 ,0x2c, 0xd4 ,0x29 ,0x14, 0x00 ,
   0x40 ,0xb1 ,0x6e, 0x26 ,0xd3 ,0x88 ,0x56 ,0xa7 ,0xd9 ,0x2c, 
   0xd4, 0x29 ,0x14 ,0x00, 0x40, 0xb1 ,0x6e, 0x26, 0xd3 ,0x88, 
   0x56 ,0xa7 ,0xd9, 0x2c ,0xd4 ,0x29, 0x14, 0x00 ,0x40, 0xb1 ,
   0x6e, 0x26 ,0xd3 ,0x88, 0x56 ,0xa7, 0xd9 ,0x2c ,0xd4, 0x29 ,
   0x14, 0x00, 0x40, 0xb1 ,0x6e, 0x26 ,0xd3, 0x88 ,0x56 ,0xa7 ,
   0xd9 ,0x2c ,0xd4, 0x29 ,0x14, 0x00 ,0x40, 0xb1 ,0x6e ,0x26 ,
   0xd3 ,0x88 ,0x56, 0xa7 ,0xd9, 0x2c ,0xd4, 0x29, 0x14 ,0x00 ,
   0x40, 0xb1 ,0x6e ,0x26, 0xd3 ,0x88, 0x56 ,0xa7 ,0xd9, 0x2c ,
   0xd4, 0x29, 0x14, 0x00, 0x40, 0xb1, 0x6e, 0x26, 0xd3, 0x88, 
   0x56, 0xa7, 0xd9, 0x2c, 0xd4, 0x29, 0x14, 0x00, 0x40, 0xb1, 
   0x6e, 0x26, 0xd3, 0x88, 0x56 ,0xa7 ,0xd9 ,0x2c ,0xd4 ,0x29, 
   0x14, 0x00 ,0x40, 0xb1 ,0x6e, 0x26 ,0xd3 ,0x88 ,0x56, 0xa7 ,
   0xd9 ,0x2c, 0xd4 ,0x29, 0x14 ,0x00 ,0x40, 0xb1 ,0x6e ,0x26 ,
   0xd3, 0x88 ,0x56 ,0xa7 ,0xd9 ,0x2c ,0xd4 ,0x29, 0x14, 0x00 ,
   0x40 ,0xb1, 0x6e, 0x26 ,0xd3, 0x88, 0x56 ,0xa7, 0xd9 ,0x2c ,
   0xd4, 0x29 ,0x14 ,0x00, 0x40, 0xb1 ,0x6e, 0x26 ,0xd3, 0x88 ,
   0x56 ,0xa7, 0xd9 ,0x2c, 0xd4 ,0x29 ,0x14, 0x00 ,0x40, 0xb1, 
   0x6e, 0x26 ,0xd3, 0x88 ,0x56, 0xa7 ,0xd9 ,0x2c ,0xd4 ,0x29 ,
   0x14, 0x00 ,0x40, 0xb1 ,0x6e, 0x26 ,0xd3 ,0x88 ,0x56 ,0xa7 ,
   0xd9, 0x2c ,0xd4, 0x29 ,0x14, 0x00, 0x40 ,0xb1 ,0x6e, 0x26 ,
   0xd3 ,0x88, 0x56 ,0xa7, 0xd9 ,0x2c ,0xd4, 0x29 ,0x14, 0x00, 
   0x40, 0xb1, 0x6e, 0x26, 0xd3, 0x88, 0x56, 0xa7, 0xd9, 0x2c, 
   0xd4, 0x29, 0x14, 0x00, 0x40, 0xb1, 0x6e, 0x26, 0xd3, 0x88, 
   0x56, 0xa7, 0xd9 ,0x2c ,0xd4 ,0x29 ,0x14 ,0x00, 0x40, 0xb1 ,
   0x6e, 0x26 ,0xd3, 0x88 ,0x56 ,0xa7 ,0xd9, 0x2c ,0xd4 ,0x29, 
   0x14 ,0x00, 0x40 ,0xb1 ,0x6e, 0x26 ,0xd3 ,0x88 ,0x56, 0xa7 ,
   0xd9 ,0x2c ,0xd4 ,0x29 ,0x14 ,0x00, 0x40, 0xb1 ,0x6e ,0x26, 
   0xd3, 0x88 ,0x56, 0xa7, 0xd9 ,0x2c, 0xd4 ,0x29 ,0x14, 0x00 ,
   0x40 ,0xb1, 0x6e, 0x26 ,0xd3, 0x88 ,0x56, 0xa7 ,0xd9 ,0x2c, 
   0xd4 ,0x29, 0x14 ,0x00 ,0x40, 0xb1 ,0x6e, 0x26, 0xd3, 0x88 ,
   0x56, 0xa7 ,0xd9, 0x2c ,0xd4 ,0x29 ,0x14 ,0x00 ,0x40, 0xb1 ,
   0x6e, 0x26 ,0xd3, 0x88 ,0x56 ,0xa7 ,0xd9 ,0x2c ,0xd4, 0x29 ,
   0x14, 0x00 ,0x40, 0xb1, 0x6e ,0x26 ,0xd3, 0x88 ,0x56 ,0xa7, 
   0xd9 ,0x2c, 0xd4 ,0x29 ,0x14, 0x00 ,0x40, 0xb1, 0x6e, 0x26, 
   0xd3, 0x88, 0x56, 0xa7, 0xd9, 0x2c, 0xd4, 0x29, 0x14, 0x00, 
   0x40, 0xb1, 0x6e, 0x26, 0xd3, 0x88, 0x56, 0xa7, 0xd9, 0x2c, 
   0xd4 ,0x29 ,0x14 ,0x00 ,0x40 ,0xb1, 0x6e, 0x26 ,0xd3, 0x88 ,
   0x56, 0xa7 ,0xd9 ,0x2c ,0xd4, 0x29 ,0x14 ,0x00, 0x40 ,0xb1, 
   0x6e ,0x26 ,0xd3, 0x88 ,0x56 ,0xa7 ,0xd9, 0x2c ,0xd4 ,0x29 ,
   0x14 ,0x00 ,0x40 ,0xb1, 0x6e, 0x26 ,0xd3 ,0x88, 0x56, 0xa7 ,
   0xd9, 0x2c, 0xd4 ,0x29, 0x14 ,0x00 ,0x40, 0xb1 ,0x6e ,0x26, 
   0xd3, 0x88 ,0x56, 0xa7 ,0xd9, 0x2c ,0xd4 ,0x29, 0x14 ,0x00, 
   0x40 ,0xb1 ,0x6e, 0x26 ,0xd3, 0x88, 0x56, 0xa7 ,0xd9, 0x2c ,
   0xd4, 0x29 ,0x14 ,0x00 ,0x40 ,0xb1 ,0x6e, 0x26 ,0xd3, 0x88 ,
   0x56, 0xa7 ,0xd9 ,0x2c ,0xd4 ,0x29 ,0x14, 0x00 ,0x40, 0xb1 ,
   0x6e, 0x26, 0xd3 ,0x88 ,0x56, 0xa7 ,0xd9 ,0x2c, 0xd4 ,0x29, 
   0x14 ,0x00 ,0x40, 0xb1 ,0x6e, 0x26, 0xd3, 0x88, 0x56, 0xa7, 
   0xd9, 0x2c, 0xd4, 0x29, 0x14, 0x00, 0x4f, 0xb1, 0x6e, 0x26, 
   0xd3, 0x88, 0x56, 0xa7, 0xd9, 0x2c, 0xd4, 0x29, 0x94 ,0x01 ,
   0x49 ,0xb1 ,0x6e ,0x26, 0xd3, 0x88 ,0x56, 0xa7 ,0xd9, 0x2c ,
   0xd4 ,0x29 ,0x94, 0x00 ,0x49 ,0xb1, 0x6e ,0x26, 0xd3 ,0x88 ,
   0x56, 0xa7 ,0xd9 ,0x2c ,0xd4, 0x29 ,0x94 ,0x00 ,0x49 ,0xb1 ,
   0x6e ,0x26, 0xd3, 0x88 ,0x56 ,0xa7, 0xd9, 0x2c ,0xd4, 0x29, 
   0x94 ,0x07, 0x49 ,0xb1 ,0x6e, 0x26 ,0xd3 ,0x88, 0x56, 0xa7 ,
   0xd9, 0x2c ,0xd4, 0x29 ,0x94 ,0x04, 0x49 ,0xb1, 0x00 ,0x00 ,
   0x00, 0x00 ,0x50, 0x00, 0x00, 0x00 ,0x00, 0x28 ,0x94, 0x04 ,
   0x4f ,0xb1 ,0x00 ,0x00 ,0x00, 0x00 ,0x50, 0x00 ,0x00, 0x00 ,
   0x00 ,0x28 ,0x94 ,0x07 ,0x40, 0xb1 ,0x3c, 0x0c ,0x86, 0xc7, 
   0x53 ,0x1e ,0x06, 0xc3 ,0x23 ,0x29, 0x14 ,0x00, 0x40 ,0xb1 ,
   0x24, 0x08 ,0x84, 0x44, 0x52, 0x12, 0x04, 0x02, 0x22, 0x29, 
   0x14, 0x00, 0x40, 0xb1, 0x24, 0x08, 0x84, 0x40, 0x52, 0x12, 
   0x04, 0x02, 0x22, 0x29, 0x14, 0x00, 0x40 ,0xb1 ,0x30 ,0x08 ,
   0x84 ,0xc7, 0x53, 0x12 ,0x04, 0xc2 ,0xe3, 0x29 ,0x14 ,0x00 ,
   0x00, 0x00 ,0x10 ,0x08, 0x04 ,0x04, 0x02 ,0x12 ,0x04, 0x02 ,
   0x02 ,0x01 ,0x00, 0x00 ,0x00 ,0x00 ,0x10 ,0x08 ,0x84 ,0x04, 
   0x02, 0x12 ,0x04 ,0x02, 0x02, 0x01 ,0x00, 0x00, 0x00 ,0x00, 
   0x10 ,0x1e ,0x8f, 0x07 ,0x02 ,0x1e, 0x8f, 0xc7 ,0x03, 0x01 ,
   0x00, 0x00 ,};
/* the milk.com barcode generator; http://www.milk.com/barcode/ */
