#define milk_barcode_width 107
#define milk_barcode_height 68
static char milk_barcode_bits[] = {
   0x00 ,0x4e ,0x0a ,0x09 ,0x00 ,0x00, 0x00, 0x00 ,0x00, 0x00 ,
   0x00, 0x40 ,0x00 ,0x00 ,0x00, 0x52 ,0x0a ,0x09, 0x00 ,0x00, 
   0x00 ,0x10 ,0x00, 0x00 ,0x00 ,0x40 ,0x00, 0x00 ,0x00 ,0x52 ,
   0x0a ,0x09 ,0xbc ,0xf7, 0x5e, 0x7a ,0x0f ,0xbc, 0xf7, 0xde ,
   0x03, 0x00, 0x00 ,0x4e, 0x0a ,0xe7 ,0x85, 0x14 ,0x52 ,0x12, 
   0x01, 0x04 ,0x94, 0x42 ,0x02, 0x00 ,0x00 ,0x52, 0x0a ,0x09, 
   0x84 ,0x14 ,0x52, 0x12 ,0x0f, 0x84, 0x97, 0x42 ,0x02, 0x00 ,
   0x00, 0x52 ,0x0a ,0x09 ,0x84 ,0x14 ,0x52, 0x12 ,0x08, 0x84 ,
   0x94, 0x42 ,0x02 ,0x00 ,0x00 ,0xce ,0x7b, 0x09 ,0xbc, 0x17 ,
   0xd2, 0x73, 0xef ,0x85 ,0x97, 0x5e ,0x02 ,0x00, 0x00 ,0x00, 
   0x00 ,0x00 ,0x00, 0x00 ,0x00, 0x00, 0x00, 0x00, 0x00, 0x00, 
   0x00, 0x00, 0x40, 0xb1, 0x6e, 0x26, 0xd3, 0x88, 0x56, 0xa7, 
   0xd9, 0x69, 0x76, 0x29, 0x14, 0x00, 0x40, 0xb1, 0x6e ,0x26 ,
   0xd3 ,0x88 ,0x56 ,0xa7, 0xd9, 0x69 ,0x76, 0x29 ,0x14, 0x00 ,
   0x40 ,0xb1 ,0x6e, 0x26 ,0xd3 ,0x88, 0x56 ,0xa7, 0xd9 ,0x69 ,
   0x76, 0x29 ,0x14 ,0x00 ,0x40, 0xb1 ,0x6e ,0x26 ,0xd3 ,0x88 ,
   0x56 ,0xa7, 0xd9, 0x69 ,0x76 ,0x29, 0x14, 0x00 ,0x40, 0xb1, 
   0x6e ,0x26, 0xd3 ,0x88 ,0x56, 0xa7 ,0xd9 ,0x69, 0x76, 0x29 ,
   0x14, 0x00 ,0x40, 0xb1 ,0x6e ,0x26, 0xd3 ,0x88, 0x56 ,0xa7 ,
   0xd9, 0x69 ,0x76, 0x29, 0x14, 0x00 ,0x40, 0xb1 ,0x6e, 0x26 ,
   0xd3 ,0x88 ,0x56 ,0xa7 ,0xd9, 0x69 ,0x76, 0x29 ,0x14, 0x00 ,
   0x40 ,0xb1 ,0x6e ,0x26 ,0xd3, 0x88 ,0x56, 0xa7 ,0xd9, 0x69, 
   0x76 ,0x29 ,0x14, 0x00 ,0x40 ,0xb1, 0x6e ,0x26, 0xd3 ,0x88 ,
   0x56, 0xa7 ,0xd9, 0x69, 0x76, 0x29, 0x14, 0x00, 0x40, 0xb1, 
   0x6e, 0x26, 0xd3, 0x88, 0x56, 0xa7, 0xd9, 0x69, 0x76, 0x29, 
   0x14, 0x00, 0x40, 0xb1, 0x6e, 0x26, 0xd3 ,0x88 ,0x56 ,0xa7 ,
   0xd9 ,0x69, 0x76, 0x29 ,0x14, 0x00 ,0x40, 0xb1 ,0x6e ,0x26 ,
   0xd3, 0x88 ,0x56 ,0xa7, 0xd9 ,0x69, 0x76 ,0x29 ,0x14, 0x00 ,
   0x40 ,0xb1 ,0x6e, 0x26 ,0xd3 ,0x88 ,0x56 ,0xa7 ,0xd9 ,0x69, 
   0x76, 0x29 ,0x14 ,0x00, 0x40, 0xb1 ,0x6e, 0x26, 0xd3 ,0x88, 
   0x56 ,0xa7 ,0xd9, 0x69 ,0x76 ,0x29, 0x14, 0x00 ,0x40, 0xb1 ,
   0x6e, 0x26 ,0xd3 ,0x88, 0x56 ,0xa7, 0xd9 ,0x69 ,0x76, 0x29 ,
   0x14, 0x00, 0x40, 0xb1 ,0x6e, 0x26 ,0xd3, 0x88 ,0x56 ,0xa7 ,
   0xd9 ,0x69 ,0x76, 0x29 ,0x14, 0x00 ,0x40, 0xb1 ,0x6e ,0x26 ,
   0xd3 ,0x88 ,0x56, 0xa7 ,0xd9, 0x69 ,0x76, 0x29, 0x14 ,0x00 ,
   0x40, 0xb1 ,0x6e ,0x26, 0xd3 ,0x88, 0x56 ,0xa7 ,0xd9, 0x69 ,
   0x76, 0x29, 0x14, 0x00, 0x40, 0xb1, 0x6e, 0x26, 0xd3, 0x88, 
   0x56, 0xa7, 0xd9, 0x69, 0x76, 0x29, 0x14, 0x00, 0x40, 0xb1, 
   0x6e, 0x26, 0xd3, 0x88, 0x56 ,0xa7 ,0xd9 ,0x69 ,0x76 ,0x29, 
   0x14, 0x00 ,0x40, 0xb1 ,0x6e, 0x26 ,0xd3 ,0x88 ,0x56, 0xa7 ,
   0xd9 ,0x69, 0x76 ,0x29, 0x14 ,0x00 ,0x40, 0xb1 ,0x6e ,0x26 ,
   0xd3, 0x88 ,0x56 ,0xa7 ,0xd9 ,0x69 ,0x76 ,0x29, 0x14, 0x00 ,
   0x40 ,0xb1, 0x6e, 0x26 ,0xd3, 0x88, 0x56 ,0xa7, 0xd9 ,0x69 ,
   0x76, 0x29 ,0x14 ,0x00, 0x40, 0xb1 ,0x6e, 0x26 ,0xd3, 0x88 ,
   0x56 ,0xa7, 0xd9 ,0x69, 0x76 ,0x29 ,0x14, 0x00 ,0x40, 0xb1, 
   0x6e, 0x26 ,0xd3, 0x88 ,0x56, 0xa7 ,0xd9 ,0x69 ,0x76 ,0x29 ,
   0x14, 0x00 ,0x40, 0xb1 ,0x6e, 0x26 ,0xd3 ,0x88 ,0x56 ,0xa7 ,
   0xd9, 0x69 ,0x76, 0x29 ,0x14, 0x00, 0x40 ,0xb1 ,0x6e, 0x26 ,
   0xd3 ,0x88, 0x56 ,0xa7, 0xd9 ,0x69 ,0x76, 0x29 ,0x14, 0x00, 
   0x40, 0xb1, 0x6e, 0x26, 0xd3, 0x88, 0x56, 0xa7, 0xd9, 0x69, 
   0x76, 0x29, 0x14, 0x00, 0x40, 0xb1, 0x6e, 0x26, 0xd3, 0x88, 
   0x56, 0xa7, 0xd9 ,0x69 ,0x76 ,0x29 ,0x14 ,0x00, 0x40, 0xb1 ,
   0x6e, 0x26 ,0xd3, 0x88 ,0x56 ,0xa7 ,0xd9, 0x69 ,0x76 ,0x29, 
   0x14 ,0x00, 0x40 ,0xb1 ,0x6e, 0x26 ,0xd3 ,0x88 ,0x56, 0xa7 ,
   0xd9 ,0x69 ,0x76 ,0x29 ,0x14 ,0x00, 0x40, 0xb1 ,0x6e ,0x26, 
   0xd3, 0x88 ,0x56, 0xa7, 0xd9 ,0x69, 0x76 ,0x29 ,0x14, 0x00 ,
   0x40 ,0xb1, 0x6e, 0x26 ,0xd3, 0x88 ,0x56, 0xa7 ,0xd9 ,0x69, 
   0x76 ,0x29, 0x14 ,0x00 ,0x40, 0xb1 ,0x6e, 0x26, 0xd3, 0x88 ,
   0x56, 0xa7 ,0xd9, 0x69 ,0x76 ,0x29 ,0x14 ,0x00 ,0x40, 0xb1 ,
   0x6e, 0x26 ,0xd3, 0x88 ,0x56 ,0xa7 ,0xd9 ,0x69 ,0x76, 0x29 ,
   0x14, 0x00 ,0x40, 0xb1, 0x6e ,0x26 ,0xd3, 0x88 ,0x56 ,0xa7, 
   0xd9 ,0x69, 0x76 ,0x29 ,0x14, 0x00 ,0x40, 0xb1, 0x6e, 0x26, 
   0xd3, 0x88, 0x56, 0xa7, 0xd9, 0x69, 0x76, 0x29, 0x14, 0x00, 
   0x40, 0xb1, 0x6e, 0x26, 0xd3, 0x88, 0x56, 0xa7, 0xd9, 0x69, 
   0x76 ,0x29 ,0x14 ,0x00 ,0x40 ,0xb1, 0x6e, 0x26 ,0xd3, 0x88 ,
   0x56, 0xa7 ,0xd9 ,0x69 ,0x76, 0x29 ,0x14 ,0x00, 0x40 ,0xb1, 
   0x6e ,0x26 ,0xd3, 0x88 ,0x56 ,0xa7 ,0xd9, 0x69 ,0x76 ,0x29 ,
   0x14 ,0x00 ,0x40 ,0xb1, 0x6e, 0x26 ,0xd3 ,0x88, 0x56, 0xa7 ,
   0xd9, 0x69, 0x76 ,0x29, 0x14 ,0x00 ,0x40, 0xb1 ,0x6e ,0x26, 
   0xd3, 0x88 ,0x56, 0xa7 ,0xd9, 0x69 ,0x76 ,0x29, 0x14 ,0x00, 
   0x40 ,0xb1 ,0x6e, 0x26 ,0xd3, 0x88, 0x56, 0xa7 ,0xd9, 0x69 ,
   0x76, 0x29 ,0x14 ,0x00 ,0x40 ,0xb1 ,0x6e, 0x26 ,0xd3, 0x88 ,
   0x56, 0xa7 ,0xd9 ,0x69 ,0x76 ,0x29 ,0x14, 0x00 ,0x40, 0xb1 ,
   0x6e, 0x26, 0xd3 ,0x88 ,0x56, 0xa7 ,0xd9 ,0x69, 0x76 ,0x29, 
   0x14 ,0x00 ,0x40, 0xb1 ,0x6e, 0x26, 0xd3, 0x88, 0x56, 0xa7, 
   0xd9, 0x69, 0x76, 0x29, 0x14, 0x00, 0x4f, 0xb1, 0x6e, 0x26, 
   0xd3, 0x88, 0x56, 0xa7, 0xd9, 0x69, 0x76, 0x29, 0x94 ,0x01 ,
   0x49 ,0xb1 ,0x6e ,0x26, 0xd3, 0x88 ,0x56, 0xa7 ,0xd9, 0x69 ,
   0x76 ,0x29 ,0x94, 0x00 ,0x49 ,0xb1, 0x6e ,0x26, 0xd3 ,0x88 ,
   0x56, 0xa7 ,0xd9 ,0x69 ,0x76, 0x29 ,0x94 ,0x00 ,0x49 ,0xb1 ,
   0x6e ,0x26, 0xd3, 0x88 ,0x56 ,0xa7, 0xd9, 0x69 ,0x76, 0x29, 
   0x94 ,0x07, 0x49 ,0xb1 ,0x6e, 0x26 ,0xd3 ,0x88, 0x56, 0xa7 ,
   0xd9, 0x69 ,0x76, 0x29 ,0x94 ,0x04, 0x49 ,0xb1, 0x00 ,0x00 ,
   0x00, 0x00 ,0x50, 0x00, 0x00, 0x00 ,0x00, 0x28 ,0x94, 0x04 ,
   0x4f ,0xb1 ,0x00 ,0x00 ,0x00, 0x00 ,0x50, 0x00 ,0x00, 0x00 ,
   0x00 ,0x28 ,0x94 ,0x07 ,0x40, 0xb1 ,0x3c, 0x0c ,0x86, 0xc7, 
   0x53 ,0x1e ,0x86, 0x87 ,0xe1 ,0x29, 0x14 ,0x00, 0x40 ,0xb1 ,
   0x24, 0x08 ,0x84, 0x44, 0x52, 0x12, 0x84, 0x04, 0x21, 0x29, 
   0x14, 0x00, 0x40, 0xb1, 0x24, 0x08, 0x84, 0x40, 0x52, 0x12, 
   0x84, 0x04, 0x21, 0x29, 0x14, 0x00, 0x40 ,0xb1 ,0x30 ,0x08 ,
   0x84 ,0xc7, 0x53, 0x12 ,0x84, 0x04 ,0xe1, 0x29 ,0x14 ,0x00 ,
   0x00, 0x00 ,0x10 ,0x08, 0x04 ,0x04, 0x02 ,0x12 ,0x84, 0x04 ,
   0x01 ,0x01 ,0x00, 0x00 ,0x00 ,0x00 ,0x10 ,0x08 ,0x84 ,0x04, 
   0x02, 0x12 ,0x84 ,0x04, 0x01, 0x01 ,0x00, 0x00, 0x00 ,0x00, 
   0x10 ,0x1e ,0x8f, 0x07 ,0x02 ,0x1e, 0x8f, 0xc7 ,0x03, 0x01 ,
   0x00, 0x00 ,};
/* the milk.com barcode generator; http://www.milk.com/barcode/ */
