#define milk_barcode_width 107
#define milk_barcode_height 68
static char milk_barcode_bits[] = {
   0xc0 ,0x49 ,0x21 ,0x01 ,0x04 ,0x10, 0x00, 0x00 ,0x00, 0x00 ,
   0x02, 0x00 ,0x00 ,0x00 ,0x40, 0x4a ,0x21 ,0x01, 0x04 ,0x10, 
   0x00 ,0x00 ,0x00, 0x01 ,0x02 ,0x00 ,0x00, 0x00 ,0x40 ,0x4a ,
   0x21 ,0x81 ,0xf7 ,0xde, 0x03, 0xef ,0xbd ,0x07, 0xde, 0x7b ,
   0x0f, 0x00, 0xc0 ,0x49, 0xe1 ,0xbc ,0x84, 0x52 ,0x00 ,0x21, 
   0x25, 0x01 ,0x52, 0x4a ,0x01, 0x00 ,0x40 ,0x4a, 0x21 ,0x81, 
   0xf4 ,0xd2 ,0x03, 0x21 ,0x25, 0x01, 0xd2, 0x7b ,0x01, 0x00 ,
   0x40, 0x4a ,0x21 ,0x81 ,0x94 ,0x12 ,0x02, 0x21 ,0x25, 0x01 ,
   0x52, 0x08 ,0x01 ,0x00 ,0xc0 ,0x79 ,0x2f, 0x81 ,0xf7, 0xde ,
   0x7b, 0xe1, 0x3d ,0xf7 ,0xde, 0x7b ,0x01 ,0x00, 0x00 ,0x00, 
   0x00 ,0x00 ,0x00, 0x00 ,0x00, 0x00, 0x00, 0x00, 0x00, 0x00, 
   0x00, 0x00, 0x40, 0xb1, 0x6e, 0xb2, 0x98, 0x89, 0x55, 0xa7, 
   0x4b, 0x28, 0x74, 0xba, 0x14, 0x00, 0x40, 0xb1, 0x6e ,0xb2 ,
   0x98 ,0x89 ,0x55 ,0xa7, 0x4b, 0x28 ,0x74, 0xba ,0x14, 0x00 ,
   0x40 ,0xb1 ,0x6e, 0xb2 ,0x98 ,0x89, 0x55 ,0xa7, 0x4b ,0x28 ,
   0x74, 0xba ,0x14 ,0x00 ,0x40, 0xb1 ,0x6e ,0xb2 ,0x98 ,0x89 ,
   0x55 ,0xa7, 0x4b, 0x28 ,0x74 ,0xba, 0x14, 0x00 ,0x40, 0xb1, 
   0x6e ,0xb2, 0x98 ,0x89 ,0x55, 0xa7 ,0x4b ,0x28, 0x74, 0xba ,
   0x14, 0x00 ,0x40, 0xb1 ,0x6e ,0xb2, 0x98 ,0x89, 0x55 ,0xa7 ,
   0x4b, 0x28 ,0x74, 0xba, 0x14, 0x00 ,0x40, 0xb1 ,0x6e, 0xb2 ,
   0x98 ,0x89 ,0x55 ,0xa7 ,0x4b, 0x28 ,0x74, 0xba ,0x14, 0x00 ,
   0x40 ,0xb1 ,0x6e ,0xb2 ,0x98, 0x89 ,0x55, 0xa7 ,0x4b, 0x28, 
   0x74 ,0xba ,0x14, 0x00 ,0x40 ,0xb1, 0x6e ,0xb2, 0x98 ,0x89 ,
   0x55, 0xa7 ,0x4b, 0x28, 0x74, 0xba, 0x14, 0x00, 0x40, 0xb1, 
   0x6e, 0xb2, 0x98, 0x89, 0x55, 0xa7, 0x4b, 0x28, 0x74, 0xba, 
   0x14, 0x00, 0x40, 0xb1, 0x6e, 0xb2, 0x98 ,0x89 ,0x55 ,0xa7 ,
   0x4b ,0x28, 0x74, 0xba ,0x14, 0x00 ,0x40, 0xb1 ,0x6e ,0xb2 ,
   0x98, 0x89 ,0x55 ,0xa7, 0x4b ,0x28, 0x74 ,0xba ,0x14, 0x00 ,
   0x40 ,0xb1 ,0x6e, 0xb2 ,0x98 ,0x89 ,0x55 ,0xa7 ,0x4b ,0x28, 
   0x74, 0xba ,0x14 ,0x00, 0x40, 0xb1 ,0x6e, 0xb2, 0x98 ,0x89, 
   0x55 ,0xa7 ,0x4b, 0x28 ,0x74 ,0xba, 0x14, 0x00 ,0x40, 0xb1 ,
   0x6e, 0xb2 ,0x98 ,0x89, 0x55 ,0xa7, 0x4b ,0x28 ,0x74, 0xba ,
   0x14, 0x00, 0x40, 0xb1 ,0x6e, 0xb2 ,0x98, 0x89 ,0x55 ,0xa7 ,
   0x4b ,0x28 ,0x74, 0xba ,0x14, 0x00 ,0x40, 0xb1 ,0x6e ,0xb2 ,
   0x98 ,0x89 ,0x55, 0xa7 ,0x4b, 0x28 ,0x74, 0xba, 0x14 ,0x00 ,
   0x40, 0xb1 ,0x6e ,0xb2, 0x98 ,0x89, 0x55 ,0xa7 ,0x4b, 0x28 ,
   0x74, 0xba, 0x14, 0x00, 0x40, 0xb1, 0x6e, 0xb2, 0x98, 0x89, 
   0x55, 0xa7, 0x4b, 0x28, 0x74, 0xba, 0x14, 0x00, 0x40, 0xb1, 
   0x6e, 0xb2, 0x98, 0x89, 0x55 ,0xa7 ,0x4b ,0x28 ,0x74 ,0xba, 
   0x14, 0x00 ,0x40, 0xb1 ,0x6e, 0xb2 ,0x98 ,0x89 ,0x55, 0xa7 ,
   0x4b ,0x28, 0x74 ,0xba, 0x14 ,0x00 ,0x40, 0xb1 ,0x6e ,0xb2 ,
   0x98, 0x89 ,0x55 ,0xa7 ,0x4b ,0x28 ,0x74 ,0xba, 0x14, 0x00 ,
   0x40 ,0xb1, 0x6e, 0xb2 ,0x98, 0x89, 0x55 ,0xa7, 0x4b ,0x28 ,
   0x74, 0xba ,0x14 ,0x00, 0x40, 0xb1 ,0x6e, 0xb2 ,0x98, 0x89 ,
   0x55 ,0xa7, 0x4b ,0x28, 0x74 ,0xba ,0x14, 0x00 ,0x40, 0xb1, 
   0x6e, 0xb2 ,0x98, 0x89 ,0x55, 0xa7 ,0x4b ,0x28 ,0x74 ,0xba ,
   0x14, 0x00 ,0x40, 0xb1 ,0x6e, 0xb2 ,0x98 ,0x89 ,0x55 ,0xa7 ,
   0x4b, 0x28 ,0x74, 0xba ,0x14, 0x00, 0x40 ,0xb1 ,0x6e, 0xb2 ,
   0x98 ,0x89, 0x55 ,0xa7, 0x4b ,0x28 ,0x74, 0xba ,0x14, 0x00, 
   0x40, 0xb1, 0x6e, 0xb2, 0x98, 0x89, 0x55, 0xa7, 0x4b, 0x28, 
   0x74, 0xba, 0x14, 0x00, 0x40, 0xb1, 0x6e, 0xb2, 0x98, 0x89, 
   0x55, 0xa7, 0x4b ,0x28 ,0x74 ,0xba ,0x14 ,0x00, 0x40, 0xb1 ,
   0x6e, 0xb2 ,0x98, 0x89 ,0x55 ,0xa7 ,0x4b, 0x28 ,0x74 ,0xba, 
   0x14 ,0x00, 0x40 ,0xb1 ,0x6e, 0xb2 ,0x98 ,0x89 ,0x55, 0xa7 ,
   0x4b ,0x28 ,0x74 ,0xba ,0x14 ,0x00, 0x40, 0xb1 ,0x6e ,0xb2, 
   0x98, 0x89 ,0x55, 0xa7, 0x4b ,0x28, 0x74 ,0xba ,0x14, 0x00 ,
   0x40 ,0xb1, 0x6e, 0xb2 ,0x98, 0x89 ,0x55, 0xa7 ,0x4b ,0x28, 
   0x74 ,0xba, 0x14 ,0x00 ,0x40, 0xb1 ,0x6e, 0xb2, 0x98, 0x89 ,
   0x55, 0xa7 ,0x4b, 0x28 ,0x74 ,0xba ,0x14 ,0x00 ,0x40, 0xb1 ,
   0x6e, 0xb2 ,0x98, 0x89 ,0x55 ,0xa7 ,0x4b ,0x28 ,0x74, 0xba ,
   0x14, 0x00 ,0x40, 0xb1, 0x6e ,0xb2 ,0x98, 0x89 ,0x55 ,0xa7, 
   0x4b ,0x28, 0x74 ,0xba ,0x14, 0x00 ,0x40, 0xb1, 0x6e, 0xb2, 
   0x98, 0x89, 0x55, 0xa7, 0x4b, 0x28, 0x74, 0xba, 0x14, 0x00, 
   0x40, 0xb1, 0x6e, 0xb2, 0x98, 0x89, 0x55, 0xa7, 0x4b, 0x28, 
   0x74 ,0xba ,0x14 ,0x00 ,0x40 ,0xb1, 0x6e, 0xb2 ,0x98, 0x89 ,
   0x55, 0xa7 ,0x4b ,0x28 ,0x74, 0xba ,0x14 ,0x00, 0x40 ,0xb1, 
   0x6e ,0xb2 ,0x98, 0x89 ,0x55 ,0xa7 ,0x4b, 0x28 ,0x74 ,0xba ,
   0x14 ,0x00 ,0x40 ,0xb1, 0x6e, 0xb2 ,0x98 ,0x89, 0x55, 0xa7 ,
   0x4b, 0x28, 0x74 ,0xba, 0x14 ,0x00 ,0x40, 0xb1 ,0x6e ,0xb2, 
   0x98, 0x89 ,0x55, 0xa7 ,0x4b, 0x28 ,0x74 ,0xba, 0x14 ,0x00, 
   0x40 ,0xb1 ,0x6e, 0xb2 ,0x98, 0x89, 0x55, 0xa7 ,0x4b, 0x28 ,
   0x74, 0xba ,0x14 ,0x00 ,0x40 ,0xb1 ,0x6e, 0xb2 ,0x98, 0x89 ,
   0x55, 0xa7 ,0x4b ,0x28 ,0x74 ,0xba ,0x14, 0x00 ,0x40, 0xb1 ,
   0x6e, 0xb2, 0x98 ,0x89 ,0x55, 0xa7 ,0x4b ,0x28, 0x74 ,0xba, 
   0x14 ,0x00 ,0x40, 0xb1 ,0x6e, 0xb2, 0x98, 0x89, 0x55, 0xa7, 
   0x4b, 0x28, 0x74, 0xba, 0x14, 0x00, 0x4f, 0xb1, 0x6e, 0xb2, 
   0x98, 0x89, 0x55, 0xa7, 0x4b, 0x28, 0x74, 0xba, 0x94 ,0x07 ,
   0x49 ,0xb1 ,0x6e ,0xb2, 0x98, 0x89 ,0x55, 0xa7 ,0x4b, 0x28 ,
   0x74 ,0xba ,0x94, 0x04 ,0x49 ,0xb1, 0x6e ,0xb2, 0x98 ,0x89 ,
   0x55, 0xa7 ,0x4b ,0x28 ,0x74, 0xba ,0x94 ,0x04 ,0x49 ,0xb1 ,
   0x6e ,0xb2, 0x98, 0x89 ,0x55 ,0xa7, 0x4b, 0x28 ,0x74, 0xba, 
   0x94 ,0x07, 0x49 ,0xb1 ,0x6e, 0xb2 ,0x98 ,0x89, 0x55, 0xa7 ,
   0x4b, 0x28 ,0x74, 0xba ,0x14 ,0x04, 0x49 ,0xb1, 0x00 ,0x00 ,
   0x00, 0x00 ,0x50, 0x00, 0x00, 0x00 ,0x00, 0xb8 ,0x14, 0x04 ,
   0x4f ,0xb1 ,0x00 ,0x00 ,0x00, 0x00 ,0x50, 0x00 ,0x00, 0x00 ,
   0x00 ,0xb8 ,0x14 ,0x04 ,0x40, 0xb1 ,0x3c, 0x1e ,0x09, 0xc3, 
   0x53 ,0x1e ,0x8f, 0xc7 ,0xe3 ,0xb9, 0x14 ,0x00, 0x40 ,0xb1 ,
   0x24, 0x12 ,0x09, 0x42, 0x52, 0x12, 0x09, 0x04, 0x22, 0xb9, 
   0x14, 0x00, 0x40, 0xb1, 0x24, 0x10, 0x09, 0x42, 0x52, 0x12, 
   0x09, 0x04, 0x22, 0xb9, 0x14, 0x00, 0x40 ,0xb1 ,0x30 ,0x1e ,
   0x0f ,0x42, 0x52, 0x12 ,0x8f, 0xc7 ,0x23, 0xb9 ,0x14 ,0x00 ,
   0x00, 0x00 ,0x10 ,0x02, 0x08 ,0x42, 0x02 ,0x12 ,0x08, 0x04 ,
   0x22 ,0x01 ,0x00, 0x00 ,0x00 ,0x00 ,0x10 ,0x12 ,0x08 ,0x42, 
   0x02, 0x12 ,0x08 ,0x04, 0x22, 0x01 ,0x00, 0x00, 0x00 ,0x00, 
   0x10 ,0x1e ,0x88, 0xc7 ,0x03 ,0x1e, 0x88, 0xc7 ,0xe3, 0x01 ,
   0x00, 0x00 ,};
/* the milk.com barcode generator; http://www.milk.com/barcode/ */
