#define milk_barcode_width 63
#define milk_barcode_height 68
static char milk_barcode_bits[] = {
   0x27 ,0x85 ,0x04 ,0x90 ,0x00 ,0x00, 0x3c, 0x00 ,0x29, 0x85 ,
   0x04, 0x10 ,0x00 ,0x02 ,0x24, 0x00 ,0x29 ,0x85, 0x04 ,0xde, 
   0x78 ,0x0f ,0xa4, 0x74 ,0x27 ,0x85 ,0xf3, 0x92 ,0x48 ,0x02 ,
   0xb0 ,0x14 ,0x29 ,0x85, 0x04, 0x92 ,0x78 ,0x02, 0x90, 0x14 ,
   0x29, 0x85, 0x04 ,0x92, 0x08 ,0x02 ,0x90, 0x74 ,0xe7 ,0xbd, 
   0x04, 0xde ,0x79, 0xee ,0x91, 0x17 ,0x00 ,0x00, 0x00 ,0x00, 
   0x00 ,0x00 ,0x00, 0x10 ,0x40, 0x89, 0x76, 0x2c ,0x91, 0x8e ,
   0x55, 0x01 ,0x40 ,0x89 ,0x76 ,0x2c ,0x91, 0x8e ,0x55, 0x01 ,
   0x40, 0x89 ,0x76 ,0x2c ,0x91 ,0x8e ,0x55, 0x01 ,0x40, 0x89 ,
   0x76, 0x2c, 0x91 ,0x8e ,0x55, 0x01 ,0x40 ,0x89, 0x76 ,0x2c, 
   0x91 ,0x8e ,0x55, 0x01 ,0x40, 0x89, 0x76, 0x2c, 0x91, 0x8e, 
   0x55, 0x01, 0x40, 0x89, 0x76, 0x2c, 0x91, 0x8e, 0x55, 0x01, 
   0x40, 0x89, 0x76, 0x2c, 0x91, 0x8e, 0x55, 0x01, 0x40 ,0x89 ,
   0x76 ,0x2c ,0x91 ,0x8e, 0x55, 0x01 ,0x40, 0x89 ,0x76, 0x2c ,
   0x91 ,0x8e ,0x55, 0x01 ,0x40 ,0x89, 0x76 ,0x2c, 0x91 ,0x8e ,
   0x55, 0x01 ,0x40 ,0x89 ,0x76, 0x2c ,0x91 ,0x8e ,0x55 ,0x01 ,
   0x40 ,0x89, 0x76, 0x2c ,0x91 ,0x8e, 0x55, 0x01 ,0x40, 0x89, 
   0x76 ,0x2c, 0x91 ,0x8e ,0x55, 0x01 ,0x40 ,0x89, 0x76, 0x2c ,
   0x91, 0x8e ,0x55, 0x01 ,0x40 ,0x89, 0x76 ,0x2c, 0x91 ,0x8e ,
   0x55, 0x01 ,0x40, 0x89, 0x76, 0x2c ,0x91, 0x8e ,0x55, 0x01 ,
   0x40 ,0x89 ,0x76 ,0x2c ,0x91, 0x8e ,0x55, 0x01 ,0x40, 0x89 ,
   0x76 ,0x2c ,0x91 ,0x8e ,0x55, 0x01 ,0x40, 0x89 ,0x76, 0x2c, 
   0x91 ,0x8e ,0x55, 0x01 ,0x40 ,0x89, 0x76 ,0x2c, 0x91 ,0x8e ,
   0x55, 0x01 ,0x40, 0x89, 0x76, 0x2c, 0x91, 0x8e, 0x55, 0x01, 
   0x40, 0x89, 0x76, 0x2c, 0x91, 0x8e, 0x55, 0x01, 0x40, 0x89, 
   0x76, 0x2c, 0x91, 0x8e, 0x55, 0x01, 0x40 ,0x89 ,0x76 ,0x2c ,
   0x91 ,0x8e, 0x55, 0x01 ,0x40, 0x89 ,0x76, 0x2c ,0x91 ,0x8e ,
   0x55, 0x01 ,0x40 ,0x89, 0x76 ,0x2c, 0x91 ,0x8e ,0x55, 0x01 ,
   0x40 ,0x89 ,0x76, 0x2c ,0x91 ,0x8e ,0x55 ,0x01 ,0x40 ,0x89, 
   0x76, 0x2c ,0x91 ,0x8e, 0x55, 0x01 ,0x40, 0x89, 0x76 ,0x2c, 
   0x91 ,0x8e ,0x55, 0x01 ,0x40 ,0x89, 0x76, 0x2c ,0x91, 0x8e ,
   0x55, 0x01 ,0x40 ,0x89, 0x76 ,0x2c, 0x91 ,0x8e ,0x55, 0x01 ,
   0x40, 0x89, 0x76, 0x2c ,0x91, 0x8e ,0x55, 0x01 ,0x40 ,0x89 ,
   0x76 ,0x2c ,0x91, 0x8e ,0x55, 0x01 ,0x40, 0x89 ,0x76 ,0x2c ,
   0x91 ,0x8e ,0x55, 0x01 ,0x40, 0x89 ,0x76, 0x2c, 0x91 ,0x8e ,
   0x55, 0x01 ,0x40 ,0x89, 0x76 ,0x2c, 0x91 ,0x8e ,0x55, 0x01 ,
   0x40, 0x89, 0x76, 0x2c, 0x91, 0x8e, 0x55, 0x01, 0x40, 0x89, 
   0x76, 0x2c, 0x91, 0x8e, 0x55, 0x01, 0x40, 0x89, 0x76, 0x2c, 
   0x91, 0x8e, 0x55, 0x01, 0x40 ,0x89 ,0x76 ,0x2c ,0x91 ,0x8e, 
   0x55, 0x01 ,0x40, 0x89 ,0x76, 0x2c ,0x91 ,0x8e ,0x55, 0x01 ,
   0x40 ,0x89, 0x76 ,0x2c, 0x91 ,0x8e ,0x55, 0x01 ,0x40 ,0x89 ,
   0x76, 0x2c ,0x91 ,0x8e ,0x55 ,0x01 ,0x40 ,0x89, 0x76, 0x2c ,
   0x91 ,0x8e, 0x55, 0x01 ,0x40, 0x89, 0x76 ,0x2c, 0x91 ,0x8e ,
   0x55, 0x01 ,0x4f ,0x89, 0x76, 0x2c ,0x91, 0x8e ,0x55, 0x79 ,
   0x49 ,0x89, 0x76 ,0x2c, 0x91 ,0x8e ,0x55, 0x49 ,0x49, 0x89, 
   0x76, 0x2c ,0x91, 0x8e ,0x55, 0x09 ,0x49 ,0x89 ,0x76 ,0x2c ,
   0x91, 0x8e ,0x55, 0x79 ,0x49, 0x89 ,0x76 ,0x2c ,0x91 ,0x8e ,
   0x55, 0x41 ,0x49, 0x01 ,0x00, 0x00, 0x00 ,0x00 ,0x50, 0x49 ,
   0x4f ,0x01, 0x00 ,0x00, 0x00 ,0x00 ,0x50, 0x79 ,0x40, 0x79, 
   0x3c, 0x1e, 0x8f, 0xc7, 0x53, 0x01, 0x40, 0x49, 0x24, 0x12, 
   0x89, 0x44, 0x52, 0x01, 0x40, 0x49, 0x24, 0x12, 0x89, 0x44, 
   0x52, 0x01, 0x40 ,0x61 ,0x3c ,0x12 ,0x8c ,0x47, 0x52, 0x01 ,
   0x00, 0x20 ,0x24, 0x12 ,0x04 ,0x44 ,0x02, 0x00 ,0x00 ,0x20, 
   0x24 ,0x12, 0x04 ,0x44 ,0x02, 0x00 ,0x00 ,0x20 ,0x3c, 0x1e ,
   0x04 ,0xc4 ,0x03 ,0x00 ,};
/* the milk.com barcode generator; http://www.milk.com/barcode/ */
