#define milk_barcode_width 63
#define milk_barcode_height 68
static char milk_barcode_bits[] = {
   0xa4 ,0x90 ,0x00 ,0x12 ,0x00 ,0x00, 0x00, 0x02 ,0xa5, 0x90 ,
   0x00, 0x02 ,0x40 ,0x00 ,0x00, 0x02 ,0xa5 ,0x90, 0xc0 ,0x1b, 
   0xef ,0x81 ,0xf7, 0x52 ,0xa4 ,0x70 ,0x5e, 0x12 ,0x49 ,0x80 ,
   0x90 ,0x4a ,0xa5 ,0x90, 0x40, 0x12 ,0x4f ,0x80, 0x90, 0x46 ,
   0xa5, 0x90, 0x40 ,0x12, 0x41 ,0x80 ,0x90, 0x4a ,0xbc ,0x97, 
   0xc0, 0x3b ,0xcf, 0xbd ,0xf7, 0x52 ,0x00 ,0x00, 0x00 ,0x00, 
   0x00 ,0x00 ,0x00, 0x00 ,0x40, 0xb9, 0x74, 0xbd ,0x11, 0x89 ,
   0x55, 0x01 ,0x40 ,0xb9 ,0x74 ,0xbd ,0x11, 0x89 ,0x55, 0x01 ,
   0x40, 0xb9 ,0x74 ,0xbd ,0x11 ,0x89 ,0x55, 0x01 ,0x40, 0xb9 ,
   0x74, 0xbd, 0x11 ,0x89 ,0x55, 0x01 ,0x40 ,0xb9, 0x74 ,0xbd, 
   0x11 ,0x89 ,0x55, 0x01 ,0x40, 0xb9, 0x74, 0xbd, 0x11, 0x89, 
   0x55, 0x01, 0x40, 0xb9, 0x74, 0xbd, 0x11, 0x89, 0x55, 0x01, 
   0x40, 0xb9, 0x74, 0xbd, 0x11, 0x89, 0x55, 0x01, 0x40 ,0xb9 ,
   0x74 ,0xbd ,0x11 ,0x89, 0x55, 0x01 ,0x40, 0xb9 ,0x74, 0xbd ,
   0x11 ,0x89 ,0x55, 0x01 ,0x40 ,0xb9, 0x74 ,0xbd, 0x11 ,0x89 ,
   0x55, 0x01 ,0x40 ,0xb9 ,0x74, 0xbd ,0x11 ,0x89 ,0x55 ,0x01 ,
   0x40 ,0xb9, 0x74, 0xbd ,0x11 ,0x89, 0x55, 0x01 ,0x40, 0xb9, 
   0x74 ,0xbd, 0x11 ,0x89 ,0x55, 0x01 ,0x40 ,0xb9, 0x74, 0xbd ,
   0x11, 0x89 ,0x55, 0x01 ,0x40 ,0xb9, 0x74 ,0xbd, 0x11 ,0x89 ,
   0x55, 0x01 ,0x40, 0xb9, 0x74, 0xbd ,0x11, 0x89 ,0x55, 0x01 ,
   0x40 ,0xb9 ,0x74 ,0xbd ,0x11, 0x89 ,0x55, 0x01 ,0x40, 0xb9 ,
   0x74 ,0xbd ,0x11 ,0x89 ,0x55, 0x01 ,0x40, 0xb9 ,0x74, 0xbd, 
   0x11 ,0x89 ,0x55, 0x01 ,0x40 ,0xb9, 0x74 ,0xbd, 0x11 ,0x89 ,
   0x55, 0x01 ,0x40, 0xb9, 0x74, 0xbd, 0x11, 0x89, 0x55, 0x01, 
   0x40, 0xb9, 0x74, 0xbd, 0x11, 0x89, 0x55, 0x01, 0x40, 0xb9, 
   0x74, 0xbd, 0x11, 0x89, 0x55, 0x01, 0x40 ,0xb9 ,0x74 ,0xbd ,
   0x11 ,0x89, 0x55, 0x01 ,0x40, 0xb9 ,0x74, 0xbd ,0x11 ,0x89 ,
   0x55, 0x01 ,0x40 ,0xb9, 0x74 ,0xbd, 0x11 ,0x89 ,0x55, 0x01 ,
   0x40 ,0xb9 ,0x74, 0xbd ,0x11 ,0x89 ,0x55 ,0x01 ,0x40 ,0xb9, 
   0x74, 0xbd ,0x11 ,0x89, 0x55, 0x01 ,0x40, 0xb9, 0x74 ,0xbd, 
   0x11 ,0x89 ,0x55, 0x01 ,0x40 ,0xb9, 0x74, 0xbd ,0x11, 0x89 ,
   0x55, 0x01 ,0x40 ,0xb9, 0x74 ,0xbd, 0x11 ,0x89 ,0x55, 0x01 ,
   0x40, 0xb9, 0x74, 0xbd ,0x11, 0x89 ,0x55, 0x01 ,0x40 ,0xb9 ,
   0x74 ,0xbd ,0x11, 0x89 ,0x55, 0x01 ,0x40, 0xb9 ,0x74 ,0xbd ,
   0x11 ,0x89 ,0x55, 0x01 ,0x40, 0xb9 ,0x74, 0xbd, 0x11 ,0x89 ,
   0x55, 0x01 ,0x40 ,0xb9, 0x74 ,0xbd, 0x11 ,0x89 ,0x55, 0x01 ,
   0x40, 0xb9, 0x74, 0xbd, 0x11, 0x89, 0x55, 0x01, 0x40, 0xb9, 
   0x74, 0xbd, 0x11, 0x89, 0x55, 0x01, 0x40, 0xb9, 0x74, 0xbd, 
   0x11, 0x89, 0x55, 0x01, 0x40 ,0xb9 ,0x74 ,0xbd ,0x11 ,0x89, 
   0x55, 0x01 ,0x40, 0xb9 ,0x74, 0xbd ,0x11 ,0x89 ,0x55, 0x01 ,
   0x40 ,0xb9, 0x74 ,0xbd, 0x11 ,0x89 ,0x55, 0x01 ,0x40 ,0xb9 ,
   0x74, 0xbd ,0x11 ,0x89 ,0x55 ,0x01 ,0x40 ,0xb9, 0x74, 0xbd ,
   0x11 ,0x89, 0x55, 0x01 ,0x40, 0xb9, 0x74 ,0xbd, 0x11 ,0x89 ,
   0x55, 0x01 ,0x4f ,0xb9, 0x74, 0xbd ,0x11, 0x89 ,0x55, 0x79 ,
   0x49 ,0xb9, 0x74 ,0xbd, 0x11 ,0x89 ,0x55, 0x49 ,0x49, 0xb9, 
   0x74, 0xbd ,0x11, 0x89 ,0x55, 0x41 ,0x49 ,0xb9 ,0x74 ,0xbd ,
   0x11, 0x89 ,0x55, 0x79 ,0x49, 0xb9 ,0x74 ,0xbd ,0x11 ,0x89 ,
   0x55, 0x09 ,0x49, 0x01 ,0x00, 0x00, 0x00 ,0x00 ,0x50, 0x49 ,
   0x4f ,0x01, 0x00 ,0x00, 0x00 ,0x00 ,0x50, 0x79 ,0x40, 0x49, 
   0x3c, 0x06, 0x8f, 0xc7, 0x53, 0x01, 0x40, 0x49, 0x24, 0x02, 
   0x89, 0x44, 0x52, 0x01, 0x40, 0x49, 0x24, 0x02, 0x81, 0x44, 
   0x52, 0x01, 0x40 ,0x79 ,0x3c ,0x1e ,0x8f ,0x47, 0x52, 0x01 ,
   0x00, 0x40 ,0x20, 0x12 ,0x88 ,0x44 ,0x02, 0x00 ,0x00 ,0x40, 
   0x20 ,0x12, 0x89 ,0x44 ,0x02, 0x00 ,0x00 ,0x40 ,0x20, 0x1e ,
   0x8f ,0xc7 ,0x03 ,0x00 ,};
/* the milk.com barcode generator; http://www.milk.com/barcode/ */
