#define milk_barcode_width 107
#define milk_barcode_height 68
static char milk_barcode_bits[] = {
   0xc0 ,0x49 ,0x21 ,0x01 ,0x00 ,0x00, 0x00, 0x00 ,0x01, 0xe0 ,
   0x00, 0x10 ,0x00 ,0x00 ,0x40, 0x4a ,0x21 ,0x01, 0x00 ,0x04, 
   0x00 ,0x00 ,0x01, 0x20 ,0x00 ,0x00 ,0x02, 0x00 ,0x40 ,0x4a ,
   0x21 ,0x81 ,0xf7 ,0xde, 0x7b, 0xef ,0x3d ,0xf0, 0x5e, 0x1a ,
   0x0f, 0x00, 0xc0 ,0x49, 0xe1 ,0xbc ,0x84, 0x44 ,0x0a ,0x28, 
   0x25, 0x20 ,0x42, 0x12 ,0x02, 0x00 ,0x40 ,0x4a, 0x21 ,0x81, 
   0xf4 ,0x44 ,0x0a, 0x2f ,0x3d, 0x20, 0x42, 0x12 ,0x02, 0x00 ,
   0x40, 0x4a ,0x21 ,0x81 ,0x97 ,0x44 ,0x0a, 0x29 ,0x05, 0x20 ,
   0x42, 0x12 ,0x02 ,0x00 ,0xc0 ,0x79 ,0x2f, 0x01 ,0xf4, 0xdc ,
   0x0b, 0xef, 0xbd ,0x27 ,0xc2, 0x3b ,0x0e ,0x00, 0x00 ,0x00, 
   0x00 ,0x00 ,0x06, 0x00 ,0x00, 0x00, 0x00, 0x00, 0x00, 0x00, 
   0x00, 0x00, 0x40, 0xb1, 0x46, 0x32, 0x16, 0x8b, 0x55, 0x9b, 
   0x53, 0x64, 0x76, 0x9a, 0x15, 0x00, 0x40, 0xb1, 0x46 ,0x32 ,
   0x16 ,0x8b ,0x55 ,0x9b, 0x53, 0x64 ,0x76, 0x9a ,0x15, 0x00 ,
   0x40 ,0xb1 ,0x46, 0x32 ,0x16 ,0x8b, 0x55 ,0x9b, 0x53 ,0x64 ,
   0x76, 0x9a ,0x15 ,0x00 ,0x40, 0xb1 ,0x46 ,0x32 ,0x16 ,0x8b ,
   0x55 ,0x9b, 0x53, 0x64 ,0x76 ,0x9a, 0x15, 0x00 ,0x40, 0xb1, 
   0x46 ,0x32, 0x16 ,0x8b ,0x55, 0x9b ,0x53 ,0x64, 0x76, 0x9a ,
   0x15, 0x00 ,0x40, 0xb1 ,0x46 ,0x32, 0x16 ,0x8b, 0x55 ,0x9b ,
   0x53, 0x64 ,0x76, 0x9a, 0x15, 0x00 ,0x40, 0xb1 ,0x46, 0x32 ,
   0x16 ,0x8b ,0x55 ,0x9b ,0x53, 0x64 ,0x76, 0x9a ,0x15, 0x00 ,
   0x40 ,0xb1 ,0x46 ,0x32 ,0x16, 0x8b ,0x55, 0x9b ,0x53, 0x64, 
   0x76 ,0x9a ,0x15, 0x00 ,0x40 ,0xb1, 0x46 ,0x32, 0x16 ,0x8b ,
   0x55, 0x9b ,0x53, 0x64, 0x76, 0x9a, 0x15, 0x00, 0x40, 0xb1, 
   0x46, 0x32, 0x16, 0x8b, 0x55, 0x9b, 0x53, 0x64, 0x76, 0x9a, 
   0x15, 0x00, 0x40, 0xb1, 0x46, 0x32, 0x16 ,0x8b ,0x55 ,0x9b ,
   0x53 ,0x64, 0x76, 0x9a ,0x15, 0x00 ,0x40, 0xb1 ,0x46 ,0x32 ,
   0x16, 0x8b ,0x55 ,0x9b, 0x53 ,0x64, 0x76 ,0x9a ,0x15, 0x00 ,
   0x40 ,0xb1 ,0x46, 0x32 ,0x16 ,0x8b ,0x55 ,0x9b ,0x53 ,0x64, 
   0x76, 0x9a ,0x15 ,0x00, 0x40, 0xb1 ,0x46, 0x32, 0x16 ,0x8b, 
   0x55 ,0x9b ,0x53, 0x64 ,0x76 ,0x9a, 0x15, 0x00 ,0x40, 0xb1 ,
   0x46, 0x32 ,0x16 ,0x8b, 0x55 ,0x9b, 0x53 ,0x64 ,0x76, 0x9a ,
   0x15, 0x00, 0x40, 0xb1 ,0x46, 0x32 ,0x16, 0x8b ,0x55 ,0x9b ,
   0x53 ,0x64 ,0x76, 0x9a ,0x15, 0x00 ,0x40, 0xb1 ,0x46 ,0x32 ,
   0x16 ,0x8b ,0x55, 0x9b ,0x53, 0x64 ,0x76, 0x9a, 0x15 ,0x00 ,
   0x40, 0xb1 ,0x46 ,0x32, 0x16 ,0x8b, 0x55 ,0x9b ,0x53, 0x64 ,
   0x76, 0x9a, 0x15, 0x00, 0x40, 0xb1, 0x46, 0x32, 0x16, 0x8b, 
   0x55, 0x9b, 0x53, 0x64, 0x76, 0x9a, 0x15, 0x00, 0x40, 0xb1, 
   0x46, 0x32, 0x16, 0x8b, 0x55 ,0x9b ,0x53 ,0x64 ,0x76 ,0x9a, 
   0x15, 0x00 ,0x40, 0xb1 ,0x46, 0x32 ,0x16 ,0x8b ,0x55, 0x9b ,
   0x53 ,0x64, 0x76 ,0x9a, 0x15 ,0x00 ,0x40, 0xb1 ,0x46 ,0x32 ,
   0x16, 0x8b ,0x55 ,0x9b ,0x53 ,0x64 ,0x76 ,0x9a, 0x15, 0x00 ,
   0x40 ,0xb1, 0x46, 0x32 ,0x16, 0x8b, 0x55 ,0x9b, 0x53 ,0x64 ,
   0x76, 0x9a ,0x15 ,0x00, 0x40, 0xb1 ,0x46, 0x32 ,0x16, 0x8b ,
   0x55 ,0x9b, 0x53 ,0x64, 0x76 ,0x9a ,0x15, 0x00 ,0x40, 0xb1, 
   0x46, 0x32 ,0x16, 0x8b ,0x55, 0x9b ,0x53 ,0x64 ,0x76 ,0x9a ,
   0x15, 0x00 ,0x40, 0xb1 ,0x46, 0x32 ,0x16 ,0x8b ,0x55 ,0x9b ,
   0x53, 0x64 ,0x76, 0x9a ,0x15, 0x00, 0x40 ,0xb1 ,0x46, 0x32 ,
   0x16 ,0x8b, 0x55 ,0x9b, 0x53 ,0x64 ,0x76, 0x9a ,0x15, 0x00, 
   0x40, 0xb1, 0x46, 0x32, 0x16, 0x8b, 0x55, 0x9b, 0x53, 0x64, 
   0x76, 0x9a, 0x15, 0x00, 0x40, 0xb1, 0x46, 0x32, 0x16, 0x8b, 
   0x55, 0x9b, 0x53 ,0x64 ,0x76 ,0x9a ,0x15 ,0x00, 0x40, 0xb1 ,
   0x46, 0x32 ,0x16, 0x8b ,0x55 ,0x9b ,0x53, 0x64 ,0x76 ,0x9a, 
   0x15 ,0x00, 0x40 ,0xb1 ,0x46, 0x32 ,0x16 ,0x8b ,0x55, 0x9b ,
   0x53 ,0x64 ,0x76 ,0x9a ,0x15 ,0x00, 0x40, 0xb1 ,0x46 ,0x32, 
   0x16, 0x8b ,0x55, 0x9b, 0x53 ,0x64, 0x76 ,0x9a ,0x15, 0x00 ,
   0x40 ,0xb1, 0x46, 0x32 ,0x16, 0x8b ,0x55, 0x9b ,0x53 ,0x64, 
   0x76 ,0x9a, 0x15 ,0x00 ,0x40, 0xb1 ,0x46, 0x32, 0x16, 0x8b ,
   0x55, 0x9b ,0x53, 0x64 ,0x76 ,0x9a ,0x15 ,0x00 ,0x40, 0xb1 ,
   0x46, 0x32 ,0x16, 0x8b ,0x55 ,0x9b ,0x53 ,0x64 ,0x76, 0x9a ,
   0x15, 0x00 ,0x40, 0xb1, 0x46 ,0x32 ,0x16, 0x8b ,0x55 ,0x9b, 
   0x53 ,0x64, 0x76 ,0x9a ,0x15, 0x00 ,0x40, 0xb1, 0x46, 0x32, 
   0x16, 0x8b, 0x55, 0x9b, 0x53, 0x64, 0x76, 0x9a, 0x15, 0x00, 
   0x40, 0xb1, 0x46, 0x32, 0x16, 0x8b, 0x55, 0x9b, 0x53, 0x64, 
   0x76 ,0x9a ,0x15 ,0x00 ,0x40 ,0xb1, 0x46, 0x32 ,0x16, 0x8b ,
   0x55, 0x9b ,0x53 ,0x64 ,0x76, 0x9a ,0x15 ,0x00, 0x40 ,0xb1, 
   0x46 ,0x32 ,0x16, 0x8b ,0x55 ,0x9b ,0x53, 0x64 ,0x76 ,0x9a ,
   0x15 ,0x00 ,0x40 ,0xb1, 0x46, 0x32 ,0x16 ,0x8b, 0x55, 0x9b ,
   0x53, 0x64, 0x76 ,0x9a, 0x15 ,0x00 ,0x40, 0xb1 ,0x46 ,0x32, 
   0x16, 0x8b ,0x55, 0x9b ,0x53, 0x64 ,0x76 ,0x9a, 0x15 ,0x00, 
   0x40 ,0xb1 ,0x46, 0x32 ,0x16, 0x8b, 0x55, 0x9b ,0x53, 0x64 ,
   0x76, 0x9a ,0x15 ,0x00 ,0x40 ,0xb1 ,0x46, 0x32 ,0x16, 0x8b ,
   0x55, 0x9b ,0x53 ,0x64 ,0x76 ,0x9a ,0x15, 0x00 ,0x40, 0xb1 ,
   0x46, 0x32, 0x16 ,0x8b ,0x55, 0x9b ,0x53 ,0x64, 0x76 ,0x9a, 
   0x15 ,0x00 ,0x40, 0xb1 ,0x46, 0x32, 0x16, 0x8b, 0x55, 0x9b, 
   0x53, 0x64, 0x76, 0x9a, 0x15, 0x00, 0x4f, 0xb1, 0x46, 0x32, 
   0x16, 0x8b, 0x55, 0x9b, 0x53, 0x64, 0x76, 0x9a, 0x15 ,0x03 ,
   0x49 ,0xb1 ,0x46 ,0x32, 0x16, 0x8b ,0x55, 0x9b ,0x53, 0x64 ,
   0x76 ,0x9a ,0x15, 0x02 ,0x49 ,0xb1, 0x46 ,0x32, 0x16 ,0x8b ,
   0x55, 0x9b ,0x53 ,0x64 ,0x76, 0x9a ,0x15 ,0x02 ,0x49 ,0xb1 ,
   0x46 ,0x32, 0x16, 0x8b ,0x55 ,0x9b, 0x53, 0x64 ,0x76, 0x9a, 
   0x15 ,0x02, 0x49 ,0xb1 ,0x46, 0x32 ,0x16 ,0x8b, 0x55, 0x9b ,
   0x53, 0x64 ,0x76, 0x9a ,0x15 ,0x02, 0x49 ,0xb1, 0x00 ,0x00 ,
   0x00, 0x00 ,0x50, 0x00, 0x00, 0x00 ,0x00, 0x98 ,0x15, 0x02 ,
   0x4f ,0xb1 ,0x00 ,0x00 ,0x00, 0x00 ,0x50, 0x00 ,0x00, 0x00 ,
   0x00 ,0x98 ,0x95 ,0x07 ,0x40, 0xb1 ,0x3c, 0x1e ,0x8f, 0xc7, 
   0x53 ,0x1e ,0x8f, 0x87 ,0xe1 ,0x99, 0x15 ,0x00, 0x40 ,0xb1 ,
   0x24, 0x12 ,0x89, 0x44, 0x52, 0x12, 0x89, 0x04, 0x21, 0x99, 
   0x15, 0x00, 0x40, 0xb1, 0x04, 0x10, 0x89, 0x44, 0x52, 0x10, 
   0x89, 0x04, 0x21, 0x99, 0x15, 0x00, 0x40 ,0xb1 ,0x3c ,0x1e ,
   0x89 ,0x44, 0x52, 0x1e ,0x09, 0x06 ,0x21, 0x99 ,0x15 ,0x00 ,
   0x00, 0x00 ,0x20 ,0x02, 0x89 ,0x44, 0x02 ,0x02 ,0x09, 0x02 ,
   0x21 ,0x01 ,0x00, 0x00 ,0x00 ,0x00 ,0x24 ,0x12 ,0x89 ,0x44, 
   0x02, 0x12 ,0x09 ,0x02, 0x21, 0x01 ,0x00, 0x00, 0x00 ,0x00, 
   0x3c ,0x1e ,0x8f, 0xc7 ,0x03 ,0x1e, 0x0f, 0xc2 ,0xe3, 0x01 ,
   0x00, 0x00 ,};
/* the milk.com barcode generator; http://www.milk.com/barcode/ */
