#define milk_barcode_width 107
#define milk_barcode_height 68
static char milk_barcode_bits[] = {
   0x00 ,0x00 ,0x00 ,0xe0 ,0xa4 ,0x90, 0x40, 0x00 ,0x00, 0x00 ,
   0x00, 0x00 ,0x00 ,0x00 ,0x00, 0x00 ,0x00 ,0x20, 0xa5 ,0x90, 
   0x40 ,0x00 ,0x00, 0x00 ,0x00 ,0x00 ,0x00, 0x00 ,0x00 ,0x00 ,
   0x00 ,0x20 ,0xa5 ,0x90, 0x40, 0x7a ,0xef ,0x3d, 0x00, 0x00 ,
   0x00, 0x00, 0x00 ,0x00, 0x00 ,0xe0 ,0xa4, 0x70 ,0x5e ,0x49, 
   0x21, 0x05 ,0x00, 0x00 ,0x00, 0x00 ,0x00 ,0x00, 0x00 ,0x20, 
   0xa5 ,0x90 ,0xc0, 0x78 ,0x21, 0x3d, 0x00, 0x00 ,0x00, 0x00 ,
   0x00, 0x00 ,0x00 ,0x20 ,0xa5 ,0x90 ,0x40, 0x09 ,0x21, 0x21 ,
   0x00, 0x00 ,0x00 ,0x00 ,0x00 ,0x00 ,0x00, 0xe0 ,0xbc, 0x97 ,
   0x40, 0x7a, 0x21 ,0x3d ,0x00, 0x00 ,0x00 ,0x00, 0x00 ,0x00, 
   0x00 ,0x00 ,0x00, 0x00 ,0x00, 0x00, 0x00, 0x00, 0x00, 0x00, 
   0x00, 0x00, 0x40, 0xb1, 0x64, 0x3b, 0x16, 0x8b, 0x55, 0x9b, 
   0xc2, 0x69, 0x93, 0x28, 0x14, 0x00, 0x40, 0xb1, 0x64 ,0x3b ,
   0x16 ,0x8b ,0x55 ,0x9b, 0xc2, 0x69 ,0x93, 0x28 ,0x14, 0x00 ,
   0x40 ,0xb1 ,0x64, 0x3b ,0x16 ,0x8b, 0x55 ,0x9b, 0xc2 ,0x69 ,
   0x93, 0x28 ,0x14 ,0x00 ,0x40, 0xb1 ,0x64 ,0x3b ,0x16 ,0x8b ,
   0x55 ,0x9b, 0xc2, 0x69 ,0x93 ,0x28, 0x14, 0x00 ,0x40, 0xb1, 
   0x64 ,0x3b, 0x16 ,0x8b ,0x55, 0x9b ,0xc2 ,0x69, 0x93, 0x28 ,
   0x14, 0x00 ,0x40, 0xb1 ,0x64 ,0x3b, 0x16 ,0x8b, 0x55 ,0x9b ,
   0xc2, 0x69 ,0x93, 0x28, 0x14, 0x00 ,0x40, 0xb1 ,0x64, 0x3b ,
   0x16 ,0x8b ,0x55 ,0x9b ,0xc2, 0x69 ,0x93, 0x28 ,0x14, 0x00 ,
   0x40 ,0xb1 ,0x64 ,0x3b ,0x16, 0x8b ,0x55, 0x9b ,0xc2, 0x69, 
   0x93 ,0x28 ,0x14, 0x00 ,0x40 ,0xb1, 0x64 ,0x3b, 0x16 ,0x8b ,
   0x55, 0x9b ,0xc2, 0x69, 0x93, 0x28, 0x14, 0x00, 0x40, 0xb1, 
   0x64, 0x3b, 0x16, 0x8b, 0x55, 0x9b, 0xc2, 0x69, 0x93, 0x28, 
   0x14, 0x00, 0x40, 0xb1, 0x64, 0x3b, 0x16 ,0x8b ,0x55 ,0x9b ,
   0xc2 ,0x69, 0x93, 0x28 ,0x14, 0x00 ,0x40, 0xb1 ,0x64 ,0x3b ,
   0x16, 0x8b ,0x55 ,0x9b, 0xc2 ,0x69, 0x93 ,0x28 ,0x14, 0x00 ,
   0x40 ,0xb1 ,0x64, 0x3b ,0x16 ,0x8b ,0x55 ,0x9b ,0xc2 ,0x69, 
   0x93, 0x28 ,0x14 ,0x00, 0x40, 0xb1 ,0x64, 0x3b, 0x16 ,0x8b, 
   0x55 ,0x9b ,0xc2, 0x69 ,0x93 ,0x28, 0x14, 0x00 ,0x40, 0xb1 ,
   0x64, 0x3b ,0x16 ,0x8b, 0x55 ,0x9b, 0xc2 ,0x69 ,0x93, 0x28 ,
   0x14, 0x00, 0x40, 0xb1 ,0x64, 0x3b ,0x16, 0x8b ,0x55 ,0x9b ,
   0xc2 ,0x69 ,0x93, 0x28 ,0x14, 0x00 ,0x40, 0xb1 ,0x64 ,0x3b ,
   0x16 ,0x8b ,0x55, 0x9b ,0xc2, 0x69 ,0x93, 0x28, 0x14 ,0x00 ,
   0x40, 0xb1 ,0x64 ,0x3b, 0x16 ,0x8b, 0x55 ,0x9b ,0xc2, 0x69 ,
   0x93, 0x28, 0x14, 0x00, 0x40, 0xb1, 0x64, 0x3b, 0x16, 0x8b, 
   0x55, 0x9b, 0xc2, 0x69, 0x93, 0x28, 0x14, 0x00, 0x40, 0xb1, 
   0x64, 0x3b, 0x16, 0x8b, 0x55 ,0x9b ,0xc2 ,0x69 ,0x93 ,0x28, 
   0x14, 0x00 ,0x40, 0xb1 ,0x64, 0x3b ,0x16 ,0x8b ,0x55, 0x9b ,
   0xc2 ,0x69, 0x93 ,0x28, 0x14 ,0x00 ,0x40, 0xb1 ,0x64 ,0x3b ,
   0x16, 0x8b ,0x55 ,0x9b ,0xc2 ,0x69 ,0x93 ,0x28, 0x14, 0x00 ,
   0x40 ,0xb1, 0x64, 0x3b ,0x16, 0x8b, 0x55 ,0x9b, 0xc2 ,0x69 ,
   0x93, 0x28 ,0x14 ,0x00, 0x40, 0xb1 ,0x64, 0x3b ,0x16, 0x8b ,
   0x55 ,0x9b, 0xc2 ,0x69, 0x93 ,0x28 ,0x14, 0x00 ,0x40, 0xb1, 
   0x64, 0x3b ,0x16, 0x8b ,0x55, 0x9b ,0xc2 ,0x69 ,0x93 ,0x28 ,
   0x14, 0x00 ,0x40, 0xb1 ,0x64, 0x3b ,0x16 ,0x8b ,0x55 ,0x9b ,
   0xc2, 0x69 ,0x93, 0x28 ,0x14, 0x00, 0x40 ,0xb1 ,0x64, 0x3b ,
   0x16 ,0x8b, 0x55 ,0x9b, 0xc2 ,0x69 ,0x93, 0x28 ,0x14, 0x00, 
   0x40, 0xb1, 0x64, 0x3b, 0x16, 0x8b, 0x55, 0x9b, 0xc2, 0x69, 
   0x93, 0x28, 0x14, 0x00, 0x40, 0xb1, 0x64, 0x3b, 0x16, 0x8b, 
   0x55, 0x9b, 0xc2 ,0x69 ,0x93 ,0x28 ,0x14 ,0x00, 0x40, 0xb1 ,
   0x64, 0x3b ,0x16, 0x8b ,0x55 ,0x9b ,0xc2, 0x69 ,0x93 ,0x28, 
   0x14 ,0x00, 0x40 ,0xb1 ,0x64, 0x3b ,0x16 ,0x8b ,0x55, 0x9b ,
   0xc2 ,0x69 ,0x93 ,0x28 ,0x14 ,0x00, 0x40, 0xb1 ,0x64 ,0x3b, 
   0x16, 0x8b ,0x55, 0x9b, 0xc2 ,0x69, 0x93 ,0x28 ,0x14, 0x00 ,
   0x40 ,0xb1, 0x64, 0x3b ,0x16, 0x8b ,0x55, 0x9b ,0xc2 ,0x69, 
   0x93 ,0x28, 0x14 ,0x00 ,0x40, 0xb1 ,0x64, 0x3b, 0x16, 0x8b ,
   0x55, 0x9b ,0xc2, 0x69 ,0x93 ,0x28 ,0x14 ,0x00 ,0x40, 0xb1 ,
   0x64, 0x3b ,0x16, 0x8b ,0x55 ,0x9b ,0xc2 ,0x69 ,0x93, 0x28 ,
   0x14, 0x00 ,0x40, 0xb1, 0x64 ,0x3b ,0x16, 0x8b ,0x55 ,0x9b, 
   0xc2 ,0x69, 0x93 ,0x28 ,0x14, 0x00 ,0x40, 0xb1, 0x64, 0x3b, 
   0x16, 0x8b, 0x55, 0x9b, 0xc2, 0x69, 0x93, 0x28, 0x14, 0x00, 
   0x40, 0xb1, 0x64, 0x3b, 0x16, 0x8b, 0x55, 0x9b, 0xc2, 0x69, 
   0x93 ,0x28 ,0x14 ,0x00 ,0x40 ,0xb1, 0x64, 0x3b ,0x16, 0x8b ,
   0x55, 0x9b ,0xc2 ,0x69 ,0x93, 0x28 ,0x14 ,0x00, 0x40 ,0xb1, 
   0x64 ,0x3b ,0x16, 0x8b ,0x55 ,0x9b ,0xc2, 0x69 ,0x93 ,0x28 ,
   0x14 ,0x00 ,0x40 ,0xb1, 0x64, 0x3b ,0x16 ,0x8b, 0x55, 0x9b ,
   0xc2, 0x69, 0x93 ,0x28, 0x14 ,0x00 ,0x40, 0xb1 ,0x64 ,0x3b, 
   0x16, 0x8b ,0x55, 0x9b ,0xc2, 0x69 ,0x93 ,0x28, 0x14 ,0x00, 
   0x40 ,0xb1 ,0x64, 0x3b ,0x16, 0x8b, 0x55, 0x9b ,0xc2, 0x69 ,
   0x93, 0x28 ,0x14 ,0x00 ,0x40 ,0xb1 ,0x64, 0x3b ,0x16, 0x8b ,
   0x55, 0x9b ,0xc2 ,0x69 ,0x93 ,0x28 ,0x14, 0x00 ,0x40, 0xb1 ,
   0x64, 0x3b, 0x16 ,0x8b ,0x55, 0x9b ,0xc2 ,0x69, 0x93 ,0x28, 
   0x14 ,0x00 ,0x40, 0xb1 ,0x64, 0x3b, 0x16, 0x8b, 0x55, 0x9b, 
   0xc2, 0x69, 0x93, 0x28, 0x14, 0x00, 0x4f, 0xb1, 0x64, 0x3b, 
   0x16, 0x8b, 0x55, 0x9b, 0xc2, 0x69, 0x93, 0x28, 0x94 ,0x01 ,
   0x49 ,0xb1 ,0x64 ,0x3b, 0x16, 0x8b ,0x55, 0x9b ,0xc2, 0x69 ,
   0x93 ,0x28 ,0x94, 0x00 ,0x49 ,0xb1, 0x64 ,0x3b, 0x16 ,0x8b ,
   0x55, 0x9b ,0xc2 ,0x69 ,0x93, 0x28 ,0x94 ,0x00 ,0x49 ,0xb1 ,
   0x64 ,0x3b, 0x16, 0x8b ,0x55 ,0x9b, 0xc2, 0x69 ,0x93, 0x28, 
   0x94 ,0x07, 0x49 ,0xb1 ,0x64, 0x3b ,0x16 ,0x8b, 0x55, 0x9b ,
   0xc2, 0x69 ,0x93, 0x28 ,0x94 ,0x04, 0x49 ,0xb1, 0x00 ,0x00 ,
   0x00, 0x00 ,0x50, 0x00, 0x00, 0x00 ,0x00, 0x28 ,0x94, 0x04 ,
   0x4f ,0xb1 ,0x00 ,0x00 ,0x00, 0x00 ,0x50, 0x00 ,0x00, 0x00 ,
   0x00 ,0x28 ,0x94 ,0x07 ,0x40, 0xb1 ,0x3c, 0x1e ,0x8f, 0xc7, 
   0x53 ,0x1e ,0x83, 0xc7 ,0xe3 ,0x29, 0x14 ,0x00, 0x40 ,0xb1 ,
   0x24, 0x12 ,0x89, 0x44, 0x52, 0x12, 0x81, 0x44, 0x22, 0x29, 
   0x14, 0x00, 0x40, 0xb1, 0x20, 0x12, 0x89, 0x44, 0x52, 0x10, 
   0x81, 0x04, 0x22, 0x29, 0x14, 0x00, 0x40 ,0xb1 ,0x3c ,0x1e ,
   0x89 ,0x44, 0x52, 0x1e ,0x8f, 0xc4 ,0xe3, 0x29 ,0x14 ,0x00 ,
   0x00, 0x00 ,0x04 ,0x12, 0x89 ,0x44, 0x02 ,0x02 ,0x89, 0x44 ,
   0x20 ,0x01 ,0x00, 0x00 ,0x00 ,0x00 ,0x24 ,0x12 ,0x89 ,0x44, 
   0x02, 0x12 ,0x89 ,0x44, 0x22, 0x01 ,0x00, 0x00, 0x00 ,0x00, 
   0x3c ,0x1e ,0x8f, 0xc7 ,0x03 ,0x1e, 0x8f, 0xc7 ,0xe3, 0x01 ,
   0x00, 0x00 ,};
/* the milk.com barcode generator; http://www.milk.com/barcode/ */
