#define milk_barcode_width 107
#define milk_barcode_height 68
static char milk_barcode_bits[] = {
   0x00 ,0x00 ,0x00 ,0x27 ,0x85 ,0x04, 0x82, 0x00 ,0x20, 0x00 ,
   0x00, 0x00 ,0x00 ,0x00 ,0x00, 0x00 ,0x00 ,0x29, 0x85 ,0x04, 
   0x02 ,0x10 ,0x20, 0x00 ,0x01 ,0x00 ,0x00, 0x00 ,0x00 ,0x00 ,
   0x00 ,0x29 ,0x85 ,0x04, 0xd2, 0x78 ,0x20 ,0xbd, 0x07, 0x00 ,
   0x00, 0x00, 0x00 ,0x00, 0x00 ,0x27 ,0x85, 0xf3 ,0x8a ,0x10, 
   0xa0, 0x20 ,0x01, 0x00 ,0x00, 0x00 ,0x00 ,0x00, 0x00 ,0x29, 
   0x85 ,0x04 ,0x86, 0x10 ,0x60, 0x3c, 0x01, 0x00 ,0x00, 0x00 ,
   0x00, 0x00 ,0x00 ,0x29 ,0x85 ,0x04 ,0x8a, 0x10 ,0xa0, 0x24 ,
   0x01, 0x00 ,0x00 ,0x00 ,0x00 ,0x00 ,0x00, 0xe7 ,0xbd, 0x04 ,
   0xd2, 0x71, 0x2f ,0x3d ,0x07, 0x00 ,0x00 ,0x00, 0x00 ,0x00, 
   0x00 ,0x00 ,0x00, 0x00 ,0x00, 0x00, 0x00, 0x00, 0x00, 0x00, 
   0x00, 0x00, 0x40, 0xb1, 0x5e, 0x31, 0x16, 0x8b, 0x55, 0x9b, 
   0x4e, 0xe1, 0x74, 0x8a, 0x14, 0x00, 0x40, 0xb1, 0x5e ,0x31 ,
   0x16 ,0x8b ,0x55 ,0x9b, 0x4e, 0xe1 ,0x74, 0x8a ,0x14, 0x00 ,
   0x40 ,0xb1 ,0x5e, 0x31 ,0x16 ,0x8b, 0x55 ,0x9b, 0x4e ,0xe1 ,
   0x74, 0x8a ,0x14 ,0x00 ,0x40, 0xb1 ,0x5e ,0x31 ,0x16 ,0x8b ,
   0x55 ,0x9b, 0x4e, 0xe1 ,0x74 ,0x8a, 0x14, 0x00 ,0x40, 0xb1, 
   0x5e ,0x31, 0x16 ,0x8b ,0x55, 0x9b ,0x4e ,0xe1, 0x74, 0x8a ,
   0x14, 0x00 ,0x40, 0xb1 ,0x5e ,0x31, 0x16 ,0x8b, 0x55 ,0x9b ,
   0x4e, 0xe1 ,0x74, 0x8a, 0x14, 0x00 ,0x40, 0xb1 ,0x5e, 0x31 ,
   0x16 ,0x8b ,0x55 ,0x9b ,0x4e, 0xe1 ,0x74, 0x8a ,0x14, 0x00 ,
   0x40 ,0xb1 ,0x5e ,0x31 ,0x16, 0x8b ,0x55, 0x9b ,0x4e, 0xe1, 
   0x74 ,0x8a ,0x14, 0x00 ,0x40 ,0xb1, 0x5e ,0x31, 0x16 ,0x8b ,
   0x55, 0x9b ,0x4e, 0xe1, 0x74, 0x8a, 0x14, 0x00, 0x40, 0xb1, 
   0x5e, 0x31, 0x16, 0x8b, 0x55, 0x9b, 0x4e, 0xe1, 0x74, 0x8a, 
   0x14, 0x00, 0x40, 0xb1, 0x5e, 0x31, 0x16 ,0x8b ,0x55 ,0x9b ,
   0x4e ,0xe1, 0x74, 0x8a ,0x14, 0x00 ,0x40, 0xb1 ,0x5e ,0x31 ,
   0x16, 0x8b ,0x55 ,0x9b, 0x4e ,0xe1, 0x74 ,0x8a ,0x14, 0x00 ,
   0x40 ,0xb1 ,0x5e, 0x31 ,0x16 ,0x8b ,0x55 ,0x9b ,0x4e ,0xe1, 
   0x74, 0x8a ,0x14 ,0x00, 0x40, 0xb1 ,0x5e, 0x31, 0x16 ,0x8b, 
   0x55 ,0x9b ,0x4e, 0xe1 ,0x74 ,0x8a, 0x14, 0x00 ,0x40, 0xb1 ,
   0x5e, 0x31 ,0x16 ,0x8b, 0x55 ,0x9b, 0x4e ,0xe1 ,0x74, 0x8a ,
   0x14, 0x00, 0x40, 0xb1 ,0x5e, 0x31 ,0x16, 0x8b ,0x55 ,0x9b ,
   0x4e ,0xe1 ,0x74, 0x8a ,0x14, 0x00 ,0x40, 0xb1 ,0x5e ,0x31 ,
   0x16 ,0x8b ,0x55, 0x9b ,0x4e, 0xe1 ,0x74, 0x8a, 0x14 ,0x00 ,
   0x40, 0xb1 ,0x5e ,0x31, 0x16 ,0x8b, 0x55 ,0x9b ,0x4e, 0xe1 ,
   0x74, 0x8a, 0x14, 0x00, 0x40, 0xb1, 0x5e, 0x31, 0x16, 0x8b, 
   0x55, 0x9b, 0x4e, 0xe1, 0x74, 0x8a, 0x14, 0x00, 0x40, 0xb1, 
   0x5e, 0x31, 0x16, 0x8b, 0x55 ,0x9b ,0x4e ,0xe1 ,0x74 ,0x8a, 
   0x14, 0x00 ,0x40, 0xb1 ,0x5e, 0x31 ,0x16 ,0x8b ,0x55, 0x9b ,
   0x4e ,0xe1, 0x74 ,0x8a, 0x14 ,0x00 ,0x40, 0xb1 ,0x5e ,0x31 ,
   0x16, 0x8b ,0x55 ,0x9b ,0x4e ,0xe1 ,0x74 ,0x8a, 0x14, 0x00 ,
   0x40 ,0xb1, 0x5e, 0x31 ,0x16, 0x8b, 0x55 ,0x9b, 0x4e ,0xe1 ,
   0x74, 0x8a ,0x14 ,0x00, 0x40, 0xb1 ,0x5e, 0x31 ,0x16, 0x8b ,
   0x55 ,0x9b, 0x4e ,0xe1, 0x74 ,0x8a ,0x14, 0x00 ,0x40, 0xb1, 
   0x5e, 0x31 ,0x16, 0x8b ,0x55, 0x9b ,0x4e ,0xe1 ,0x74 ,0x8a ,
   0x14, 0x00 ,0x40, 0xb1 ,0x5e, 0x31 ,0x16 ,0x8b ,0x55 ,0x9b ,
   0x4e, 0xe1 ,0x74, 0x8a ,0x14, 0x00, 0x40 ,0xb1 ,0x5e, 0x31 ,
   0x16 ,0x8b, 0x55 ,0x9b, 0x4e ,0xe1 ,0x74, 0x8a ,0x14, 0x00, 
   0x40, 0xb1, 0x5e, 0x31, 0x16, 0x8b, 0x55, 0x9b, 0x4e, 0xe1, 
   0x74, 0x8a, 0x14, 0x00, 0x40, 0xb1, 0x5e, 0x31, 0x16, 0x8b, 
   0x55, 0x9b, 0x4e ,0xe1 ,0x74 ,0x8a ,0x14 ,0x00, 0x40, 0xb1 ,
   0x5e, 0x31 ,0x16, 0x8b ,0x55 ,0x9b ,0x4e, 0xe1 ,0x74 ,0x8a, 
   0x14 ,0x00, 0x40 ,0xb1 ,0x5e, 0x31 ,0x16 ,0x8b ,0x55, 0x9b ,
   0x4e ,0xe1 ,0x74 ,0x8a ,0x14 ,0x00, 0x40, 0xb1 ,0x5e ,0x31, 
   0x16, 0x8b ,0x55, 0x9b, 0x4e ,0xe1, 0x74 ,0x8a ,0x14, 0x00 ,
   0x40 ,0xb1, 0x5e, 0x31 ,0x16, 0x8b ,0x55, 0x9b ,0x4e ,0xe1, 
   0x74 ,0x8a, 0x14 ,0x00 ,0x40, 0xb1 ,0x5e, 0x31, 0x16, 0x8b ,
   0x55, 0x9b ,0x4e, 0xe1 ,0x74 ,0x8a ,0x14 ,0x00 ,0x40, 0xb1 ,
   0x5e, 0x31 ,0x16, 0x8b ,0x55 ,0x9b ,0x4e ,0xe1 ,0x74, 0x8a ,
   0x14, 0x00 ,0x40, 0xb1, 0x5e ,0x31 ,0x16, 0x8b ,0x55 ,0x9b, 
   0x4e ,0xe1, 0x74 ,0x8a ,0x14, 0x00 ,0x40, 0xb1, 0x5e, 0x31, 
   0x16, 0x8b, 0x55, 0x9b, 0x4e, 0xe1, 0x74, 0x8a, 0x14, 0x00, 
   0x40, 0xb1, 0x5e, 0x31, 0x16, 0x8b, 0x55, 0x9b, 0x4e, 0xe1, 
   0x74 ,0x8a ,0x14 ,0x00 ,0x40 ,0xb1, 0x5e, 0x31 ,0x16, 0x8b ,
   0x55, 0x9b ,0x4e ,0xe1 ,0x74, 0x8a ,0x14 ,0x00, 0x40 ,0xb1, 
   0x5e ,0x31 ,0x16, 0x8b ,0x55 ,0x9b ,0x4e, 0xe1 ,0x74 ,0x8a ,
   0x14 ,0x00 ,0x40 ,0xb1, 0x5e, 0x31 ,0x16 ,0x8b, 0x55, 0x9b ,
   0x4e, 0xe1, 0x74 ,0x8a, 0x14 ,0x00 ,0x40, 0xb1 ,0x5e ,0x31, 
   0x16, 0x8b ,0x55, 0x9b ,0x4e, 0xe1 ,0x74 ,0x8a, 0x14 ,0x00, 
   0x40 ,0xb1 ,0x5e, 0x31 ,0x16, 0x8b, 0x55, 0x9b ,0x4e, 0xe1 ,
   0x74, 0x8a ,0x14 ,0x00 ,0x40 ,0xb1 ,0x5e, 0x31 ,0x16, 0x8b ,
   0x55, 0x9b ,0x4e ,0xe1 ,0x74 ,0x8a ,0x14, 0x00 ,0x40, 0xb1 ,
   0x5e, 0x31, 0x16 ,0x8b ,0x55, 0x9b ,0x4e ,0xe1, 0x74 ,0x8a, 
   0x14 ,0x00 ,0x40, 0xb1 ,0x5e, 0x31, 0x16, 0x8b, 0x55, 0x9b, 
   0x4e, 0xe1, 0x74, 0x8a, 0x14, 0x00, 0x4f, 0xb1, 0x5e, 0x31, 
   0x16, 0x8b, 0x55, 0x9b, 0x4e, 0xe1, 0x74, 0x8a, 0x94 ,0x07 ,
   0x49 ,0xb1 ,0x5e ,0x31, 0x16, 0x8b ,0x55, 0x9b ,0x4e, 0xe1 ,
   0x74 ,0x8a ,0x94, 0x04 ,0x49 ,0xb1, 0x5e ,0x31, 0x16 ,0x8b ,
   0x55, 0x9b ,0x4e ,0xe1 ,0x74, 0x8a ,0x94 ,0x04 ,0x49 ,0xb1 ,
   0x5e ,0x31, 0x16, 0x8b ,0x55 ,0x9b, 0x4e, 0xe1 ,0x74, 0x8a, 
   0x14 ,0x06, 0x49 ,0xb1 ,0x5e, 0x31 ,0x16 ,0x8b, 0x55, 0x9b ,
   0x4e, 0xe1 ,0x74, 0x8a ,0x14 ,0x02, 0x49 ,0xb1, 0x00 ,0x00 ,
   0x00, 0x00 ,0x50, 0x00, 0x00, 0x00 ,0x00, 0x88 ,0x14, 0x02 ,
   0x4f ,0xb1 ,0x00 ,0x00 ,0x00, 0x00 ,0x50, 0x00 ,0x00, 0x00 ,
   0x00 ,0x88 ,0x14 ,0x02 ,0x40, 0xb1 ,0x3c, 0x12 ,0x8f, 0xc7, 
   0x53 ,0x1e ,0x89, 0xc1 ,0xe3 ,0x89, 0x14 ,0x00, 0x40 ,0xb1 ,
   0x20, 0x12 ,0x89, 0x44, 0x52, 0x12, 0x89, 0x40, 0x22, 0x89, 
   0x14, 0x00, 0x40, 0xb1, 0x20, 0x12, 0x89, 0x44, 0x52, 0x10, 
   0x89, 0x40, 0x22, 0x89, 0x14, 0x00, 0x40 ,0xb1 ,0x3c ,0x1e ,
   0x89 ,0x44, 0x52, 0x1e ,0x8f, 0x47 ,0x22, 0x89 ,0x14 ,0x00 ,
   0x00, 0x00 ,0x20 ,0x10, 0x89 ,0x44, 0x02 ,0x02 ,0x88, 0x44 ,
   0x22 ,0x01 ,0x00, 0x00 ,0x00 ,0x00 ,0x20 ,0x10 ,0x89 ,0x44, 
   0x02, 0x12 ,0x88 ,0x44, 0x22, 0x01 ,0x00, 0x00, 0x00 ,0x00, 
   0x3c ,0x10 ,0x8f, 0xc7 ,0x03 ,0x1e, 0x88, 0xc7 ,0xe3, 0x01 ,
   0x00, 0x00 ,};
/* the milk.com barcode generator; http://www.milk.com/barcode/ */
