#define milk_barcode_width 107
#define milk_barcode_height 68
static char milk_barcode_bits[] = {
   0x4e ,0x0a ,0x09 ,0x0c ,0x00 ,0x00, 0x00, 0x03 ,0x80, 0x00 ,
   0x00, 0x10 ,0x00 ,0x00 ,0x52, 0x0a ,0x09 ,0x08, 0x00 ,0x00, 
   0x00 ,0x02 ,0x80, 0x00 ,0x00 ,0x00 ,0x02, 0x00 ,0x52 ,0x0a ,
   0x09 ,0x88 ,0xf7 ,0x1e, 0x78, 0xe2 ,0x81 ,0x97, 0xde, 0x1b ,
   0xef, 0x01, 0x4e ,0x0a, 0xe7 ,0x89 ,0x84, 0x12 ,0x48 ,0x22, 
   0x81, 0x94 ,0x42, 0x10 ,0x22, 0x01 ,0x52 ,0x0a, 0x09 ,0x88, 
   0xf7 ,0x12 ,0x48, 0xe2 ,0x81, 0x94, 0x42, 0x10 ,0x22, 0x01 ,
   0x52, 0x0a ,0x09 ,0x88 ,0x90 ,0x12 ,0x48, 0x22 ,0x80, 0x94 ,
   0x42, 0x10 ,0x22 ,0x01 ,0xce ,0x7b ,0x09, 0x9c ,0xf7, 0xd2 ,
   0x7b, 0xe7, 0xbd ,0xf7 ,0x42, 0x38 ,0xee ,0x01, 0x00 ,0x00, 
   0x00 ,0x00 ,0x00, 0x00 ,0x00, 0x00, 0x00, 0x00, 0x00, 0x00, 
   0x00, 0x00, 0x40, 0xb1, 0x64, 0x37, 0xd6, 0xae, 0x57, 0xb3, 
   0x44, 0x24, 0x71, 0x8a, 0x14, 0x00, 0x40, 0xb1, 0x64 ,0x37 ,
   0xd6 ,0xae ,0x57 ,0xb3, 0x44, 0x24 ,0x71, 0x8a ,0x14, 0x00 ,
   0x40 ,0xb1 ,0x64, 0x37 ,0xd6 ,0xae, 0x57 ,0xb3, 0x44 ,0x24 ,
   0x71, 0x8a ,0x14 ,0x00 ,0x40, 0xb1 ,0x64 ,0x37 ,0xd6 ,0xae ,
   0x57 ,0xb3, 0x44, 0x24 ,0x71 ,0x8a, 0x14, 0x00 ,0x40, 0xb1, 
   0x64 ,0x37, 0xd6 ,0xae ,0x57, 0xb3 ,0x44 ,0x24, 0x71, 0x8a ,
   0x14, 0x00 ,0x40, 0xb1 ,0x64 ,0x37, 0xd6 ,0xae, 0x57 ,0xb3 ,
   0x44, 0x24 ,0x71, 0x8a, 0x14, 0x00 ,0x40, 0xb1 ,0x64, 0x37 ,
   0xd6 ,0xae ,0x57 ,0xb3 ,0x44, 0x24 ,0x71, 0x8a ,0x14, 0x00 ,
   0x40 ,0xb1 ,0x64 ,0x37 ,0xd6, 0xae ,0x57, 0xb3 ,0x44, 0x24, 
   0x71 ,0x8a ,0x14, 0x00 ,0x40 ,0xb1, 0x64 ,0x37, 0xd6 ,0xae ,
   0x57, 0xb3 ,0x44, 0x24, 0x71, 0x8a, 0x14, 0x00, 0x40, 0xb1, 
   0x64, 0x37, 0xd6, 0xae, 0x57, 0xb3, 0x44, 0x24, 0x71, 0x8a, 
   0x14, 0x00, 0x40, 0xb1, 0x64, 0x37, 0xd6 ,0xae ,0x57 ,0xb3 ,
   0x44 ,0x24, 0x71, 0x8a ,0x14, 0x00 ,0x40, 0xb1 ,0x64 ,0x37 ,
   0xd6, 0xae ,0x57 ,0xb3, 0x44 ,0x24, 0x71 ,0x8a ,0x14, 0x00 ,
   0x40 ,0xb1 ,0x64, 0x37 ,0xd6 ,0xae ,0x57 ,0xb3 ,0x44 ,0x24, 
   0x71, 0x8a ,0x14 ,0x00, 0x40, 0xb1 ,0x64, 0x37, 0xd6 ,0xae, 
   0x57 ,0xb3 ,0x44, 0x24 ,0x71 ,0x8a, 0x14, 0x00 ,0x40, 0xb1 ,
   0x64, 0x37 ,0xd6 ,0xae, 0x57 ,0xb3, 0x44 ,0x24 ,0x71, 0x8a ,
   0x14, 0x00, 0x40, 0xb1 ,0x64, 0x37 ,0xd6, 0xae ,0x57 ,0xb3 ,
   0x44 ,0x24 ,0x71, 0x8a ,0x14, 0x00 ,0x40, 0xb1 ,0x64 ,0x37 ,
   0xd6 ,0xae ,0x57, 0xb3 ,0x44, 0x24 ,0x71, 0x8a, 0x14 ,0x00 ,
   0x40, 0xb1 ,0x64 ,0x37, 0xd6 ,0xae, 0x57 ,0xb3 ,0x44, 0x24 ,
   0x71, 0x8a, 0x14, 0x00, 0x40, 0xb1, 0x64, 0x37, 0xd6, 0xae, 
   0x57, 0xb3, 0x44, 0x24, 0x71, 0x8a, 0x14, 0x00, 0x40, 0xb1, 
   0x64, 0x37, 0xd6, 0xae, 0x57 ,0xb3 ,0x44 ,0x24 ,0x71 ,0x8a, 
   0x14, 0x00 ,0x40, 0xb1 ,0x64, 0x37 ,0xd6 ,0xae ,0x57, 0xb3 ,
   0x44 ,0x24, 0x71 ,0x8a, 0x14 ,0x00 ,0x40, 0xb1 ,0x64 ,0x37 ,
   0xd6, 0xae ,0x57 ,0xb3 ,0x44 ,0x24 ,0x71 ,0x8a, 0x14, 0x00 ,
   0x40 ,0xb1, 0x64, 0x37 ,0xd6, 0xae, 0x57 ,0xb3, 0x44 ,0x24 ,
   0x71, 0x8a ,0x14 ,0x00, 0x40, 0xb1 ,0x64, 0x37 ,0xd6, 0xae ,
   0x57 ,0xb3, 0x44 ,0x24, 0x71 ,0x8a ,0x14, 0x00 ,0x40, 0xb1, 
   0x64, 0x37 ,0xd6, 0xae ,0x57, 0xb3 ,0x44 ,0x24 ,0x71 ,0x8a ,
   0x14, 0x00 ,0x40, 0xb1 ,0x64, 0x37 ,0xd6 ,0xae ,0x57 ,0xb3 ,
   0x44, 0x24 ,0x71, 0x8a ,0x14, 0x00, 0x40 ,0xb1 ,0x64, 0x37 ,
   0xd6 ,0xae, 0x57 ,0xb3, 0x44 ,0x24 ,0x71, 0x8a ,0x14, 0x00, 
   0x40, 0xb1, 0x64, 0x37, 0xd6, 0xae, 0x57, 0xb3, 0x44, 0x24, 
   0x71, 0x8a, 0x14, 0x00, 0x40, 0xb1, 0x64, 0x37, 0xd6, 0xae, 
   0x57, 0xb3, 0x44 ,0x24 ,0x71 ,0x8a ,0x14 ,0x00, 0x40, 0xb1 ,
   0x64, 0x37 ,0xd6, 0xae ,0x57 ,0xb3 ,0x44, 0x24 ,0x71 ,0x8a, 
   0x14 ,0x00, 0x40 ,0xb1 ,0x64, 0x37 ,0xd6 ,0xae ,0x57, 0xb3 ,
   0x44 ,0x24 ,0x71 ,0x8a ,0x14 ,0x00, 0x40, 0xb1 ,0x64 ,0x37, 
   0xd6, 0xae ,0x57, 0xb3, 0x44 ,0x24, 0x71 ,0x8a ,0x14, 0x00 ,
   0x40 ,0xb1, 0x64, 0x37 ,0xd6, 0xae ,0x57, 0xb3 ,0x44 ,0x24, 
   0x71 ,0x8a, 0x14 ,0x00 ,0x40, 0xb1 ,0x64, 0x37, 0xd6, 0xae ,
   0x57, 0xb3 ,0x44, 0x24 ,0x71 ,0x8a ,0x14 ,0x00 ,0x40, 0xb1 ,
   0x64, 0x37 ,0xd6, 0xae ,0x57 ,0xb3 ,0x44 ,0x24 ,0x71, 0x8a ,
   0x14, 0x00 ,0x40, 0xb1, 0x64 ,0x37 ,0xd6, 0xae ,0x57 ,0xb3, 
   0x44 ,0x24, 0x71 ,0x8a ,0x14, 0x00 ,0x40, 0xb1, 0x64, 0x37, 
   0xd6, 0xae, 0x57, 0xb3, 0x44, 0x24, 0x71, 0x8a, 0x14, 0x00, 
   0x40, 0xb1, 0x64, 0x37, 0xd6, 0xae, 0x57, 0xb3, 0x44, 0x24, 
   0x71 ,0x8a ,0x14 ,0x00 ,0x40 ,0xb1, 0x64, 0x37 ,0xd6, 0xae ,
   0x57, 0xb3 ,0x44 ,0x24 ,0x71, 0x8a ,0x14 ,0x00, 0x40 ,0xb1, 
   0x64 ,0x37 ,0xd6, 0xae ,0x57 ,0xb3 ,0x44, 0x24 ,0x71 ,0x8a ,
   0x14 ,0x00 ,0x40 ,0xb1, 0x64, 0x37 ,0xd6 ,0xae, 0x57, 0xb3 ,
   0x44, 0x24, 0x71 ,0x8a, 0x14 ,0x00 ,0x40, 0xb1 ,0x64 ,0x37, 
   0xd6, 0xae ,0x57, 0xb3 ,0x44, 0x24 ,0x71 ,0x8a, 0x14 ,0x00, 
   0x40 ,0xb1 ,0x64, 0x37 ,0xd6, 0xae, 0x57, 0xb3 ,0x44, 0x24 ,
   0x71, 0x8a ,0x14 ,0x00 ,0x40 ,0xb1 ,0x64, 0x37 ,0xd6, 0xae ,
   0x57, 0xb3 ,0x44 ,0x24 ,0x71 ,0x8a ,0x14, 0x00 ,0x40, 0xb1 ,
   0x64, 0x37, 0xd6 ,0xae ,0x57, 0xb3 ,0x44 ,0x24, 0x71 ,0x8a, 
   0x14 ,0x00 ,0x40, 0xb1 ,0x64, 0x37, 0xd6, 0xae, 0x57, 0xb3, 
   0x44, 0x24, 0x71, 0x8a, 0x14, 0x00, 0x4f, 0xb1, 0x64, 0x37, 
   0xd6, 0xae, 0x57, 0xb3, 0x44, 0x24, 0x71, 0x8a, 0x94 ,0x07 ,
   0x49 ,0xb1 ,0x64 ,0x37, 0xd6, 0xae ,0x57, 0xb3 ,0x44, 0x24 ,
   0x71 ,0x8a ,0x94, 0x04 ,0x49 ,0xb1, 0x64 ,0x37, 0xd6 ,0xae ,
   0x57, 0xb3 ,0x44 ,0x24 ,0x71, 0x8a ,0x94 ,0x04 ,0x49 ,0xb1 ,
   0x64 ,0x37, 0xd6, 0xae ,0x57 ,0xb3, 0x44, 0x24 ,0x71, 0x8a, 
   0x14 ,0x06, 0x49 ,0xb1 ,0x64, 0x37 ,0xd6 ,0xae, 0x57, 0xb3 ,
   0x44, 0x24 ,0x71, 0x8a ,0x14 ,0x02, 0x49 ,0xb1, 0x00 ,0x00 ,
   0x00, 0x00 ,0x50, 0x00, 0x00, 0x00 ,0x00, 0x88 ,0x14, 0x02 ,
   0x4f ,0xb1 ,0x00 ,0x00 ,0x00, 0x00 ,0x50, 0x00 ,0x00, 0x00 ,
   0x00 ,0x88 ,0x14 ,0x02 ,0x40, 0xb1 ,0x3c, 0x1e ,0x8f, 0xc7, 
   0x50 ,0x0c ,0x8f, 0xc7 ,0xe3 ,0x89, 0x14 ,0x00, 0x40 ,0xb1 ,
   0x24, 0x12 ,0x89, 0x44, 0x50, 0x08, 0x89, 0x44, 0x22, 0x89, 
   0x14, 0x00, 0x40, 0xb1, 0x20, 0x12, 0x89, 0x44, 0x50, 0x08, 
   0x89, 0x44, 0x22, 0x89, 0x14, 0x00, 0x40 ,0xb1 ,0x3c ,0x18 ,
   0x89 ,0xc7, 0x53, 0x08 ,0x0f, 0xc6 ,0x23, 0x89 ,0x14 ,0x00 ,
   0x00, 0x00 ,0x04 ,0x08, 0x89 ,0x44, 0x02 ,0x08 ,0x09, 0x42 ,
   0x22 ,0x01 ,0x00, 0x00 ,0x00 ,0x00 ,0x24 ,0x08 ,0x89 ,0x44, 
   0x02, 0x08 ,0x09 ,0x42, 0x22, 0x01 ,0x00, 0x00, 0x00 ,0x00, 
   0x3c ,0x08 ,0x8f, 0xc7 ,0x03 ,0x1e, 0x0f, 0xc2 ,0xe3, 0x01 ,
   0x00, 0x00 ,};
/* the milk.com barcode generator; http://www.milk.com/barcode/ */
