#define milk_barcode_width 107
#define milk_barcode_height 68
static char milk_barcode_bits[] = {
   0x85 ,0x04 ,0x06 ,0x00 ,0x00 ,0x00, 0x00, 0x02 ,0x00, 0x00 ,
   0x00, 0x00 ,0x02 ,0x00 ,0x85, 0x04 ,0x04 ,0x00, 0x00 ,0x00, 
   0x00 ,0x02 ,0x10, 0x00 ,0x00 ,0x20 ,0x02, 0x00 ,0x85 ,0x04 ,
   0xc4 ,0x7b ,0x0f ,0xbc, 0xf7, 0xd2 ,0x7b ,0x20, 0xbd, 0xf7 ,
   0xde, 0x03, 0x85 ,0xf3, 0x44 ,0x42 ,0x09, 0xa4 ,0x14 ,0x4a, 
   0x12, 0xe0 ,0x25, 0x24 ,0x12, 0x02 ,0x85 ,0x04, 0xc4 ,0x7b, 
   0x09 ,0xa4 ,0x14, 0xc6 ,0x13, 0xe0, 0xbd, 0x27 ,0xd2, 0x03 ,
   0x85, 0x04 ,0x44 ,0x48 ,0x09 ,0xbc ,0x14, 0x4a ,0x10, 0x20 ,
   0x85, 0x24 ,0x52 ,0x02 ,0xbd ,0x04 ,0xce, 0x7b ,0xe9, 0x85 ,
   0xf7, 0xd2, 0x73 ,0x2f ,0xbd, 0xe7 ,0xde ,0x03, 0x00 ,0x00, 
   0x00 ,0x00 ,0x00, 0x04 ,0x00, 0x00, 0x00, 0x00, 0x00, 0x00, 
   0x00, 0x00, 0x40, 0xb1, 0x62, 0xaf, 0x1e, 0x6d, 0x54, 0xa7, 
   0x48, 0x62, 0x56, 0xb8, 0x14, 0x00, 0x40, 0xb1, 0x62 ,0xaf ,
   0x1e ,0x6d ,0x54 ,0xa7, 0x48, 0x62 ,0x56, 0xb8 ,0x14, 0x00 ,
   0x40 ,0xb1 ,0x62, 0xaf ,0x1e ,0x6d, 0x54 ,0xa7, 0x48 ,0x62 ,
   0x56, 0xb8 ,0x14 ,0x00 ,0x40, 0xb1 ,0x62 ,0xaf ,0x1e ,0x6d ,
   0x54 ,0xa7, 0x48, 0x62 ,0x56 ,0xb8, 0x14, 0x00 ,0x40, 0xb1, 
   0x62 ,0xaf, 0x1e ,0x6d ,0x54, 0xa7 ,0x48 ,0x62, 0x56, 0xb8 ,
   0x14, 0x00 ,0x40, 0xb1 ,0x62 ,0xaf, 0x1e ,0x6d, 0x54 ,0xa7 ,
   0x48, 0x62 ,0x56, 0xb8, 0x14, 0x00 ,0x40, 0xb1 ,0x62, 0xaf ,
   0x1e ,0x6d ,0x54 ,0xa7 ,0x48, 0x62 ,0x56, 0xb8 ,0x14, 0x00 ,
   0x40 ,0xb1 ,0x62 ,0xaf ,0x1e, 0x6d ,0x54, 0xa7 ,0x48, 0x62, 
   0x56 ,0xb8 ,0x14, 0x00 ,0x40 ,0xb1, 0x62 ,0xaf, 0x1e ,0x6d ,
   0x54, 0xa7 ,0x48, 0x62, 0x56, 0xb8, 0x14, 0x00, 0x40, 0xb1, 
   0x62, 0xaf, 0x1e, 0x6d, 0x54, 0xa7, 0x48, 0x62, 0x56, 0xb8, 
   0x14, 0x00, 0x40, 0xb1, 0x62, 0xaf, 0x1e ,0x6d ,0x54 ,0xa7 ,
   0x48 ,0x62, 0x56, 0xb8 ,0x14, 0x00 ,0x40, 0xb1 ,0x62 ,0xaf ,
   0x1e, 0x6d ,0x54 ,0xa7, 0x48 ,0x62, 0x56 ,0xb8 ,0x14, 0x00 ,
   0x40 ,0xb1 ,0x62, 0xaf ,0x1e ,0x6d ,0x54 ,0xa7 ,0x48 ,0x62, 
   0x56, 0xb8 ,0x14 ,0x00, 0x40, 0xb1 ,0x62, 0xaf, 0x1e ,0x6d, 
   0x54 ,0xa7 ,0x48, 0x62 ,0x56 ,0xb8, 0x14, 0x00 ,0x40, 0xb1 ,
   0x62, 0xaf ,0x1e ,0x6d, 0x54 ,0xa7, 0x48 ,0x62 ,0x56, 0xb8 ,
   0x14, 0x00, 0x40, 0xb1 ,0x62, 0xaf ,0x1e, 0x6d ,0x54 ,0xa7 ,
   0x48 ,0x62 ,0x56, 0xb8 ,0x14, 0x00 ,0x40, 0xb1 ,0x62 ,0xaf ,
   0x1e ,0x6d ,0x54, 0xa7 ,0x48, 0x62 ,0x56, 0xb8, 0x14 ,0x00 ,
   0x40, 0xb1 ,0x62 ,0xaf, 0x1e ,0x6d, 0x54 ,0xa7 ,0x48, 0x62 ,
   0x56, 0xb8, 0x14, 0x00, 0x40, 0xb1, 0x62, 0xaf, 0x1e, 0x6d, 
   0x54, 0xa7, 0x48, 0x62, 0x56, 0xb8, 0x14, 0x00, 0x40, 0xb1, 
   0x62, 0xaf, 0x1e, 0x6d, 0x54 ,0xa7 ,0x48 ,0x62 ,0x56 ,0xb8, 
   0x14, 0x00 ,0x40, 0xb1 ,0x62, 0xaf ,0x1e ,0x6d ,0x54, 0xa7 ,
   0x48 ,0x62, 0x56 ,0xb8, 0x14 ,0x00 ,0x40, 0xb1 ,0x62 ,0xaf ,
   0x1e, 0x6d ,0x54 ,0xa7 ,0x48 ,0x62 ,0x56 ,0xb8, 0x14, 0x00 ,
   0x40 ,0xb1, 0x62, 0xaf ,0x1e, 0x6d, 0x54 ,0xa7, 0x48 ,0x62 ,
   0x56, 0xb8 ,0x14 ,0x00, 0x40, 0xb1 ,0x62, 0xaf ,0x1e, 0x6d ,
   0x54 ,0xa7, 0x48 ,0x62, 0x56 ,0xb8 ,0x14, 0x00 ,0x40, 0xb1, 
   0x62, 0xaf ,0x1e, 0x6d ,0x54, 0xa7 ,0x48 ,0x62 ,0x56 ,0xb8 ,
   0x14, 0x00 ,0x40, 0xb1 ,0x62, 0xaf ,0x1e ,0x6d ,0x54 ,0xa7 ,
   0x48, 0x62 ,0x56, 0xb8 ,0x14, 0x00, 0x40 ,0xb1 ,0x62, 0xaf ,
   0x1e ,0x6d, 0x54 ,0xa7, 0x48 ,0x62 ,0x56, 0xb8 ,0x14, 0x00, 
   0x40, 0xb1, 0x62, 0xaf, 0x1e, 0x6d, 0x54, 0xa7, 0x48, 0x62, 
   0x56, 0xb8, 0x14, 0x00, 0x40, 0xb1, 0x62, 0xaf, 0x1e, 0x6d, 
   0x54, 0xa7, 0x48 ,0x62 ,0x56 ,0xb8 ,0x14 ,0x00, 0x40, 0xb1 ,
   0x62, 0xaf ,0x1e, 0x6d ,0x54 ,0xa7 ,0x48, 0x62 ,0x56 ,0xb8, 
   0x14 ,0x00, 0x40 ,0xb1 ,0x62, 0xaf ,0x1e ,0x6d ,0x54, 0xa7 ,
   0x48 ,0x62 ,0x56 ,0xb8 ,0x14 ,0x00, 0x40, 0xb1 ,0x62 ,0xaf, 
   0x1e, 0x6d ,0x54, 0xa7, 0x48 ,0x62, 0x56 ,0xb8 ,0x14, 0x00 ,
   0x40 ,0xb1, 0x62, 0xaf ,0x1e, 0x6d ,0x54, 0xa7 ,0x48 ,0x62, 
   0x56 ,0xb8, 0x14 ,0x00 ,0x40, 0xb1 ,0x62, 0xaf, 0x1e, 0x6d ,
   0x54, 0xa7 ,0x48, 0x62 ,0x56 ,0xb8 ,0x14 ,0x00 ,0x40, 0xb1 ,
   0x62, 0xaf ,0x1e, 0x6d ,0x54 ,0xa7 ,0x48 ,0x62 ,0x56, 0xb8 ,
   0x14, 0x00 ,0x40, 0xb1, 0x62 ,0xaf ,0x1e, 0x6d ,0x54 ,0xa7, 
   0x48 ,0x62, 0x56 ,0xb8 ,0x14, 0x00 ,0x40, 0xb1, 0x62, 0xaf, 
   0x1e, 0x6d, 0x54, 0xa7, 0x48, 0x62, 0x56, 0xb8, 0x14, 0x00, 
   0x40, 0xb1, 0x62, 0xaf, 0x1e, 0x6d, 0x54, 0xa7, 0x48, 0x62, 
   0x56 ,0xb8 ,0x14 ,0x00 ,0x40 ,0xb1, 0x62, 0xaf ,0x1e, 0x6d ,
   0x54, 0xa7 ,0x48 ,0x62 ,0x56, 0xb8 ,0x14 ,0x00, 0x40 ,0xb1, 
   0x62 ,0xaf ,0x1e, 0x6d ,0x54 ,0xa7 ,0x48, 0x62 ,0x56 ,0xb8 ,
   0x14 ,0x00 ,0x40 ,0xb1, 0x62, 0xaf ,0x1e ,0x6d, 0x54, 0xa7 ,
   0x48, 0x62, 0x56 ,0xb8, 0x14 ,0x00 ,0x40, 0xb1 ,0x62 ,0xaf, 
   0x1e, 0x6d ,0x54, 0xa7 ,0x48, 0x62 ,0x56 ,0xb8, 0x14 ,0x00, 
   0x40 ,0xb1 ,0x62, 0xaf ,0x1e, 0x6d, 0x54, 0xa7 ,0x48, 0x62 ,
   0x56, 0xb8 ,0x14 ,0x00 ,0x40 ,0xb1 ,0x62, 0xaf ,0x1e, 0x6d ,
   0x54, 0xa7 ,0x48 ,0x62 ,0x56 ,0xb8 ,0x14, 0x00 ,0x40, 0xb1 ,
   0x62, 0xaf, 0x1e ,0x6d ,0x54, 0xa7 ,0x48 ,0x62, 0x56 ,0xb8, 
   0x14 ,0x00 ,0x40, 0xb1 ,0x62, 0xaf, 0x1e, 0x6d, 0x54, 0xa7, 
   0x48, 0x62, 0x56, 0xb8, 0x14, 0x00, 0x4f, 0xb1, 0x62, 0xaf, 
   0x1e, 0x6d, 0x54, 0xa7, 0x48, 0x62, 0x56, 0xb8, 0x94 ,0x07 ,
   0x49 ,0xb1 ,0x62 ,0xaf, 0x1e, 0x6d ,0x54, 0xa7 ,0x48, 0x62 ,
   0x56 ,0xb8 ,0x94, 0x04 ,0x49 ,0xb1, 0x62 ,0xaf, 0x1e ,0x6d ,
   0x54, 0xa7 ,0x48 ,0x62 ,0x56, 0xb8 ,0x94 ,0x04 ,0x49 ,0xb1 ,
   0x62 ,0xaf, 0x1e, 0x6d ,0x54 ,0xa7, 0x48, 0x62 ,0x56, 0xb8, 
   0x94 ,0x07, 0x49 ,0xb1 ,0x62, 0xaf ,0x1e ,0x6d, 0x54, 0xa7 ,
   0x48, 0x62 ,0x56, 0xb8 ,0x14 ,0x04, 0x49 ,0xb1, 0x00 ,0x00 ,
   0x00, 0x00 ,0x50, 0x00, 0x00, 0x00 ,0x00, 0xb8 ,0x14, 0x04 ,
   0x4f ,0xb1 ,0x00 ,0x00 ,0x00, 0x00 ,0x50, 0x00 ,0x00, 0x00 ,
   0x00 ,0xb8 ,0x14 ,0x04 ,0x40, 0xb1 ,0x24, 0x1e ,0x83, 0xc7, 
   0x53 ,0x1e ,0x8f, 0x87 ,0x61 ,0xb8, 0x14 ,0x00, 0x40 ,0xb1 ,
   0x24, 0x10 ,0x81, 0x44, 0x52, 0x12, 0x89, 0x04, 0x21, 0xb8, 
   0x14, 0x00, 0x40, 0xb1, 0x24, 0x10, 0x81, 0x44, 0x50, 0x12, 
   0x89, 0x04, 0x21, 0xb8, 0x14, 0x00, 0x40 ,0xb1 ,0x3c ,0x1e ,
   0x8f ,0xc7, 0x53, 0x12 ,0x8c, 0x07 ,0xe1, 0xb9 ,0x14 ,0x00 ,
   0x00, 0x00 ,0x20 ,0x10, 0x09 ,0x04, 0x02 ,0x12 ,0x84, 0x04 ,
   0x21 ,0x01 ,0x00, 0x00 ,0x00 ,0x00 ,0x20 ,0x10 ,0x09 ,0x44, 
   0x02, 0x12 ,0x84 ,0x04, 0x21, 0x01 ,0x00, 0x00, 0x00 ,0x00, 
   0x20 ,0x1e ,0x0f, 0xc4 ,0x03 ,0x1e, 0x84, 0xc7 ,0xe3, 0x01 ,
   0x00, 0x00 ,};
/* the milk.com barcode generator; http://www.milk.com/barcode/ */
