#define milk_barcode_width 107
#define milk_barcode_height 68
static char milk_barcode_bits[] = {
   0x00 ,0x00 ,0x10 ,0x00 ,0x8c ,0x21, 0x00, 0x00 ,0x00, 0x80 ,
   0x30, 0x04 ,0x00 ,0x00 ,0x00, 0x80 ,0x00 ,0x00, 0x08 ,0x01, 
   0x00 ,0x00 ,0x00, 0x80 ,0x20 ,0x00 ,0x00, 0x00 ,0xf4 ,0xde ,
   0x1b ,0xef ,0x09 ,0x31, 0x1e, 0x78 ,0xef ,0xbd, 0x24, 0xc6 ,
   0x7b, 0x00, 0x87 ,0x82, 0x10 ,0x29 ,0x09, 0x21 ,0x02 ,0x08, 
   0x09, 0x85 ,0x22, 0x44 ,0x4a, 0x00 ,0xf7 ,0x82, 0x10 ,0xe9, 
   0x09 ,0x21 ,0x1e, 0x78 ,0xe9, 0x85, 0x21, 0x44 ,0x4a, 0x00 ,
   0x94, 0x82 ,0x10 ,0x29 ,0x08 ,0x21 ,0x10, 0x40 ,0x2f, 0x85 ,
   0x22, 0x44 ,0x7a ,0x00 ,0xf4 ,0x82 ,0x3b, 0xe9 ,0x9d, 0x73 ,
   0xde, 0x7b, 0xe1 ,0x85 ,0x74, 0x4e ,0x42 ,0x07, 0x00 ,0x00, 
   0x00 ,0x00 ,0x00, 0x00 ,0x00, 0x00, 0x01, 0x00, 0x00, 0x00, 
   0x60, 0x00, 0x40, 0xb1, 0x62, 0x26, 0x59, 0x2c, 0x56, 0x97, 
   0xd3, 0xec, 0x94, 0x3b, 0x15, 0x00, 0x40, 0xb1, 0x62 ,0x26 ,
   0x59 ,0x2c ,0x56 ,0x97, 0xd3, 0xec ,0x94, 0x3b ,0x15, 0x00 ,
   0x40 ,0xb1 ,0x62, 0x26 ,0x59 ,0x2c, 0x56 ,0x97, 0xd3 ,0xec ,
   0x94, 0x3b ,0x15 ,0x00 ,0x40, 0xb1 ,0x62 ,0x26 ,0x59 ,0x2c ,
   0x56 ,0x97, 0xd3, 0xec ,0x94 ,0x3b, 0x15, 0x00 ,0x40, 0xb1, 
   0x62 ,0x26, 0x59 ,0x2c ,0x56, 0x97 ,0xd3 ,0xec, 0x94, 0x3b ,
   0x15, 0x00 ,0x40, 0xb1 ,0x62 ,0x26, 0x59 ,0x2c, 0x56 ,0x97 ,
   0xd3, 0xec ,0x94, 0x3b, 0x15, 0x00 ,0x40, 0xb1 ,0x62, 0x26 ,
   0x59 ,0x2c ,0x56 ,0x97 ,0xd3, 0xec ,0x94, 0x3b ,0x15, 0x00 ,
   0x40 ,0xb1 ,0x62 ,0x26 ,0x59, 0x2c ,0x56, 0x97 ,0xd3, 0xec, 
   0x94 ,0x3b ,0x15, 0x00 ,0x40 ,0xb1, 0x62 ,0x26, 0x59 ,0x2c ,
   0x56, 0x97 ,0xd3, 0xec, 0x94, 0x3b, 0x15, 0x00, 0x40, 0xb1, 
   0x62, 0x26, 0x59, 0x2c, 0x56, 0x97, 0xd3, 0xec, 0x94, 0x3b, 
   0x15, 0x00, 0x40, 0xb1, 0x62, 0x26, 0x59 ,0x2c ,0x56 ,0x97 ,
   0xd3 ,0xec, 0x94, 0x3b ,0x15, 0x00 ,0x40, 0xb1 ,0x62 ,0x26 ,
   0x59, 0x2c ,0x56 ,0x97, 0xd3 ,0xec, 0x94 ,0x3b ,0x15, 0x00 ,
   0x40 ,0xb1 ,0x62, 0x26 ,0x59 ,0x2c ,0x56 ,0x97 ,0xd3 ,0xec, 
   0x94, 0x3b ,0x15 ,0x00, 0x40, 0xb1 ,0x62, 0x26, 0x59 ,0x2c, 
   0x56 ,0x97 ,0xd3, 0xec ,0x94 ,0x3b, 0x15, 0x00 ,0x40, 0xb1 ,
   0x62, 0x26 ,0x59 ,0x2c, 0x56 ,0x97, 0xd3 ,0xec ,0x94, 0x3b ,
   0x15, 0x00, 0x40, 0xb1 ,0x62, 0x26 ,0x59, 0x2c ,0x56 ,0x97 ,
   0xd3 ,0xec ,0x94, 0x3b ,0x15, 0x00 ,0x40, 0xb1 ,0x62 ,0x26 ,
   0x59 ,0x2c ,0x56, 0x97 ,0xd3, 0xec ,0x94, 0x3b, 0x15 ,0x00 ,
   0x40, 0xb1 ,0x62 ,0x26, 0x59 ,0x2c, 0x56 ,0x97 ,0xd3, 0xec ,
   0x94, 0x3b, 0x15, 0x00, 0x40, 0xb1, 0x62, 0x26, 0x59, 0x2c, 
   0x56, 0x97, 0xd3, 0xec, 0x94, 0x3b, 0x15, 0x00, 0x40, 0xb1, 
   0x62, 0x26, 0x59, 0x2c, 0x56 ,0x97 ,0xd3 ,0xec ,0x94 ,0x3b, 
   0x15, 0x00 ,0x40, 0xb1 ,0x62, 0x26 ,0x59 ,0x2c ,0x56, 0x97 ,
   0xd3 ,0xec, 0x94 ,0x3b, 0x15 ,0x00 ,0x40, 0xb1 ,0x62 ,0x26 ,
   0x59, 0x2c ,0x56 ,0x97 ,0xd3 ,0xec ,0x94 ,0x3b, 0x15, 0x00 ,
   0x40 ,0xb1, 0x62, 0x26 ,0x59, 0x2c, 0x56 ,0x97, 0xd3 ,0xec ,
   0x94, 0x3b ,0x15 ,0x00, 0x40, 0xb1 ,0x62, 0x26 ,0x59, 0x2c ,
   0x56 ,0x97, 0xd3 ,0xec, 0x94 ,0x3b ,0x15, 0x00 ,0x40, 0xb1, 
   0x62, 0x26 ,0x59, 0x2c ,0x56, 0x97 ,0xd3 ,0xec ,0x94 ,0x3b ,
   0x15, 0x00 ,0x40, 0xb1 ,0x62, 0x26 ,0x59 ,0x2c ,0x56 ,0x97 ,
   0xd3, 0xec ,0x94, 0x3b ,0x15, 0x00, 0x40 ,0xb1 ,0x62, 0x26 ,
   0x59 ,0x2c, 0x56 ,0x97, 0xd3 ,0xec ,0x94, 0x3b ,0x15, 0x00, 
   0x40, 0xb1, 0x62, 0x26, 0x59, 0x2c, 0x56, 0x97, 0xd3, 0xec, 
   0x94, 0x3b, 0x15, 0x00, 0x40, 0xb1, 0x62, 0x26, 0x59, 0x2c, 
   0x56, 0x97, 0xd3 ,0xec ,0x94 ,0x3b ,0x15 ,0x00, 0x40, 0xb1 ,
   0x62, 0x26 ,0x59, 0x2c ,0x56 ,0x97 ,0xd3, 0xec ,0x94 ,0x3b, 
   0x15 ,0x00, 0x40 ,0xb1 ,0x62, 0x26 ,0x59 ,0x2c ,0x56, 0x97 ,
   0xd3 ,0xec ,0x94 ,0x3b ,0x15 ,0x00, 0x40, 0xb1 ,0x62 ,0x26, 
   0x59, 0x2c ,0x56, 0x97, 0xd3 ,0xec, 0x94 ,0x3b ,0x15, 0x00 ,
   0x40 ,0xb1, 0x62, 0x26 ,0x59, 0x2c ,0x56, 0x97 ,0xd3 ,0xec, 
   0x94 ,0x3b, 0x15 ,0x00 ,0x40, 0xb1 ,0x62, 0x26, 0x59, 0x2c ,
   0x56, 0x97 ,0xd3, 0xec ,0x94 ,0x3b ,0x15 ,0x00 ,0x40, 0xb1 ,
   0x62, 0x26 ,0x59, 0x2c ,0x56 ,0x97 ,0xd3 ,0xec ,0x94, 0x3b ,
   0x15, 0x00 ,0x40, 0xb1, 0x62 ,0x26 ,0x59, 0x2c ,0x56 ,0x97, 
   0xd3 ,0xec, 0x94 ,0x3b ,0x15, 0x00 ,0x40, 0xb1, 0x62, 0x26, 
   0x59, 0x2c, 0x56, 0x97, 0xd3, 0xec, 0x94, 0x3b, 0x15, 0x00, 
   0x40, 0xb1, 0x62, 0x26, 0x59, 0x2c, 0x56, 0x97, 0xd3, 0xec, 
   0x94 ,0x3b ,0x15 ,0x00 ,0x40 ,0xb1, 0x62, 0x26 ,0x59, 0x2c ,
   0x56, 0x97 ,0xd3 ,0xec ,0x94, 0x3b ,0x15 ,0x00, 0x40 ,0xb1, 
   0x62 ,0x26 ,0x59, 0x2c ,0x56 ,0x97 ,0xd3, 0xec ,0x94 ,0x3b ,
   0x15 ,0x00 ,0x40 ,0xb1, 0x62, 0x26 ,0x59 ,0x2c, 0x56, 0x97 ,
   0xd3, 0xec, 0x94 ,0x3b, 0x15 ,0x00 ,0x40, 0xb1 ,0x62 ,0x26, 
   0x59, 0x2c ,0x56, 0x97 ,0xd3, 0xec ,0x94 ,0x3b, 0x15 ,0x00, 
   0x40 ,0xb1 ,0x62, 0x26 ,0x59, 0x2c, 0x56, 0x97 ,0xd3, 0xec ,
   0x94, 0x3b ,0x15 ,0x00 ,0x40 ,0xb1 ,0x62, 0x26 ,0x59, 0x2c ,
   0x56, 0x97 ,0xd3 ,0xec ,0x94 ,0x3b ,0x15, 0x00 ,0x40, 0xb1 ,
   0x62, 0x26, 0x59 ,0x2c ,0x56, 0x97 ,0xd3 ,0xec, 0x94 ,0x3b, 
   0x15 ,0x00 ,0x40, 0xb1 ,0x62, 0x26, 0x59, 0x2c, 0x56, 0x97, 
   0xd3, 0xec, 0x94, 0x3b, 0x15, 0x00, 0x4f, 0xb1, 0x62, 0x26, 
   0x59, 0x2c, 0x56, 0x97, 0xd3, 0xec, 0x94, 0x3b, 0x95 ,0x07 ,
   0x49 ,0xb1 ,0x62 ,0x26, 0x59, 0x2c ,0x56, 0x97 ,0xd3, 0xec ,
   0x94 ,0x3b ,0x95, 0x04 ,0x49 ,0xb1, 0x62 ,0x26, 0x59 ,0x2c ,
   0x56, 0x97 ,0xd3 ,0xec ,0x94, 0x3b ,0x95 ,0x04 ,0x49 ,0xb1 ,
   0x62 ,0x26, 0x59, 0x2c ,0x56 ,0x97, 0xd3, 0xec ,0x94, 0x3b, 
   0x95 ,0x04, 0x49 ,0xb1 ,0x62, 0x26 ,0x59 ,0x2c, 0x56, 0x97 ,
   0xd3, 0xec ,0x94, 0x3b ,0x95 ,0x04, 0x49 ,0xb1, 0x00 ,0x00 ,
   0x00, 0x00 ,0x50, 0x00, 0x00, 0x00 ,0x00, 0x38 ,0x95, 0x04 ,
   0x4f ,0xb1 ,0x00 ,0x00 ,0x00, 0x00 ,0x50, 0x00 ,0x00, 0x00 ,
   0x00 ,0x38 ,0x95 ,0x07 ,0x40, 0xb1 ,0x24, 0x0c ,0x8f, 0x44, 
   0x52 ,0x1e ,0x0f, 0xc3 ,0xe3 ,0x39, 0x15 ,0x00, 0x40 ,0xb1 ,
   0x24, 0x08 ,0x89, 0x44, 0x52, 0x12, 0x09, 0x42, 0x22, 0x39, 
   0x15, 0x00, 0x40, 0xb1, 0x24, 0x08, 0x88, 0x44, 0x52, 0x12, 
   0x09, 0x42, 0x22, 0x38, 0x15, 0x00, 0x40 ,0xb1 ,0x3c ,0x08 ,
   0x8f ,0xc7, 0x53, 0x1e ,0x09, 0x42 ,0xe2, 0x39 ,0x15 ,0x00 ,
   0x00, 0x00 ,0x20 ,0x08, 0x01 ,0x04, 0x02 ,0x10 ,0x09, 0x42 ,
   0x02 ,0x01 ,0x00, 0x00 ,0x00 ,0x00 ,0x20 ,0x08 ,0x09 ,0x04, 
   0x02, 0x10 ,0x09 ,0x42, 0x22, 0x01 ,0x00, 0x00, 0x00 ,0x00, 
   0x20 ,0x1e ,0x0f, 0x04 ,0x02 ,0x10, 0x8f, 0xc7 ,0xe3, 0x01 ,
   0x00, 0x00 ,};
/* the milk.com barcode generator; http://www.milk.com/barcode/ */
