#define milk_barcode_width 107
#define milk_barcode_height 68
static char milk_barcode_bits[] = {
   0x93 ,0x42 ,0x02 ,0x00 ,0x00 ,0x20, 0x00, 0x18 ,0x43, 0x00 ,
   0x00, 0x00 ,0x18 ,0x00 ,0x94, 0x42 ,0x02 ,0x00, 0x00 ,0x01, 
   0x00 ,0x10 ,0x02, 0x00 ,0x00 ,0x00 ,0x10, 0x00 ,0x94 ,0x42 ,
   0x02 ,0xe9 ,0xbd ,0x37, 0xde, 0x13 ,0x62 ,0x3c, 0xf0, 0xde ,
   0x13, 0x07, 0x93 ,0xc2, 0x79 ,0x0f ,0x05, 0x21 ,0x52 ,0x12, 
   0x42, 0x04 ,0x80, 0x52 ,0x12, 0x01 ,0x94 ,0x42, 0x02 ,0xef, 
   0x05 ,0x21 ,0xd2, 0x13 ,0x42, 0x3c, 0xf0, 0x52 ,0x12, 0x07 ,
   0x94, 0x42 ,0x02 ,0x29 ,0x05 ,0x21 ,0x52, 0x10 ,0x42, 0x20 ,
   0x90, 0xde ,0x13 ,0x01 ,0xf3 ,0x5e ,0x02, 0xe9 ,0x05, 0x77 ,
   0xd2, 0x3b, 0xe7 ,0xbc ,0xf7, 0x42 ,0x38 ,0x07, 0x00 ,0x00, 
   0x00 ,0x00 ,0x00, 0x00 ,0x00, 0x00, 0x00, 0x00, 0x00, 0x42, 
   0x00, 0x00, 0x40, 0xb1, 0x62, 0x26, 0x59, 0x2c, 0x56, 0x97, 
   0xd3, 0xec, 0xb4, 0xb9, 0x14, 0x00, 0x40, 0xb1, 0x62 ,0x26 ,
   0x59 ,0x2c ,0x56 ,0x97, 0xd3, 0xec ,0xb4, 0xb9 ,0x14, 0x00 ,
   0x40 ,0xb1 ,0x62, 0x26 ,0x59 ,0x2c, 0x56 ,0x97, 0xd3 ,0xec ,
   0xb4, 0xb9 ,0x14 ,0x00 ,0x40, 0xb1 ,0x62 ,0x26 ,0x59 ,0x2c ,
   0x56 ,0x97, 0xd3, 0xec ,0xb4 ,0xb9, 0x14, 0x00 ,0x40, 0xb1, 
   0x62 ,0x26, 0x59 ,0x2c ,0x56, 0x97 ,0xd3 ,0xec, 0xb4, 0xb9 ,
   0x14, 0x00 ,0x40, 0xb1 ,0x62 ,0x26, 0x59 ,0x2c, 0x56 ,0x97 ,
   0xd3, 0xec ,0xb4, 0xb9, 0x14, 0x00 ,0x40, 0xb1 ,0x62, 0x26 ,
   0x59 ,0x2c ,0x56 ,0x97 ,0xd3, 0xec ,0xb4, 0xb9 ,0x14, 0x00 ,
   0x40 ,0xb1 ,0x62 ,0x26 ,0x59, 0x2c ,0x56, 0x97 ,0xd3, 0xec, 
   0xb4 ,0xb9 ,0x14, 0x00 ,0x40 ,0xb1, 0x62 ,0x26, 0x59 ,0x2c ,
   0x56, 0x97 ,0xd3, 0xec, 0xb4, 0xb9, 0x14, 0x00, 0x40, 0xb1, 
   0x62, 0x26, 0x59, 0x2c, 0x56, 0x97, 0xd3, 0xec, 0xb4, 0xb9, 
   0x14, 0x00, 0x40, 0xb1, 0x62, 0x26, 0x59 ,0x2c ,0x56 ,0x97 ,
   0xd3 ,0xec, 0xb4, 0xb9 ,0x14, 0x00 ,0x40, 0xb1 ,0x62 ,0x26 ,
   0x59, 0x2c ,0x56 ,0x97, 0xd3 ,0xec, 0xb4 ,0xb9 ,0x14, 0x00 ,
   0x40 ,0xb1 ,0x62, 0x26 ,0x59 ,0x2c ,0x56 ,0x97 ,0xd3 ,0xec, 
   0xb4, 0xb9 ,0x14 ,0x00, 0x40, 0xb1 ,0x62, 0x26, 0x59 ,0x2c, 
   0x56 ,0x97 ,0xd3, 0xec ,0xb4 ,0xb9, 0x14, 0x00 ,0x40, 0xb1 ,
   0x62, 0x26 ,0x59 ,0x2c, 0x56 ,0x97, 0xd3 ,0xec ,0xb4, 0xb9 ,
   0x14, 0x00, 0x40, 0xb1 ,0x62, 0x26 ,0x59, 0x2c ,0x56 ,0x97 ,
   0xd3 ,0xec ,0xb4, 0xb9 ,0x14, 0x00 ,0x40, 0xb1 ,0x62 ,0x26 ,
   0x59 ,0x2c ,0x56, 0x97 ,0xd3, 0xec ,0xb4, 0xb9, 0x14 ,0x00 ,
   0x40, 0xb1 ,0x62 ,0x26, 0x59 ,0x2c, 0x56 ,0x97 ,0xd3, 0xec ,
   0xb4, 0xb9, 0x14, 0x00, 0x40, 0xb1, 0x62, 0x26, 0x59, 0x2c, 
   0x56, 0x97, 0xd3, 0xec, 0xb4, 0xb9, 0x14, 0x00, 0x40, 0xb1, 
   0x62, 0x26, 0x59, 0x2c, 0x56 ,0x97 ,0xd3 ,0xec ,0xb4 ,0xb9, 
   0x14, 0x00 ,0x40, 0xb1 ,0x62, 0x26 ,0x59 ,0x2c ,0x56, 0x97 ,
   0xd3 ,0xec, 0xb4 ,0xb9, 0x14 ,0x00 ,0x40, 0xb1 ,0x62 ,0x26 ,
   0x59, 0x2c ,0x56 ,0x97 ,0xd3 ,0xec ,0xb4 ,0xb9, 0x14, 0x00 ,
   0x40 ,0xb1, 0x62, 0x26 ,0x59, 0x2c, 0x56 ,0x97, 0xd3 ,0xec ,
   0xb4, 0xb9 ,0x14 ,0x00, 0x40, 0xb1 ,0x62, 0x26 ,0x59, 0x2c ,
   0x56 ,0x97, 0xd3 ,0xec, 0xb4 ,0xb9 ,0x14, 0x00 ,0x40, 0xb1, 
   0x62, 0x26 ,0x59, 0x2c ,0x56, 0x97 ,0xd3 ,0xec ,0xb4 ,0xb9 ,
   0x14, 0x00 ,0x40, 0xb1 ,0x62, 0x26 ,0x59 ,0x2c ,0x56 ,0x97 ,
   0xd3, 0xec ,0xb4, 0xb9 ,0x14, 0x00, 0x40 ,0xb1 ,0x62, 0x26 ,
   0x59 ,0x2c, 0x56 ,0x97, 0xd3 ,0xec ,0xb4, 0xb9 ,0x14, 0x00, 
   0x40, 0xb1, 0x62, 0x26, 0x59, 0x2c, 0x56, 0x97, 0xd3, 0xec, 
   0xb4, 0xb9, 0x14, 0x00, 0x40, 0xb1, 0x62, 0x26, 0x59, 0x2c, 
   0x56, 0x97, 0xd3 ,0xec ,0xb4 ,0xb9 ,0x14 ,0x00, 0x40, 0xb1 ,
   0x62, 0x26 ,0x59, 0x2c ,0x56 ,0x97 ,0xd3, 0xec ,0xb4 ,0xb9, 
   0x14 ,0x00, 0x40 ,0xb1 ,0x62, 0x26 ,0x59 ,0x2c ,0x56, 0x97 ,
   0xd3 ,0xec ,0xb4 ,0xb9 ,0x14 ,0x00, 0x40, 0xb1 ,0x62 ,0x26, 
   0x59, 0x2c ,0x56, 0x97, 0xd3 ,0xec, 0xb4 ,0xb9 ,0x14, 0x00 ,
   0x40 ,0xb1, 0x62, 0x26 ,0x59, 0x2c ,0x56, 0x97 ,0xd3 ,0xec, 
   0xb4 ,0xb9, 0x14 ,0x00 ,0x40, 0xb1 ,0x62, 0x26, 0x59, 0x2c ,
   0x56, 0x97 ,0xd3, 0xec ,0xb4 ,0xb9 ,0x14 ,0x00 ,0x40, 0xb1 ,
   0x62, 0x26 ,0x59, 0x2c ,0x56 ,0x97 ,0xd3 ,0xec ,0xb4, 0xb9 ,
   0x14, 0x00 ,0x40, 0xb1, 0x62 ,0x26 ,0x59, 0x2c ,0x56 ,0x97, 
   0xd3 ,0xec, 0xb4 ,0xb9 ,0x14, 0x00 ,0x40, 0xb1, 0x62, 0x26, 
   0x59, 0x2c, 0x56, 0x97, 0xd3, 0xec, 0xb4, 0xb9, 0x14, 0x00, 
   0x40, 0xb1, 0x62, 0x26, 0x59, 0x2c, 0x56, 0x97, 0xd3, 0xec, 
   0xb4 ,0xb9 ,0x14 ,0x00 ,0x40 ,0xb1, 0x62, 0x26 ,0x59, 0x2c ,
   0x56, 0x97 ,0xd3 ,0xec ,0xb4, 0xb9 ,0x14 ,0x00, 0x40 ,0xb1, 
   0x62 ,0x26 ,0x59, 0x2c ,0x56 ,0x97 ,0xd3, 0xec ,0xb4 ,0xb9 ,
   0x14 ,0x00 ,0x40 ,0xb1, 0x62, 0x26 ,0x59 ,0x2c, 0x56, 0x97 ,
   0xd3, 0xec, 0xb4 ,0xb9, 0x14 ,0x00 ,0x40, 0xb1 ,0x62 ,0x26, 
   0x59, 0x2c ,0x56, 0x97 ,0xd3, 0xec ,0xb4 ,0xb9, 0x14 ,0x00, 
   0x40 ,0xb1 ,0x62, 0x26 ,0x59, 0x2c, 0x56, 0x97 ,0xd3, 0xec ,
   0xb4, 0xb9 ,0x14 ,0x00 ,0x40 ,0xb1 ,0x62, 0x26 ,0x59, 0x2c ,
   0x56, 0x97 ,0xd3 ,0xec ,0xb4 ,0xb9 ,0x14, 0x00 ,0x40, 0xb1 ,
   0x62, 0x26, 0x59 ,0x2c ,0x56, 0x97 ,0xd3 ,0xec, 0xb4 ,0xb9, 
   0x14 ,0x00 ,0x40, 0xb1 ,0x62, 0x26, 0x59, 0x2c, 0x56, 0x97, 
   0xd3, 0xec, 0xb4, 0xb9, 0x14, 0x00, 0x4f, 0xb1, 0x62, 0x26, 
   0x59, 0x2c, 0x56, 0x97, 0xd3, 0xec, 0xb4, 0xb9, 0x94 ,0x07 ,
   0x49 ,0xb1 ,0x62 ,0x26, 0x59, 0x2c ,0x56, 0x97 ,0xd3, 0xec ,
   0xb4 ,0xb9 ,0x94, 0x04 ,0x49 ,0xb1, 0x62 ,0x26, 0x59 ,0x2c ,
   0x56, 0x97 ,0xd3 ,0xec ,0xb4, 0xb9 ,0x94 ,0x04 ,0x49 ,0xb1 ,
   0x62 ,0x26, 0x59, 0x2c ,0x56 ,0x97, 0xd3, 0xec ,0xb4, 0xb9, 
   0x94 ,0x07, 0x49 ,0xb1 ,0x62, 0x26 ,0x59 ,0x2c, 0x56, 0x97 ,
   0xd3, 0xec ,0xb4, 0xb9 ,0x14 ,0x04, 0x49 ,0xb1, 0x00 ,0x00 ,
   0x00, 0x00 ,0x50, 0x00, 0x00, 0x00 ,0x00, 0xb8 ,0x14, 0x04 ,
   0x4f ,0xb1 ,0x00 ,0x00 ,0x00, 0x00 ,0x50, 0x00 ,0x00, 0x00 ,
   0x00 ,0xb8 ,0x14 ,0x04 ,0x40, 0xb1 ,0x24, 0x0c ,0x8f, 0x44, 
   0x52 ,0x1e ,0x0f, 0xc3 ,0xe3 ,0xb9, 0x14 ,0x00, 0x40 ,0xb1 ,
   0x24, 0x08 ,0x89, 0x44, 0x52, 0x12, 0x09, 0x42, 0x22, 0xb9, 
   0x14, 0x00, 0x40, 0xb1, 0x24, 0x08, 0x88, 0x44, 0x52, 0x12, 
   0x09, 0x42, 0x02, 0xb9, 0x14, 0x00, 0x40 ,0xb1 ,0x3c ,0x08 ,
   0x8f ,0xc7, 0x53, 0x1e ,0x09, 0x42 ,0xe2, 0xb9 ,0x14 ,0x00 ,
   0x00, 0x00 ,0x20 ,0x08, 0x01 ,0x04, 0x02 ,0x10 ,0x09, 0x42 ,
   0x22 ,0x00 ,0x00, 0x00 ,0x00 ,0x00 ,0x20 ,0x08 ,0x09 ,0x04, 
   0x02, 0x10 ,0x09 ,0x42, 0x22, 0x01 ,0x00, 0x00, 0x00 ,0x00, 
   0x20 ,0x1e ,0x0f, 0x04 ,0x02 ,0x10, 0x8f, 0xc7 ,0xe3, 0x01 ,
   0x00, 0x00 ,};
/* the milk.com barcode generator; http://www.milk.com/barcode/ */
