#define milk_barcode_width 107
#define milk_barcode_height 68
static char milk_barcode_bits[] = {
   0x70 ,0x52 ,0x48 ,0x00 ,0x00 ,0x00, 0x40, 0x00 ,0x00, 0x80 ,
   0x00, 0x04 ,0x00 ,0x00 ,0x90, 0x52 ,0x48 ,0x00, 0x00 ,0x00, 
   0x40 ,0x00 ,0x00, 0x80 ,0x00 ,0x00 ,0x00, 0x00 ,0x90 ,0x52 ,
   0x48 ,0x20 ,0xbd ,0x97, 0xde, 0x7b ,0x0f ,0xbc, 0xf7, 0x46 ,
   0x7a, 0x00, 0x70 ,0x52, 0x38 ,0xef ,0xa1, 0x90 ,0x42 ,0x42, 
   0x09, 0x84 ,0x14, 0xc4 ,0x4b, 0x00 ,0x90 ,0x52, 0x48 ,0xe0, 
   0xbd ,0x90 ,0x42, 0x7a ,0x09, 0xbc, 0x14, 0xc4 ,0x4b, 0x00 ,
   0x90, 0x52 ,0x48 ,0x20 ,0xa5 ,0x90 ,0x42, 0x4a ,0x09, 0xa0 ,
   0x14, 0x44 ,0x7a ,0x00 ,0x70 ,0xde ,0x4b, 0x20 ,0xbd, 0xf0 ,
   0x5e, 0x7a, 0xe9 ,0xbd ,0x14, 0x4e ,0x0a ,0x00, 0x00 ,0x00, 
   0x00 ,0x00 ,0x00, 0x00 ,0x00, 0x00, 0x00, 0x00, 0x00, 0x00, 
   0x08, 0x00, 0x40, 0xb1, 0x62, 0xa6, 0xdb, 0x8e, 0x56, 0x91, 
   0xd3, 0x65, 0x93, 0x4b, 0x14, 0x00, 0x40, 0xb1, 0x62 ,0xa6 ,
   0xdb ,0x8e ,0x56 ,0x91, 0xd3, 0x65 ,0x93, 0x4b ,0x14, 0x00 ,
   0x40 ,0xb1 ,0x62, 0xa6 ,0xdb ,0x8e, 0x56 ,0x91, 0xd3 ,0x65 ,
   0x93, 0x4b ,0x14 ,0x00 ,0x40, 0xb1 ,0x62 ,0xa6 ,0xdb ,0x8e ,
   0x56 ,0x91, 0xd3, 0x65 ,0x93 ,0x4b, 0x14, 0x00 ,0x40, 0xb1, 
   0x62 ,0xa6, 0xdb ,0x8e ,0x56, 0x91 ,0xd3 ,0x65, 0x93, 0x4b ,
   0x14, 0x00 ,0x40, 0xb1 ,0x62 ,0xa6, 0xdb ,0x8e, 0x56 ,0x91 ,
   0xd3, 0x65 ,0x93, 0x4b, 0x14, 0x00 ,0x40, 0xb1 ,0x62, 0xa6 ,
   0xdb ,0x8e ,0x56 ,0x91 ,0xd3, 0x65 ,0x93, 0x4b ,0x14, 0x00 ,
   0x40 ,0xb1 ,0x62 ,0xa6 ,0xdb, 0x8e ,0x56, 0x91 ,0xd3, 0x65, 
   0x93 ,0x4b ,0x14, 0x00 ,0x40 ,0xb1, 0x62 ,0xa6, 0xdb ,0x8e ,
   0x56, 0x91 ,0xd3, 0x65, 0x93, 0x4b, 0x14, 0x00, 0x40, 0xb1, 
   0x62, 0xa6, 0xdb, 0x8e, 0x56, 0x91, 0xd3, 0x65, 0x93, 0x4b, 
   0x14, 0x00, 0x40, 0xb1, 0x62, 0xa6, 0xdb ,0x8e ,0x56 ,0x91 ,
   0xd3 ,0x65, 0x93, 0x4b ,0x14, 0x00 ,0x40, 0xb1 ,0x62 ,0xa6 ,
   0xdb, 0x8e ,0x56 ,0x91, 0xd3 ,0x65, 0x93 ,0x4b ,0x14, 0x00 ,
   0x40 ,0xb1 ,0x62, 0xa6 ,0xdb ,0x8e ,0x56 ,0x91 ,0xd3 ,0x65, 
   0x93, 0x4b ,0x14 ,0x00, 0x40, 0xb1 ,0x62, 0xa6, 0xdb ,0x8e, 
   0x56 ,0x91 ,0xd3, 0x65 ,0x93 ,0x4b, 0x14, 0x00 ,0x40, 0xb1 ,
   0x62, 0xa6 ,0xdb ,0x8e, 0x56 ,0x91, 0xd3 ,0x65 ,0x93, 0x4b ,
   0x14, 0x00, 0x40, 0xb1 ,0x62, 0xa6 ,0xdb, 0x8e ,0x56 ,0x91 ,
   0xd3 ,0x65 ,0x93, 0x4b ,0x14, 0x00 ,0x40, 0xb1 ,0x62 ,0xa6 ,
   0xdb ,0x8e ,0x56, 0x91 ,0xd3, 0x65 ,0x93, 0x4b, 0x14 ,0x00 ,
   0x40, 0xb1 ,0x62 ,0xa6, 0xdb ,0x8e, 0x56 ,0x91 ,0xd3, 0x65 ,
   0x93, 0x4b, 0x14, 0x00, 0x40, 0xb1, 0x62, 0xa6, 0xdb, 0x8e, 
   0x56, 0x91, 0xd3, 0x65, 0x93, 0x4b, 0x14, 0x00, 0x40, 0xb1, 
   0x62, 0xa6, 0xdb, 0x8e, 0x56 ,0x91 ,0xd3 ,0x65 ,0x93 ,0x4b, 
   0x14, 0x00 ,0x40, 0xb1 ,0x62, 0xa6 ,0xdb ,0x8e ,0x56, 0x91 ,
   0xd3 ,0x65, 0x93 ,0x4b, 0x14 ,0x00 ,0x40, 0xb1 ,0x62 ,0xa6 ,
   0xdb, 0x8e ,0x56 ,0x91 ,0xd3 ,0x65 ,0x93 ,0x4b, 0x14, 0x00 ,
   0x40 ,0xb1, 0x62, 0xa6 ,0xdb, 0x8e, 0x56 ,0x91, 0xd3 ,0x65 ,
   0x93, 0x4b ,0x14 ,0x00, 0x40, 0xb1 ,0x62, 0xa6 ,0xdb, 0x8e ,
   0x56 ,0x91, 0xd3 ,0x65, 0x93 ,0x4b ,0x14, 0x00 ,0x40, 0xb1, 
   0x62, 0xa6 ,0xdb, 0x8e ,0x56, 0x91 ,0xd3 ,0x65 ,0x93 ,0x4b ,
   0x14, 0x00 ,0x40, 0xb1 ,0x62, 0xa6 ,0xdb ,0x8e ,0x56 ,0x91 ,
   0xd3, 0x65 ,0x93, 0x4b ,0x14, 0x00, 0x40 ,0xb1 ,0x62, 0xa6 ,
   0xdb ,0x8e, 0x56 ,0x91, 0xd3 ,0x65 ,0x93, 0x4b ,0x14, 0x00, 
   0x40, 0xb1, 0x62, 0xa6, 0xdb, 0x8e, 0x56, 0x91, 0xd3, 0x65, 
   0x93, 0x4b, 0x14, 0x00, 0x40, 0xb1, 0x62, 0xa6, 0xdb, 0x8e, 
   0x56, 0x91, 0xd3 ,0x65 ,0x93 ,0x4b ,0x14 ,0x00, 0x40, 0xb1 ,
   0x62, 0xa6 ,0xdb, 0x8e ,0x56 ,0x91 ,0xd3, 0x65 ,0x93 ,0x4b, 
   0x14 ,0x00, 0x40 ,0xb1 ,0x62, 0xa6 ,0xdb ,0x8e ,0x56, 0x91 ,
   0xd3 ,0x65 ,0x93 ,0x4b ,0x14 ,0x00, 0x40, 0xb1 ,0x62 ,0xa6, 
   0xdb, 0x8e ,0x56, 0x91, 0xd3 ,0x65, 0x93 ,0x4b ,0x14, 0x00 ,
   0x40 ,0xb1, 0x62, 0xa6 ,0xdb, 0x8e ,0x56, 0x91 ,0xd3 ,0x65, 
   0x93 ,0x4b, 0x14 ,0x00 ,0x40, 0xb1 ,0x62, 0xa6, 0xdb, 0x8e ,
   0x56, 0x91 ,0xd3, 0x65 ,0x93 ,0x4b ,0x14 ,0x00 ,0x40, 0xb1 ,
   0x62, 0xa6 ,0xdb, 0x8e ,0x56 ,0x91 ,0xd3 ,0x65 ,0x93, 0x4b ,
   0x14, 0x00 ,0x40, 0xb1, 0x62 ,0xa6 ,0xdb, 0x8e ,0x56 ,0x91, 
   0xd3 ,0x65, 0x93 ,0x4b ,0x14, 0x00 ,0x40, 0xb1, 0x62, 0xa6, 
   0xdb, 0x8e, 0x56, 0x91, 0xd3, 0x65, 0x93, 0x4b, 0x14, 0x00, 
   0x40, 0xb1, 0x62, 0xa6, 0xdb, 0x8e, 0x56, 0x91, 0xd3, 0x65, 
   0x93 ,0x4b ,0x14 ,0x00 ,0x40 ,0xb1, 0x62, 0xa6 ,0xdb, 0x8e ,
   0x56, 0x91 ,0xd3 ,0x65 ,0x93, 0x4b ,0x14 ,0x00, 0x40 ,0xb1, 
   0x62 ,0xa6 ,0xdb, 0x8e ,0x56 ,0x91 ,0xd3, 0x65 ,0x93 ,0x4b ,
   0x14 ,0x00 ,0x40 ,0xb1, 0x62, 0xa6 ,0xdb ,0x8e, 0x56, 0x91 ,
   0xd3, 0x65, 0x93 ,0x4b, 0x14 ,0x00 ,0x40, 0xb1 ,0x62 ,0xa6, 
   0xdb, 0x8e ,0x56, 0x91 ,0xd3, 0x65 ,0x93 ,0x4b, 0x14 ,0x00, 
   0x40 ,0xb1 ,0x62, 0xa6 ,0xdb, 0x8e, 0x56, 0x91 ,0xd3, 0x65 ,
   0x93, 0x4b ,0x14 ,0x00 ,0x40 ,0xb1 ,0x62, 0xa6 ,0xdb, 0x8e ,
   0x56, 0x91 ,0xd3 ,0x65 ,0x93 ,0x4b ,0x14, 0x00 ,0x40, 0xb1 ,
   0x62, 0xa6, 0xdb ,0x8e ,0x56, 0x91 ,0xd3 ,0x65, 0x93 ,0x4b, 
   0x14 ,0x00 ,0x40, 0xb1 ,0x62, 0xa6, 0xdb, 0x8e, 0x56, 0x91, 
   0xd3, 0x65, 0x93, 0x4b, 0x14, 0x00, 0x4f, 0xb1, 0x62, 0xa6, 
   0xdb, 0x8e, 0x56, 0x91, 0xd3, 0x65, 0x93, 0x4b, 0x94 ,0x07 ,
   0x49 ,0xb1 ,0x62 ,0xa6, 0xdb, 0x8e ,0x56, 0x91 ,0xd3, 0x65 ,
   0x93 ,0x4b ,0x94, 0x04 ,0x49 ,0xb1, 0x62 ,0xa6, 0xdb ,0x8e ,
   0x56, 0x91 ,0xd3 ,0x65 ,0x93, 0x4b ,0x94 ,0x04 ,0x49 ,0xb1 ,
   0x62 ,0xa6, 0xdb, 0x8e ,0x56 ,0x91, 0xd3, 0x65 ,0x93, 0x4b, 
   0x94 ,0x07, 0x49 ,0xb1 ,0x62, 0xa6 ,0xdb ,0x8e, 0x56, 0x91 ,
   0xd3, 0x65 ,0x93, 0x4b ,0x94 ,0x04, 0x49 ,0xb1, 0x00 ,0x00 ,
   0x00, 0x00 ,0x50, 0x00, 0x00, 0x00 ,0x00, 0x48 ,0x94, 0x04 ,
   0x4f ,0xb1 ,0x00 ,0x00 ,0x00, 0x00 ,0x50, 0x00 ,0x00, 0x00 ,
   0x00 ,0x48 ,0x94 ,0x07 ,0x40, 0xb1 ,0x24, 0x0c ,0x8f, 0xc7, 
   0x53 ,0x1e ,0x8f, 0xc7 ,0xe3 ,0x49, 0x14 ,0x00, 0x40 ,0xb1 ,
   0x24, 0x08 ,0x89, 0x44, 0x52, 0x12, 0x89, 0x44, 0x22, 0x49, 
   0x14, 0x00, 0x40, 0xb1, 0x24, 0x08, 0x89, 0x44, 0x52, 0x12, 
   0x89, 0x04, 0x22, 0x48, 0x14, 0x00, 0x40 ,0xb1 ,0x3c ,0x08 ,
   0x8c ,0xc7, 0x53, 0x18 ,0x89, 0xc7 ,0xe3, 0x49 ,0x14 ,0x00 ,
   0x00, 0x00 ,0x20 ,0x08, 0x84 ,0x04, 0x02 ,0x08 ,0x09, 0x44 ,
   0x00 ,0x01 ,0x00, 0x00 ,0x00 ,0x00 ,0x20 ,0x08 ,0x84 ,0x04, 
   0x02, 0x08 ,0x09 ,0x44, 0x22, 0x01 ,0x00, 0x00, 0x00 ,0x00, 
   0x20 ,0x1e ,0x84, 0x07 ,0x02 ,0x08, 0x0f, 0xc4 ,0xe3, 0x01 ,
   0x00, 0x00 ,};
/* the milk.com barcode generator; http://www.milk.com/barcode/ */
