#define milk_barcode_width 107
#define milk_barcode_height 68
static char milk_barcode_bits[] = {
   0x00 ,0x4e ,0x0a ,0x09 ,0x00 ,0x00, 0x00, 0x08 ,0x00, 0x80 ,
   0x00, 0x80 ,0x03 ,0x00 ,0x00, 0x52 ,0x0a ,0x09, 0x00 ,0x00, 
   0x00 ,0x08 ,0x00, 0x80 ,0x00 ,0x80 ,0x00, 0x00 ,0x00 ,0x52 ,
   0x0a ,0x09 ,0xa4 ,0xf7, 0xd2, 0x7b ,0xef ,0x81, 0xf7, 0xde ,
   0x03, 0x00, 0x00 ,0x4e, 0x0a ,0xe7 ,0x3d, 0x14 ,0x52 ,0x48, 
   0x28, 0x81 ,0x94, 0x92 ,0x00, 0x00 ,0x00 ,0x52, 0x0a ,0x09, 
   0xbc ,0x17 ,0x52, 0x48 ,0x2f, 0x81, 0xf4, 0x9e ,0x00, 0x00 ,
   0x00, 0x52 ,0x0a ,0x09 ,0xa4 ,0x14 ,0x52, 0x48 ,0x29, 0x81 ,
   0x14, 0x82 ,0x00 ,0x00 ,0x00 ,0xce ,0x7b, 0x09 ,0xa4, 0x17 ,
   0xde, 0x4b, 0x2f ,0xbd ,0xf7, 0x9e ,0x00 ,0x00, 0x00 ,0x00, 
   0x00 ,0x00 ,0x00, 0x00 ,0x00, 0x00, 0x00, 0x00, 0x00, 0x00, 
   0x00, 0x00, 0x40, 0xb1, 0x62, 0xa6, 0xdb, 0x8e, 0x56, 0x91, 
   0xd3, 0x65, 0xb3, 0x89, 0x14, 0x00, 0x40, 0xb1, 0x62 ,0xa6 ,
   0xdb ,0x8e ,0x56 ,0x91, 0xd3, 0x65 ,0xb3, 0x89 ,0x14, 0x00 ,
   0x40 ,0xb1 ,0x62, 0xa6 ,0xdb ,0x8e, 0x56 ,0x91, 0xd3 ,0x65 ,
   0xb3, 0x89 ,0x14 ,0x00 ,0x40, 0xb1 ,0x62 ,0xa6 ,0xdb ,0x8e ,
   0x56 ,0x91, 0xd3, 0x65 ,0xb3 ,0x89, 0x14, 0x00 ,0x40, 0xb1, 
   0x62 ,0xa6, 0xdb ,0x8e ,0x56, 0x91 ,0xd3 ,0x65, 0xb3, 0x89 ,
   0x14, 0x00 ,0x40, 0xb1 ,0x62 ,0xa6, 0xdb ,0x8e, 0x56 ,0x91 ,
   0xd3, 0x65 ,0xb3, 0x89, 0x14, 0x00 ,0x40, 0xb1 ,0x62, 0xa6 ,
   0xdb ,0x8e ,0x56 ,0x91 ,0xd3, 0x65 ,0xb3, 0x89 ,0x14, 0x00 ,
   0x40 ,0xb1 ,0x62 ,0xa6 ,0xdb, 0x8e ,0x56, 0x91 ,0xd3, 0x65, 
   0xb3 ,0x89 ,0x14, 0x00 ,0x40 ,0xb1, 0x62 ,0xa6, 0xdb ,0x8e ,
   0x56, 0x91 ,0xd3, 0x65, 0xb3, 0x89, 0x14, 0x00, 0x40, 0xb1, 
   0x62, 0xa6, 0xdb, 0x8e, 0x56, 0x91, 0xd3, 0x65, 0xb3, 0x89, 
   0x14, 0x00, 0x40, 0xb1, 0x62, 0xa6, 0xdb ,0x8e ,0x56 ,0x91 ,
   0xd3 ,0x65, 0xb3, 0x89 ,0x14, 0x00 ,0x40, 0xb1 ,0x62 ,0xa6 ,
   0xdb, 0x8e ,0x56 ,0x91, 0xd3 ,0x65, 0xb3 ,0x89 ,0x14, 0x00 ,
   0x40 ,0xb1 ,0x62, 0xa6 ,0xdb ,0x8e ,0x56 ,0x91 ,0xd3 ,0x65, 
   0xb3, 0x89 ,0x14 ,0x00, 0x40, 0xb1 ,0x62, 0xa6, 0xdb ,0x8e, 
   0x56 ,0x91 ,0xd3, 0x65 ,0xb3 ,0x89, 0x14, 0x00 ,0x40, 0xb1 ,
   0x62, 0xa6 ,0xdb ,0x8e, 0x56 ,0x91, 0xd3 ,0x65 ,0xb3, 0x89 ,
   0x14, 0x00, 0x40, 0xb1 ,0x62, 0xa6 ,0xdb, 0x8e ,0x56 ,0x91 ,
   0xd3 ,0x65 ,0xb3, 0x89 ,0x14, 0x00 ,0x40, 0xb1 ,0x62 ,0xa6 ,
   0xdb ,0x8e ,0x56, 0x91 ,0xd3, 0x65 ,0xb3, 0x89, 0x14 ,0x00 ,
   0x40, 0xb1 ,0x62 ,0xa6, 0xdb ,0x8e, 0x56 ,0x91 ,0xd3, 0x65 ,
   0xb3, 0x89, 0x14, 0x00, 0x40, 0xb1, 0x62, 0xa6, 0xdb, 0x8e, 
   0x56, 0x91, 0xd3, 0x65, 0xb3, 0x89, 0x14, 0x00, 0x40, 0xb1, 
   0x62, 0xa6, 0xdb, 0x8e, 0x56 ,0x91 ,0xd3 ,0x65 ,0xb3 ,0x89, 
   0x14, 0x00 ,0x40, 0xb1 ,0x62, 0xa6 ,0xdb ,0x8e ,0x56, 0x91 ,
   0xd3 ,0x65, 0xb3 ,0x89, 0x14 ,0x00 ,0x40, 0xb1 ,0x62 ,0xa6 ,
   0xdb, 0x8e ,0x56 ,0x91 ,0xd3 ,0x65 ,0xb3 ,0x89, 0x14, 0x00 ,
   0x40 ,0xb1, 0x62, 0xa6 ,0xdb, 0x8e, 0x56 ,0x91, 0xd3 ,0x65 ,
   0xb3, 0x89 ,0x14 ,0x00, 0x40, 0xb1 ,0x62, 0xa6 ,0xdb, 0x8e ,
   0x56 ,0x91, 0xd3 ,0x65, 0xb3 ,0x89 ,0x14, 0x00 ,0x40, 0xb1, 
   0x62, 0xa6 ,0xdb, 0x8e ,0x56, 0x91 ,0xd3 ,0x65 ,0xb3 ,0x89 ,
   0x14, 0x00 ,0x40, 0xb1 ,0x62, 0xa6 ,0xdb ,0x8e ,0x56 ,0x91 ,
   0xd3, 0x65 ,0xb3, 0x89 ,0x14, 0x00, 0x40 ,0xb1 ,0x62, 0xa6 ,
   0xdb ,0x8e, 0x56 ,0x91, 0xd3 ,0x65 ,0xb3, 0x89 ,0x14, 0x00, 
   0x40, 0xb1, 0x62, 0xa6, 0xdb, 0x8e, 0x56, 0x91, 0xd3, 0x65, 
   0xb3, 0x89, 0x14, 0x00, 0x40, 0xb1, 0x62, 0xa6, 0xdb, 0x8e, 
   0x56, 0x91, 0xd3 ,0x65 ,0xb3 ,0x89 ,0x14 ,0x00, 0x40, 0xb1 ,
   0x62, 0xa6 ,0xdb, 0x8e ,0x56 ,0x91 ,0xd3, 0x65 ,0xb3 ,0x89, 
   0x14 ,0x00, 0x40 ,0xb1 ,0x62, 0xa6 ,0xdb ,0x8e ,0x56, 0x91 ,
   0xd3 ,0x65 ,0xb3 ,0x89 ,0x14 ,0x00, 0x40, 0xb1 ,0x62 ,0xa6, 
   0xdb, 0x8e ,0x56, 0x91, 0xd3 ,0x65, 0xb3 ,0x89 ,0x14, 0x00 ,
   0x40 ,0xb1, 0x62, 0xa6 ,0xdb, 0x8e ,0x56, 0x91 ,0xd3 ,0x65, 
   0xb3 ,0x89, 0x14 ,0x00 ,0x40, 0xb1 ,0x62, 0xa6, 0xdb, 0x8e ,
   0x56, 0x91 ,0xd3, 0x65 ,0xb3 ,0x89 ,0x14 ,0x00 ,0x40, 0xb1 ,
   0x62, 0xa6 ,0xdb, 0x8e ,0x56 ,0x91 ,0xd3 ,0x65 ,0xb3, 0x89 ,
   0x14, 0x00 ,0x40, 0xb1, 0x62 ,0xa6 ,0xdb, 0x8e ,0x56 ,0x91, 
   0xd3 ,0x65, 0xb3 ,0x89 ,0x14, 0x00 ,0x40, 0xb1, 0x62, 0xa6, 
   0xdb, 0x8e, 0x56, 0x91, 0xd3, 0x65, 0xb3, 0x89, 0x14, 0x00, 
   0x40, 0xb1, 0x62, 0xa6, 0xdb, 0x8e, 0x56, 0x91, 0xd3, 0x65, 
   0xb3 ,0x89 ,0x14 ,0x00 ,0x40 ,0xb1, 0x62, 0xa6 ,0xdb, 0x8e ,
   0x56, 0x91 ,0xd3 ,0x65 ,0xb3, 0x89 ,0x14 ,0x00, 0x40 ,0xb1, 
   0x62 ,0xa6 ,0xdb, 0x8e ,0x56 ,0x91 ,0xd3, 0x65 ,0xb3 ,0x89 ,
   0x14 ,0x00 ,0x40 ,0xb1, 0x62, 0xa6 ,0xdb ,0x8e, 0x56, 0x91 ,
   0xd3, 0x65, 0xb3 ,0x89, 0x14 ,0x00 ,0x40, 0xb1 ,0x62 ,0xa6, 
   0xdb, 0x8e ,0x56, 0x91 ,0xd3, 0x65 ,0xb3 ,0x89, 0x14 ,0x00, 
   0x40 ,0xb1 ,0x62, 0xa6 ,0xdb, 0x8e, 0x56, 0x91 ,0xd3, 0x65 ,
   0xb3, 0x89 ,0x14 ,0x00 ,0x40 ,0xb1 ,0x62, 0xa6 ,0xdb, 0x8e ,
   0x56, 0x91 ,0xd3 ,0x65 ,0xb3 ,0x89 ,0x14, 0x00 ,0x40, 0xb1 ,
   0x62, 0xa6, 0xdb ,0x8e ,0x56, 0x91 ,0xd3 ,0x65, 0xb3 ,0x89, 
   0x14 ,0x00 ,0x40, 0xb1 ,0x62, 0xa6, 0xdb, 0x8e, 0x56, 0x91, 
   0xd3, 0x65, 0xb3, 0x89, 0x14, 0x00, 0x4f, 0xb1, 0x62, 0xa6, 
   0xdb, 0x8e, 0x56, 0x91, 0xd3, 0x65, 0xb3, 0x89, 0x94 ,0x07 ,
   0x49 ,0xb1 ,0x62 ,0xa6, 0xdb, 0x8e ,0x56, 0x91 ,0xd3, 0x65 ,
   0xb3 ,0x89 ,0x94, 0x04 ,0x49 ,0xb1, 0x62 ,0xa6, 0xdb ,0x8e ,
   0x56, 0x91 ,0xd3 ,0x65 ,0xb3, 0x89 ,0x94 ,0x04 ,0x49 ,0xb1 ,
   0x62 ,0xa6, 0xdb, 0x8e ,0x56 ,0x91, 0xd3, 0x65 ,0xb3, 0x89, 
   0x14 ,0x06, 0x49 ,0xb1 ,0x62, 0xa6 ,0xdb ,0x8e, 0x56, 0x91 ,
   0xd3, 0x65 ,0xb3, 0x89 ,0x14 ,0x02, 0x49 ,0xb1, 0x00 ,0x00 ,
   0x00, 0x00 ,0x50, 0x00, 0x00, 0x00 ,0x00, 0x88 ,0x14, 0x02 ,
   0x4f ,0xb1 ,0x00 ,0x00 ,0x00, 0x00 ,0x50, 0x00 ,0x00, 0x00 ,
   0x00 ,0x88 ,0x14 ,0x02 ,0x40, 0xb1 ,0x24, 0x0c ,0x8f, 0xc7, 
   0x53 ,0x1e ,0x8f, 0xc7 ,0xe3 ,0x89, 0x14 ,0x00, 0x40 ,0xb1 ,
   0x24, 0x08 ,0x89, 0x44, 0x52, 0x12, 0x89, 0x44, 0x22, 0x89, 
   0x14, 0x00, 0x40, 0xb1, 0x24, 0x08, 0x89, 0x44, 0x52, 0x12, 
   0x89, 0x04, 0x02, 0x89, 0x14, 0x00, 0x40 ,0xb1 ,0x3c ,0x08 ,
   0x8c ,0xc7, 0x53, 0x18 ,0x89, 0xc7 ,0xe3, 0x89 ,0x14 ,0x00 ,
   0x00, 0x00 ,0x20 ,0x08, 0x84 ,0x04, 0x02 ,0x08 ,0x09, 0x44 ,
   0x20 ,0x00 ,0x00, 0x00 ,0x00 ,0x00 ,0x20 ,0x08 ,0x84 ,0x04, 
   0x02, 0x08 ,0x09 ,0x44, 0x22, 0x01 ,0x00, 0x00, 0x00 ,0x00, 
   0x20 ,0x1e ,0x84, 0x07 ,0x02 ,0x08, 0x0f, 0xc4 ,0xe3, 0x01 ,
   0x00, 0x00 ,};
/* the milk.com barcode generator; http://www.milk.com/barcode/ */
