#define milk_barcode_width 107
#define milk_barcode_height 68
static char milk_barcode_bits[] = {
   0xc0 ,0x49 ,0x21 ,0x01 ,0x20 ,0x46, 0x00, 0x00 ,0x00, 0x00 ,
   0x86, 0x00 ,0x00 ,0x00 ,0x40, 0x4a ,0x21 ,0x01, 0x00 ,0x44, 
   0x00 ,0x00 ,0x00, 0x00 ,0x04 ,0x10 ,0x00, 0x00 ,0x40 ,0x4a ,
   0x21 ,0x81 ,0x34 ,0x44, 0x4a, 0x20 ,0xbd ,0x04, 0xc4, 0x78 ,
   0x0f, 0x00, 0xc0 ,0x49, 0xe1 ,0xbc ,0x27, 0x44 ,0x49 ,0x20, 
   0xa1, 0x04 ,0x84, 0x10 ,0x09, 0x00 ,0x40 ,0x4a, 0x21 ,0x81, 
   0x27 ,0xc4 ,0x48, 0xe0 ,0xbd, 0x04, 0x84, 0x10 ,0x0f, 0x00 ,
   0x40, 0x4a ,0x21 ,0x81 ,0x24 ,0x44 ,0x79, 0xe0 ,0xa5, 0x07 ,
   0x84, 0x10 ,0x01 ,0x00 ,0xc0 ,0x79 ,0x2f, 0x81 ,0x74, 0x4e ,
   0x42, 0x2f, 0x3d ,0xf4 ,0xce, 0x71 ,0x0f ,0x00, 0x00 ,0x00, 
   0x00 ,0x00 ,0x00, 0x00 ,0x60, 0x00, 0x00, 0x06, 0x00, 0x00, 
   0x00, 0x00, 0x40, 0xb1, 0x62, 0x2c, 0x16, 0x8b, 0x55, 0x9d, 
   0xd9, 0x6c, 0x36, 0x2b, 0x14, 0x00, 0x40, 0xb1, 0x62 ,0x2c ,
   0x16 ,0x8b ,0x55 ,0x9d, 0xd9, 0x6c ,0x36, 0x2b ,0x14, 0x00 ,
   0x40 ,0xb1 ,0x62, 0x2c ,0x16 ,0x8b, 0x55 ,0x9d, 0xd9 ,0x6c ,
   0x36, 0x2b ,0x14 ,0x00 ,0x40, 0xb1 ,0x62 ,0x2c ,0x16 ,0x8b ,
   0x55 ,0x9d, 0xd9, 0x6c ,0x36 ,0x2b, 0x14, 0x00 ,0x40, 0xb1, 
   0x62 ,0x2c, 0x16 ,0x8b ,0x55, 0x9d ,0xd9 ,0x6c, 0x36, 0x2b ,
   0x14, 0x00 ,0x40, 0xb1 ,0x62 ,0x2c, 0x16 ,0x8b, 0x55 ,0x9d ,
   0xd9, 0x6c ,0x36, 0x2b, 0x14, 0x00 ,0x40, 0xb1 ,0x62, 0x2c ,
   0x16 ,0x8b ,0x55 ,0x9d ,0xd9, 0x6c ,0x36, 0x2b ,0x14, 0x00 ,
   0x40 ,0xb1 ,0x62 ,0x2c ,0x16, 0x8b ,0x55, 0x9d ,0xd9, 0x6c, 
   0x36 ,0x2b ,0x14, 0x00 ,0x40 ,0xb1, 0x62 ,0x2c, 0x16 ,0x8b ,
   0x55, 0x9d ,0xd9, 0x6c, 0x36, 0x2b, 0x14, 0x00, 0x40, 0xb1, 
   0x62, 0x2c, 0x16, 0x8b, 0x55, 0x9d, 0xd9, 0x6c, 0x36, 0x2b, 
   0x14, 0x00, 0x40, 0xb1, 0x62, 0x2c, 0x16 ,0x8b ,0x55 ,0x9d ,
   0xd9 ,0x6c, 0x36, 0x2b ,0x14, 0x00 ,0x40, 0xb1 ,0x62 ,0x2c ,
   0x16, 0x8b ,0x55 ,0x9d, 0xd9 ,0x6c, 0x36 ,0x2b ,0x14, 0x00 ,
   0x40 ,0xb1 ,0x62, 0x2c ,0x16 ,0x8b ,0x55 ,0x9d ,0xd9 ,0x6c, 
   0x36, 0x2b ,0x14 ,0x00, 0x40, 0xb1 ,0x62, 0x2c, 0x16 ,0x8b, 
   0x55 ,0x9d ,0xd9, 0x6c ,0x36 ,0x2b, 0x14, 0x00 ,0x40, 0xb1 ,
   0x62, 0x2c ,0x16 ,0x8b, 0x55 ,0x9d, 0xd9 ,0x6c ,0x36, 0x2b ,
   0x14, 0x00, 0x40, 0xb1 ,0x62, 0x2c ,0x16, 0x8b ,0x55 ,0x9d ,
   0xd9 ,0x6c ,0x36, 0x2b ,0x14, 0x00 ,0x40, 0xb1 ,0x62 ,0x2c ,
   0x16 ,0x8b ,0x55, 0x9d ,0xd9, 0x6c ,0x36, 0x2b, 0x14 ,0x00 ,
   0x40, 0xb1 ,0x62 ,0x2c, 0x16 ,0x8b, 0x55 ,0x9d ,0xd9, 0x6c ,
   0x36, 0x2b, 0x14, 0x00, 0x40, 0xb1, 0x62, 0x2c, 0x16, 0x8b, 
   0x55, 0x9d, 0xd9, 0x6c, 0x36, 0x2b, 0x14, 0x00, 0x40, 0xb1, 
   0x62, 0x2c, 0x16, 0x8b, 0x55 ,0x9d ,0xd9 ,0x6c ,0x36 ,0x2b, 
   0x14, 0x00 ,0x40, 0xb1 ,0x62, 0x2c ,0x16 ,0x8b ,0x55, 0x9d ,
   0xd9 ,0x6c, 0x36 ,0x2b, 0x14 ,0x00 ,0x40, 0xb1 ,0x62 ,0x2c ,
   0x16, 0x8b ,0x55 ,0x9d ,0xd9 ,0x6c ,0x36 ,0x2b, 0x14, 0x00 ,
   0x40 ,0xb1, 0x62, 0x2c ,0x16, 0x8b, 0x55 ,0x9d, 0xd9 ,0x6c ,
   0x36, 0x2b ,0x14 ,0x00, 0x40, 0xb1 ,0x62, 0x2c ,0x16, 0x8b ,
   0x55 ,0x9d, 0xd9 ,0x6c, 0x36 ,0x2b ,0x14, 0x00 ,0x40, 0xb1, 
   0x62, 0x2c ,0x16, 0x8b ,0x55, 0x9d ,0xd9 ,0x6c ,0x36 ,0x2b ,
   0x14, 0x00 ,0x40, 0xb1 ,0x62, 0x2c ,0x16 ,0x8b ,0x55 ,0x9d ,
   0xd9, 0x6c ,0x36, 0x2b ,0x14, 0x00, 0x40 ,0xb1 ,0x62, 0x2c ,
   0x16 ,0x8b, 0x55 ,0x9d, 0xd9 ,0x6c ,0x36, 0x2b ,0x14, 0x00, 
   0x40, 0xb1, 0x62, 0x2c, 0x16, 0x8b, 0x55, 0x9d, 0xd9, 0x6c, 
   0x36, 0x2b, 0x14, 0x00, 0x40, 0xb1, 0x62, 0x2c, 0x16, 0x8b, 
   0x55, 0x9d, 0xd9 ,0x6c ,0x36 ,0x2b ,0x14 ,0x00, 0x40, 0xb1 ,
   0x62, 0x2c ,0x16, 0x8b ,0x55 ,0x9d ,0xd9, 0x6c ,0x36 ,0x2b, 
   0x14 ,0x00, 0x40 ,0xb1 ,0x62, 0x2c ,0x16 ,0x8b ,0x55, 0x9d ,
   0xd9 ,0x6c ,0x36 ,0x2b ,0x14 ,0x00, 0x40, 0xb1 ,0x62 ,0x2c, 
   0x16, 0x8b ,0x55, 0x9d, 0xd9 ,0x6c, 0x36 ,0x2b ,0x14, 0x00 ,
   0x40 ,0xb1, 0x62, 0x2c ,0x16, 0x8b ,0x55, 0x9d ,0xd9 ,0x6c, 
   0x36 ,0x2b, 0x14 ,0x00 ,0x40, 0xb1 ,0x62, 0x2c, 0x16, 0x8b ,
   0x55, 0x9d ,0xd9, 0x6c ,0x36 ,0x2b ,0x14 ,0x00 ,0x40, 0xb1 ,
   0x62, 0x2c ,0x16, 0x8b ,0x55 ,0x9d ,0xd9 ,0x6c ,0x36, 0x2b ,
   0x14, 0x00 ,0x40, 0xb1, 0x62 ,0x2c ,0x16, 0x8b ,0x55 ,0x9d, 
   0xd9 ,0x6c, 0x36 ,0x2b ,0x14, 0x00 ,0x40, 0xb1, 0x62, 0x2c, 
   0x16, 0x8b, 0x55, 0x9d, 0xd9, 0x6c, 0x36, 0x2b, 0x14, 0x00, 
   0x40, 0xb1, 0x62, 0x2c, 0x16, 0x8b, 0x55, 0x9d, 0xd9, 0x6c, 
   0x36 ,0x2b ,0x14 ,0x00 ,0x40 ,0xb1, 0x62, 0x2c ,0x16, 0x8b ,
   0x55, 0x9d ,0xd9 ,0x6c ,0x36, 0x2b ,0x14 ,0x00, 0x40 ,0xb1, 
   0x62 ,0x2c ,0x16, 0x8b ,0x55 ,0x9d ,0xd9, 0x6c ,0x36 ,0x2b ,
   0x14 ,0x00 ,0x40 ,0xb1, 0x62, 0x2c ,0x16 ,0x8b, 0x55, 0x9d ,
   0xd9, 0x6c, 0x36 ,0x2b, 0x14 ,0x00 ,0x40, 0xb1 ,0x62 ,0x2c, 
   0x16, 0x8b ,0x55, 0x9d ,0xd9, 0x6c ,0x36 ,0x2b, 0x14 ,0x00, 
   0x40 ,0xb1 ,0x62, 0x2c ,0x16, 0x8b, 0x55, 0x9d ,0xd9, 0x6c ,
   0x36, 0x2b ,0x14 ,0x00 ,0x40 ,0xb1 ,0x62, 0x2c ,0x16, 0x8b ,
   0x55, 0x9d ,0xd9 ,0x6c ,0x36 ,0x2b ,0x14, 0x00 ,0x40, 0xb1 ,
   0x62, 0x2c, 0x16 ,0x8b ,0x55, 0x9d ,0xd9 ,0x6c, 0x36 ,0x2b, 
   0x14 ,0x00 ,0x40, 0xb1 ,0x62, 0x2c, 0x16, 0x8b, 0x55, 0x9d, 
   0xd9, 0x6c, 0x36, 0x2b, 0x14, 0x00, 0x4f, 0xb1, 0x62, 0x2c, 
   0x16, 0x8b, 0x55, 0x9d, 0xd9, 0x6c, 0x36, 0x2b, 0x94 ,0x01 ,
   0x49 ,0xb1 ,0x62 ,0x2c, 0x16, 0x8b ,0x55, 0x9d ,0xd9, 0x6c ,
   0x36 ,0x2b ,0x94, 0x00 ,0x49 ,0xb1, 0x62 ,0x2c, 0x16 ,0x8b ,
   0x55, 0x9d ,0xd9 ,0x6c ,0x36, 0x2b ,0x94 ,0x00 ,0x49 ,0xb1 ,
   0x62 ,0x2c, 0x16, 0x8b ,0x55 ,0x9d, 0xd9, 0x6c ,0x36, 0x2b, 
   0x94 ,0x07, 0x49 ,0xb1 ,0x62, 0x2c ,0x16 ,0x8b, 0x55, 0x9d ,
   0xd9, 0x6c ,0x36, 0x2b ,0x94 ,0x04, 0x49 ,0xb1, 0x00 ,0x00 ,
   0x00, 0x00 ,0x50, 0x00, 0x00, 0x00 ,0x00, 0x28 ,0x94, 0x04 ,
   0x4f ,0xb1 ,0x00 ,0x00 ,0x00, 0x00 ,0x50, 0x00 ,0x00, 0x00 ,
   0x00 ,0x28 ,0x94 ,0x07 ,0x40, 0xb1 ,0x24, 0x1e ,0x8f, 0xc7, 
   0x53 ,0x12 ,0x06, 0x83 ,0xc1 ,0x28, 0x14 ,0x00, 0x40 ,0xb1 ,
   0x24, 0x12 ,0x89, 0x44, 0x52, 0x12, 0x04, 0x02, 0x81, 0x28, 
   0x14, 0x00, 0x40, 0xb1, 0x24, 0x12, 0x89, 0x44, 0x52, 0x12, 
   0x04, 0x02, 0x81, 0x28, 0x14, 0x00, 0x40 ,0xb1 ,0x3c ,0x12 ,
   0x89 ,0x44, 0x52, 0x1e ,0x04, 0x02 ,0x81, 0x28 ,0x14 ,0x00 ,
   0x00, 0x00 ,0x20 ,0x12, 0x89 ,0x44, 0x02 ,0x10 ,0x04, 0x02 ,
   0x81 ,0x00 ,0x00, 0x00 ,0x00 ,0x00 ,0x20 ,0x12 ,0x89 ,0x44, 
   0x02, 0x10 ,0x04 ,0x02, 0x81, 0x00 ,0x00, 0x00, 0x00 ,0x00, 
   0x20 ,0x1e ,0x8f, 0xc7 ,0x03 ,0x10, 0x8f, 0xc7 ,0xe3, 0x01 ,
   0x00, 0x00 ,};
/* the milk.com barcode generator; http://www.milk.com/barcode/ */
