#define milk_barcode_width 107
#define milk_barcode_height 68
static char milk_barcode_bits[] = {
   0x90 ,0x00 ,0x00 ,0x00 ,0x00 ,0x00, 0x00, 0x18 ,0x03, 0x00 ,
   0x00, 0x00 ,0x00 ,0x00 ,0x90, 0x00 ,0x00 ,0x02, 0x00 ,0x00, 
   0x00 ,0x10 ,0x02, 0x00 ,0x00 ,0x00 ,0x00, 0x00 ,0x90 ,0xc0 ,
   0x7b ,0x2f ,0xbd ,0x07, 0xd2, 0x13 ,0xe2 ,0x25, 0xf0, 0xde ,
   0x7b, 0x07, 0x70 ,0x5e, 0x42 ,0x22 ,0x85, 0x04 ,0x12 ,0x12, 
   0x22, 0x25 ,0x90, 0x02 ,0x4a, 0x01 ,0x90 ,0x40, 0x7a ,0x22, 
   0x85 ,0x07 ,0xd2, 0x13 ,0xe2, 0x25, 0x90, 0xc2 ,0x4b, 0x01 ,
   0x90, 0x40 ,0x4a ,0x22 ,0x85 ,0x00 ,0x4a, 0x12 ,0x22, 0x3c ,
   0xf0, 0x42 ,0x4a ,0x01 ,0x97 ,0x40 ,0x7a, 0xee ,0x85, 0xf7 ,
   0xc4, 0x3b, 0xe7 ,0xa1 ,0x87, 0xc2 ,0x4b ,0x07, 0x00 ,0x00, 
   0x00 ,0x00 ,0x00, 0x00 ,0x00, 0x00, 0x00, 0x30, 0xc0, 0x00, 
   0x00, 0x00, 0x40, 0xb1, 0x4c, 0x3d, 0x16, 0x8b, 0x55, 0x9d, 
   0x48, 0x21, 0x77, 0xba, 0x14, 0x00, 0x40, 0xb1, 0x4c ,0x3d ,
   0x16 ,0x8b ,0x55 ,0x9d, 0x48, 0x21 ,0x77, 0xba ,0x14, 0x00 ,
   0x40 ,0xb1 ,0x4c, 0x3d ,0x16 ,0x8b, 0x55 ,0x9d, 0x48 ,0x21 ,
   0x77, 0xba ,0x14 ,0x00 ,0x40, 0xb1 ,0x4c ,0x3d ,0x16 ,0x8b ,
   0x55 ,0x9d, 0x48, 0x21 ,0x77 ,0xba, 0x14, 0x00 ,0x40, 0xb1, 
   0x4c ,0x3d, 0x16 ,0x8b ,0x55, 0x9d ,0x48 ,0x21, 0x77, 0xba ,
   0x14, 0x00 ,0x40, 0xb1 ,0x4c ,0x3d, 0x16 ,0x8b, 0x55 ,0x9d ,
   0x48, 0x21 ,0x77, 0xba, 0x14, 0x00 ,0x40, 0xb1 ,0x4c, 0x3d ,
   0x16 ,0x8b ,0x55 ,0x9d ,0x48, 0x21 ,0x77, 0xba ,0x14, 0x00 ,
   0x40 ,0xb1 ,0x4c ,0x3d ,0x16, 0x8b ,0x55, 0x9d ,0x48, 0x21, 
   0x77 ,0xba ,0x14, 0x00 ,0x40 ,0xb1, 0x4c ,0x3d, 0x16 ,0x8b ,
   0x55, 0x9d ,0x48, 0x21, 0x77, 0xba, 0x14, 0x00, 0x40, 0xb1, 
   0x4c, 0x3d, 0x16, 0x8b, 0x55, 0x9d, 0x48, 0x21, 0x77, 0xba, 
   0x14, 0x00, 0x40, 0xb1, 0x4c, 0x3d, 0x16 ,0x8b ,0x55 ,0x9d ,
   0x48 ,0x21, 0x77, 0xba ,0x14, 0x00 ,0x40, 0xb1 ,0x4c ,0x3d ,
   0x16, 0x8b ,0x55 ,0x9d, 0x48 ,0x21, 0x77 ,0xba ,0x14, 0x00 ,
   0x40 ,0xb1 ,0x4c, 0x3d ,0x16 ,0x8b ,0x55 ,0x9d ,0x48 ,0x21, 
   0x77, 0xba ,0x14 ,0x00, 0x40, 0xb1 ,0x4c, 0x3d, 0x16 ,0x8b, 
   0x55 ,0x9d ,0x48, 0x21 ,0x77 ,0xba, 0x14, 0x00 ,0x40, 0xb1 ,
   0x4c, 0x3d ,0x16 ,0x8b, 0x55 ,0x9d, 0x48 ,0x21 ,0x77, 0xba ,
   0x14, 0x00, 0x40, 0xb1 ,0x4c, 0x3d ,0x16, 0x8b ,0x55 ,0x9d ,
   0x48 ,0x21 ,0x77, 0xba ,0x14, 0x00 ,0x40, 0xb1 ,0x4c ,0x3d ,
   0x16 ,0x8b ,0x55, 0x9d ,0x48, 0x21 ,0x77, 0xba, 0x14 ,0x00 ,
   0x40, 0xb1 ,0x4c ,0x3d, 0x16 ,0x8b, 0x55 ,0x9d ,0x48, 0x21 ,
   0x77, 0xba, 0x14, 0x00, 0x40, 0xb1, 0x4c, 0x3d, 0x16, 0x8b, 
   0x55, 0x9d, 0x48, 0x21, 0x77, 0xba, 0x14, 0x00, 0x40, 0xb1, 
   0x4c, 0x3d, 0x16, 0x8b, 0x55 ,0x9d ,0x48 ,0x21 ,0x77 ,0xba, 
   0x14, 0x00 ,0x40, 0xb1 ,0x4c, 0x3d ,0x16 ,0x8b ,0x55, 0x9d ,
   0x48 ,0x21, 0x77 ,0xba, 0x14 ,0x00 ,0x40, 0xb1 ,0x4c ,0x3d ,
   0x16, 0x8b ,0x55 ,0x9d ,0x48 ,0x21 ,0x77 ,0xba, 0x14, 0x00 ,
   0x40 ,0xb1, 0x4c, 0x3d ,0x16, 0x8b, 0x55 ,0x9d, 0x48 ,0x21 ,
   0x77, 0xba ,0x14 ,0x00, 0x40, 0xb1 ,0x4c, 0x3d ,0x16, 0x8b ,
   0x55 ,0x9d, 0x48 ,0x21, 0x77 ,0xba ,0x14, 0x00 ,0x40, 0xb1, 
   0x4c, 0x3d ,0x16, 0x8b ,0x55, 0x9d ,0x48 ,0x21 ,0x77 ,0xba ,
   0x14, 0x00 ,0x40, 0xb1 ,0x4c, 0x3d ,0x16 ,0x8b ,0x55 ,0x9d ,
   0x48, 0x21 ,0x77, 0xba ,0x14, 0x00, 0x40 ,0xb1 ,0x4c, 0x3d ,
   0x16 ,0x8b, 0x55 ,0x9d, 0x48 ,0x21 ,0x77, 0xba ,0x14, 0x00, 
   0x40, 0xb1, 0x4c, 0x3d, 0x16, 0x8b, 0x55, 0x9d, 0x48, 0x21, 
   0x77, 0xba, 0x14, 0x00, 0x40, 0xb1, 0x4c, 0x3d, 0x16, 0x8b, 
   0x55, 0x9d, 0x48 ,0x21 ,0x77 ,0xba ,0x14 ,0x00, 0x40, 0xb1 ,
   0x4c, 0x3d ,0x16, 0x8b ,0x55 ,0x9d ,0x48, 0x21 ,0x77 ,0xba, 
   0x14 ,0x00, 0x40 ,0xb1 ,0x4c, 0x3d ,0x16 ,0x8b ,0x55, 0x9d ,
   0x48 ,0x21 ,0x77 ,0xba ,0x14 ,0x00, 0x40, 0xb1 ,0x4c ,0x3d, 
   0x16, 0x8b ,0x55, 0x9d, 0x48 ,0x21, 0x77 ,0xba ,0x14, 0x00 ,
   0x40 ,0xb1, 0x4c, 0x3d ,0x16, 0x8b ,0x55, 0x9d ,0x48 ,0x21, 
   0x77 ,0xba, 0x14 ,0x00 ,0x40, 0xb1 ,0x4c, 0x3d, 0x16, 0x8b ,
   0x55, 0x9d ,0x48, 0x21 ,0x77 ,0xba ,0x14 ,0x00 ,0x40, 0xb1 ,
   0x4c, 0x3d ,0x16, 0x8b ,0x55 ,0x9d ,0x48 ,0x21 ,0x77, 0xba ,
   0x14, 0x00 ,0x40, 0xb1, 0x4c ,0x3d ,0x16, 0x8b ,0x55 ,0x9d, 
   0x48 ,0x21, 0x77 ,0xba ,0x14, 0x00 ,0x40, 0xb1, 0x4c, 0x3d, 
   0x16, 0x8b, 0x55, 0x9d, 0x48, 0x21, 0x77, 0xba, 0x14, 0x00, 
   0x40, 0xb1, 0x4c, 0x3d, 0x16, 0x8b, 0x55, 0x9d, 0x48, 0x21, 
   0x77 ,0xba ,0x14 ,0x00 ,0x40 ,0xb1, 0x4c, 0x3d ,0x16, 0x8b ,
   0x55, 0x9d ,0x48 ,0x21 ,0x77, 0xba ,0x14 ,0x00, 0x40 ,0xb1, 
   0x4c ,0x3d ,0x16, 0x8b ,0x55 ,0x9d ,0x48, 0x21 ,0x77 ,0xba ,
   0x14 ,0x00 ,0x40 ,0xb1, 0x4c, 0x3d ,0x16 ,0x8b, 0x55, 0x9d ,
   0x48, 0x21, 0x77 ,0xba, 0x14 ,0x00 ,0x40, 0xb1 ,0x4c ,0x3d, 
   0x16, 0x8b ,0x55, 0x9d ,0x48, 0x21 ,0x77 ,0xba, 0x14 ,0x00, 
   0x40 ,0xb1 ,0x4c, 0x3d ,0x16, 0x8b, 0x55, 0x9d ,0x48, 0x21 ,
   0x77, 0xba ,0x14 ,0x00 ,0x40 ,0xb1 ,0x4c, 0x3d ,0x16, 0x8b ,
   0x55, 0x9d ,0x48 ,0x21 ,0x77 ,0xba ,0x14, 0x00 ,0x40, 0xb1 ,
   0x4c, 0x3d, 0x16 ,0x8b ,0x55, 0x9d ,0x48 ,0x21, 0x77 ,0xba, 
   0x14 ,0x00 ,0x40, 0xb1 ,0x4c, 0x3d, 0x16, 0x8b, 0x55, 0x9d, 
   0x48, 0x21, 0x77, 0xba, 0x14, 0x00, 0x4f, 0xb1, 0x4c, 0x3d, 
   0x16, 0x8b, 0x55, 0x9d, 0x48, 0x21, 0x77, 0xba, 0x94 ,0x07 ,
   0x49 ,0xb1 ,0x4c ,0x3d, 0x16, 0x8b ,0x55, 0x9d ,0x48, 0x21 ,
   0x77 ,0xba ,0x94, 0x04 ,0x49 ,0xb1, 0x4c ,0x3d, 0x16 ,0x8b ,
   0x55, 0x9d ,0x48 ,0x21 ,0x77, 0xba ,0x94 ,0x04 ,0x49 ,0xb1 ,
   0x4c ,0x3d, 0x16, 0x8b ,0x55 ,0x9d, 0x48, 0x21 ,0x77, 0xba, 
   0x94 ,0x07, 0x49 ,0xb1 ,0x4c, 0x3d ,0x16 ,0x8b, 0x55, 0x9d ,
   0x48, 0x21 ,0x77, 0xba ,0x14 ,0x04, 0x49 ,0xb1, 0x00 ,0x00 ,
   0x00, 0x00 ,0x50, 0x00, 0x00, 0x00 ,0x00, 0xb8 ,0x14, 0x04 ,
   0x4f ,0xb1 ,0x00 ,0x00 ,0x00, 0x00 ,0x50, 0x00 ,0x00, 0x00 ,
   0x00 ,0xb8 ,0x14 ,0x04 ,0x40, 0xb1 ,0x18, 0x06 ,0x8f, 0xc7, 
   0x53 ,0x12 ,0x8f, 0xc1 ,0xe3 ,0xb9, 0x14 ,0x00, 0x40 ,0xb1 ,
   0x10, 0x02 ,0x89, 0x44, 0x52, 0x12, 0x89, 0x40, 0x22, 0xb9, 
   0x14, 0x00, 0x40, 0xb1, 0x10, 0x02, 0x89, 0x44, 0x52, 0x12, 
   0x89, 0x40, 0x20, 0xb9, 0x14, 0x00, 0x40 ,0xb1 ,0x10 ,0x1e ,
   0x89 ,0x44, 0x52, 0x1e ,0x8c, 0xc7 ,0x23, 0xb9 ,0x14 ,0x00 ,
   0x00, 0x00 ,0x10 ,0x12, 0x89 ,0x44, 0x02 ,0x10 ,0x84, 0x04 ,
   0x22 ,0x01 ,0x00, 0x00 ,0x00 ,0x00 ,0x10 ,0x12 ,0x89 ,0x44, 
   0x02, 0x10 ,0x84 ,0x44, 0x22, 0x01 ,0x00, 0x00, 0x00 ,0x00, 
   0x3c ,0x1e ,0x8f, 0xc7 ,0x03 ,0x10, 0x84, 0xc7 ,0xe3, 0x01 ,
   0x00, 0x00 ,};
/* the milk.com barcode generator; http://www.milk.com/barcode/ */
