#define milk_barcode_width 107
#define milk_barcode_height 68
static char milk_barcode_bits[] = {
   0xc0 ,0x49 ,0x21 ,0x01 ,0x00 ,0x00, 0x18, 0x00 ,0x00, 0x00 ,
   0x00, 0x00 ,0x01 ,0x00 ,0x40, 0x4a ,0x21 ,0x01, 0x00 ,0x80, 
   0x10 ,0x00 ,0x00, 0x00 ,0x00 ,0x00 ,0x01, 0x00 ,0x40 ,0x4a ,
   0x21 ,0x81 ,0xf7 ,0xde, 0x13, 0xef ,0x81 ,0xf7, 0xd2, 0x7b ,
   0x0f, 0x00, 0xc0 ,0x49, 0xe1 ,0xbc ,0x94, 0x82 ,0x10 ,0x29, 
   0x80, 0x10 ,0x52, 0x0a ,0x09, 0x00 ,0x40 ,0x4a, 0x21 ,0x81, 
   0xf4 ,0x9e ,0x10, 0xef ,0x81, 0x10, 0x52, 0x0a ,0x09, 0x00 ,
   0x40, 0x4a ,0x21 ,0x81 ,0x14 ,0x90 ,0x10, 0x01 ,0x81, 0x10 ,
   0x52, 0x0a ,0x09 ,0x00 ,0xc0 ,0x79 ,0x2f, 0x81 ,0xf4, 0x9e ,
   0x3b, 0xef, 0xbd ,0x17 ,0x5e, 0x7a ,0x09 ,0x00, 0x00 ,0x00, 
   0x00 ,0x00 ,0x00, 0x00 ,0x00, 0x00, 0x00, 0x00, 0x00, 0x00, 
   0x00, 0x00, 0x40, 0xb1, 0x64, 0x3b, 0x16, 0x8b, 0x55, 0xb3, 
   0xd0, 0x2c, 0x72, 0x99, 0x15, 0x00, 0x40, 0xb1, 0x64 ,0x3b ,
   0x16 ,0x8b ,0x55 ,0xb3, 0xd0, 0x2c ,0x72, 0x99 ,0x15, 0x00 ,
   0x40 ,0xb1 ,0x64, 0x3b ,0x16 ,0x8b, 0x55 ,0xb3, 0xd0 ,0x2c ,
   0x72, 0x99 ,0x15 ,0x00 ,0x40, 0xb1 ,0x64 ,0x3b ,0x16 ,0x8b ,
   0x55 ,0xb3, 0xd0, 0x2c ,0x72 ,0x99, 0x15, 0x00 ,0x40, 0xb1, 
   0x64 ,0x3b, 0x16 ,0x8b ,0x55, 0xb3 ,0xd0 ,0x2c, 0x72, 0x99 ,
   0x15, 0x00 ,0x40, 0xb1 ,0x64 ,0x3b, 0x16 ,0x8b, 0x55 ,0xb3 ,
   0xd0, 0x2c ,0x72, 0x99, 0x15, 0x00 ,0x40, 0xb1 ,0x64, 0x3b ,
   0x16 ,0x8b ,0x55 ,0xb3 ,0xd0, 0x2c ,0x72, 0x99 ,0x15, 0x00 ,
   0x40 ,0xb1 ,0x64 ,0x3b ,0x16, 0x8b ,0x55, 0xb3 ,0xd0, 0x2c, 
   0x72 ,0x99 ,0x15, 0x00 ,0x40 ,0xb1, 0x64 ,0x3b, 0x16 ,0x8b ,
   0x55, 0xb3 ,0xd0, 0x2c, 0x72, 0x99, 0x15, 0x00, 0x40, 0xb1, 
   0x64, 0x3b, 0x16, 0x8b, 0x55, 0xb3, 0xd0, 0x2c, 0x72, 0x99, 
   0x15, 0x00, 0x40, 0xb1, 0x64, 0x3b, 0x16 ,0x8b ,0x55 ,0xb3 ,
   0xd0 ,0x2c, 0x72, 0x99 ,0x15, 0x00 ,0x40, 0xb1 ,0x64 ,0x3b ,
   0x16, 0x8b ,0x55 ,0xb3, 0xd0 ,0x2c, 0x72 ,0x99 ,0x15, 0x00 ,
   0x40 ,0xb1 ,0x64, 0x3b ,0x16 ,0x8b ,0x55 ,0xb3 ,0xd0 ,0x2c, 
   0x72, 0x99 ,0x15 ,0x00, 0x40, 0xb1 ,0x64, 0x3b, 0x16 ,0x8b, 
   0x55 ,0xb3 ,0xd0, 0x2c ,0x72 ,0x99, 0x15, 0x00 ,0x40, 0xb1 ,
   0x64, 0x3b ,0x16 ,0x8b, 0x55 ,0xb3, 0xd0 ,0x2c ,0x72, 0x99 ,
   0x15, 0x00, 0x40, 0xb1 ,0x64, 0x3b ,0x16, 0x8b ,0x55 ,0xb3 ,
   0xd0 ,0x2c ,0x72, 0x99 ,0x15, 0x00 ,0x40, 0xb1 ,0x64 ,0x3b ,
   0x16 ,0x8b ,0x55, 0xb3 ,0xd0, 0x2c ,0x72, 0x99, 0x15 ,0x00 ,
   0x40, 0xb1 ,0x64 ,0x3b, 0x16 ,0x8b, 0x55 ,0xb3 ,0xd0, 0x2c ,
   0x72, 0x99, 0x15, 0x00, 0x40, 0xb1, 0x64, 0x3b, 0x16, 0x8b, 
   0x55, 0xb3, 0xd0, 0x2c, 0x72, 0x99, 0x15, 0x00, 0x40, 0xb1, 
   0x64, 0x3b, 0x16, 0x8b, 0x55 ,0xb3 ,0xd0 ,0x2c ,0x72 ,0x99, 
   0x15, 0x00 ,0x40, 0xb1 ,0x64, 0x3b ,0x16 ,0x8b ,0x55, 0xb3 ,
   0xd0 ,0x2c, 0x72 ,0x99, 0x15 ,0x00 ,0x40, 0xb1 ,0x64 ,0x3b ,
   0x16, 0x8b ,0x55 ,0xb3 ,0xd0 ,0x2c ,0x72 ,0x99, 0x15, 0x00 ,
   0x40 ,0xb1, 0x64, 0x3b ,0x16, 0x8b, 0x55 ,0xb3, 0xd0 ,0x2c ,
   0x72, 0x99 ,0x15 ,0x00, 0x40, 0xb1 ,0x64, 0x3b ,0x16, 0x8b ,
   0x55 ,0xb3, 0xd0 ,0x2c, 0x72 ,0x99 ,0x15, 0x00 ,0x40, 0xb1, 
   0x64, 0x3b ,0x16, 0x8b ,0x55, 0xb3 ,0xd0 ,0x2c ,0x72 ,0x99 ,
   0x15, 0x00 ,0x40, 0xb1 ,0x64, 0x3b ,0x16 ,0x8b ,0x55 ,0xb3 ,
   0xd0, 0x2c ,0x72, 0x99 ,0x15, 0x00, 0x40 ,0xb1 ,0x64, 0x3b ,
   0x16 ,0x8b, 0x55 ,0xb3, 0xd0 ,0x2c ,0x72, 0x99 ,0x15, 0x00, 
   0x40, 0xb1, 0x64, 0x3b, 0x16, 0x8b, 0x55, 0xb3, 0xd0, 0x2c, 
   0x72, 0x99, 0x15, 0x00, 0x40, 0xb1, 0x64, 0x3b, 0x16, 0x8b, 
   0x55, 0xb3, 0xd0 ,0x2c ,0x72 ,0x99 ,0x15 ,0x00, 0x40, 0xb1 ,
   0x64, 0x3b ,0x16, 0x8b ,0x55 ,0xb3 ,0xd0, 0x2c ,0x72 ,0x99, 
   0x15 ,0x00, 0x40 ,0xb1 ,0x64, 0x3b ,0x16 ,0x8b ,0x55, 0xb3 ,
   0xd0 ,0x2c ,0x72 ,0x99 ,0x15 ,0x00, 0x40, 0xb1 ,0x64 ,0x3b, 
   0x16, 0x8b ,0x55, 0xb3, 0xd0 ,0x2c, 0x72 ,0x99 ,0x15, 0x00 ,
   0x40 ,0xb1, 0x64, 0x3b ,0x16, 0x8b ,0x55, 0xb3 ,0xd0 ,0x2c, 
   0x72 ,0x99, 0x15 ,0x00 ,0x40, 0xb1 ,0x64, 0x3b, 0x16, 0x8b ,
   0x55, 0xb3 ,0xd0, 0x2c ,0x72 ,0x99 ,0x15 ,0x00 ,0x40, 0xb1 ,
   0x64, 0x3b ,0x16, 0x8b ,0x55 ,0xb3 ,0xd0 ,0x2c ,0x72, 0x99 ,
   0x15, 0x00 ,0x40, 0xb1, 0x64 ,0x3b ,0x16, 0x8b ,0x55 ,0xb3, 
   0xd0 ,0x2c, 0x72 ,0x99 ,0x15, 0x00 ,0x40, 0xb1, 0x64, 0x3b, 
   0x16, 0x8b, 0x55, 0xb3, 0xd0, 0x2c, 0x72, 0x99, 0x15, 0x00, 
   0x40, 0xb1, 0x64, 0x3b, 0x16, 0x8b, 0x55, 0xb3, 0xd0, 0x2c, 
   0x72 ,0x99 ,0x15 ,0x00 ,0x40 ,0xb1, 0x64, 0x3b ,0x16, 0x8b ,
   0x55, 0xb3 ,0xd0 ,0x2c ,0x72, 0x99 ,0x15 ,0x00, 0x40 ,0xb1, 
   0x64 ,0x3b ,0x16, 0x8b ,0x55 ,0xb3 ,0xd0, 0x2c ,0x72 ,0x99 ,
   0x15 ,0x00 ,0x40 ,0xb1, 0x64, 0x3b ,0x16 ,0x8b, 0x55, 0xb3 ,
   0xd0, 0x2c, 0x72 ,0x99, 0x15 ,0x00 ,0x40, 0xb1 ,0x64 ,0x3b, 
   0x16, 0x8b ,0x55, 0xb3 ,0xd0, 0x2c ,0x72 ,0x99, 0x15 ,0x00, 
   0x40 ,0xb1 ,0x64, 0x3b ,0x16, 0x8b, 0x55, 0xb3 ,0xd0, 0x2c ,
   0x72, 0x99 ,0x15 ,0x00 ,0x40 ,0xb1 ,0x64, 0x3b ,0x16, 0x8b ,
   0x55, 0xb3 ,0xd0 ,0x2c ,0x72 ,0x99 ,0x15, 0x00 ,0x40, 0xb1 ,
   0x64, 0x3b, 0x16 ,0x8b ,0x55, 0xb3 ,0xd0 ,0x2c, 0x72 ,0x99, 
   0x15 ,0x00 ,0x40, 0xb1 ,0x64, 0x3b, 0x16, 0x8b, 0x55, 0xb3, 
   0xd0, 0x2c, 0x72, 0x99, 0x15, 0x00, 0x4f, 0xb1, 0x64, 0x3b, 
   0x16, 0x8b, 0x55, 0xb3, 0xd0, 0x2c, 0x72, 0x99, 0x15 ,0x03 ,
   0x49 ,0xb1 ,0x64 ,0x3b, 0x16, 0x8b ,0x55, 0xb3 ,0xd0, 0x2c ,
   0x72 ,0x99 ,0x15, 0x02 ,0x49 ,0xb1, 0x64 ,0x3b, 0x16 ,0x8b ,
   0x55, 0xb3 ,0xd0 ,0x2c ,0x72, 0x99 ,0x15 ,0x02 ,0x49 ,0xb1 ,
   0x64 ,0x3b, 0x16, 0x8b ,0x55 ,0xb3, 0xd0, 0x2c ,0x72, 0x99, 
   0x15 ,0x02, 0x49 ,0xb1 ,0x64, 0x3b ,0x16 ,0x8b, 0x55, 0xb3 ,
   0xd0, 0x2c ,0x72, 0x99 ,0x15 ,0x02, 0x49 ,0xb1, 0x00 ,0x00 ,
   0x00, 0x00 ,0x50, 0x00, 0x00, 0x00 ,0x00, 0x98 ,0x15, 0x02 ,
   0x4f ,0xb1 ,0x00 ,0x00 ,0x00, 0x00 ,0x50, 0x00 ,0x00, 0x00 ,
   0x00 ,0x98 ,0x95 ,0x07 ,0x40, 0xb1 ,0x3c, 0x1e ,0x8f, 0xc7, 
   0x53 ,0x0c ,0x0f, 0xc3 ,0xe3 ,0x99, 0x15 ,0x00, 0x40 ,0xb1 ,
   0x24, 0x12 ,0x89, 0x44, 0x52, 0x08, 0x08, 0x42, 0x22, 0x99, 
   0x15, 0x00, 0x40, 0xb1, 0x20, 0x12, 0x89, 0x44, 0x52, 0x08, 
   0x08, 0x42, 0x22, 0x99, 0x15, 0x00, 0x40 ,0xb1 ,0x3c ,0x1e ,
   0x89 ,0x44, 0x52, 0x08 ,0x0f, 0x02 ,0xe3, 0x99 ,0x15 ,0x00 ,
   0x00, 0x00 ,0x04 ,0x12, 0x89 ,0x44, 0x02 ,0x08 ,0x08, 0x02 ,
   0x01 ,0x01 ,0x00, 0x00 ,0x00 ,0x00 ,0x24 ,0x12 ,0x89 ,0x44, 
   0x02, 0x08 ,0x08 ,0x02, 0x01, 0x01 ,0x00, 0x00, 0x00 ,0x00, 
   0x3c ,0x1e ,0x8f, 0xc7 ,0x03 ,0x1e, 0x8f, 0x07 ,0x01, 0x01 ,
   0x00, 0x00 ,};
/* the milk.com barcode generator; http://www.milk.com/barcode/ */
