#define milk_barcode_width 107
#define milk_barcode_height 68
static char milk_barcode_bits[] = {
   0x00 ,0x4e ,0x0a ,0x09 ,0x00 ,0x00, 0x00, 0x00 ,0x20, 0x00 ,
   0x00, 0x00 ,0x00 ,0x00 ,0x00, 0x52 ,0x0a ,0x09, 0x00 ,0x20, 
   0x04 ,0x00 ,0x20, 0x00 ,0x21 ,0x00 ,0x00, 0x00 ,0x00 ,0x52 ,
   0x0a ,0x09 ,0xbc ,0xf4, 0xde, 0x7b ,0xe0 ,0xa5, 0xf7, 0xde ,
   0x03, 0x00, 0x00 ,0x4e, 0x0a ,0xe7 ,0xa5, 0x24 ,0x44 ,0x0a, 
   0x20, 0x25 ,0x21, 0x52 ,0x00, 0x00 ,0x00 ,0x52, 0x0a ,0x09, 
   0xa4 ,0x24 ,0xc4, 0x0b ,0x20, 0x25, 0x21, 0x5e ,0x00, 0x00 ,
   0x00, 0x52 ,0x0a ,0x09 ,0xa4 ,0x24 ,0x44, 0x08 ,0x20, 0x25 ,
   0x21, 0x42 ,0x00 ,0x00 ,0x00 ,0xce ,0x7b, 0x09 ,0xa4, 0xe7 ,
   0xdc, 0x0b, 0xef ,0x3d ,0xe7, 0x5e ,0x00 ,0x00, 0x00 ,0x00, 
   0x00 ,0x00 ,0x00, 0x00 ,0x00, 0x00, 0x00, 0x00, 0x00, 0x00, 
   0x00, 0x00, 0x40, 0xb1, 0x62, 0x31, 0x16, 0x8b, 0x55, 0xa7, 
   0x44, 0xa2, 0x93, 0x0b, 0x15, 0x00, 0x40, 0xb1, 0x62 ,0x31 ,
   0x16 ,0x8b ,0x55 ,0xa7, 0x44, 0xa2 ,0x93, 0x0b ,0x15, 0x00 ,
   0x40 ,0xb1 ,0x62, 0x31 ,0x16 ,0x8b, 0x55 ,0xa7, 0x44 ,0xa2 ,
   0x93, 0x0b ,0x15 ,0x00 ,0x40, 0xb1 ,0x62 ,0x31 ,0x16 ,0x8b ,
   0x55 ,0xa7, 0x44, 0xa2 ,0x93 ,0x0b, 0x15, 0x00 ,0x40, 0xb1, 
   0x62 ,0x31, 0x16 ,0x8b ,0x55, 0xa7 ,0x44 ,0xa2, 0x93, 0x0b ,
   0x15, 0x00 ,0x40, 0xb1 ,0x62 ,0x31, 0x16 ,0x8b, 0x55 ,0xa7 ,
   0x44, 0xa2 ,0x93, 0x0b, 0x15, 0x00 ,0x40, 0xb1 ,0x62, 0x31 ,
   0x16 ,0x8b ,0x55 ,0xa7 ,0x44, 0xa2 ,0x93, 0x0b ,0x15, 0x00 ,
   0x40 ,0xb1 ,0x62 ,0x31 ,0x16, 0x8b ,0x55, 0xa7 ,0x44, 0xa2, 
   0x93 ,0x0b ,0x15, 0x00 ,0x40 ,0xb1, 0x62 ,0x31, 0x16 ,0x8b ,
   0x55, 0xa7 ,0x44, 0xa2, 0x93, 0x0b, 0x15, 0x00, 0x40, 0xb1, 
   0x62, 0x31, 0x16, 0x8b, 0x55, 0xa7, 0x44, 0xa2, 0x93, 0x0b, 
   0x15, 0x00, 0x40, 0xb1, 0x62, 0x31, 0x16 ,0x8b ,0x55 ,0xa7 ,
   0x44 ,0xa2, 0x93, 0x0b ,0x15, 0x00 ,0x40, 0xb1 ,0x62 ,0x31 ,
   0x16, 0x8b ,0x55 ,0xa7, 0x44 ,0xa2, 0x93 ,0x0b ,0x15, 0x00 ,
   0x40 ,0xb1 ,0x62, 0x31 ,0x16 ,0x8b ,0x55 ,0xa7 ,0x44 ,0xa2, 
   0x93, 0x0b ,0x15 ,0x00, 0x40, 0xb1 ,0x62, 0x31, 0x16 ,0x8b, 
   0x55 ,0xa7 ,0x44, 0xa2 ,0x93 ,0x0b, 0x15, 0x00 ,0x40, 0xb1 ,
   0x62, 0x31 ,0x16 ,0x8b, 0x55 ,0xa7, 0x44 ,0xa2 ,0x93, 0x0b ,
   0x15, 0x00, 0x40, 0xb1 ,0x62, 0x31 ,0x16, 0x8b ,0x55 ,0xa7 ,
   0x44 ,0xa2 ,0x93, 0x0b ,0x15, 0x00 ,0x40, 0xb1 ,0x62 ,0x31 ,
   0x16 ,0x8b ,0x55, 0xa7 ,0x44, 0xa2 ,0x93, 0x0b, 0x15 ,0x00 ,
   0x40, 0xb1 ,0x62 ,0x31, 0x16 ,0x8b, 0x55 ,0xa7 ,0x44, 0xa2 ,
   0x93, 0x0b, 0x15, 0x00, 0x40, 0xb1, 0x62, 0x31, 0x16, 0x8b, 
   0x55, 0xa7, 0x44, 0xa2, 0x93, 0x0b, 0x15, 0x00, 0x40, 0xb1, 
   0x62, 0x31, 0x16, 0x8b, 0x55 ,0xa7 ,0x44 ,0xa2 ,0x93 ,0x0b, 
   0x15, 0x00 ,0x40, 0xb1 ,0x62, 0x31 ,0x16 ,0x8b ,0x55, 0xa7 ,
   0x44 ,0xa2, 0x93 ,0x0b, 0x15 ,0x00 ,0x40, 0xb1 ,0x62 ,0x31 ,
   0x16, 0x8b ,0x55 ,0xa7 ,0x44 ,0xa2 ,0x93 ,0x0b, 0x15, 0x00 ,
   0x40 ,0xb1, 0x62, 0x31 ,0x16, 0x8b, 0x55 ,0xa7, 0x44 ,0xa2 ,
   0x93, 0x0b ,0x15 ,0x00, 0x40, 0xb1 ,0x62, 0x31 ,0x16, 0x8b ,
   0x55 ,0xa7, 0x44 ,0xa2, 0x93 ,0x0b ,0x15, 0x00 ,0x40, 0xb1, 
   0x62, 0x31 ,0x16, 0x8b ,0x55, 0xa7 ,0x44 ,0xa2 ,0x93 ,0x0b ,
   0x15, 0x00 ,0x40, 0xb1 ,0x62, 0x31 ,0x16 ,0x8b ,0x55 ,0xa7 ,
   0x44, 0xa2 ,0x93, 0x0b ,0x15, 0x00, 0x40 ,0xb1 ,0x62, 0x31 ,
   0x16 ,0x8b, 0x55 ,0xa7, 0x44 ,0xa2 ,0x93, 0x0b ,0x15, 0x00, 
   0x40, 0xb1, 0x62, 0x31, 0x16, 0x8b, 0x55, 0xa7, 0x44, 0xa2, 
   0x93, 0x0b, 0x15, 0x00, 0x40, 0xb1, 0x62, 0x31, 0x16, 0x8b, 
   0x55, 0xa7, 0x44 ,0xa2 ,0x93 ,0x0b ,0x15 ,0x00, 0x40, 0xb1 ,
   0x62, 0x31 ,0x16, 0x8b ,0x55 ,0xa7 ,0x44, 0xa2 ,0x93 ,0x0b, 
   0x15 ,0x00, 0x40 ,0xb1 ,0x62, 0x31 ,0x16 ,0x8b ,0x55, 0xa7 ,
   0x44 ,0xa2 ,0x93 ,0x0b ,0x15 ,0x00, 0x40, 0xb1 ,0x62 ,0x31, 
   0x16, 0x8b ,0x55, 0xa7, 0x44 ,0xa2, 0x93 ,0x0b ,0x15, 0x00 ,
   0x40 ,0xb1, 0x62, 0x31 ,0x16, 0x8b ,0x55, 0xa7 ,0x44 ,0xa2, 
   0x93 ,0x0b, 0x15 ,0x00 ,0x40, 0xb1 ,0x62, 0x31, 0x16, 0x8b ,
   0x55, 0xa7 ,0x44, 0xa2 ,0x93 ,0x0b ,0x15 ,0x00 ,0x40, 0xb1 ,
   0x62, 0x31 ,0x16, 0x8b ,0x55 ,0xa7 ,0x44 ,0xa2 ,0x93, 0x0b ,
   0x15, 0x00 ,0x40, 0xb1, 0x62 ,0x31 ,0x16, 0x8b ,0x55 ,0xa7, 
   0x44 ,0xa2, 0x93 ,0x0b ,0x15, 0x00 ,0x40, 0xb1, 0x62, 0x31, 
   0x16, 0x8b, 0x55, 0xa7, 0x44, 0xa2, 0x93, 0x0b, 0x15, 0x00, 
   0x40, 0xb1, 0x62, 0x31, 0x16, 0x8b, 0x55, 0xa7, 0x44, 0xa2, 
   0x93 ,0x0b ,0x15 ,0x00 ,0x40 ,0xb1, 0x62, 0x31 ,0x16, 0x8b ,
   0x55, 0xa7 ,0x44 ,0xa2 ,0x93, 0x0b ,0x15 ,0x00, 0x40 ,0xb1, 
   0x62 ,0x31 ,0x16, 0x8b ,0x55 ,0xa7 ,0x44, 0xa2 ,0x93 ,0x0b ,
   0x15 ,0x00 ,0x40 ,0xb1, 0x62, 0x31 ,0x16 ,0x8b, 0x55, 0xa7 ,
   0x44, 0xa2, 0x93 ,0x0b, 0x15 ,0x00 ,0x40, 0xb1 ,0x62 ,0x31, 
   0x16, 0x8b ,0x55, 0xa7 ,0x44, 0xa2 ,0x93 ,0x0b, 0x15 ,0x00, 
   0x40 ,0xb1 ,0x62, 0x31 ,0x16, 0x8b, 0x55, 0xa7 ,0x44, 0xa2 ,
   0x93, 0x0b ,0x15 ,0x00 ,0x40 ,0xb1 ,0x62, 0x31 ,0x16, 0x8b ,
   0x55, 0xa7 ,0x44 ,0xa2 ,0x93 ,0x0b ,0x15, 0x00 ,0x40, 0xb1 ,
   0x62, 0x31, 0x16 ,0x8b ,0x55, 0xa7 ,0x44 ,0xa2, 0x93 ,0x0b, 
   0x15 ,0x00 ,0x40, 0xb1 ,0x62, 0x31, 0x16, 0x8b, 0x55, 0xa7, 
   0x44, 0xa2, 0x93, 0x0b, 0x15, 0x00, 0x4f, 0xb1, 0x62, 0x31, 
   0x16, 0x8b, 0x55, 0xa7, 0x44, 0xa2, 0x93, 0x0b, 0x95 ,0x07 ,
   0x49 ,0xb1 ,0x62 ,0x31, 0x16, 0x8b ,0x55, 0xa7 ,0x44, 0xa2 ,
   0x93 ,0x0b ,0x15, 0x04 ,0x49 ,0xb1, 0x62 ,0x31, 0x16 ,0x8b ,
   0x55, 0xa7 ,0x44 ,0xa2 ,0x93, 0x0b ,0x15 ,0x04 ,0x49 ,0xb1 ,
   0x62 ,0x31, 0x16, 0x8b ,0x55 ,0xa7, 0x44, 0xa2 ,0x93, 0x0b, 
   0x95 ,0x07, 0x49 ,0xb1 ,0x62, 0x31 ,0x16 ,0x8b, 0x55, 0xa7 ,
   0x44, 0xa2 ,0x93, 0x0b ,0x15 ,0x04, 0x49 ,0xb1, 0x00 ,0x00 ,
   0x00, 0x00 ,0x50, 0x00, 0x00, 0x00 ,0x00, 0x08 ,0x15, 0x04 ,
   0x4f ,0xb1 ,0x00 ,0x00 ,0x00, 0x00 ,0x50, 0x00 ,0x00, 0x00 ,
   0x00 ,0x08 ,0x95 ,0x07 ,0x40, 0xb1 ,0x24, 0x12 ,0x8f, 0xc7, 
   0x53 ,0x1e ,0x8f, 0x47 ,0xe2 ,0x09, 0x15 ,0x00, 0x40 ,0xb1 ,
   0x24, 0x12 ,0x89, 0x44, 0x52, 0x12, 0x89, 0x44, 0x22, 0x09, 
   0x15, 0x00, 0x40, 0xb1, 0x24, 0x12, 0x89, 0x44, 0x52, 0x12, 
   0x89, 0x44, 0x22, 0x08, 0x15, 0x00, 0x40 ,0xb1 ,0x3c ,0x1e ,
   0x89 ,0x44, 0x52, 0x12 ,0x8f, 0xc7 ,0xe3, 0x09 ,0x15 ,0x00 ,
   0x00, 0x00 ,0x20 ,0x10, 0x89 ,0x44, 0x02 ,0x12 ,0x89, 0x04 ,
   0x02 ,0x01 ,0x00, 0x00 ,0x00 ,0x00 ,0x20 ,0x10 ,0x89 ,0x44, 
   0x02, 0x12 ,0x89 ,0x04, 0x22, 0x01 ,0x00, 0x00, 0x00 ,0x00, 
   0x20 ,0x10 ,0x8f, 0xc7 ,0x03 ,0x1e, 0x8f, 0x07 ,0xe2, 0x01 ,
   0x00, 0x00 ,};
/* the milk.com barcode generator; http://www.milk.com/barcode/ */
