#define milk_barcode_width 107
#define milk_barcode_height 68
static char milk_barcode_bits[] = {
   0x00 ,0x00 ,0x00 ,0x20 ,0x00 ,0x00, 0x00, 0x00 ,0x00, 0x00 ,
   0x10, 0x00 ,0x00 ,0x00 ,0x00, 0x00 ,0x10 ,0x20, 0x00 ,0x21, 
   0x00 ,0x00 ,0x00, 0x00 ,0x10 ,0x00 ,0x00, 0x00 ,0xf7 ,0x5e ,
   0x7a ,0xe0 ,0xa5 ,0xf7, 0xde, 0x03 ,0xef ,0xbd, 0x97, 0xde ,
   0x7b, 0x00, 0x84 ,0x52, 0x12 ,0x20 ,0x25, 0x21 ,0x52 ,0x00, 
   0x21, 0xa0 ,0x50, 0x52 ,0x08, 0x00 ,0xf7 ,0x52, 0x12 ,0x20, 
   0x25 ,0x21 ,0x5e, 0x00 ,0x21, 0xbc, 0x30, 0x5e ,0x78, 0x00 ,
   0x90, 0x52 ,0x12 ,0x20 ,0x25 ,0x21 ,0x42, 0x00 ,0x21, 0xa4 ,
   0x50, 0x42 ,0x40 ,0x00 ,0xf7 ,0xd2 ,0x73, 0xef ,0x3d, 0xe7 ,
   0x5e, 0x78, 0x2f ,0xbc ,0x97, 0x5e ,0x78 ,0x07, 0x00 ,0x00, 
   0x00 ,0x00 ,0x00, 0x00 ,0x00, 0x00, 0x00, 0x00, 0x00, 0x00, 
   0x00, 0x00, 0x40, 0xb1, 0x6e, 0xb4, 0xdb, 0xee, 0x55, 0x9d, 
   0x44, 0xa8, 0x70, 0x8a, 0x14, 0x00, 0x40, 0xb1, 0x6e ,0xb4 ,
   0xdb ,0xee ,0x55 ,0x9d, 0x44, 0xa8 ,0x70, 0x8a ,0x14, 0x00 ,
   0x40 ,0xb1 ,0x6e, 0xb4 ,0xdb ,0xee, 0x55 ,0x9d, 0x44 ,0xa8 ,
   0x70, 0x8a ,0x14 ,0x00 ,0x40, 0xb1 ,0x6e ,0xb4 ,0xdb ,0xee ,
   0x55 ,0x9d, 0x44, 0xa8 ,0x70 ,0x8a, 0x14, 0x00 ,0x40, 0xb1, 
   0x6e ,0xb4, 0xdb ,0xee ,0x55, 0x9d ,0x44 ,0xa8, 0x70, 0x8a ,
   0x14, 0x00 ,0x40, 0xb1 ,0x6e ,0xb4, 0xdb ,0xee, 0x55 ,0x9d ,
   0x44, 0xa8 ,0x70, 0x8a, 0x14, 0x00 ,0x40, 0xb1 ,0x6e, 0xb4 ,
   0xdb ,0xee ,0x55 ,0x9d ,0x44, 0xa8 ,0x70, 0x8a ,0x14, 0x00 ,
   0x40 ,0xb1 ,0x6e ,0xb4 ,0xdb, 0xee ,0x55, 0x9d ,0x44, 0xa8, 
   0x70 ,0x8a ,0x14, 0x00 ,0x40 ,0xb1, 0x6e ,0xb4, 0xdb ,0xee ,
   0x55, 0x9d ,0x44, 0xa8, 0x70, 0x8a, 0x14, 0x00, 0x40, 0xb1, 
   0x6e, 0xb4, 0xdb, 0xee, 0x55, 0x9d, 0x44, 0xa8, 0x70, 0x8a, 
   0x14, 0x00, 0x40, 0xb1, 0x6e, 0xb4, 0xdb ,0xee ,0x55 ,0x9d ,
   0x44 ,0xa8, 0x70, 0x8a ,0x14, 0x00 ,0x40, 0xb1 ,0x6e ,0xb4 ,
   0xdb, 0xee ,0x55 ,0x9d, 0x44 ,0xa8, 0x70 ,0x8a ,0x14, 0x00 ,
   0x40 ,0xb1 ,0x6e, 0xb4 ,0xdb ,0xee ,0x55 ,0x9d ,0x44 ,0xa8, 
   0x70, 0x8a ,0x14 ,0x00, 0x40, 0xb1 ,0x6e, 0xb4, 0xdb ,0xee, 
   0x55 ,0x9d ,0x44, 0xa8 ,0x70 ,0x8a, 0x14, 0x00 ,0x40, 0xb1 ,
   0x6e, 0xb4 ,0xdb ,0xee, 0x55 ,0x9d, 0x44 ,0xa8 ,0x70, 0x8a ,
   0x14, 0x00, 0x40, 0xb1 ,0x6e, 0xb4 ,0xdb, 0xee ,0x55 ,0x9d ,
   0x44 ,0xa8 ,0x70, 0x8a ,0x14, 0x00 ,0x40, 0xb1 ,0x6e ,0xb4 ,
   0xdb ,0xee ,0x55, 0x9d ,0x44, 0xa8 ,0x70, 0x8a, 0x14 ,0x00 ,
   0x40, 0xb1 ,0x6e ,0xb4, 0xdb ,0xee, 0x55 ,0x9d ,0x44, 0xa8 ,
   0x70, 0x8a, 0x14, 0x00, 0x40, 0xb1, 0x6e, 0xb4, 0xdb, 0xee, 
   0x55, 0x9d, 0x44, 0xa8, 0x70, 0x8a, 0x14, 0x00, 0x40, 0xb1, 
   0x6e, 0xb4, 0xdb, 0xee, 0x55 ,0x9d ,0x44 ,0xa8 ,0x70 ,0x8a, 
   0x14, 0x00 ,0x40, 0xb1 ,0x6e, 0xb4 ,0xdb ,0xee ,0x55, 0x9d ,
   0x44 ,0xa8, 0x70 ,0x8a, 0x14 ,0x00 ,0x40, 0xb1 ,0x6e ,0xb4 ,
   0xdb, 0xee ,0x55 ,0x9d ,0x44 ,0xa8 ,0x70 ,0x8a, 0x14, 0x00 ,
   0x40 ,0xb1, 0x6e, 0xb4 ,0xdb, 0xee, 0x55 ,0x9d, 0x44 ,0xa8 ,
   0x70, 0x8a ,0x14 ,0x00, 0x40, 0xb1 ,0x6e, 0xb4 ,0xdb, 0xee ,
   0x55 ,0x9d, 0x44 ,0xa8, 0x70 ,0x8a ,0x14, 0x00 ,0x40, 0xb1, 
   0x6e, 0xb4 ,0xdb, 0xee ,0x55, 0x9d ,0x44 ,0xa8 ,0x70 ,0x8a ,
   0x14, 0x00 ,0x40, 0xb1 ,0x6e, 0xb4 ,0xdb ,0xee ,0x55 ,0x9d ,
   0x44, 0xa8 ,0x70, 0x8a ,0x14, 0x00, 0x40 ,0xb1 ,0x6e, 0xb4 ,
   0xdb ,0xee, 0x55 ,0x9d, 0x44 ,0xa8 ,0x70, 0x8a ,0x14, 0x00, 
   0x40, 0xb1, 0x6e, 0xb4, 0xdb, 0xee, 0x55, 0x9d, 0x44, 0xa8, 
   0x70, 0x8a, 0x14, 0x00, 0x40, 0xb1, 0x6e, 0xb4, 0xdb, 0xee, 
   0x55, 0x9d, 0x44 ,0xa8 ,0x70 ,0x8a ,0x14 ,0x00, 0x40, 0xb1 ,
   0x6e, 0xb4 ,0xdb, 0xee ,0x55 ,0x9d ,0x44, 0xa8 ,0x70 ,0x8a, 
   0x14 ,0x00, 0x40 ,0xb1 ,0x6e, 0xb4 ,0xdb ,0xee ,0x55, 0x9d ,
   0x44 ,0xa8 ,0x70 ,0x8a ,0x14 ,0x00, 0x40, 0xb1 ,0x6e ,0xb4, 
   0xdb, 0xee ,0x55, 0x9d, 0x44 ,0xa8, 0x70 ,0x8a ,0x14, 0x00 ,
   0x40 ,0xb1, 0x6e, 0xb4 ,0xdb, 0xee ,0x55, 0x9d ,0x44 ,0xa8, 
   0x70 ,0x8a, 0x14 ,0x00 ,0x40, 0xb1 ,0x6e, 0xb4, 0xdb, 0xee ,
   0x55, 0x9d ,0x44, 0xa8 ,0x70 ,0x8a ,0x14 ,0x00 ,0x40, 0xb1 ,
   0x6e, 0xb4 ,0xdb, 0xee ,0x55 ,0x9d ,0x44 ,0xa8 ,0x70, 0x8a ,
   0x14, 0x00 ,0x40, 0xb1, 0x6e ,0xb4 ,0xdb, 0xee ,0x55 ,0x9d, 
   0x44 ,0xa8, 0x70 ,0x8a ,0x14, 0x00 ,0x40, 0xb1, 0x6e, 0xb4, 
   0xdb, 0xee, 0x55, 0x9d, 0x44, 0xa8, 0x70, 0x8a, 0x14, 0x00, 
   0x40, 0xb1, 0x6e, 0xb4, 0xdb, 0xee, 0x55, 0x9d, 0x44, 0xa8, 
   0x70 ,0x8a ,0x14 ,0x00 ,0x40 ,0xb1, 0x6e, 0xb4 ,0xdb, 0xee ,
   0x55, 0x9d ,0x44 ,0xa8 ,0x70, 0x8a ,0x14 ,0x00, 0x40 ,0xb1, 
   0x6e ,0xb4 ,0xdb, 0xee ,0x55 ,0x9d ,0x44, 0xa8 ,0x70 ,0x8a ,
   0x14 ,0x00 ,0x40 ,0xb1, 0x6e, 0xb4 ,0xdb ,0xee, 0x55, 0x9d ,
   0x44, 0xa8, 0x70 ,0x8a, 0x14 ,0x00 ,0x40, 0xb1 ,0x6e ,0xb4, 
   0xdb, 0xee ,0x55, 0x9d ,0x44, 0xa8 ,0x70 ,0x8a, 0x14 ,0x00, 
   0x40 ,0xb1 ,0x6e, 0xb4 ,0xdb, 0xee, 0x55, 0x9d ,0x44, 0xa8 ,
   0x70, 0x8a ,0x14 ,0x00 ,0x40 ,0xb1 ,0x6e, 0xb4 ,0xdb, 0xee ,
   0x55, 0x9d ,0x44 ,0xa8 ,0x70 ,0x8a ,0x14, 0x00 ,0x40, 0xb1 ,
   0x6e, 0xb4, 0xdb ,0xee ,0x55, 0x9d ,0x44 ,0xa8, 0x70 ,0x8a, 
   0x14 ,0x00 ,0x40, 0xb1 ,0x6e, 0xb4, 0xdb, 0xee, 0x55, 0x9d, 
   0x44, 0xa8, 0x70, 0x8a, 0x14, 0x00, 0x4f, 0xb1, 0x6e, 0xb4, 
   0xdb, 0xee, 0x55, 0x9d, 0x44, 0xa8, 0x70, 0x8a, 0x94 ,0x07 ,
   0x49 ,0xb1 ,0x6e ,0xb4, 0xdb, 0xee ,0x55, 0x9d ,0x44, 0xa8 ,
   0x70 ,0x8a ,0x94, 0x04 ,0x49 ,0xb1, 0x6e ,0xb4, 0xdb ,0xee ,
   0x55, 0x9d ,0x44 ,0xa8 ,0x70, 0x8a ,0x94 ,0x04 ,0x49 ,0xb1 ,
   0x6e ,0xb4, 0xdb, 0xee ,0x55 ,0x9d, 0x44, 0xa8 ,0x70, 0x8a, 
   0x14 ,0x06, 0x49 ,0xb1 ,0x6e, 0xb4 ,0xdb ,0xee, 0x55, 0x9d ,
   0x44, 0xa8 ,0x70, 0x8a ,0x14 ,0x02, 0x49 ,0xb1, 0x00 ,0x00 ,
   0x00, 0x00 ,0x50, 0x00, 0x00, 0x00 ,0x00, 0x88 ,0x14, 0x02 ,
   0x4f ,0xb1 ,0x00 ,0x00 ,0x00, 0x00 ,0x50, 0x00 ,0x00, 0x00 ,
   0x00 ,0x88 ,0x14 ,0x02 ,0x40, 0xb1 ,0x3c, 0x1e ,0x8f, 0xc7, 
   0x53 ,0x12 ,0x8f, 0xc7 ,0xe0 ,0x89, 0x14 ,0x00, 0x40 ,0xb1 ,
   0x24, 0x12 ,0x89, 0x04, 0x52, 0x12, 0x09, 0x44, 0x20, 0x89, 
   0x14, 0x00, 0x40, 0xb1, 0x24, 0x12, 0x89, 0x04, 0x52, 0x12, 
   0x09, 0x44, 0x20, 0x89, 0x14, 0x00, 0x40 ,0xb1 ,0x30 ,0x1e ,
   0x8c ,0xc7, 0x53, 0x1e ,0x8f, 0xc7 ,0x23, 0x89 ,0x14 ,0x00 ,
   0x00, 0x00 ,0x10 ,0x10, 0x84 ,0x04, 0x02 ,0x10 ,0x09, 0x44 ,
   0x22 ,0x01 ,0x00, 0x00 ,0x00 ,0x00 ,0x10 ,0x10 ,0x84 ,0x04, 
   0x02, 0x10 ,0x09 ,0x44, 0x22, 0x01 ,0x00, 0x00, 0x00 ,0x00, 
   0x10 ,0x10 ,0x84, 0xc7 ,0x03 ,0x10, 0x8f, 0xc7 ,0xe3, 0x01 ,
   0x00, 0x00 ,};
/* the milk.com barcode generator; http://www.milk.com/barcode/ */
