#define milk_barcode_width 107
#define milk_barcode_height 68
static char milk_barcode_bits[] = {
   0x00 ,0x00 ,0x38 ,0x29 ,0x24 ,0x00, 0x00, 0x00 ,0x00, 0x00 ,
   0x00, 0x00 ,0x00 ,0x00 ,0x00, 0x00 ,0x48 ,0x29, 0x24 ,0x00, 
   0x00 ,0x00 ,0x40, 0x00 ,0x00 ,0x00 ,0x00, 0x00 ,0x00 ,0x00 ,
   0x48 ,0x29 ,0x24 ,0xf0, 0xde, 0x7b ,0xe9 ,0x81, 0x94, 0x00 ,
   0x00, 0x00, 0x00 ,0x00, 0x38 ,0x29 ,0x9c, 0x97 ,0x12 ,0x4a, 
   0x49, 0x80 ,0xf7, 0x00 ,0x00, 0x00 ,0x00 ,0x00, 0x48 ,0x29, 
   0x24 ,0x90 ,0xde, 0x4b ,0x49, 0x80, 0xf7, 0x00 ,0x00, 0x00 ,
   0x00, 0x00 ,0x48 ,0x29 ,0x24 ,0xf0 ,0x42, 0x4a ,0x49, 0x80 ,
   0x94, 0x00 ,0x00 ,0x00 ,0x00 ,0x00 ,0x38, 0xef ,0x25, 0x10 ,
   0xde, 0x4b, 0xcf ,0xbd ,0x94, 0x00 ,0x00 ,0x00, 0x00 ,0x00, 
   0x00 ,0x00 ,0x00, 0x10 ,0x00, 0x00, 0x00, 0x00, 0x00, 0x00, 
   0x00, 0x00, 0x40, 0xb1, 0x62, 0x2c, 0x16, 0x8b, 0x55, 0xa7, 
   0xd9, 0x26, 0xb4, 0x39, 0x15, 0x00, 0x40, 0xb1, 0x62 ,0x2c ,
   0x16 ,0x8b ,0x55 ,0xa7, 0xd9, 0x26 ,0xb4, 0x39 ,0x15, 0x00 ,
   0x40 ,0xb1 ,0x62, 0x2c ,0x16 ,0x8b, 0x55 ,0xa7, 0xd9 ,0x26 ,
   0xb4, 0x39 ,0x15 ,0x00 ,0x40, 0xb1 ,0x62 ,0x2c ,0x16 ,0x8b ,
   0x55 ,0xa7, 0xd9, 0x26 ,0xb4 ,0x39, 0x15, 0x00 ,0x40, 0xb1, 
   0x62 ,0x2c, 0x16 ,0x8b ,0x55, 0xa7 ,0xd9 ,0x26, 0xb4, 0x39 ,
   0x15, 0x00 ,0x40, 0xb1 ,0x62 ,0x2c, 0x16 ,0x8b, 0x55 ,0xa7 ,
   0xd9, 0x26 ,0xb4, 0x39, 0x15, 0x00 ,0x40, 0xb1 ,0x62, 0x2c ,
   0x16 ,0x8b ,0x55 ,0xa7 ,0xd9, 0x26 ,0xb4, 0x39 ,0x15, 0x00 ,
   0x40 ,0xb1 ,0x62 ,0x2c ,0x16, 0x8b ,0x55, 0xa7 ,0xd9, 0x26, 
   0xb4 ,0x39 ,0x15, 0x00 ,0x40 ,0xb1, 0x62 ,0x2c, 0x16 ,0x8b ,
   0x55, 0xa7 ,0xd9, 0x26, 0xb4, 0x39, 0x15, 0x00, 0x40, 0xb1, 
   0x62, 0x2c, 0x16, 0x8b, 0x55, 0xa7, 0xd9, 0x26, 0xb4, 0x39, 
   0x15, 0x00, 0x40, 0xb1, 0x62, 0x2c, 0x16 ,0x8b ,0x55 ,0xa7 ,
   0xd9 ,0x26, 0xb4, 0x39 ,0x15, 0x00 ,0x40, 0xb1 ,0x62 ,0x2c ,
   0x16, 0x8b ,0x55 ,0xa7, 0xd9 ,0x26, 0xb4 ,0x39 ,0x15, 0x00 ,
   0x40 ,0xb1 ,0x62, 0x2c ,0x16 ,0x8b ,0x55 ,0xa7 ,0xd9 ,0x26, 
   0xb4, 0x39 ,0x15 ,0x00, 0x40, 0xb1 ,0x62, 0x2c, 0x16 ,0x8b, 
   0x55 ,0xa7 ,0xd9, 0x26 ,0xb4 ,0x39, 0x15, 0x00 ,0x40, 0xb1 ,
   0x62, 0x2c ,0x16 ,0x8b, 0x55 ,0xa7, 0xd9 ,0x26 ,0xb4, 0x39 ,
   0x15, 0x00, 0x40, 0xb1 ,0x62, 0x2c ,0x16, 0x8b ,0x55 ,0xa7 ,
   0xd9 ,0x26 ,0xb4, 0x39 ,0x15, 0x00 ,0x40, 0xb1 ,0x62 ,0x2c ,
   0x16 ,0x8b ,0x55, 0xa7 ,0xd9, 0x26 ,0xb4, 0x39, 0x15 ,0x00 ,
   0x40, 0xb1 ,0x62 ,0x2c, 0x16 ,0x8b, 0x55 ,0xa7 ,0xd9, 0x26 ,
   0xb4, 0x39, 0x15, 0x00, 0x40, 0xb1, 0x62, 0x2c, 0x16, 0x8b, 
   0x55, 0xa7, 0xd9, 0x26, 0xb4, 0x39, 0x15, 0x00, 0x40, 0xb1, 
   0x62, 0x2c, 0x16, 0x8b, 0x55 ,0xa7 ,0xd9 ,0x26 ,0xb4 ,0x39, 
   0x15, 0x00 ,0x40, 0xb1 ,0x62, 0x2c ,0x16 ,0x8b ,0x55, 0xa7 ,
   0xd9 ,0x26, 0xb4 ,0x39, 0x15 ,0x00 ,0x40, 0xb1 ,0x62 ,0x2c ,
   0x16, 0x8b ,0x55 ,0xa7 ,0xd9 ,0x26 ,0xb4 ,0x39, 0x15, 0x00 ,
   0x40 ,0xb1, 0x62, 0x2c ,0x16, 0x8b, 0x55 ,0xa7, 0xd9 ,0x26 ,
   0xb4, 0x39 ,0x15 ,0x00, 0x40, 0xb1 ,0x62, 0x2c ,0x16, 0x8b ,
   0x55 ,0xa7, 0xd9 ,0x26, 0xb4 ,0x39 ,0x15, 0x00 ,0x40, 0xb1, 
   0x62, 0x2c ,0x16, 0x8b ,0x55, 0xa7 ,0xd9 ,0x26 ,0xb4 ,0x39 ,
   0x15, 0x00 ,0x40, 0xb1 ,0x62, 0x2c ,0x16 ,0x8b ,0x55 ,0xa7 ,
   0xd9, 0x26 ,0xb4, 0x39 ,0x15, 0x00, 0x40 ,0xb1 ,0x62, 0x2c ,
   0x16 ,0x8b, 0x55 ,0xa7, 0xd9 ,0x26 ,0xb4, 0x39 ,0x15, 0x00, 
   0x40, 0xb1, 0x62, 0x2c, 0x16, 0x8b, 0x55, 0xa7, 0xd9, 0x26, 
   0xb4, 0x39, 0x15, 0x00, 0x40, 0xb1, 0x62, 0x2c, 0x16, 0x8b, 
   0x55, 0xa7, 0xd9 ,0x26 ,0xb4 ,0x39 ,0x15 ,0x00, 0x40, 0xb1 ,
   0x62, 0x2c ,0x16, 0x8b ,0x55 ,0xa7 ,0xd9, 0x26 ,0xb4 ,0x39, 
   0x15 ,0x00, 0x40 ,0xb1 ,0x62, 0x2c ,0x16 ,0x8b ,0x55, 0xa7 ,
   0xd9 ,0x26 ,0xb4 ,0x39 ,0x15 ,0x00, 0x40, 0xb1 ,0x62 ,0x2c, 
   0x16, 0x8b ,0x55, 0xa7, 0xd9 ,0x26, 0xb4 ,0x39 ,0x15, 0x00 ,
   0x40 ,0xb1, 0x62, 0x2c ,0x16, 0x8b ,0x55, 0xa7 ,0xd9 ,0x26, 
   0xb4 ,0x39, 0x15 ,0x00 ,0x40, 0xb1 ,0x62, 0x2c, 0x16, 0x8b ,
   0x55, 0xa7 ,0xd9, 0x26 ,0xb4 ,0x39 ,0x15 ,0x00 ,0x40, 0xb1 ,
   0x62, 0x2c ,0x16, 0x8b ,0x55 ,0xa7 ,0xd9 ,0x26 ,0xb4, 0x39 ,
   0x15, 0x00 ,0x40, 0xb1, 0x62 ,0x2c ,0x16, 0x8b ,0x55 ,0xa7, 
   0xd9 ,0x26, 0xb4 ,0x39 ,0x15, 0x00 ,0x40, 0xb1, 0x62, 0x2c, 
   0x16, 0x8b, 0x55, 0xa7, 0xd9, 0x26, 0xb4, 0x39, 0x15, 0x00, 
   0x40, 0xb1, 0x62, 0x2c, 0x16, 0x8b, 0x55, 0xa7, 0xd9, 0x26, 
   0xb4 ,0x39 ,0x15 ,0x00 ,0x40 ,0xb1, 0x62, 0x2c ,0x16, 0x8b ,
   0x55, 0xa7 ,0xd9 ,0x26 ,0xb4, 0x39 ,0x15 ,0x00, 0x40 ,0xb1, 
   0x62 ,0x2c ,0x16, 0x8b ,0x55 ,0xa7 ,0xd9, 0x26 ,0xb4 ,0x39 ,
   0x15 ,0x00 ,0x40 ,0xb1, 0x62, 0x2c ,0x16 ,0x8b, 0x55, 0xa7 ,
   0xd9, 0x26, 0xb4 ,0x39, 0x15 ,0x00 ,0x40, 0xb1 ,0x62 ,0x2c, 
   0x16, 0x8b ,0x55, 0xa7 ,0xd9, 0x26 ,0xb4 ,0x39, 0x15 ,0x00, 
   0x40 ,0xb1 ,0x62, 0x2c ,0x16, 0x8b, 0x55, 0xa7 ,0xd9, 0x26 ,
   0xb4, 0x39 ,0x15 ,0x00 ,0x40 ,0xb1 ,0x62, 0x2c ,0x16, 0x8b ,
   0x55, 0xa7 ,0xd9 ,0x26 ,0xb4 ,0x39 ,0x15, 0x00 ,0x40, 0xb1 ,
   0x62, 0x2c, 0x16 ,0x8b ,0x55, 0xa7 ,0xd9 ,0x26, 0xb4 ,0x39, 
   0x15 ,0x00 ,0x40, 0xb1 ,0x62, 0x2c, 0x16, 0x8b, 0x55, 0xa7, 
   0xd9, 0x26, 0xb4, 0x39, 0x15, 0x00, 0x4f, 0xb1, 0x62, 0x2c, 
   0x16, 0x8b, 0x55, 0xa7, 0xd9, 0x26, 0xb4, 0x39, 0x95 ,0x07 ,
   0x49 ,0xb1 ,0x62 ,0x2c, 0x16, 0x8b ,0x55, 0xa7 ,0xd9, 0x26 ,
   0xb4 ,0x39 ,0x95, 0x04 ,0x49 ,0xb1, 0x62 ,0x2c, 0x16 ,0x8b ,
   0x55, 0xa7 ,0xd9 ,0x26 ,0xb4, 0x39 ,0x95 ,0x04 ,0x49 ,0xb1 ,
   0x62 ,0x2c, 0x16, 0x8b ,0x55 ,0xa7, 0xd9, 0x26 ,0xb4, 0x39, 
   0x95 ,0x04, 0x49 ,0xb1 ,0x62, 0x2c ,0x16 ,0x8b, 0x55, 0xa7 ,
   0xd9, 0x26 ,0xb4, 0x39 ,0x95 ,0x04, 0x49 ,0xb1, 0x00 ,0x00 ,
   0x00, 0x00 ,0x50, 0x00, 0x00, 0x00 ,0x00, 0x38 ,0x95, 0x04 ,
   0x4f ,0xb1 ,0x00 ,0x00 ,0x00, 0x00 ,0x50, 0x00 ,0x00, 0x00 ,
   0x00 ,0x38 ,0x95 ,0x07 ,0x40, 0xb1 ,0x24, 0x1e ,0x8f, 0xc7, 
   0x53 ,0x1e ,0x86, 0xc7 ,0xe3 ,0x39, 0x15 ,0x00, 0x40 ,0xb1 ,
   0x24, 0x12 ,0x89, 0x44, 0x52, 0x12, 0x84, 0x04, 0x22, 0x39, 
   0x15, 0x00, 0x40, 0xb1, 0x24, 0x12, 0x89, 0x44, 0x52, 0x12, 
   0x04, 0x04, 0x02, 0x39, 0x15, 0x00, 0x40 ,0xb1 ,0x3c ,0x12 ,
   0x89 ,0x44, 0x52, 0x12 ,0x84, 0xc7 ,0xe3, 0x39 ,0x15 ,0x00 ,
   0x00, 0x00 ,0x20 ,0x12, 0x89 ,0x44, 0x02 ,0x12 ,0x84, 0x00 ,
   0x22 ,0x00 ,0x00, 0x00 ,0x00 ,0x00 ,0x20 ,0x12 ,0x89 ,0x44, 
   0x02, 0x12 ,0x84 ,0x04, 0x22, 0x01 ,0x00, 0x00, 0x00 ,0x00, 
   0x20 ,0x1e ,0x8f, 0xc7 ,0x03 ,0x1e, 0x8f, 0xc7 ,0xe3, 0x01 ,
   0x00, 0x00 ,};
/* the milk.com barcode generator; http://www.milk.com/barcode/ */
