#define milk_barcode_width 107
#define milk_barcode_height 68
static char milk_barcode_bits[] = {
   0x4e ,0x0a ,0x09 ,0x80 ,0x01 ,0x00, 0x00, 0x00 ,0x00, 0x00 ,
   0x00, 0x00 ,0x00 ,0x00 ,0x52, 0x0a ,0x09 ,0x00, 0x01 ,0x80, 
   0x00 ,0x00 ,0x00, 0x00 ,0x00 ,0x00 ,0x02, 0x00 ,0x52 ,0x0a ,
   0x09 ,0x3c ,0xf1 ,0xde, 0x7b, 0xef ,0x81 ,0xf7, 0xde, 0x4b ,
   0xef, 0x01, 0x4e ,0x0a, 0xe7 ,0x25 ,0x81, 0x92 ,0x48 ,0x21, 
   0x80, 0x94 ,0x50, 0x4a ,0x22, 0x00 ,0x52 ,0x0a, 0x09 ,0x24, 
   0xf1 ,0x92 ,0x78, 0xe1 ,0x81, 0xf4, 0x5e, 0x4a ,0xe2, 0x01 ,
   0x52, 0x0a ,0x09 ,0x3c ,0x91 ,0x92 ,0x08, 0x01 ,0x81, 0x17 ,
   0x52, 0x4a ,0x02 ,0x01 ,0xce ,0x7b ,0x09, 0x84 ,0xf3, 0x92 ,
   0x7b, 0xe1, 0xbd ,0xf0 ,0x5e, 0x7a ,0xee ,0x01, 0x00 ,0x00, 
   0x00 ,0x04 ,0x00, 0x00 ,0x00, 0x00, 0x80, 0x00, 0x00, 0x00, 
   0x00, 0x00, 0x40, 0xb1, 0x64, 0x34, 0x16, 0x8b, 0x55, 0xa7, 
   0x48, 0x21, 0xd1, 0x29, 0x14, 0x00, 0x40, 0xb1, 0x64 ,0x34 ,
   0x16 ,0x8b ,0x55 ,0xa7, 0x48, 0x21 ,0xd1, 0x29 ,0x14, 0x00 ,
   0x40 ,0xb1 ,0x64, 0x34 ,0x16 ,0x8b, 0x55 ,0xa7, 0x48 ,0x21 ,
   0xd1, 0x29 ,0x14 ,0x00 ,0x40, 0xb1 ,0x64 ,0x34 ,0x16 ,0x8b ,
   0x55 ,0xa7, 0x48, 0x21 ,0xd1 ,0x29, 0x14, 0x00 ,0x40, 0xb1, 
   0x64 ,0x34, 0x16 ,0x8b ,0x55, 0xa7 ,0x48 ,0x21, 0xd1, 0x29 ,
   0x14, 0x00 ,0x40, 0xb1 ,0x64 ,0x34, 0x16 ,0x8b, 0x55 ,0xa7 ,
   0x48, 0x21 ,0xd1, 0x29, 0x14, 0x00 ,0x40, 0xb1 ,0x64, 0x34 ,
   0x16 ,0x8b ,0x55 ,0xa7 ,0x48, 0x21 ,0xd1, 0x29 ,0x14, 0x00 ,
   0x40 ,0xb1 ,0x64 ,0x34 ,0x16, 0x8b ,0x55, 0xa7 ,0x48, 0x21, 
   0xd1 ,0x29 ,0x14, 0x00 ,0x40 ,0xb1, 0x64 ,0x34, 0x16 ,0x8b ,
   0x55, 0xa7 ,0x48, 0x21, 0xd1, 0x29, 0x14, 0x00, 0x40, 0xb1, 
   0x64, 0x34, 0x16, 0x8b, 0x55, 0xa7, 0x48, 0x21, 0xd1, 0x29, 
   0x14, 0x00, 0x40, 0xb1, 0x64, 0x34, 0x16 ,0x8b ,0x55 ,0xa7 ,
   0x48 ,0x21, 0xd1, 0x29 ,0x14, 0x00 ,0x40, 0xb1 ,0x64 ,0x34 ,
   0x16, 0x8b ,0x55 ,0xa7, 0x48 ,0x21, 0xd1 ,0x29 ,0x14, 0x00 ,
   0x40 ,0xb1 ,0x64, 0x34 ,0x16 ,0x8b ,0x55 ,0xa7 ,0x48 ,0x21, 
   0xd1, 0x29 ,0x14 ,0x00, 0x40, 0xb1 ,0x64, 0x34, 0x16 ,0x8b, 
   0x55 ,0xa7 ,0x48, 0x21 ,0xd1 ,0x29, 0x14, 0x00 ,0x40, 0xb1 ,
   0x64, 0x34 ,0x16 ,0x8b, 0x55 ,0xa7, 0x48 ,0x21 ,0xd1, 0x29 ,
   0x14, 0x00, 0x40, 0xb1 ,0x64, 0x34 ,0x16, 0x8b ,0x55 ,0xa7 ,
   0x48 ,0x21 ,0xd1, 0x29 ,0x14, 0x00 ,0x40, 0xb1 ,0x64 ,0x34 ,
   0x16 ,0x8b ,0x55, 0xa7 ,0x48, 0x21 ,0xd1, 0x29, 0x14 ,0x00 ,
   0x40, 0xb1 ,0x64 ,0x34, 0x16 ,0x8b, 0x55 ,0xa7 ,0x48, 0x21 ,
   0xd1, 0x29, 0x14, 0x00, 0x40, 0xb1, 0x64, 0x34, 0x16, 0x8b, 
   0x55, 0xa7, 0x48, 0x21, 0xd1, 0x29, 0x14, 0x00, 0x40, 0xb1, 
   0x64, 0x34, 0x16, 0x8b, 0x55 ,0xa7 ,0x48 ,0x21 ,0xd1 ,0x29, 
   0x14, 0x00 ,0x40, 0xb1 ,0x64, 0x34 ,0x16 ,0x8b ,0x55, 0xa7 ,
   0x48 ,0x21, 0xd1 ,0x29, 0x14 ,0x00 ,0x40, 0xb1 ,0x64 ,0x34 ,
   0x16, 0x8b ,0x55 ,0xa7 ,0x48 ,0x21 ,0xd1 ,0x29, 0x14, 0x00 ,
   0x40 ,0xb1, 0x64, 0x34 ,0x16, 0x8b, 0x55 ,0xa7, 0x48 ,0x21 ,
   0xd1, 0x29 ,0x14 ,0x00, 0x40, 0xb1 ,0x64, 0x34 ,0x16, 0x8b ,
   0x55 ,0xa7, 0x48 ,0x21, 0xd1 ,0x29 ,0x14, 0x00 ,0x40, 0xb1, 
   0x64, 0x34 ,0x16, 0x8b ,0x55, 0xa7 ,0x48 ,0x21 ,0xd1 ,0x29 ,
   0x14, 0x00 ,0x40, 0xb1 ,0x64, 0x34 ,0x16 ,0x8b ,0x55 ,0xa7 ,
   0x48, 0x21 ,0xd1, 0x29 ,0x14, 0x00, 0x40 ,0xb1 ,0x64, 0x34 ,
   0x16 ,0x8b, 0x55 ,0xa7, 0x48 ,0x21 ,0xd1, 0x29 ,0x14, 0x00, 
   0x40, 0xb1, 0x64, 0x34, 0x16, 0x8b, 0x55, 0xa7, 0x48, 0x21, 
   0xd1, 0x29, 0x14, 0x00, 0x40, 0xb1, 0x64, 0x34, 0x16, 0x8b, 
   0x55, 0xa7, 0x48 ,0x21 ,0xd1 ,0x29 ,0x14 ,0x00, 0x40, 0xb1 ,
   0x64, 0x34 ,0x16, 0x8b ,0x55 ,0xa7 ,0x48, 0x21 ,0xd1 ,0x29, 
   0x14 ,0x00, 0x40 ,0xb1 ,0x64, 0x34 ,0x16 ,0x8b ,0x55, 0xa7 ,
   0x48 ,0x21 ,0xd1 ,0x29 ,0x14 ,0x00, 0x40, 0xb1 ,0x64 ,0x34, 
   0x16, 0x8b ,0x55, 0xa7, 0x48 ,0x21, 0xd1 ,0x29 ,0x14, 0x00 ,
   0x40 ,0xb1, 0x64, 0x34 ,0x16, 0x8b ,0x55, 0xa7 ,0x48 ,0x21, 
   0xd1 ,0x29, 0x14 ,0x00 ,0x40, 0xb1 ,0x64, 0x34, 0x16, 0x8b ,
   0x55, 0xa7 ,0x48, 0x21 ,0xd1 ,0x29 ,0x14 ,0x00 ,0x40, 0xb1 ,
   0x64, 0x34 ,0x16, 0x8b ,0x55 ,0xa7 ,0x48 ,0x21 ,0xd1, 0x29 ,
   0x14, 0x00 ,0x40, 0xb1, 0x64 ,0x34 ,0x16, 0x8b ,0x55 ,0xa7, 
   0x48 ,0x21, 0xd1 ,0x29 ,0x14, 0x00 ,0x40, 0xb1, 0x64, 0x34, 
   0x16, 0x8b, 0x55, 0xa7, 0x48, 0x21, 0xd1, 0x29, 0x14, 0x00, 
   0x40, 0xb1, 0x64, 0x34, 0x16, 0x8b, 0x55, 0xa7, 0x48, 0x21, 
   0xd1 ,0x29 ,0x14 ,0x00 ,0x40 ,0xb1, 0x64, 0x34 ,0x16, 0x8b ,
   0x55, 0xa7 ,0x48 ,0x21 ,0xd1, 0x29 ,0x14 ,0x00, 0x40 ,0xb1, 
   0x64 ,0x34 ,0x16, 0x8b ,0x55 ,0xa7 ,0x48, 0x21 ,0xd1 ,0x29 ,
   0x14 ,0x00 ,0x40 ,0xb1, 0x64, 0x34 ,0x16 ,0x8b, 0x55, 0xa7 ,
   0x48, 0x21, 0xd1 ,0x29, 0x14 ,0x00 ,0x40, 0xb1 ,0x64 ,0x34, 
   0x16, 0x8b ,0x55, 0xa7 ,0x48, 0x21 ,0xd1 ,0x29, 0x14 ,0x00, 
   0x40 ,0xb1 ,0x64, 0x34 ,0x16, 0x8b, 0x55, 0xa7 ,0x48, 0x21 ,
   0xd1, 0x29 ,0x14 ,0x00 ,0x40 ,0xb1 ,0x64, 0x34 ,0x16, 0x8b ,
   0x55, 0xa7 ,0x48 ,0x21 ,0xd1 ,0x29 ,0x14, 0x00 ,0x40, 0xb1 ,
   0x64, 0x34, 0x16 ,0x8b ,0x55, 0xa7 ,0x48 ,0x21, 0xd1 ,0x29, 
   0x14 ,0x00 ,0x40, 0xb1 ,0x64, 0x34, 0x16, 0x8b, 0x55, 0xa7, 
   0x48, 0x21, 0xd1, 0x29, 0x14, 0x00, 0x4f, 0xb1, 0x64, 0x34, 
   0x16, 0x8b, 0x55, 0xa7, 0x48, 0x21, 0xd1, 0x29, 0x94 ,0x01 ,
   0x49 ,0xb1 ,0x64 ,0x34, 0x16, 0x8b ,0x55, 0xa7 ,0x48, 0x21 ,
   0xd1 ,0x29 ,0x94, 0x00 ,0x49 ,0xb1, 0x64 ,0x34, 0x16 ,0x8b ,
   0x55, 0xa7 ,0x48 ,0x21 ,0xd1, 0x29 ,0x94 ,0x00 ,0x49 ,0xb1 ,
   0x64 ,0x34, 0x16, 0x8b ,0x55 ,0xa7, 0x48, 0x21 ,0xd1, 0x29, 
   0x94 ,0x07, 0x49 ,0xb1 ,0x64, 0x34 ,0x16 ,0x8b, 0x55, 0xa7 ,
   0x48, 0x21 ,0xd1, 0x29 ,0x94 ,0x04, 0x49 ,0xb1, 0x00 ,0x00 ,
   0x00, 0x00 ,0x50, 0x00, 0x00, 0x00 ,0x00, 0x28 ,0x94, 0x04 ,
   0x4f ,0xb1 ,0x00 ,0x00 ,0x00, 0x00 ,0x50, 0x00 ,0x00, 0x00 ,
   0x00 ,0x28 ,0x94 ,0x07 ,0x40, 0xb1 ,0x3c, 0x1e ,0x8f, 0xc7, 
   0x53 ,0x1e ,0x8f, 0xc1 ,0x23 ,0x29, 0x14 ,0x00, 0x40 ,0xb1 ,
   0x24, 0x12 ,0x89, 0x44, 0x52, 0x12, 0x89, 0x40, 0x22, 0x29, 
   0x14, 0x00, 0x40, 0xb1, 0x20, 0x12, 0x89, 0x44, 0x52, 0x12, 
   0x89, 0x40, 0x22, 0x29, 0x14, 0x00, 0x40 ,0xb1 ,0x3c ,0x1e ,
   0x89 ,0x44, 0x52, 0x12 ,0x8c, 0xc7 ,0xe3, 0x29 ,0x14 ,0x00 ,
   0x00, 0x00 ,0x04 ,0x10, 0x89 ,0x44, 0x02 ,0x12 ,0x84, 0x44 ,
   0x02 ,0x01 ,0x00, 0x00 ,0x00 ,0x00 ,0x24 ,0x10 ,0x89 ,0x44, 
   0x02, 0x12 ,0x84 ,0x44, 0x02, 0x01 ,0x00, 0x00, 0x00 ,0x00, 
   0x3c ,0x10 ,0x8f, 0xc7 ,0x03 ,0x1e, 0x84, 0xc7 ,0x03, 0x01 ,
   0x00, 0x00 ,};
/* the milk.com barcode generator; http://www.milk.com/barcode/ */
