#define milk_barcode_width 107
#define milk_barcode_height 68
static char milk_barcode_bits[] = {
   0x00 ,0x00 ,0x00 ,0x27 ,0x85 ,0x04, 0x00, 0x00 ,0x00, 0x00 ,
   0x00, 0x00 ,0x00 ,0x00 ,0x00, 0x00 ,0x00 ,0x29, 0x85 ,0x04, 
   0x00 ,0x00 ,0x00, 0x00 ,0x00 ,0x00 ,0x00, 0x00 ,0x00 ,0x00 ,
   0x00 ,0x29 ,0x85 ,0x04, 0xde, 0x7b ,0xef ,0xbd, 0x07, 0x00 ,
   0x00, 0x00, 0x00 ,0x00, 0x00 ,0x27 ,0x85, 0xf3 ,0x52 ,0x4a, 
   0x21, 0x85 ,0x04, 0x00 ,0x00, 0x00 ,0x00 ,0x00, 0x00 ,0x29, 
   0x85 ,0x04 ,0x52, 0x4a ,0x21, 0x85, 0x04, 0x00 ,0x00, 0x00 ,
   0x00, 0x00 ,0x00 ,0x29 ,0x85 ,0x04 ,0x5e, 0x7a ,0x21, 0x85 ,
   0x04, 0x00 ,0x00 ,0x00 ,0x00 ,0x00 ,0x00, 0xe7 ,0xbd, 0x04 ,
   0xc2, 0x0b, 0xef ,0x85 ,0x04, 0x00 ,0x00 ,0x00, 0x00 ,0x00, 
   0x00 ,0x00 ,0x00, 0x00 ,0x02, 0x08, 0x00, 0x00, 0x00, 0x00, 
   0x00, 0x00, 0x40, 0xb1, 0x6e, 0x3d, 0xd3, 0x88, 0x55, 0x9b, 
   0x59, 0x21, 0x11, 0x8a, 0x14, 0x00, 0x40, 0xb1, 0x6e ,0x3d ,
   0xd3 ,0x88 ,0x55 ,0x9b, 0x59, 0x21 ,0x11, 0x8a ,0x14, 0x00 ,
   0x40 ,0xb1 ,0x6e, 0x3d ,0xd3 ,0x88, 0x55 ,0x9b, 0x59 ,0x21 ,
   0x11, 0x8a ,0x14 ,0x00 ,0x40, 0xb1 ,0x6e ,0x3d ,0xd3 ,0x88 ,
   0x55 ,0x9b, 0x59, 0x21 ,0x11 ,0x8a, 0x14, 0x00 ,0x40, 0xb1, 
   0x6e ,0x3d, 0xd3 ,0x88 ,0x55, 0x9b ,0x59 ,0x21, 0x11, 0x8a ,
   0x14, 0x00 ,0x40, 0xb1 ,0x6e ,0x3d, 0xd3 ,0x88, 0x55 ,0x9b ,
   0x59, 0x21 ,0x11, 0x8a, 0x14, 0x00 ,0x40, 0xb1 ,0x6e, 0x3d ,
   0xd3 ,0x88 ,0x55 ,0x9b ,0x59, 0x21 ,0x11, 0x8a ,0x14, 0x00 ,
   0x40 ,0xb1 ,0x6e ,0x3d ,0xd3, 0x88 ,0x55, 0x9b ,0x59, 0x21, 
   0x11 ,0x8a ,0x14, 0x00 ,0x40 ,0xb1, 0x6e ,0x3d, 0xd3 ,0x88 ,
   0x55, 0x9b ,0x59, 0x21, 0x11, 0x8a, 0x14, 0x00, 0x40, 0xb1, 
   0x6e, 0x3d, 0xd3, 0x88, 0x55, 0x9b, 0x59, 0x21, 0x11, 0x8a, 
   0x14, 0x00, 0x40, 0xb1, 0x6e, 0x3d, 0xd3 ,0x88 ,0x55 ,0x9b ,
   0x59 ,0x21, 0x11, 0x8a ,0x14, 0x00 ,0x40, 0xb1 ,0x6e ,0x3d ,
   0xd3, 0x88 ,0x55 ,0x9b, 0x59 ,0x21, 0x11 ,0x8a ,0x14, 0x00 ,
   0x40 ,0xb1 ,0x6e, 0x3d ,0xd3 ,0x88 ,0x55 ,0x9b ,0x59 ,0x21, 
   0x11, 0x8a ,0x14 ,0x00, 0x40, 0xb1 ,0x6e, 0x3d, 0xd3 ,0x88, 
   0x55 ,0x9b ,0x59, 0x21 ,0x11 ,0x8a, 0x14, 0x00 ,0x40, 0xb1 ,
   0x6e, 0x3d ,0xd3 ,0x88, 0x55 ,0x9b, 0x59 ,0x21 ,0x11, 0x8a ,
   0x14, 0x00, 0x40, 0xb1 ,0x6e, 0x3d ,0xd3, 0x88 ,0x55 ,0x9b ,
   0x59 ,0x21 ,0x11, 0x8a ,0x14, 0x00 ,0x40, 0xb1 ,0x6e ,0x3d ,
   0xd3 ,0x88 ,0x55, 0x9b ,0x59, 0x21 ,0x11, 0x8a, 0x14 ,0x00 ,
   0x40, 0xb1 ,0x6e ,0x3d, 0xd3 ,0x88, 0x55 ,0x9b ,0x59, 0x21 ,
   0x11, 0x8a, 0x14, 0x00, 0x40, 0xb1, 0x6e, 0x3d, 0xd3, 0x88, 
   0x55, 0x9b, 0x59, 0x21, 0x11, 0x8a, 0x14, 0x00, 0x40, 0xb1, 
   0x6e, 0x3d, 0xd3, 0x88, 0x55 ,0x9b ,0x59 ,0x21 ,0x11 ,0x8a, 
   0x14, 0x00 ,0x40, 0xb1 ,0x6e, 0x3d ,0xd3 ,0x88 ,0x55, 0x9b ,
   0x59 ,0x21, 0x11 ,0x8a, 0x14 ,0x00 ,0x40, 0xb1 ,0x6e ,0x3d ,
   0xd3, 0x88 ,0x55 ,0x9b ,0x59 ,0x21 ,0x11 ,0x8a, 0x14, 0x00 ,
   0x40 ,0xb1, 0x6e, 0x3d ,0xd3, 0x88, 0x55 ,0x9b, 0x59 ,0x21 ,
   0x11, 0x8a ,0x14 ,0x00, 0x40, 0xb1 ,0x6e, 0x3d ,0xd3, 0x88 ,
   0x55 ,0x9b, 0x59 ,0x21, 0x11 ,0x8a ,0x14, 0x00 ,0x40, 0xb1, 
   0x6e, 0x3d ,0xd3, 0x88 ,0x55, 0x9b ,0x59 ,0x21 ,0x11 ,0x8a ,
   0x14, 0x00 ,0x40, 0xb1 ,0x6e, 0x3d ,0xd3 ,0x88 ,0x55 ,0x9b ,
   0x59, 0x21 ,0x11, 0x8a ,0x14, 0x00, 0x40 ,0xb1 ,0x6e, 0x3d ,
   0xd3 ,0x88, 0x55 ,0x9b, 0x59 ,0x21 ,0x11, 0x8a ,0x14, 0x00, 
   0x40, 0xb1, 0x6e, 0x3d, 0xd3, 0x88, 0x55, 0x9b, 0x59, 0x21, 
   0x11, 0x8a, 0x14, 0x00, 0x40, 0xb1, 0x6e, 0x3d, 0xd3, 0x88, 
   0x55, 0x9b, 0x59 ,0x21 ,0x11 ,0x8a ,0x14 ,0x00, 0x40, 0xb1 ,
   0x6e, 0x3d ,0xd3, 0x88 ,0x55 ,0x9b ,0x59, 0x21 ,0x11 ,0x8a, 
   0x14 ,0x00, 0x40 ,0xb1 ,0x6e, 0x3d ,0xd3 ,0x88 ,0x55, 0x9b ,
   0x59 ,0x21 ,0x11 ,0x8a ,0x14 ,0x00, 0x40, 0xb1 ,0x6e ,0x3d, 
   0xd3, 0x88 ,0x55, 0x9b, 0x59 ,0x21, 0x11 ,0x8a ,0x14, 0x00 ,
   0x40 ,0xb1, 0x6e, 0x3d ,0xd3, 0x88 ,0x55, 0x9b ,0x59 ,0x21, 
   0x11 ,0x8a, 0x14 ,0x00 ,0x40, 0xb1 ,0x6e, 0x3d, 0xd3, 0x88 ,
   0x55, 0x9b ,0x59, 0x21 ,0x11 ,0x8a ,0x14 ,0x00 ,0x40, 0xb1 ,
   0x6e, 0x3d ,0xd3, 0x88 ,0x55 ,0x9b ,0x59 ,0x21 ,0x11, 0x8a ,
   0x14, 0x00 ,0x40, 0xb1, 0x6e ,0x3d ,0xd3, 0x88 ,0x55 ,0x9b, 
   0x59 ,0x21, 0x11 ,0x8a ,0x14, 0x00 ,0x40, 0xb1, 0x6e, 0x3d, 
   0xd3, 0x88, 0x55, 0x9b, 0x59, 0x21, 0x11, 0x8a, 0x14, 0x00, 
   0x40, 0xb1, 0x6e, 0x3d, 0xd3, 0x88, 0x55, 0x9b, 0x59, 0x21, 
   0x11 ,0x8a ,0x14 ,0x00 ,0x40 ,0xb1, 0x6e, 0x3d ,0xd3, 0x88 ,
   0x55, 0x9b ,0x59 ,0x21 ,0x11, 0x8a ,0x14 ,0x00, 0x40 ,0xb1, 
   0x6e ,0x3d ,0xd3, 0x88 ,0x55 ,0x9b ,0x59, 0x21 ,0x11 ,0x8a ,
   0x14 ,0x00 ,0x40 ,0xb1, 0x6e, 0x3d ,0xd3 ,0x88, 0x55, 0x9b ,
   0x59, 0x21, 0x11 ,0x8a, 0x14 ,0x00 ,0x40, 0xb1 ,0x6e ,0x3d, 
   0xd3, 0x88 ,0x55, 0x9b ,0x59, 0x21 ,0x11 ,0x8a, 0x14 ,0x00, 
   0x40 ,0xb1 ,0x6e, 0x3d ,0xd3, 0x88, 0x55, 0x9b ,0x59, 0x21 ,
   0x11, 0x8a ,0x14 ,0x00 ,0x40 ,0xb1 ,0x6e, 0x3d ,0xd3, 0x88 ,
   0x55, 0x9b ,0x59 ,0x21 ,0x11 ,0x8a ,0x14, 0x00 ,0x40, 0xb1 ,
   0x6e, 0x3d, 0xd3 ,0x88 ,0x55, 0x9b ,0x59 ,0x21, 0x11 ,0x8a, 
   0x14 ,0x00 ,0x40, 0xb1 ,0x6e, 0x3d, 0xd3, 0x88, 0x55, 0x9b, 
   0x59, 0x21, 0x11, 0x8a, 0x14, 0x00, 0x4f, 0xb1, 0x6e, 0x3d, 
   0xd3, 0x88, 0x55, 0x9b, 0x59, 0x21, 0x11, 0x8a, 0x94 ,0x07 ,
   0x49 ,0xb1 ,0x6e ,0x3d, 0xd3, 0x88 ,0x55, 0x9b ,0x59, 0x21 ,
   0x11 ,0x8a ,0x94, 0x04 ,0x49 ,0xb1, 0x6e ,0x3d, 0xd3 ,0x88 ,
   0x55, 0x9b ,0x59 ,0x21 ,0x11, 0x8a ,0x94 ,0x04 ,0x49 ,0xb1 ,
   0x6e ,0x3d, 0xd3, 0x88 ,0x55 ,0x9b, 0x59, 0x21 ,0x11, 0x8a, 
   0x14 ,0x06, 0x49 ,0xb1 ,0x6e, 0x3d ,0xd3 ,0x88, 0x55, 0x9b ,
   0x59, 0x21 ,0x11, 0x8a ,0x14 ,0x02, 0x49 ,0xb1, 0x00 ,0x00 ,
   0x00, 0x00 ,0x50, 0x00, 0x00, 0x00 ,0x00, 0x88 ,0x14, 0x02 ,
   0x4f ,0xb1 ,0x00 ,0x00 ,0x00, 0x00 ,0x50, 0x00 ,0x00, 0x00 ,
   0x00 ,0x88 ,0x14 ,0x02 ,0x40, 0xb1 ,0x3c, 0x06 ,0x86, 0xc7, 
   0x53 ,0x1e ,0x86, 0xc1 ,0xe3 ,0x89, 0x14 ,0x00, 0x40 ,0xb1 ,
   0x24, 0x02 ,0x84, 0x44, 0x52, 0x12, 0x84, 0x40, 0x02, 0x89, 
   0x14, 0x00, 0x40, 0xb1, 0x24, 0x02, 0x84, 0x40, 0x52, 0x10, 
   0x84, 0x40, 0x02, 0x89, 0x14, 0x00, 0x40 ,0xb1 ,0x30 ,0x1e ,
   0x84 ,0x47, 0x52, 0x1e ,0x84, 0xc7 ,0xe3, 0x89 ,0x14 ,0x00 ,
   0x00, 0x00 ,0x10 ,0x12, 0x04 ,0x44, 0x02 ,0x02 ,0x84, 0x44 ,
   0x02 ,0x01 ,0x00, 0x00 ,0x00 ,0x00 ,0x10 ,0x12 ,0x84 ,0x44, 
   0x02, 0x12 ,0x84 ,0x44, 0x02, 0x01 ,0x00, 0x00, 0x00 ,0x00, 
   0x10 ,0x1e ,0x8f, 0xc7 ,0x03 ,0x1e, 0x8f, 0xc7 ,0xe3, 0x01 ,
   0x00, 0x00 ,};
/* the milk.com barcode generator; http://www.milk.com/barcode/ */
