#define milk_barcode_width 107
#define milk_barcode_height 68
static char milk_barcode_bits[] = {
   0x00 ,0x38 ,0x29 ,0x24 ,0x00 ,0x00, 0x00, 0x00 ,0x00, 0x30 ,
   0x04, 0x00 ,0x00 ,0x00 ,0x00, 0x48 ,0x29 ,0x24, 0x00 ,0x00, 
   0x00 ,0x00 ,0x00, 0x20 ,0x80 ,0x00 ,0x00, 0x00 ,0x00 ,0x48 ,
   0x29 ,0x24 ,0xf0 ,0xde, 0x7b, 0xef ,0x3d ,0x20, 0xc6, 0x7b ,
   0x00, 0x00, 0x00 ,0x38, 0x29 ,0x9c ,0x97, 0x52 ,0x0a ,0x29, 
   0x24, 0x20 ,0x84, 0x48 ,0x00, 0x00 ,0x00 ,0x48, 0x29 ,0x24, 
   0x90 ,0x52 ,0x0a, 0x29 ,0x24, 0x20, 0x84, 0x78 ,0x00, 0x00 ,
   0x00, 0x48 ,0x29 ,0x24 ,0xf0 ,0xd2 ,0x0b, 0x29 ,0x24, 0x20 ,
   0x84, 0x08 ,0x00 ,0x00 ,0x00 ,0x38 ,0xef, 0x25 ,0x10, 0x5e ,
   0x78, 0x2f, 0xa4 ,0x77 ,0x8e, 0x7b ,0x00 ,0x00, 0x00 ,0x00, 
   0x00 ,0x00 ,0x10, 0x40 ,0x00, 0x00, 0x00, 0x00, 0x00, 0x00, 
   0x00, 0x00, 0x40, 0xb1, 0x64, 0x37, 0x16, 0x8b, 0x55, 0x9d, 
   0x44, 0xa7, 0x93, 0x2b, 0x14, 0x00, 0x40, 0xb1, 0x64 ,0x37 ,
   0x16 ,0x8b ,0x55 ,0x9d, 0x44, 0xa7 ,0x93, 0x2b ,0x14, 0x00 ,
   0x40 ,0xb1 ,0x64, 0x37 ,0x16 ,0x8b, 0x55 ,0x9d, 0x44 ,0xa7 ,
   0x93, 0x2b ,0x14 ,0x00 ,0x40, 0xb1 ,0x64 ,0x37 ,0x16 ,0x8b ,
   0x55 ,0x9d, 0x44, 0xa7 ,0x93 ,0x2b, 0x14, 0x00 ,0x40, 0xb1, 
   0x64 ,0x37, 0x16 ,0x8b ,0x55, 0x9d ,0x44 ,0xa7, 0x93, 0x2b ,
   0x14, 0x00 ,0x40, 0xb1 ,0x64 ,0x37, 0x16 ,0x8b, 0x55 ,0x9d ,
   0x44, 0xa7 ,0x93, 0x2b, 0x14, 0x00 ,0x40, 0xb1 ,0x64, 0x37 ,
   0x16 ,0x8b ,0x55 ,0x9d ,0x44, 0xa7 ,0x93, 0x2b ,0x14, 0x00 ,
   0x40 ,0xb1 ,0x64 ,0x37 ,0x16, 0x8b ,0x55, 0x9d ,0x44, 0xa7, 
   0x93 ,0x2b ,0x14, 0x00 ,0x40 ,0xb1, 0x64 ,0x37, 0x16 ,0x8b ,
   0x55, 0x9d ,0x44, 0xa7, 0x93, 0x2b, 0x14, 0x00, 0x40, 0xb1, 
   0x64, 0x37, 0x16, 0x8b, 0x55, 0x9d, 0x44, 0xa7, 0x93, 0x2b, 
   0x14, 0x00, 0x40, 0xb1, 0x64, 0x37, 0x16 ,0x8b ,0x55 ,0x9d ,
   0x44 ,0xa7, 0x93, 0x2b ,0x14, 0x00 ,0x40, 0xb1 ,0x64 ,0x37 ,
   0x16, 0x8b ,0x55 ,0x9d, 0x44 ,0xa7, 0x93 ,0x2b ,0x14, 0x00 ,
   0x40 ,0xb1 ,0x64, 0x37 ,0x16 ,0x8b ,0x55 ,0x9d ,0x44 ,0xa7, 
   0x93, 0x2b ,0x14 ,0x00, 0x40, 0xb1 ,0x64, 0x37, 0x16 ,0x8b, 
   0x55 ,0x9d ,0x44, 0xa7 ,0x93 ,0x2b, 0x14, 0x00 ,0x40, 0xb1 ,
   0x64, 0x37 ,0x16 ,0x8b, 0x55 ,0x9d, 0x44 ,0xa7 ,0x93, 0x2b ,
   0x14, 0x00, 0x40, 0xb1 ,0x64, 0x37 ,0x16, 0x8b ,0x55 ,0x9d ,
   0x44 ,0xa7 ,0x93, 0x2b ,0x14, 0x00 ,0x40, 0xb1 ,0x64 ,0x37 ,
   0x16 ,0x8b ,0x55, 0x9d ,0x44, 0xa7 ,0x93, 0x2b, 0x14 ,0x00 ,
   0x40, 0xb1 ,0x64 ,0x37, 0x16 ,0x8b, 0x55 ,0x9d ,0x44, 0xa7 ,
   0x93, 0x2b, 0x14, 0x00, 0x40, 0xb1, 0x64, 0x37, 0x16, 0x8b, 
   0x55, 0x9d, 0x44, 0xa7, 0x93, 0x2b, 0x14, 0x00, 0x40, 0xb1, 
   0x64, 0x37, 0x16, 0x8b, 0x55 ,0x9d ,0x44 ,0xa7 ,0x93 ,0x2b, 
   0x14, 0x00 ,0x40, 0xb1 ,0x64, 0x37 ,0x16 ,0x8b ,0x55, 0x9d ,
   0x44 ,0xa7, 0x93 ,0x2b, 0x14 ,0x00 ,0x40, 0xb1 ,0x64 ,0x37 ,
   0x16, 0x8b ,0x55 ,0x9d ,0x44 ,0xa7 ,0x93 ,0x2b, 0x14, 0x00 ,
   0x40 ,0xb1, 0x64, 0x37 ,0x16, 0x8b, 0x55 ,0x9d, 0x44 ,0xa7 ,
   0x93, 0x2b ,0x14 ,0x00, 0x40, 0xb1 ,0x64, 0x37 ,0x16, 0x8b ,
   0x55 ,0x9d, 0x44 ,0xa7, 0x93 ,0x2b ,0x14, 0x00 ,0x40, 0xb1, 
   0x64, 0x37 ,0x16, 0x8b ,0x55, 0x9d ,0x44 ,0xa7 ,0x93 ,0x2b ,
   0x14, 0x00 ,0x40, 0xb1 ,0x64, 0x37 ,0x16 ,0x8b ,0x55 ,0x9d ,
   0x44, 0xa7 ,0x93, 0x2b ,0x14, 0x00, 0x40 ,0xb1 ,0x64, 0x37 ,
   0x16 ,0x8b, 0x55 ,0x9d, 0x44 ,0xa7 ,0x93, 0x2b ,0x14, 0x00, 
   0x40, 0xb1, 0x64, 0x37, 0x16, 0x8b, 0x55, 0x9d, 0x44, 0xa7, 
   0x93, 0x2b, 0x14, 0x00, 0x40, 0xb1, 0x64, 0x37, 0x16, 0x8b, 
   0x55, 0x9d, 0x44 ,0xa7 ,0x93 ,0x2b ,0x14 ,0x00, 0x40, 0xb1 ,
   0x64, 0x37 ,0x16, 0x8b ,0x55 ,0x9d ,0x44, 0xa7 ,0x93 ,0x2b, 
   0x14 ,0x00, 0x40 ,0xb1 ,0x64, 0x37 ,0x16 ,0x8b ,0x55, 0x9d ,
   0x44 ,0xa7 ,0x93 ,0x2b ,0x14 ,0x00, 0x40, 0xb1 ,0x64 ,0x37, 
   0x16, 0x8b ,0x55, 0x9d, 0x44 ,0xa7, 0x93 ,0x2b ,0x14, 0x00 ,
   0x40 ,0xb1, 0x64, 0x37 ,0x16, 0x8b ,0x55, 0x9d ,0x44 ,0xa7, 
   0x93 ,0x2b, 0x14 ,0x00 ,0x40, 0xb1 ,0x64, 0x37, 0x16, 0x8b ,
   0x55, 0x9d ,0x44, 0xa7 ,0x93 ,0x2b ,0x14 ,0x00 ,0x40, 0xb1 ,
   0x64, 0x37 ,0x16, 0x8b ,0x55 ,0x9d ,0x44 ,0xa7 ,0x93, 0x2b ,
   0x14, 0x00 ,0x40, 0xb1, 0x64 ,0x37 ,0x16, 0x8b ,0x55 ,0x9d, 
   0x44 ,0xa7, 0x93 ,0x2b ,0x14, 0x00 ,0x40, 0xb1, 0x64, 0x37, 
   0x16, 0x8b, 0x55, 0x9d, 0x44, 0xa7, 0x93, 0x2b, 0x14, 0x00, 
   0x40, 0xb1, 0x64, 0x37, 0x16, 0x8b, 0x55, 0x9d, 0x44, 0xa7, 
   0x93 ,0x2b ,0x14 ,0x00 ,0x40 ,0xb1, 0x64, 0x37 ,0x16, 0x8b ,
   0x55, 0x9d ,0x44 ,0xa7 ,0x93, 0x2b ,0x14 ,0x00, 0x40 ,0xb1, 
   0x64 ,0x37 ,0x16, 0x8b ,0x55 ,0x9d ,0x44, 0xa7 ,0x93 ,0x2b ,
   0x14 ,0x00 ,0x40 ,0xb1, 0x64, 0x37 ,0x16 ,0x8b, 0x55, 0x9d ,
   0x44, 0xa7, 0x93 ,0x2b, 0x14 ,0x00 ,0x40, 0xb1 ,0x64 ,0x37, 
   0x16, 0x8b ,0x55, 0x9d ,0x44, 0xa7 ,0x93 ,0x2b, 0x14 ,0x00, 
   0x40 ,0xb1 ,0x64, 0x37 ,0x16, 0x8b, 0x55, 0x9d ,0x44, 0xa7 ,
   0x93, 0x2b ,0x14 ,0x00 ,0x40 ,0xb1 ,0x64, 0x37 ,0x16, 0x8b ,
   0x55, 0x9d ,0x44 ,0xa7 ,0x93 ,0x2b ,0x14, 0x00 ,0x40, 0xb1 ,
   0x64, 0x37, 0x16 ,0x8b ,0x55, 0x9d ,0x44 ,0xa7, 0x93 ,0x2b, 
   0x14 ,0x00 ,0x40, 0xb1 ,0x64, 0x37, 0x16, 0x8b, 0x55, 0x9d, 
   0x44, 0xa7, 0x93, 0x2b, 0x14, 0x00, 0x4f, 0xb1, 0x64, 0x37, 
   0x16, 0x8b, 0x55, 0x9d, 0x44, 0xa7, 0x93, 0x2b, 0x94 ,0x01 ,
   0x49 ,0xb1 ,0x64 ,0x37, 0x16, 0x8b ,0x55, 0x9d ,0x44, 0xa7 ,
   0x93 ,0x2b ,0x94, 0x00 ,0x49 ,0xb1, 0x64 ,0x37, 0x16 ,0x8b ,
   0x55, 0x9d ,0x44 ,0xa7 ,0x93, 0x2b ,0x94 ,0x00 ,0x49 ,0xb1 ,
   0x64 ,0x37, 0x16, 0x8b ,0x55 ,0x9d, 0x44, 0xa7 ,0x93, 0x2b, 
   0x94 ,0x07, 0x49 ,0xb1 ,0x64, 0x37 ,0x16 ,0x8b, 0x55, 0x9d ,
   0x44, 0xa7 ,0x93, 0x2b ,0x94 ,0x04, 0x49 ,0xb1, 0x00 ,0x00 ,
   0x00, 0x00 ,0x50, 0x00, 0x00, 0x00 ,0x00, 0x28 ,0x94, 0x04 ,
   0x4f ,0xb1 ,0x00 ,0x00 ,0x00, 0x00 ,0x50, 0x00 ,0x00, 0x00 ,
   0x00 ,0x28 ,0x94 ,0x07 ,0x40, 0xb1 ,0x3c, 0x1e ,0x8f, 0xc7, 
   0x53 ,0x12 ,0x8f, 0x44 ,0xe2 ,0x29, 0x14 ,0x00, 0x40 ,0xb1 ,
   0x24, 0x12 ,0x89, 0x44, 0x52, 0x12, 0x89, 0x44, 0x22, 0x29, 
   0x14, 0x00, 0x40, 0xb1, 0x20, 0x12, 0x89, 0x44, 0x52, 0x12, 
   0x89, 0x44, 0x22, 0x28, 0x14, 0x00, 0x40 ,0xb1 ,0x3c ,0x18 ,
   0x89 ,0x44, 0x52, 0x1e ,0x8f, 0xc7 ,0xe3, 0x29 ,0x14 ,0x00 ,
   0x00, 0x00 ,0x04 ,0x08, 0x89 ,0x44, 0x02 ,0x10 ,0x09, 0x04 ,
   0x02 ,0x01 ,0x00, 0x00 ,0x00 ,0x00 ,0x24 ,0x08 ,0x89 ,0x44, 
   0x02, 0x10 ,0x09 ,0x04, 0x22, 0x01 ,0x00, 0x00, 0x00 ,0x00, 
   0x3c ,0x08 ,0x8f, 0xc7 ,0x03 ,0x10, 0x0f, 0x04 ,0xe2, 0x01 ,
   0x00, 0x00 ,};
/* the milk.com barcode generator; http://www.milk.com/barcode/ */
