#define milk_barcode_width 107
#define milk_barcode_height 68
static char milk_barcode_bits[] = {
   0x00 ,0xc0 ,0x49 ,0x21 ,0x01 ,0x00, 0x04, 0x10 ,0x00, 0x00 ,
   0x00, 0x00 ,0x00 ,0x00 ,0x00, 0x40 ,0x4a ,0x21, 0x01 ,0x00, 
   0x00 ,0x00 ,0x00, 0x08 ,0x01 ,0x00 ,0x00, 0x00 ,0x00 ,0x40 ,
   0x4a ,0x21 ,0x81 ,0xf7, 0xc6, 0x1b ,0xef ,0xbd, 0xf7, 0x1e ,
   0x00, 0x00, 0x00 ,0xc0, 0x49 ,0xe1 ,0xbc, 0x80 ,0x44 ,0x10, 
   0x29, 0x09 ,0x91, 0x02 ,0x00, 0x00 ,0x00 ,0x40, 0x4a ,0x21, 
   0x81 ,0xf0 ,0xc4, 0x13 ,0xe9, 0x09, 0xf1, 0x1e ,0x00, 0x00 ,
   0x00, 0x40 ,0x4a ,0x21 ,0x81 ,0x90 ,0x04, 0x12 ,0x29, 0x08 ,
   0x11, 0x10 ,0x00 ,0x00 ,0x00 ,0xc0 ,0x79, 0x2f ,0x81, 0xf0 ,
   0xce, 0x3b, 0xe9 ,0x39 ,0xf7, 0x1e ,0x00 ,0x00, 0x00 ,0x00, 
   0x00 ,0x00 ,0x00, 0x00 ,0x00, 0x00, 0x00, 0x00, 0x00, 0x00, 
   0x00, 0x00, 0x40, 0xb1, 0x64, 0x3b, 0x16, 0x8b, 0x55, 0xa7, 
   0xc4, 0xe9, 0x14, 0xc9, 0x15, 0x00, 0x40, 0xb1, 0x64 ,0x3b ,
   0x16 ,0x8b ,0x55 ,0xa7, 0xc4, 0xe9 ,0x14, 0xc9 ,0x15, 0x00 ,
   0x40 ,0xb1 ,0x64, 0x3b ,0x16 ,0x8b, 0x55 ,0xa7, 0xc4 ,0xe9 ,
   0x14, 0xc9 ,0x15 ,0x00 ,0x40, 0xb1 ,0x64 ,0x3b ,0x16 ,0x8b ,
   0x55 ,0xa7, 0xc4, 0xe9 ,0x14 ,0xc9, 0x15, 0x00 ,0x40, 0xb1, 
   0x64 ,0x3b, 0x16 ,0x8b ,0x55, 0xa7 ,0xc4 ,0xe9, 0x14, 0xc9 ,
   0x15, 0x00 ,0x40, 0xb1 ,0x64 ,0x3b, 0x16 ,0x8b, 0x55 ,0xa7 ,
   0xc4, 0xe9 ,0x14, 0xc9, 0x15, 0x00 ,0x40, 0xb1 ,0x64, 0x3b ,
   0x16 ,0x8b ,0x55 ,0xa7 ,0xc4, 0xe9 ,0x14, 0xc9 ,0x15, 0x00 ,
   0x40 ,0xb1 ,0x64 ,0x3b ,0x16, 0x8b ,0x55, 0xa7 ,0xc4, 0xe9, 
   0x14 ,0xc9 ,0x15, 0x00 ,0x40 ,0xb1, 0x64 ,0x3b, 0x16 ,0x8b ,
   0x55, 0xa7 ,0xc4, 0xe9, 0x14, 0xc9, 0x15, 0x00, 0x40, 0xb1, 
   0x64, 0x3b, 0x16, 0x8b, 0x55, 0xa7, 0xc4, 0xe9, 0x14, 0xc9, 
   0x15, 0x00, 0x40, 0xb1, 0x64, 0x3b, 0x16 ,0x8b ,0x55 ,0xa7 ,
   0xc4 ,0xe9, 0x14, 0xc9 ,0x15, 0x00 ,0x40, 0xb1 ,0x64 ,0x3b ,
   0x16, 0x8b ,0x55 ,0xa7, 0xc4 ,0xe9, 0x14 ,0xc9 ,0x15, 0x00 ,
   0x40 ,0xb1 ,0x64, 0x3b ,0x16 ,0x8b ,0x55 ,0xa7 ,0xc4 ,0xe9, 
   0x14, 0xc9 ,0x15 ,0x00, 0x40, 0xb1 ,0x64, 0x3b, 0x16 ,0x8b, 
   0x55 ,0xa7 ,0xc4, 0xe9 ,0x14 ,0xc9, 0x15, 0x00 ,0x40, 0xb1 ,
   0x64, 0x3b ,0x16 ,0x8b, 0x55 ,0xa7, 0xc4 ,0xe9 ,0x14, 0xc9 ,
   0x15, 0x00, 0x40, 0xb1 ,0x64, 0x3b ,0x16, 0x8b ,0x55 ,0xa7 ,
   0xc4 ,0xe9 ,0x14, 0xc9 ,0x15, 0x00 ,0x40, 0xb1 ,0x64 ,0x3b ,
   0x16 ,0x8b ,0x55, 0xa7 ,0xc4, 0xe9 ,0x14, 0xc9, 0x15 ,0x00 ,
   0x40, 0xb1 ,0x64 ,0x3b, 0x16 ,0x8b, 0x55 ,0xa7 ,0xc4, 0xe9 ,
   0x14, 0xc9, 0x15, 0x00, 0x40, 0xb1, 0x64, 0x3b, 0x16, 0x8b, 
   0x55, 0xa7, 0xc4, 0xe9, 0x14, 0xc9, 0x15, 0x00, 0x40, 0xb1, 
   0x64, 0x3b, 0x16, 0x8b, 0x55 ,0xa7 ,0xc4 ,0xe9 ,0x14 ,0xc9, 
   0x15, 0x00 ,0x40, 0xb1 ,0x64, 0x3b ,0x16 ,0x8b ,0x55, 0xa7 ,
   0xc4 ,0xe9, 0x14 ,0xc9, 0x15 ,0x00 ,0x40, 0xb1 ,0x64 ,0x3b ,
   0x16, 0x8b ,0x55 ,0xa7 ,0xc4 ,0xe9 ,0x14 ,0xc9, 0x15, 0x00 ,
   0x40 ,0xb1, 0x64, 0x3b ,0x16, 0x8b, 0x55 ,0xa7, 0xc4 ,0xe9 ,
   0x14, 0xc9 ,0x15 ,0x00, 0x40, 0xb1 ,0x64, 0x3b ,0x16, 0x8b ,
   0x55 ,0xa7, 0xc4 ,0xe9, 0x14 ,0xc9 ,0x15, 0x00 ,0x40, 0xb1, 
   0x64, 0x3b ,0x16, 0x8b ,0x55, 0xa7 ,0xc4 ,0xe9 ,0x14 ,0xc9 ,
   0x15, 0x00 ,0x40, 0xb1 ,0x64, 0x3b ,0x16 ,0x8b ,0x55 ,0xa7 ,
   0xc4, 0xe9 ,0x14, 0xc9 ,0x15, 0x00, 0x40 ,0xb1 ,0x64, 0x3b ,
   0x16 ,0x8b, 0x55 ,0xa7, 0xc4 ,0xe9 ,0x14, 0xc9 ,0x15, 0x00, 
   0x40, 0xb1, 0x64, 0x3b, 0x16, 0x8b, 0x55, 0xa7, 0xc4, 0xe9, 
   0x14, 0xc9, 0x15, 0x00, 0x40, 0xb1, 0x64, 0x3b, 0x16, 0x8b, 
   0x55, 0xa7, 0xc4 ,0xe9 ,0x14 ,0xc9 ,0x15 ,0x00, 0x40, 0xb1 ,
   0x64, 0x3b ,0x16, 0x8b ,0x55 ,0xa7 ,0xc4, 0xe9 ,0x14 ,0xc9, 
   0x15 ,0x00, 0x40 ,0xb1 ,0x64, 0x3b ,0x16 ,0x8b ,0x55, 0xa7 ,
   0xc4 ,0xe9 ,0x14 ,0xc9 ,0x15 ,0x00, 0x40, 0xb1 ,0x64 ,0x3b, 
   0x16, 0x8b ,0x55, 0xa7, 0xc4 ,0xe9, 0x14 ,0xc9 ,0x15, 0x00 ,
   0x40 ,0xb1, 0x64, 0x3b ,0x16, 0x8b ,0x55, 0xa7 ,0xc4 ,0xe9, 
   0x14 ,0xc9, 0x15 ,0x00 ,0x40, 0xb1 ,0x64, 0x3b, 0x16, 0x8b ,
   0x55, 0xa7 ,0xc4, 0xe9 ,0x14 ,0xc9 ,0x15 ,0x00 ,0x40, 0xb1 ,
   0x64, 0x3b ,0x16, 0x8b ,0x55 ,0xa7 ,0xc4 ,0xe9 ,0x14, 0xc9 ,
   0x15, 0x00 ,0x40, 0xb1, 0x64 ,0x3b ,0x16, 0x8b ,0x55 ,0xa7, 
   0xc4 ,0xe9, 0x14 ,0xc9 ,0x15, 0x00 ,0x40, 0xb1, 0x64, 0x3b, 
   0x16, 0x8b, 0x55, 0xa7, 0xc4, 0xe9, 0x14, 0xc9, 0x15, 0x00, 
   0x40, 0xb1, 0x64, 0x3b, 0x16, 0x8b, 0x55, 0xa7, 0xc4, 0xe9, 
   0x14 ,0xc9 ,0x15 ,0x00 ,0x40 ,0xb1, 0x64, 0x3b ,0x16, 0x8b ,
   0x55, 0xa7 ,0xc4 ,0xe9 ,0x14, 0xc9 ,0x15 ,0x00, 0x40 ,0xb1, 
   0x64 ,0x3b ,0x16, 0x8b ,0x55 ,0xa7 ,0xc4, 0xe9 ,0x14 ,0xc9 ,
   0x15 ,0x00 ,0x40 ,0xb1, 0x64, 0x3b ,0x16 ,0x8b, 0x55, 0xa7 ,
   0xc4, 0xe9, 0x14 ,0xc9, 0x15 ,0x00 ,0x40, 0xb1 ,0x64 ,0x3b, 
   0x16, 0x8b ,0x55, 0xa7 ,0xc4, 0xe9 ,0x14 ,0xc9, 0x15 ,0x00, 
   0x40 ,0xb1 ,0x64, 0x3b ,0x16, 0x8b, 0x55, 0xa7 ,0xc4, 0xe9 ,
   0x14, 0xc9 ,0x15 ,0x00 ,0x40 ,0xb1 ,0x64, 0x3b ,0x16, 0x8b ,
   0x55, 0xa7 ,0xc4 ,0xe9 ,0x14 ,0xc9 ,0x15, 0x00 ,0x40, 0xb1 ,
   0x64, 0x3b, 0x16 ,0x8b ,0x55, 0xa7 ,0xc4 ,0xe9, 0x14 ,0xc9, 
   0x15 ,0x00 ,0x40, 0xb1 ,0x64, 0x3b, 0x16, 0x8b, 0x55, 0xa7, 
   0xc4, 0xe9, 0x14, 0xc9, 0x15, 0x00, 0x4f, 0xb1, 0x64, 0x3b, 
   0x16, 0x8b, 0x55, 0xa7, 0xc4, 0xe9, 0x14, 0xc9, 0x95 ,0x07 ,
   0x49 ,0xb1 ,0x64 ,0x3b, 0x16, 0x8b ,0x55, 0xa7 ,0xc4, 0xe9 ,
   0x14 ,0xc9 ,0x95, 0x04 ,0x49 ,0xb1, 0x64 ,0x3b, 0x16 ,0x8b ,
   0x55, 0xa7 ,0xc4 ,0xe9 ,0x14, 0xc9 ,0x95 ,0x00 ,0x49 ,0xb1 ,
   0x64 ,0x3b, 0x16, 0x8b ,0x55 ,0xa7, 0xc4, 0xe9 ,0x14, 0xc9, 
   0x95 ,0x07, 0x49 ,0xb1 ,0x64, 0x3b ,0x16 ,0x8b, 0x55, 0xa7 ,
   0xc4, 0xe9 ,0x14, 0xc9 ,0x15 ,0x04, 0x49 ,0xb1, 0x00 ,0x00 ,
   0x00, 0x00 ,0x50, 0x00, 0x00, 0x00 ,0x00, 0xc8 ,0x95, 0x04 ,
   0x4f ,0xb1 ,0x00 ,0x00 ,0x00, 0x00 ,0x50, 0x00 ,0x00, 0x00 ,
   0x00 ,0xc8 ,0x95 ,0x07 ,0x40, 0xb1 ,0x3c, 0x1e ,0x8f, 0xc7, 
   0x53 ,0x1e ,0x8f, 0xc7 ,0xe3 ,0xc9, 0x15 ,0x00, 0x40 ,0xb1 ,
   0x24, 0x12 ,0x89, 0x44, 0x52, 0x12, 0x89, 0x44, 0x22, 0xc9, 
   0x15, 0x00, 0x40, 0xb1, 0x20, 0x12, 0x89, 0x44, 0x52, 0x12, 
   0x89, 0x44, 0x22, 0xc9, 0x15, 0x00, 0x40 ,0xb1 ,0x3c ,0x1e ,
   0x89 ,0x44, 0x52, 0x12 ,0x8f, 0x44 ,0x82, 0xc9 ,0x15 ,0x00 ,
   0x00, 0x00 ,0x04 ,0x12, 0x89 ,0x44, 0x02 ,0x12 ,0x89, 0x44 ,
   0x82 ,0x00 ,0x00, 0x00 ,0x00 ,0x00 ,0x24 ,0x12 ,0x89 ,0x44, 
   0x02, 0x12 ,0x89 ,0x44, 0x82, 0x00 ,0x00, 0x00, 0x00 ,0x00, 
   0x3c ,0x1e ,0x8f, 0xc7 ,0x03 ,0x1e, 0x8f, 0xc7 ,0x83, 0x00 ,
   0x00, 0x00 ,};
/* the milk.com barcode generator; http://www.milk.com/barcode/ */
