#define milk_barcode_width 107
#define milk_barcode_height 68
static char milk_barcode_bits[] = {
   0x14 ,0x12 ,0x00 ,0x02 ,0x00 ,0x10, 0x80, 0x00 ,0x40, 0x00 ,
   0x00, 0x00 ,0x00 ,0x00 ,0x14, 0x12 ,0x00 ,0x00, 0x00 ,0x10, 
   0x00 ,0x00 ,0x00, 0x00 ,0x20 ,0x00 ,0x00, 0x02 ,0x14 ,0x12 ,
   0x78 ,0xe3 ,0x3d ,0x90, 0xde, 0x78 ,0x6f ,0x3c, 0xf0, 0xde ,
   0x7b, 0x07, 0x14 ,0xce, 0x0b ,0x22 ,0x24, 0x50 ,0x82 ,0x08, 
   0x49, 0x24 ,0x20, 0x42 ,0x42, 0x02 ,0x14 ,0x12, 0x08 ,0x22, 
   0x3c ,0x30 ,0x82, 0x78 ,0x49, 0x3c, 0x20, 0xc2 ,0x7b, 0x02 ,
   0x14, 0x12 ,0x08 ,0x22 ,0x04 ,0x50 ,0x82, 0x40 ,0x4f, 0x04 ,
   0x20, 0x42 ,0x48 ,0x02 ,0xf7 ,0x12 ,0x08, 0xe7 ,0xbd, 0x97 ,
   0xc2, 0x79, 0xe1 ,0xbc ,0xe7, 0xc2 ,0x7b ,0x06, 0x00 ,0x00, 
   0x00 ,0x00 ,0x00, 0x00 ,0x00, 0x00, 0x01, 0x00, 0x00, 0x00, 
   0x00, 0x00, 0x40, 0xb1, 0x5e, 0x3b, 0x16, 0x8b, 0x55, 0x91, 
   0x42, 0x6e, 0x73, 0xba, 0x14, 0x00, 0x40, 0xb1, 0x5e ,0x3b ,
   0x16 ,0x8b ,0x55 ,0x91, 0x42, 0x6e ,0x73, 0xba ,0x14, 0x00 ,
   0x40 ,0xb1 ,0x5e, 0x3b ,0x16 ,0x8b, 0x55 ,0x91, 0x42 ,0x6e ,
   0x73, 0xba ,0x14 ,0x00 ,0x40, 0xb1 ,0x5e ,0x3b ,0x16 ,0x8b ,
   0x55 ,0x91, 0x42, 0x6e ,0x73 ,0xba, 0x14, 0x00 ,0x40, 0xb1, 
   0x5e ,0x3b, 0x16 ,0x8b ,0x55, 0x91 ,0x42 ,0x6e, 0x73, 0xba ,
   0x14, 0x00 ,0x40, 0xb1 ,0x5e ,0x3b, 0x16 ,0x8b, 0x55 ,0x91 ,
   0x42, 0x6e ,0x73, 0xba, 0x14, 0x00 ,0x40, 0xb1 ,0x5e, 0x3b ,
   0x16 ,0x8b ,0x55 ,0x91 ,0x42, 0x6e ,0x73, 0xba ,0x14, 0x00 ,
   0x40 ,0xb1 ,0x5e ,0x3b ,0x16, 0x8b ,0x55, 0x91 ,0x42, 0x6e, 
   0x73 ,0xba ,0x14, 0x00 ,0x40 ,0xb1, 0x5e ,0x3b, 0x16 ,0x8b ,
   0x55, 0x91 ,0x42, 0x6e, 0x73, 0xba, 0x14, 0x00, 0x40, 0xb1, 
   0x5e, 0x3b, 0x16, 0x8b, 0x55, 0x91, 0x42, 0x6e, 0x73, 0xba, 
   0x14, 0x00, 0x40, 0xb1, 0x5e, 0x3b, 0x16 ,0x8b ,0x55 ,0x91 ,
   0x42 ,0x6e, 0x73, 0xba ,0x14, 0x00 ,0x40, 0xb1 ,0x5e ,0x3b ,
   0x16, 0x8b ,0x55 ,0x91, 0x42 ,0x6e, 0x73 ,0xba ,0x14, 0x00 ,
   0x40 ,0xb1 ,0x5e, 0x3b ,0x16 ,0x8b ,0x55 ,0x91 ,0x42 ,0x6e, 
   0x73, 0xba ,0x14 ,0x00, 0x40, 0xb1 ,0x5e, 0x3b, 0x16 ,0x8b, 
   0x55 ,0x91 ,0x42, 0x6e ,0x73 ,0xba, 0x14, 0x00 ,0x40, 0xb1 ,
   0x5e, 0x3b ,0x16 ,0x8b, 0x55 ,0x91, 0x42 ,0x6e ,0x73, 0xba ,
   0x14, 0x00, 0x40, 0xb1 ,0x5e, 0x3b ,0x16, 0x8b ,0x55 ,0x91 ,
   0x42 ,0x6e ,0x73, 0xba ,0x14, 0x00 ,0x40, 0xb1 ,0x5e ,0x3b ,
   0x16 ,0x8b ,0x55, 0x91 ,0x42, 0x6e ,0x73, 0xba, 0x14 ,0x00 ,
   0x40, 0xb1 ,0x5e ,0x3b, 0x16 ,0x8b, 0x55 ,0x91 ,0x42, 0x6e ,
   0x73, 0xba, 0x14, 0x00, 0x40, 0xb1, 0x5e, 0x3b, 0x16, 0x8b, 
   0x55, 0x91, 0x42, 0x6e, 0x73, 0xba, 0x14, 0x00, 0x40, 0xb1, 
   0x5e, 0x3b, 0x16, 0x8b, 0x55 ,0x91 ,0x42 ,0x6e ,0x73 ,0xba, 
   0x14, 0x00 ,0x40, 0xb1 ,0x5e, 0x3b ,0x16 ,0x8b ,0x55, 0x91 ,
   0x42 ,0x6e, 0x73 ,0xba, 0x14 ,0x00 ,0x40, 0xb1 ,0x5e ,0x3b ,
   0x16, 0x8b ,0x55 ,0x91 ,0x42 ,0x6e ,0x73 ,0xba, 0x14, 0x00 ,
   0x40 ,0xb1, 0x5e, 0x3b ,0x16, 0x8b, 0x55 ,0x91, 0x42 ,0x6e ,
   0x73, 0xba ,0x14 ,0x00, 0x40, 0xb1 ,0x5e, 0x3b ,0x16, 0x8b ,
   0x55 ,0x91, 0x42 ,0x6e, 0x73 ,0xba ,0x14, 0x00 ,0x40, 0xb1, 
   0x5e, 0x3b ,0x16, 0x8b ,0x55, 0x91 ,0x42 ,0x6e ,0x73 ,0xba ,
   0x14, 0x00 ,0x40, 0xb1 ,0x5e, 0x3b ,0x16 ,0x8b ,0x55 ,0x91 ,
   0x42, 0x6e ,0x73, 0xba ,0x14, 0x00, 0x40 ,0xb1 ,0x5e, 0x3b ,
   0x16 ,0x8b, 0x55 ,0x91, 0x42 ,0x6e ,0x73, 0xba ,0x14, 0x00, 
   0x40, 0xb1, 0x5e, 0x3b, 0x16, 0x8b, 0x55, 0x91, 0x42, 0x6e, 
   0x73, 0xba, 0x14, 0x00, 0x40, 0xb1, 0x5e, 0x3b, 0x16, 0x8b, 
   0x55, 0x91, 0x42 ,0x6e ,0x73 ,0xba ,0x14 ,0x00, 0x40, 0xb1 ,
   0x5e, 0x3b ,0x16, 0x8b ,0x55 ,0x91 ,0x42, 0x6e ,0x73 ,0xba, 
   0x14 ,0x00, 0x40 ,0xb1 ,0x5e, 0x3b ,0x16 ,0x8b ,0x55, 0x91 ,
   0x42 ,0x6e ,0x73 ,0xba ,0x14 ,0x00, 0x40, 0xb1 ,0x5e ,0x3b, 
   0x16, 0x8b ,0x55, 0x91, 0x42 ,0x6e, 0x73 ,0xba ,0x14, 0x00 ,
   0x40 ,0xb1, 0x5e, 0x3b ,0x16, 0x8b ,0x55, 0x91 ,0x42 ,0x6e, 
   0x73 ,0xba, 0x14 ,0x00 ,0x40, 0xb1 ,0x5e, 0x3b, 0x16, 0x8b ,
   0x55, 0x91 ,0x42, 0x6e ,0x73 ,0xba ,0x14 ,0x00 ,0x40, 0xb1 ,
   0x5e, 0x3b ,0x16, 0x8b ,0x55 ,0x91 ,0x42 ,0x6e ,0x73, 0xba ,
   0x14, 0x00 ,0x40, 0xb1, 0x5e ,0x3b ,0x16, 0x8b ,0x55 ,0x91, 
   0x42 ,0x6e, 0x73 ,0xba ,0x14, 0x00 ,0x40, 0xb1, 0x5e, 0x3b, 
   0x16, 0x8b, 0x55, 0x91, 0x42, 0x6e, 0x73, 0xba, 0x14, 0x00, 
   0x40, 0xb1, 0x5e, 0x3b, 0x16, 0x8b, 0x55, 0x91, 0x42, 0x6e, 
   0x73 ,0xba ,0x14 ,0x00 ,0x40 ,0xb1, 0x5e, 0x3b ,0x16, 0x8b ,
   0x55, 0x91 ,0x42 ,0x6e ,0x73, 0xba ,0x14 ,0x00, 0x40 ,0xb1, 
   0x5e ,0x3b ,0x16, 0x8b ,0x55 ,0x91 ,0x42, 0x6e ,0x73 ,0xba ,
   0x14 ,0x00 ,0x40 ,0xb1, 0x5e, 0x3b ,0x16 ,0x8b, 0x55, 0x91 ,
   0x42, 0x6e, 0x73 ,0xba, 0x14 ,0x00 ,0x40, 0xb1 ,0x5e ,0x3b, 
   0x16, 0x8b ,0x55, 0x91 ,0x42, 0x6e ,0x73 ,0xba, 0x14 ,0x00, 
   0x40 ,0xb1 ,0x5e, 0x3b ,0x16, 0x8b, 0x55, 0x91 ,0x42, 0x6e ,
   0x73, 0xba ,0x14 ,0x00 ,0x40 ,0xb1 ,0x5e, 0x3b ,0x16, 0x8b ,
   0x55, 0x91 ,0x42 ,0x6e ,0x73 ,0xba ,0x14, 0x00 ,0x40, 0xb1 ,
   0x5e, 0x3b, 0x16 ,0x8b ,0x55, 0x91 ,0x42 ,0x6e, 0x73 ,0xba, 
   0x14 ,0x00 ,0x40, 0xb1 ,0x5e, 0x3b, 0x16, 0x8b, 0x55, 0x91, 
   0x42, 0x6e, 0x73, 0xba, 0x14, 0x00, 0x4f, 0xb1, 0x5e, 0x3b, 
   0x16, 0x8b, 0x55, 0x91, 0x42, 0x6e, 0x73, 0xba, 0x94 ,0x07 ,
   0x49 ,0xb1 ,0x5e ,0x3b, 0x16, 0x8b ,0x55, 0x91 ,0x42, 0x6e ,
   0x73 ,0xba ,0x94, 0x04 ,0x49 ,0xb1, 0x5e ,0x3b, 0x16 ,0x8b ,
   0x55, 0x91 ,0x42 ,0x6e ,0x73, 0xba ,0x94 ,0x04 ,0x49 ,0xb1 ,
   0x5e ,0x3b, 0x16, 0x8b ,0x55 ,0x91, 0x42, 0x6e ,0x73, 0xba, 
   0x94 ,0x07, 0x49 ,0xb1 ,0x5e, 0x3b ,0x16 ,0x8b, 0x55, 0x91 ,
   0x42, 0x6e ,0x73, 0xba ,0x14 ,0x04, 0x49 ,0xb1, 0x00 ,0x00 ,
   0x00, 0x00 ,0x50, 0x00, 0x00, 0x00 ,0x00, 0xb8 ,0x14, 0x04 ,
   0x4f ,0xb1 ,0x00 ,0x00 ,0x00, 0x00 ,0x50, 0x00 ,0x00, 0x00 ,
   0x00 ,0xb8 ,0x14 ,0x04 ,0x40, 0xb1 ,0x3c, 0x1e ,0x8f, 0xc7, 
   0x53 ,0x1e ,0x83, 0xc7 ,0xe3 ,0xb9, 0x14 ,0x00, 0x40 ,0xb1 ,
   0x20, 0x12 ,0x89, 0x44, 0x52, 0x12, 0x81, 0x44, 0x22, 0xb9, 
   0x14, 0x00, 0x40, 0xb1, 0x20, 0x12, 0x89, 0x44, 0x52, 0x12, 
   0x81, 0x00, 0x22, 0xb9, 0x14, 0x00, 0x40 ,0xb1 ,0x3c ,0x1e ,
   0x89 ,0x44, 0x52, 0x18 ,0x8f, 0xc7 ,0x23, 0xb9 ,0x14 ,0x00 ,
   0x00, 0x00 ,0x20 ,0x12, 0x89 ,0x44, 0x02 ,0x08 ,0x09, 0x44 ,
   0x20 ,0x01 ,0x00, 0x00 ,0x00 ,0x00 ,0x20 ,0x12 ,0x89 ,0x44, 
   0x02, 0x08 ,0x89 ,0x44, 0x22, 0x01 ,0x00, 0x00, 0x00 ,0x00, 
   0x3c ,0x1e ,0x8f, 0xc7 ,0x03 ,0x08, 0x8f, 0xc7 ,0xe3, 0x01 ,
   0x00, 0x00 ,};
/* the milk.com barcode generator; http://www.milk.com/barcode/ */
