#define milk_barcode_width 107
#define milk_barcode_height 68
static char milk_barcode_bits[] = {
   0x00 ,0x00 ,0x00 ,0x80 ,0x93 ,0x42, 0x02, 0x00 ,0x0c, 0x00 ,
   0x00, 0x00 ,0x00 ,0x00 ,0x00, 0x00 ,0x00 ,0x80, 0x94 ,0x42, 
   0x02 ,0x00 ,0x08, 0x00 ,0x00 ,0x00 ,0x00, 0x00 ,0x00 ,0x00 ,
   0x00 ,0x80 ,0x94 ,0x42, 0x02, 0xef ,0x89 ,0x07, 0x00, 0x00 ,
   0x00, 0x00, 0x00 ,0x00, 0x00 ,0x80 ,0x93, 0xc2 ,0x79 ,0x21, 
   0x89, 0x04 ,0x00, 0x00 ,0x00, 0x00 ,0x00 ,0x00, 0x00 ,0x80, 
   0x94 ,0x42 ,0x02, 0x21 ,0x89, 0x04, 0x00, 0x00 ,0x00, 0x00 ,
   0x00, 0x00 ,0x00 ,0x80 ,0x94 ,0x42 ,0x02, 0x21 ,0x89, 0x04 ,
   0x00, 0x00 ,0x00 ,0x00 ,0x00 ,0x00 ,0x00, 0x80 ,0xf3, 0x5e ,
   0x02, 0xe1, 0x9d ,0x07 ,0x00, 0x00 ,0x00 ,0x00, 0x00 ,0x00, 
   0x00 ,0x00 ,0x00, 0x00 ,0x00, 0x00, 0x00, 0x00, 0x00, 0x00, 
   0x00, 0x00, 0x40, 0xb1, 0x5e, 0x31, 0x16, 0x8b, 0x55, 0x9b, 
   0x4e, 0xe7, 0x74, 0x0a, 0x15, 0x00, 0x40, 0xb1, 0x5e ,0x31 ,
   0x16 ,0x8b ,0x55 ,0x9b, 0x4e, 0xe7 ,0x74, 0x0a ,0x15, 0x00 ,
   0x40 ,0xb1 ,0x5e, 0x31 ,0x16 ,0x8b, 0x55 ,0x9b, 0x4e ,0xe7 ,
   0x74, 0x0a ,0x15 ,0x00 ,0x40, 0xb1 ,0x5e ,0x31 ,0x16 ,0x8b ,
   0x55 ,0x9b, 0x4e, 0xe7 ,0x74 ,0x0a, 0x15, 0x00 ,0x40, 0xb1, 
   0x5e ,0x31, 0x16 ,0x8b ,0x55, 0x9b ,0x4e ,0xe7, 0x74, 0x0a ,
   0x15, 0x00 ,0x40, 0xb1 ,0x5e ,0x31, 0x16 ,0x8b, 0x55 ,0x9b ,
   0x4e, 0xe7 ,0x74, 0x0a, 0x15, 0x00 ,0x40, 0xb1 ,0x5e, 0x31 ,
   0x16 ,0x8b ,0x55 ,0x9b ,0x4e, 0xe7 ,0x74, 0x0a ,0x15, 0x00 ,
   0x40 ,0xb1 ,0x5e ,0x31 ,0x16, 0x8b ,0x55, 0x9b ,0x4e, 0xe7, 
   0x74 ,0x0a ,0x15, 0x00 ,0x40 ,0xb1, 0x5e ,0x31, 0x16 ,0x8b ,
   0x55, 0x9b ,0x4e, 0xe7, 0x74, 0x0a, 0x15, 0x00, 0x40, 0xb1, 
   0x5e, 0x31, 0x16, 0x8b, 0x55, 0x9b, 0x4e, 0xe7, 0x74, 0x0a, 
   0x15, 0x00, 0x40, 0xb1, 0x5e, 0x31, 0x16 ,0x8b ,0x55 ,0x9b ,
   0x4e ,0xe7, 0x74, 0x0a ,0x15, 0x00 ,0x40, 0xb1 ,0x5e ,0x31 ,
   0x16, 0x8b ,0x55 ,0x9b, 0x4e ,0xe7, 0x74 ,0x0a ,0x15, 0x00 ,
   0x40 ,0xb1 ,0x5e, 0x31 ,0x16 ,0x8b ,0x55 ,0x9b ,0x4e ,0xe7, 
   0x74, 0x0a ,0x15 ,0x00, 0x40, 0xb1 ,0x5e, 0x31, 0x16 ,0x8b, 
   0x55 ,0x9b ,0x4e, 0xe7 ,0x74 ,0x0a, 0x15, 0x00 ,0x40, 0xb1 ,
   0x5e, 0x31 ,0x16 ,0x8b, 0x55 ,0x9b, 0x4e ,0xe7 ,0x74, 0x0a ,
   0x15, 0x00, 0x40, 0xb1 ,0x5e, 0x31 ,0x16, 0x8b ,0x55 ,0x9b ,
   0x4e ,0xe7 ,0x74, 0x0a ,0x15, 0x00 ,0x40, 0xb1 ,0x5e ,0x31 ,
   0x16 ,0x8b ,0x55, 0x9b ,0x4e, 0xe7 ,0x74, 0x0a, 0x15 ,0x00 ,
   0x40, 0xb1 ,0x5e ,0x31, 0x16 ,0x8b, 0x55 ,0x9b ,0x4e, 0xe7 ,
   0x74, 0x0a, 0x15, 0x00, 0x40, 0xb1, 0x5e, 0x31, 0x16, 0x8b, 
   0x55, 0x9b, 0x4e, 0xe7, 0x74, 0x0a, 0x15, 0x00, 0x40, 0xb1, 
   0x5e, 0x31, 0x16, 0x8b, 0x55 ,0x9b ,0x4e ,0xe7 ,0x74 ,0x0a, 
   0x15, 0x00 ,0x40, 0xb1 ,0x5e, 0x31 ,0x16 ,0x8b ,0x55, 0x9b ,
   0x4e ,0xe7, 0x74 ,0x0a, 0x15 ,0x00 ,0x40, 0xb1 ,0x5e ,0x31 ,
   0x16, 0x8b ,0x55 ,0x9b ,0x4e ,0xe7 ,0x74 ,0x0a, 0x15, 0x00 ,
   0x40 ,0xb1, 0x5e, 0x31 ,0x16, 0x8b, 0x55 ,0x9b, 0x4e ,0xe7 ,
   0x74, 0x0a ,0x15 ,0x00, 0x40, 0xb1 ,0x5e, 0x31 ,0x16, 0x8b ,
   0x55 ,0x9b, 0x4e ,0xe7, 0x74 ,0x0a ,0x15, 0x00 ,0x40, 0xb1, 
   0x5e, 0x31 ,0x16, 0x8b ,0x55, 0x9b ,0x4e ,0xe7 ,0x74 ,0x0a ,
   0x15, 0x00 ,0x40, 0xb1 ,0x5e, 0x31 ,0x16 ,0x8b ,0x55 ,0x9b ,
   0x4e, 0xe7 ,0x74, 0x0a ,0x15, 0x00, 0x40 ,0xb1 ,0x5e, 0x31 ,
   0x16 ,0x8b, 0x55 ,0x9b, 0x4e ,0xe7 ,0x74, 0x0a ,0x15, 0x00, 
   0x40, 0xb1, 0x5e, 0x31, 0x16, 0x8b, 0x55, 0x9b, 0x4e, 0xe7, 
   0x74, 0x0a, 0x15, 0x00, 0x40, 0xb1, 0x5e, 0x31, 0x16, 0x8b, 
   0x55, 0x9b, 0x4e ,0xe7 ,0x74 ,0x0a ,0x15 ,0x00, 0x40, 0xb1 ,
   0x5e, 0x31 ,0x16, 0x8b ,0x55 ,0x9b ,0x4e, 0xe7 ,0x74 ,0x0a, 
   0x15 ,0x00, 0x40 ,0xb1 ,0x5e, 0x31 ,0x16 ,0x8b ,0x55, 0x9b ,
   0x4e ,0xe7 ,0x74 ,0x0a ,0x15 ,0x00, 0x40, 0xb1 ,0x5e ,0x31, 
   0x16, 0x8b ,0x55, 0x9b, 0x4e ,0xe7, 0x74 ,0x0a ,0x15, 0x00 ,
   0x40 ,0xb1, 0x5e, 0x31 ,0x16, 0x8b ,0x55, 0x9b ,0x4e ,0xe7, 
   0x74 ,0x0a, 0x15 ,0x00 ,0x40, 0xb1 ,0x5e, 0x31, 0x16, 0x8b ,
   0x55, 0x9b ,0x4e, 0xe7 ,0x74 ,0x0a ,0x15 ,0x00 ,0x40, 0xb1 ,
   0x5e, 0x31 ,0x16, 0x8b ,0x55 ,0x9b ,0x4e ,0xe7 ,0x74, 0x0a ,
   0x15, 0x00 ,0x40, 0xb1, 0x5e ,0x31 ,0x16, 0x8b ,0x55 ,0x9b, 
   0x4e ,0xe7, 0x74 ,0x0a ,0x15, 0x00 ,0x40, 0xb1, 0x5e, 0x31, 
   0x16, 0x8b, 0x55, 0x9b, 0x4e, 0xe7, 0x74, 0x0a, 0x15, 0x00, 
   0x40, 0xb1, 0x5e, 0x31, 0x16, 0x8b, 0x55, 0x9b, 0x4e, 0xe7, 
   0x74 ,0x0a ,0x15 ,0x00 ,0x40 ,0xb1, 0x5e, 0x31 ,0x16, 0x8b ,
   0x55, 0x9b ,0x4e ,0xe7 ,0x74, 0x0a ,0x15 ,0x00, 0x40 ,0xb1, 
   0x5e ,0x31 ,0x16, 0x8b ,0x55 ,0x9b ,0x4e, 0xe7 ,0x74 ,0x0a ,
   0x15 ,0x00 ,0x40 ,0xb1, 0x5e, 0x31 ,0x16 ,0x8b, 0x55, 0x9b ,
   0x4e, 0xe7, 0x74 ,0x0a, 0x15 ,0x00 ,0x40, 0xb1 ,0x5e ,0x31, 
   0x16, 0x8b ,0x55, 0x9b ,0x4e, 0xe7 ,0x74 ,0x0a, 0x15 ,0x00, 
   0x40 ,0xb1 ,0x5e, 0x31 ,0x16, 0x8b, 0x55, 0x9b ,0x4e, 0xe7 ,
   0x74, 0x0a ,0x15 ,0x00 ,0x40 ,0xb1 ,0x5e, 0x31 ,0x16, 0x8b ,
   0x55, 0x9b ,0x4e ,0xe7 ,0x74 ,0x0a ,0x15, 0x00 ,0x40, 0xb1 ,
   0x5e, 0x31, 0x16 ,0x8b ,0x55, 0x9b ,0x4e ,0xe7, 0x74 ,0x0a, 
   0x15 ,0x00 ,0x40, 0xb1 ,0x5e, 0x31, 0x16, 0x8b, 0x55, 0x9b, 
   0x4e, 0xe7, 0x74, 0x0a, 0x15, 0x00, 0x4f, 0xb1, 0x5e, 0x31, 
   0x16, 0x8b, 0x55, 0x9b, 0x4e, 0xe7, 0x74, 0x0a, 0x95 ,0x07 ,
   0x49 ,0xb1 ,0x5e ,0x31, 0x16, 0x8b ,0x55, 0x9b ,0x4e, 0xe7 ,
   0x74 ,0x0a ,0x15, 0x04 ,0x49 ,0xb1, 0x5e ,0x31, 0x16 ,0x8b ,
   0x55, 0x9b ,0x4e ,0xe7 ,0x74, 0x0a ,0x15 ,0x04 ,0x49 ,0xb1 ,
   0x5e ,0x31, 0x16, 0x8b ,0x55 ,0x9b, 0x4e, 0xe7 ,0x74, 0x0a, 
   0x95 ,0x07, 0x49 ,0xb1 ,0x5e, 0x31 ,0x16 ,0x8b, 0x55, 0x9b ,
   0x4e, 0xe7 ,0x74, 0x0a ,0x15 ,0x04, 0x49 ,0xb1, 0x00 ,0x00 ,
   0x00, 0x00 ,0x50, 0x00, 0x00, 0x00 ,0x00, 0x08 ,0x15, 0x04 ,
   0x4f ,0xb1 ,0x00 ,0x00 ,0x00, 0x00 ,0x50, 0x00 ,0x00, 0x00 ,
   0x00 ,0x08 ,0x95 ,0x07 ,0x40, 0xb1 ,0x3c, 0x12 ,0x8f, 0xc7, 
   0x53 ,0x1e ,0x89, 0xc4 ,0xe3 ,0x09, 0x15 ,0x00, 0x40 ,0xb1 ,
   0x20, 0x12 ,0x89, 0x44, 0x52, 0x12, 0x89, 0x44, 0x22, 0x09, 
   0x15, 0x00, 0x40, 0xb1, 0x20, 0x12, 0x89, 0x44, 0x52, 0x10, 
   0x89, 0x44, 0x22, 0x09, 0x15, 0x00, 0x40 ,0xb1 ,0x3c ,0x1e ,
   0x89 ,0x44, 0x52, 0x1e ,0x8f, 0x47 ,0x22, 0x09 ,0x15 ,0x00 ,
   0x00, 0x00 ,0x20 ,0x10, 0x89 ,0x44, 0x02 ,0x02 ,0x08, 0x44 ,
   0x22 ,0x01 ,0x00, 0x00 ,0x00 ,0x00 ,0x20 ,0x10 ,0x89 ,0x44, 
   0x02, 0x12 ,0x08 ,0x44, 0x22, 0x01 ,0x00, 0x00, 0x00 ,0x00, 
   0x3c ,0x10 ,0x8f, 0xc7 ,0x03 ,0x1e, 0x08, 0xc4 ,0xe3, 0x01 ,
   0x00, 0x00 ,};
/* the milk.com barcode generator; http://www.milk.com/barcode/ */
