#define milk_barcode_width 107
#define milk_barcode_height 68
static char milk_barcode_bits[] = {
   0x00 ,0x00 ,0xe0 ,0xa4 ,0x90 ,0x00, 0x00, 0x02 ,0x04, 0x00 ,
   0x00, 0x00 ,0x00 ,0x00 ,0x00, 0x00 ,0x20 ,0xa5, 0x90 ,0x00, 
   0x00 ,0x00 ,0x04, 0x00 ,0x00 ,0x00 ,0x00, 0x00 ,0x00 ,0x00 ,
   0x20 ,0xa5 ,0x90 ,0xc0, 0x7b, 0xe3 ,0xa5 ,0xf7, 0x1e, 0x00 ,
   0x00, 0x00, 0x00 ,0x00, 0xe0 ,0xa4 ,0x70, 0x5e ,0x48 ,0x22, 
   0x94, 0x14 ,0x02, 0x00 ,0x00, 0x00 ,0x00 ,0x00, 0x20 ,0xa5, 
   0x90 ,0xc0 ,0x4b, 0x22 ,0x8c, 0x17, 0x1e, 0x00 ,0x00, 0x00 ,
   0x00, 0x00 ,0x20 ,0xa5 ,0x90 ,0x00 ,0x4a, 0x22 ,0x94, 0x10 ,
   0x10, 0x00 ,0x00 ,0x00 ,0x00 ,0x00 ,0xe0, 0xbc ,0x97, 0xc0 ,
   0x4b, 0xe7, 0xa5 ,0x17 ,0x1e, 0x00 ,0x00 ,0x00, 0x00 ,0x00, 
   0x00 ,0x00 ,0x00, 0x00 ,0x00, 0x00, 0x00, 0x00, 0x00, 0x00, 
   0x00, 0x00, 0x40, 0xb1, 0x62, 0x2c, 0x16, 0x8b, 0x55, 0xa7, 
   0xd9, 0xe6, 0xb4, 0x09, 0x15, 0x00, 0x40, 0xb1, 0x62 ,0x2c ,
   0x16 ,0x8b ,0x55 ,0xa7, 0xd9, 0xe6 ,0xb4, 0x09 ,0x15, 0x00 ,
   0x40 ,0xb1 ,0x62, 0x2c ,0x16 ,0x8b, 0x55 ,0xa7, 0xd9 ,0xe6 ,
   0xb4, 0x09 ,0x15 ,0x00 ,0x40, 0xb1 ,0x62 ,0x2c ,0x16 ,0x8b ,
   0x55 ,0xa7, 0xd9, 0xe6 ,0xb4 ,0x09, 0x15, 0x00 ,0x40, 0xb1, 
   0x62 ,0x2c, 0x16 ,0x8b ,0x55, 0xa7 ,0xd9 ,0xe6, 0xb4, 0x09 ,
   0x15, 0x00 ,0x40, 0xb1 ,0x62 ,0x2c, 0x16 ,0x8b, 0x55 ,0xa7 ,
   0xd9, 0xe6 ,0xb4, 0x09, 0x15, 0x00 ,0x40, 0xb1 ,0x62, 0x2c ,
   0x16 ,0x8b ,0x55 ,0xa7 ,0xd9, 0xe6 ,0xb4, 0x09 ,0x15, 0x00 ,
   0x40 ,0xb1 ,0x62 ,0x2c ,0x16, 0x8b ,0x55, 0xa7 ,0xd9, 0xe6, 
   0xb4 ,0x09 ,0x15, 0x00 ,0x40 ,0xb1, 0x62 ,0x2c, 0x16 ,0x8b ,
   0x55, 0xa7 ,0xd9, 0xe6, 0xb4, 0x09, 0x15, 0x00, 0x40, 0xb1, 
   0x62, 0x2c, 0x16, 0x8b, 0x55, 0xa7, 0xd9, 0xe6, 0xb4, 0x09, 
   0x15, 0x00, 0x40, 0xb1, 0x62, 0x2c, 0x16 ,0x8b ,0x55 ,0xa7 ,
   0xd9 ,0xe6, 0xb4, 0x09 ,0x15, 0x00 ,0x40, 0xb1 ,0x62 ,0x2c ,
   0x16, 0x8b ,0x55 ,0xa7, 0xd9 ,0xe6, 0xb4 ,0x09 ,0x15, 0x00 ,
   0x40 ,0xb1 ,0x62, 0x2c ,0x16 ,0x8b ,0x55 ,0xa7 ,0xd9 ,0xe6, 
   0xb4, 0x09 ,0x15 ,0x00, 0x40, 0xb1 ,0x62, 0x2c, 0x16 ,0x8b, 
   0x55 ,0xa7 ,0xd9, 0xe6 ,0xb4 ,0x09, 0x15, 0x00 ,0x40, 0xb1 ,
   0x62, 0x2c ,0x16 ,0x8b, 0x55 ,0xa7, 0xd9 ,0xe6 ,0xb4, 0x09 ,
   0x15, 0x00, 0x40, 0xb1 ,0x62, 0x2c ,0x16, 0x8b ,0x55 ,0xa7 ,
   0xd9 ,0xe6 ,0xb4, 0x09 ,0x15, 0x00 ,0x40, 0xb1 ,0x62 ,0x2c ,
   0x16 ,0x8b ,0x55, 0xa7 ,0xd9, 0xe6 ,0xb4, 0x09, 0x15 ,0x00 ,
   0x40, 0xb1 ,0x62 ,0x2c, 0x16 ,0x8b, 0x55 ,0xa7 ,0xd9, 0xe6 ,
   0xb4, 0x09, 0x15, 0x00, 0x40, 0xb1, 0x62, 0x2c, 0x16, 0x8b, 
   0x55, 0xa7, 0xd9, 0xe6, 0xb4, 0x09, 0x15, 0x00, 0x40, 0xb1, 
   0x62, 0x2c, 0x16, 0x8b, 0x55 ,0xa7 ,0xd9 ,0xe6 ,0xb4 ,0x09, 
   0x15, 0x00 ,0x40, 0xb1 ,0x62, 0x2c ,0x16 ,0x8b ,0x55, 0xa7 ,
   0xd9 ,0xe6, 0xb4 ,0x09, 0x15 ,0x00 ,0x40, 0xb1 ,0x62 ,0x2c ,
   0x16, 0x8b ,0x55 ,0xa7 ,0xd9 ,0xe6 ,0xb4 ,0x09, 0x15, 0x00 ,
   0x40 ,0xb1, 0x62, 0x2c ,0x16, 0x8b, 0x55 ,0xa7, 0xd9 ,0xe6 ,
   0xb4, 0x09 ,0x15 ,0x00, 0x40, 0xb1 ,0x62, 0x2c ,0x16, 0x8b ,
   0x55 ,0xa7, 0xd9 ,0xe6, 0xb4 ,0x09 ,0x15, 0x00 ,0x40, 0xb1, 
   0x62, 0x2c ,0x16, 0x8b ,0x55, 0xa7 ,0xd9 ,0xe6 ,0xb4 ,0x09 ,
   0x15, 0x00 ,0x40, 0xb1 ,0x62, 0x2c ,0x16 ,0x8b ,0x55 ,0xa7 ,
   0xd9, 0xe6 ,0xb4, 0x09 ,0x15, 0x00, 0x40 ,0xb1 ,0x62, 0x2c ,
   0x16 ,0x8b, 0x55 ,0xa7, 0xd9 ,0xe6 ,0xb4, 0x09 ,0x15, 0x00, 
   0x40, 0xb1, 0x62, 0x2c, 0x16, 0x8b, 0x55, 0xa7, 0xd9, 0xe6, 
   0xb4, 0x09, 0x15, 0x00, 0x40, 0xb1, 0x62, 0x2c, 0x16, 0x8b, 
   0x55, 0xa7, 0xd9 ,0xe6 ,0xb4 ,0x09 ,0x15 ,0x00, 0x40, 0xb1 ,
   0x62, 0x2c ,0x16, 0x8b ,0x55 ,0xa7 ,0xd9, 0xe6 ,0xb4 ,0x09, 
   0x15 ,0x00, 0x40 ,0xb1 ,0x62, 0x2c ,0x16 ,0x8b ,0x55, 0xa7 ,
   0xd9 ,0xe6 ,0xb4 ,0x09 ,0x15 ,0x00, 0x40, 0xb1 ,0x62 ,0x2c, 
   0x16, 0x8b ,0x55, 0xa7, 0xd9 ,0xe6, 0xb4 ,0x09 ,0x15, 0x00 ,
   0x40 ,0xb1, 0x62, 0x2c ,0x16, 0x8b ,0x55, 0xa7 ,0xd9 ,0xe6, 
   0xb4 ,0x09, 0x15 ,0x00 ,0x40, 0xb1 ,0x62, 0x2c, 0x16, 0x8b ,
   0x55, 0xa7 ,0xd9, 0xe6 ,0xb4 ,0x09 ,0x15 ,0x00 ,0x40, 0xb1 ,
   0x62, 0x2c ,0x16, 0x8b ,0x55 ,0xa7 ,0xd9 ,0xe6 ,0xb4, 0x09 ,
   0x15, 0x00 ,0x40, 0xb1, 0x62 ,0x2c ,0x16, 0x8b ,0x55 ,0xa7, 
   0xd9 ,0xe6, 0xb4 ,0x09 ,0x15, 0x00 ,0x40, 0xb1, 0x62, 0x2c, 
   0x16, 0x8b, 0x55, 0xa7, 0xd9, 0xe6, 0xb4, 0x09, 0x15, 0x00, 
   0x40, 0xb1, 0x62, 0x2c, 0x16, 0x8b, 0x55, 0xa7, 0xd9, 0xe6, 
   0xb4 ,0x09 ,0x15 ,0x00 ,0x40 ,0xb1, 0x62, 0x2c ,0x16, 0x8b ,
   0x55, 0xa7 ,0xd9 ,0xe6 ,0xb4, 0x09 ,0x15 ,0x00, 0x40 ,0xb1, 
   0x62 ,0x2c ,0x16, 0x8b ,0x55 ,0xa7 ,0xd9, 0xe6 ,0xb4 ,0x09 ,
   0x15 ,0x00 ,0x40 ,0xb1, 0x62, 0x2c ,0x16 ,0x8b, 0x55, 0xa7 ,
   0xd9, 0xe6, 0xb4 ,0x09, 0x15 ,0x00 ,0x40, 0xb1 ,0x62 ,0x2c, 
   0x16, 0x8b ,0x55, 0xa7 ,0xd9, 0xe6 ,0xb4 ,0x09, 0x15 ,0x00, 
   0x40 ,0xb1 ,0x62, 0x2c ,0x16, 0x8b, 0x55, 0xa7 ,0xd9, 0xe6 ,
   0xb4, 0x09 ,0x15 ,0x00 ,0x40 ,0xb1 ,0x62, 0x2c ,0x16, 0x8b ,
   0x55, 0xa7 ,0xd9 ,0xe6 ,0xb4 ,0x09 ,0x15, 0x00 ,0x40, 0xb1 ,
   0x62, 0x2c, 0x16 ,0x8b ,0x55, 0xa7 ,0xd9 ,0xe6, 0xb4 ,0x09, 
   0x15 ,0x00 ,0x40, 0xb1 ,0x62, 0x2c, 0x16, 0x8b, 0x55, 0xa7, 
   0xd9, 0xe6, 0xb4, 0x09, 0x15, 0x00, 0x4f, 0xb1, 0x62, 0x2c, 
   0x16, 0x8b, 0x55, 0xa7, 0xd9, 0xe6, 0xb4, 0x09, 0x95 ,0x07 ,
   0x49 ,0xb1 ,0x62 ,0x2c, 0x16, 0x8b ,0x55, 0xa7 ,0xd9, 0xe6 ,
   0xb4 ,0x09 ,0x15, 0x04 ,0x49 ,0xb1, 0x62 ,0x2c, 0x16 ,0x8b ,
   0x55, 0xa7 ,0xd9 ,0xe6 ,0xb4, 0x09 ,0x15 ,0x04 ,0x49 ,0xb1 ,
   0x62 ,0x2c, 0x16, 0x8b ,0x55 ,0xa7, 0xd9, 0xe6 ,0xb4, 0x09, 
   0x95 ,0x07, 0x49 ,0xb1 ,0x62, 0x2c ,0x16 ,0x8b, 0x55, 0xa7 ,
   0xd9, 0xe6 ,0xb4, 0x09 ,0x15 ,0x04, 0x49 ,0xb1, 0x00 ,0x00 ,
   0x00, 0x00 ,0x50, 0x00, 0x00, 0x00 ,0x00, 0x08 ,0x15, 0x04 ,
   0x4f ,0xb1 ,0x00 ,0x00 ,0x00, 0x00 ,0x50, 0x00 ,0x00, 0x00 ,
   0x00 ,0x08 ,0x95 ,0x07 ,0x40, 0xb1 ,0x24, 0x1e ,0x8f, 0xc7, 
   0x53 ,0x1e ,0x86, 0xc7 ,0xe3 ,0x09, 0x15 ,0x00, 0x40 ,0xb1 ,
   0x24, 0x12 ,0x89, 0x44, 0x52, 0x12, 0x84, 0x44, 0x22, 0x09, 
   0x15, 0x00, 0x40, 0xb1, 0x24, 0x12, 0x89, 0x44, 0x52, 0x12, 
   0x04, 0x44, 0x02, 0x09, 0x15, 0x00, 0x40 ,0xb1 ,0x3c ,0x12 ,
   0x89 ,0x44, 0x52, 0x12 ,0x84, 0x47 ,0xe2, 0x09 ,0x15 ,0x00 ,
   0x00, 0x00 ,0x20 ,0x12, 0x89 ,0x44, 0x02 ,0x12 ,0x84, 0x40 ,
   0x22 ,0x00 ,0x00, 0x00 ,0x00 ,0x00 ,0x20 ,0x12 ,0x89 ,0x44, 
   0x02, 0x12 ,0x84 ,0x44, 0x22, 0x01 ,0x00, 0x00, 0x00 ,0x00, 
   0x20 ,0x1e ,0x8f, 0xc7 ,0x03 ,0x1e, 0x8f, 0xc7 ,0xe3, 0x01 ,
   0x00, 0x00 ,};
/* the milk.com barcode generator; http://www.milk.com/barcode/ */
