#define milk_barcode_width 107
#define milk_barcode_height 68
static char milk_barcode_bits[] = {
   0x70 ,0x52 ,0x48 ,0x00 ,0x00 ,0x01, 0x02, 0x00 ,0x00, 0x00 ,
   0x00, 0x00 ,0x08 ,0x00 ,0x90, 0x52 ,0x48 ,0x00, 0x00 ,0x00, 
   0x02 ,0x00 ,0x00, 0x00 ,0x00 ,0x00 ,0x08, 0x00 ,0x90 ,0x52 ,
   0x48 ,0xe0 ,0xbd ,0xf1, 0xd2, 0x7b ,0x0f ,0xbc, 0x97, 0xde ,
   0x7b, 0x00, 0x70 ,0x52, 0x38 ,0x2f ,0x24, 0x11 ,0x4a ,0x0a, 
   0x01, 0x84 ,0x90, 0x52 ,0x48, 0x00 ,0x90 ,0x52, 0x48 ,0xe0, 
   0x25 ,0x11 ,0xc6, 0x0b ,0x0f, 0x84, 0x90, 0x52 ,0x48, 0x00 ,
   0x90, 0x52 ,0x48 ,0x00 ,0x25 ,0x11 ,0x4a, 0x08 ,0x08, 0x84 ,
   0x90, 0x52 ,0x48 ,0x00 ,0x70 ,0xde ,0x4b, 0xe0 ,0xa5, 0xf3 ,
   0xd2, 0x0b, 0xef ,0xbd ,0xf0, 0xd2 ,0x4b ,0x00, 0x00 ,0x00, 
   0x00 ,0x00 ,0x00, 0x00 ,0x00, 0x00, 0x00, 0x00, 0x00, 0x00, 
   0x00, 0x00, 0x40, 0xb1, 0x62, 0x2c, 0x16, 0x8b, 0x55, 0xb3, 
   0xd9, 0xec, 0x14, 0x49, 0x14, 0x00, 0x40, 0xb1, 0x62 ,0x2c ,
   0x16 ,0x8b ,0x55 ,0xb3, 0xd9, 0xec ,0x14, 0x49 ,0x14, 0x00 ,
   0x40 ,0xb1 ,0x62, 0x2c ,0x16 ,0x8b, 0x55 ,0xb3, 0xd9 ,0xec ,
   0x14, 0x49 ,0x14 ,0x00 ,0x40, 0xb1 ,0x62 ,0x2c ,0x16 ,0x8b ,
   0x55 ,0xb3, 0xd9, 0xec ,0x14 ,0x49, 0x14, 0x00 ,0x40, 0xb1, 
   0x62 ,0x2c, 0x16 ,0x8b ,0x55, 0xb3 ,0xd9 ,0xec, 0x14, 0x49 ,
   0x14, 0x00 ,0x40, 0xb1 ,0x62 ,0x2c, 0x16 ,0x8b, 0x55 ,0xb3 ,
   0xd9, 0xec ,0x14, 0x49, 0x14, 0x00 ,0x40, 0xb1 ,0x62, 0x2c ,
   0x16 ,0x8b ,0x55 ,0xb3 ,0xd9, 0xec ,0x14, 0x49 ,0x14, 0x00 ,
   0x40 ,0xb1 ,0x62 ,0x2c ,0x16, 0x8b ,0x55, 0xb3 ,0xd9, 0xec, 
   0x14 ,0x49 ,0x14, 0x00 ,0x40 ,0xb1, 0x62 ,0x2c, 0x16 ,0x8b ,
   0x55, 0xb3 ,0xd9, 0xec, 0x14, 0x49, 0x14, 0x00, 0x40, 0xb1, 
   0x62, 0x2c, 0x16, 0x8b, 0x55, 0xb3, 0xd9, 0xec, 0x14, 0x49, 
   0x14, 0x00, 0x40, 0xb1, 0x62, 0x2c, 0x16 ,0x8b ,0x55 ,0xb3 ,
   0xd9 ,0xec, 0x14, 0x49 ,0x14, 0x00 ,0x40, 0xb1 ,0x62 ,0x2c ,
   0x16, 0x8b ,0x55 ,0xb3, 0xd9 ,0xec, 0x14 ,0x49 ,0x14, 0x00 ,
   0x40 ,0xb1 ,0x62, 0x2c ,0x16 ,0x8b ,0x55 ,0xb3 ,0xd9 ,0xec, 
   0x14, 0x49 ,0x14 ,0x00, 0x40, 0xb1 ,0x62, 0x2c, 0x16 ,0x8b, 
   0x55 ,0xb3 ,0xd9, 0xec ,0x14 ,0x49, 0x14, 0x00 ,0x40, 0xb1 ,
   0x62, 0x2c ,0x16 ,0x8b, 0x55 ,0xb3, 0xd9 ,0xec ,0x14, 0x49 ,
   0x14, 0x00, 0x40, 0xb1 ,0x62, 0x2c ,0x16, 0x8b ,0x55 ,0xb3 ,
   0xd9 ,0xec ,0x14, 0x49 ,0x14, 0x00 ,0x40, 0xb1 ,0x62 ,0x2c ,
   0x16 ,0x8b ,0x55, 0xb3 ,0xd9, 0xec ,0x14, 0x49, 0x14 ,0x00 ,
   0x40, 0xb1 ,0x62 ,0x2c, 0x16 ,0x8b, 0x55 ,0xb3 ,0xd9, 0xec ,
   0x14, 0x49, 0x14, 0x00, 0x40, 0xb1, 0x62, 0x2c, 0x16, 0x8b, 
   0x55, 0xb3, 0xd9, 0xec, 0x14, 0x49, 0x14, 0x00, 0x40, 0xb1, 
   0x62, 0x2c, 0x16, 0x8b, 0x55 ,0xb3 ,0xd9 ,0xec ,0x14 ,0x49, 
   0x14, 0x00 ,0x40, 0xb1 ,0x62, 0x2c ,0x16 ,0x8b ,0x55, 0xb3 ,
   0xd9 ,0xec, 0x14 ,0x49, 0x14 ,0x00 ,0x40, 0xb1 ,0x62 ,0x2c ,
   0x16, 0x8b ,0x55 ,0xb3 ,0xd9 ,0xec ,0x14 ,0x49, 0x14, 0x00 ,
   0x40 ,0xb1, 0x62, 0x2c ,0x16, 0x8b, 0x55 ,0xb3, 0xd9 ,0xec ,
   0x14, 0x49 ,0x14 ,0x00, 0x40, 0xb1 ,0x62, 0x2c ,0x16, 0x8b ,
   0x55 ,0xb3, 0xd9 ,0xec, 0x14 ,0x49 ,0x14, 0x00 ,0x40, 0xb1, 
   0x62, 0x2c ,0x16, 0x8b ,0x55, 0xb3 ,0xd9 ,0xec ,0x14 ,0x49 ,
   0x14, 0x00 ,0x40, 0xb1 ,0x62, 0x2c ,0x16 ,0x8b ,0x55 ,0xb3 ,
   0xd9, 0xec ,0x14, 0x49 ,0x14, 0x00, 0x40 ,0xb1 ,0x62, 0x2c ,
   0x16 ,0x8b, 0x55 ,0xb3, 0xd9 ,0xec ,0x14, 0x49 ,0x14, 0x00, 
   0x40, 0xb1, 0x62, 0x2c, 0x16, 0x8b, 0x55, 0xb3, 0xd9, 0xec, 
   0x14, 0x49, 0x14, 0x00, 0x40, 0xb1, 0x62, 0x2c, 0x16, 0x8b, 
   0x55, 0xb3, 0xd9 ,0xec ,0x14 ,0x49 ,0x14 ,0x00, 0x40, 0xb1 ,
   0x62, 0x2c ,0x16, 0x8b ,0x55 ,0xb3 ,0xd9, 0xec ,0x14 ,0x49, 
   0x14 ,0x00, 0x40 ,0xb1 ,0x62, 0x2c ,0x16 ,0x8b ,0x55, 0xb3 ,
   0xd9 ,0xec ,0x14 ,0x49 ,0x14 ,0x00, 0x40, 0xb1 ,0x62 ,0x2c, 
   0x16, 0x8b ,0x55, 0xb3, 0xd9 ,0xec, 0x14 ,0x49 ,0x14, 0x00 ,
   0x40 ,0xb1, 0x62, 0x2c ,0x16, 0x8b ,0x55, 0xb3 ,0xd9 ,0xec, 
   0x14 ,0x49, 0x14 ,0x00 ,0x40, 0xb1 ,0x62, 0x2c, 0x16, 0x8b ,
   0x55, 0xb3 ,0xd9, 0xec ,0x14 ,0x49 ,0x14 ,0x00 ,0x40, 0xb1 ,
   0x62, 0x2c ,0x16, 0x8b ,0x55 ,0xb3 ,0xd9 ,0xec ,0x14, 0x49 ,
   0x14, 0x00 ,0x40, 0xb1, 0x62 ,0x2c ,0x16, 0x8b ,0x55 ,0xb3, 
   0xd9 ,0xec, 0x14 ,0x49 ,0x14, 0x00 ,0x40, 0xb1, 0x62, 0x2c, 
   0x16, 0x8b, 0x55, 0xb3, 0xd9, 0xec, 0x14, 0x49, 0x14, 0x00, 
   0x40, 0xb1, 0x62, 0x2c, 0x16, 0x8b, 0x55, 0xb3, 0xd9, 0xec, 
   0x14 ,0x49 ,0x14 ,0x00 ,0x40 ,0xb1, 0x62, 0x2c ,0x16, 0x8b ,
   0x55, 0xb3 ,0xd9 ,0xec ,0x14, 0x49 ,0x14 ,0x00, 0x40 ,0xb1, 
   0x62 ,0x2c ,0x16, 0x8b ,0x55 ,0xb3 ,0xd9, 0xec ,0x14 ,0x49 ,
   0x14 ,0x00 ,0x40 ,0xb1, 0x62, 0x2c ,0x16 ,0x8b, 0x55, 0xb3 ,
   0xd9, 0xec, 0x14 ,0x49, 0x14 ,0x00 ,0x40, 0xb1 ,0x62 ,0x2c, 
   0x16, 0x8b ,0x55, 0xb3 ,0xd9, 0xec ,0x14 ,0x49, 0x14 ,0x00, 
   0x40 ,0xb1 ,0x62, 0x2c ,0x16, 0x8b, 0x55, 0xb3 ,0xd9, 0xec ,
   0x14, 0x49 ,0x14 ,0x00 ,0x40 ,0xb1 ,0x62, 0x2c ,0x16, 0x8b ,
   0x55, 0xb3 ,0xd9 ,0xec ,0x14 ,0x49 ,0x14, 0x00 ,0x40, 0xb1 ,
   0x62, 0x2c, 0x16 ,0x8b ,0x55, 0xb3 ,0xd9 ,0xec, 0x14 ,0x49, 
   0x14 ,0x00 ,0x40, 0xb1 ,0x62, 0x2c, 0x16, 0x8b, 0x55, 0xb3, 
   0xd9, 0xec, 0x14, 0x49, 0x14, 0x00, 0x4f, 0xb1, 0x62, 0x2c, 
   0x16, 0x8b, 0x55, 0xb3, 0xd9, 0xec, 0x14, 0x49, 0x94 ,0x07 ,
   0x49 ,0xb1 ,0x62 ,0x2c, 0x16, 0x8b ,0x55, 0xb3 ,0xd9, 0xec ,
   0x14 ,0x49 ,0x94, 0x04 ,0x49 ,0xb1, 0x62 ,0x2c, 0x16 ,0x8b ,
   0x55, 0xb3 ,0xd9 ,0xec ,0x14, 0x49 ,0x94 ,0x04 ,0x49 ,0xb1 ,
   0x62 ,0x2c, 0x16, 0x8b ,0x55 ,0xb3, 0xd9, 0xec ,0x14, 0x49, 
   0x94 ,0x07, 0x49 ,0xb1 ,0x62, 0x2c ,0x16 ,0x8b, 0x55, 0xb3 ,
   0xd9, 0xec ,0x14, 0x49 ,0x94 ,0x04, 0x49 ,0xb1, 0x00 ,0x00 ,
   0x00, 0x00 ,0x50, 0x00, 0x00, 0x00 ,0x00, 0x48 ,0x94, 0x04 ,
   0x4f ,0xb1 ,0x00 ,0x00 ,0x00, 0x00 ,0x50, 0x00 ,0x00, 0x00 ,
   0x00 ,0x48 ,0x94 ,0x07 ,0x40, 0xb1 ,0x24, 0x1e ,0x8f, 0xc7, 
   0x53 ,0x0c ,0x06, 0xc3 ,0xe3 ,0x49, 0x14 ,0x00, 0x40 ,0xb1 ,
   0x24, 0x12 ,0x89, 0x44, 0x52, 0x08, 0x04, 0x42, 0x22, 0x49, 
   0x14, 0x00, 0x40, 0xb1, 0x24, 0x12, 0x89, 0x44, 0x52, 0x08, 
   0x04, 0x42, 0x22, 0x49, 0x14, 0x00, 0x40 ,0xb1 ,0x3c ,0x12 ,
   0x89 ,0x44, 0x52, 0x08 ,0x04, 0x42 ,0x82, 0x49 ,0x14 ,0x00 ,
   0x00, 0x00 ,0x20 ,0x12, 0x89 ,0x44, 0x02 ,0x08 ,0x04, 0x42 ,
   0x82 ,0x00 ,0x00, 0x00 ,0x00 ,0x00 ,0x20 ,0x12 ,0x89 ,0x44, 
   0x02, 0x08 ,0x04 ,0x42, 0x82, 0x00 ,0x00, 0x00, 0x00 ,0x00, 
   0x20 ,0x1e ,0x8f, 0xc7 ,0x03 ,0x1e, 0x8f, 0xc7 ,0x83, 0x00 ,
   0x00, 0x00 ,};
/* the milk.com barcode generator; http://www.milk.com/barcode/ */
