#define milk_barcode_width 63
#define milk_barcode_height 68
static char milk_barcode_bits[] = {
   0x70 ,0x52 ,0x48 ,0x00 ,0x00 ,0x20, 0x00, 0x00 ,0x90, 0x52 ,
   0x48, 0x00 ,0x00 ,0x00 ,0x04, 0x00 ,0x90 ,0x52, 0x48 ,0xe0, 
   0xbd ,0x37 ,0xde, 0x03 ,0x70 ,0x52 ,0x38, 0x2f ,0xa4 ,0x20 ,
   0x44 ,0x02 ,0x90 ,0x52, 0x48, 0xe0 ,0xa5 ,0x20, 0xc4, 0x03 ,
   0x90, 0x52, 0x48 ,0x00, 0xbd ,0x20 ,0x44, 0x00 ,0x70 ,0xde, 
   0x4b, 0xe0 ,0x85, 0x70 ,0xdc, 0x03 ,0x00 ,0x00, 0x00 ,0x00, 
   0x04 ,0x00 ,0x00, 0x00 ,0x40, 0xb9, 0x68, 0xb3 ,0x97, 0x8d ,
   0x55, 0x01 ,0x40 ,0xb9 ,0x68 ,0xb3 ,0x97, 0x8d ,0x55, 0x01 ,
   0x40, 0xb9 ,0x68 ,0xb3 ,0x97 ,0x8d ,0x55, 0x01 ,0x40, 0xb9 ,
   0x68, 0xb3, 0x97 ,0x8d ,0x55, 0x01 ,0x40 ,0xb9, 0x68 ,0xb3, 
   0x97 ,0x8d ,0x55, 0x01 ,0x40, 0xb9, 0x68, 0xb3, 0x97, 0x8d, 
   0x55, 0x01, 0x40, 0xb9, 0x68, 0xb3, 0x97, 0x8d, 0x55, 0x01, 
   0x40, 0xb9, 0x68, 0xb3, 0x97, 0x8d, 0x55, 0x01, 0x40 ,0xb9 ,
   0x68 ,0xb3 ,0x97 ,0x8d, 0x55, 0x01 ,0x40, 0xb9 ,0x68, 0xb3 ,
   0x97 ,0x8d ,0x55, 0x01 ,0x40 ,0xb9, 0x68 ,0xb3, 0x97 ,0x8d ,
   0x55, 0x01 ,0x40 ,0xb9 ,0x68, 0xb3 ,0x97 ,0x8d ,0x55 ,0x01 ,
   0x40 ,0xb9, 0x68, 0xb3 ,0x97 ,0x8d, 0x55, 0x01 ,0x40, 0xb9, 
   0x68 ,0xb3, 0x97 ,0x8d ,0x55, 0x01 ,0x40 ,0xb9, 0x68, 0xb3 ,
   0x97, 0x8d ,0x55, 0x01 ,0x40 ,0xb9, 0x68 ,0xb3, 0x97 ,0x8d ,
   0x55, 0x01 ,0x40, 0xb9, 0x68, 0xb3 ,0x97, 0x8d ,0x55, 0x01 ,
   0x40 ,0xb9 ,0x68 ,0xb3 ,0x97, 0x8d ,0x55, 0x01 ,0x40, 0xb9 ,
   0x68 ,0xb3 ,0x97 ,0x8d ,0x55, 0x01 ,0x40, 0xb9 ,0x68, 0xb3, 
   0x97 ,0x8d ,0x55, 0x01 ,0x40 ,0xb9, 0x68 ,0xb3, 0x97 ,0x8d ,
   0x55, 0x01 ,0x40, 0xb9, 0x68, 0xb3, 0x97, 0x8d, 0x55, 0x01, 
   0x40, 0xb9, 0x68, 0xb3, 0x97, 0x8d, 0x55, 0x01, 0x40, 0xb9, 
   0x68, 0xb3, 0x97, 0x8d, 0x55, 0x01, 0x40 ,0xb9 ,0x68 ,0xb3 ,
   0x97 ,0x8d, 0x55, 0x01 ,0x40, 0xb9 ,0x68, 0xb3 ,0x97 ,0x8d ,
   0x55, 0x01 ,0x40 ,0xb9, 0x68 ,0xb3, 0x97 ,0x8d ,0x55, 0x01 ,
   0x40 ,0xb9 ,0x68, 0xb3 ,0x97 ,0x8d ,0x55 ,0x01 ,0x40 ,0xb9, 
   0x68, 0xb3 ,0x97 ,0x8d, 0x55, 0x01 ,0x40, 0xb9, 0x68 ,0xb3, 
   0x97 ,0x8d ,0x55, 0x01 ,0x40 ,0xb9, 0x68, 0xb3 ,0x97, 0x8d ,
   0x55, 0x01 ,0x40 ,0xb9, 0x68 ,0xb3, 0x97 ,0x8d ,0x55, 0x01 ,
   0x40, 0xb9, 0x68, 0xb3 ,0x97, 0x8d ,0x55, 0x01 ,0x40 ,0xb9 ,
   0x68 ,0xb3 ,0x97, 0x8d ,0x55, 0x01 ,0x40, 0xb9 ,0x68 ,0xb3 ,
   0x97 ,0x8d ,0x55, 0x01 ,0x40, 0xb9 ,0x68, 0xb3, 0x97 ,0x8d ,
   0x55, 0x01 ,0x40 ,0xb9, 0x68 ,0xb3, 0x97 ,0x8d ,0x55, 0x01 ,
   0x40, 0xb9, 0x68, 0xb3, 0x97, 0x8d, 0x55, 0x01, 0x40, 0xb9, 
   0x68, 0xb3, 0x97, 0x8d, 0x55, 0x01, 0x40, 0xb9, 0x68, 0xb3, 
   0x97, 0x8d, 0x55, 0x01, 0x40 ,0xb9 ,0x68 ,0xb3 ,0x97 ,0x8d, 
   0x55, 0x01 ,0x40, 0xb9 ,0x68, 0xb3 ,0x97 ,0x8d ,0x55, 0x01 ,
   0x40 ,0xb9, 0x68 ,0xb3, 0x97 ,0x8d ,0x55, 0x01 ,0x40 ,0xb9 ,
   0x68, 0xb3 ,0x97 ,0x8d ,0x55 ,0x01 ,0x40 ,0xb9, 0x68, 0xb3 ,
   0x97 ,0x8d, 0x55, 0x01 ,0x40, 0xb9, 0x68 ,0xb3, 0x97 ,0x8d ,
   0x55, 0x01 ,0x4f ,0xb9, 0x68, 0xb3 ,0x97, 0x8d ,0x55, 0x79 ,
   0x49 ,0xb9, 0x68 ,0xb3, 0x97 ,0x8d ,0x55, 0x49 ,0x49, 0xb9, 
   0x68, 0xb3 ,0x97, 0x8d ,0x55, 0x49 ,0x49 ,0xb9 ,0x68 ,0xb3 ,
   0x97, 0x8d ,0x55, 0x61 ,0x49, 0xb9 ,0x68 ,0xb3 ,0x97 ,0x8d ,
   0x55, 0x21 ,0x49, 0x01 ,0x00, 0x00, 0x00 ,0x00 ,0x50, 0x21 ,
   0x4f ,0x01, 0x00 ,0x00, 0x00 ,0x00 ,0x50, 0x21 ,0x40, 0x49, 
   0x3c, 0x0c, 0x8f, 0xc7, 0x53, 0x01, 0x40, 0x49, 0x24, 0x08, 
   0x88, 0x44, 0x52, 0x01, 0x40, 0x49, 0x24, 0x08, 0x08, 0x44, 
   0x52, 0x01, 0x40 ,0x79 ,0x3c ,0x08 ,0x8f ,0x47, 0x52, 0x01 ,
   0x00, 0x40 ,0x20, 0x08 ,0x88 ,0x40 ,0x02, 0x00 ,0x00 ,0x40, 
   0x20 ,0x08, 0x88 ,0x44 ,0x02, 0x00 ,0x00 ,0x40 ,0x20, 0x1e ,
   0x8f ,0xc7 ,0x03 ,0x00 ,};
/* the milk.com barcode generator; http://www.milk.com/barcode/ */
