#define milk_barcode_width 107
#define milk_barcode_height 68
static char milk_barcode_bits[] = {
   0x00 ,0xc0 ,0x49 ,0x21 ,0x01 ,0x20, 0x00, 0x00 ,0x00, 0x00 ,
   0x31, 0x02 ,0x00 ,0x00 ,0x00, 0x40 ,0x4a ,0x21, 0x01 ,0x01, 
   0x00 ,0x00 ,0x00, 0x00 ,0x20 ,0x02 ,0x00, 0x00 ,0x00 ,0x40 ,
   0x4a ,0x21 ,0x81 ,0x37, 0xde, 0x7b ,0x0f ,0xa4, 0x21, 0x12 ,
   0x00, 0x00, 0x00 ,0xc0, 0x49 ,0xe1 ,0x3c, 0x21 ,0x52 ,0x0a, 
   0x01, 0x3c ,0x21, 0x0a ,0x00, 0x00 ,0x00 ,0x40, 0x4a ,0x21, 
   0x01 ,0x21 ,0xd2, 0x0b ,0x0f, 0x3c, 0x21, 0x06 ,0x00, 0x00 ,
   0x00, 0x40 ,0x4a ,0x21 ,0x01 ,0x21 ,0x5e, 0x08 ,0x08, 0x24 ,
   0x21, 0x0a ,0x00 ,0x00 ,0x00 ,0xc0 ,0x79, 0x2f ,0x01, 0x77 ,
   0xd0, 0x0b, 0xef ,0xa5 ,0x73, 0x12 ,0x00 ,0x00, 0x00 ,0x00, 
   0x00 ,0x00 ,0x00, 0x00 ,0x18, 0x00, 0x00, 0x00, 0x00, 0x00, 
   0x00, 0x00, 0x40, 0xb1, 0x6e, 0xb1, 0x57, 0x6c, 0x54, 0xb9, 
   0x59, 0xe7, 0x94, 0x4b, 0x14, 0x00, 0x40, 0xb1, 0x6e ,0xb1 ,
   0x57 ,0x6c ,0x54 ,0xb9, 0x59, 0xe7 ,0x94, 0x4b ,0x14, 0x00 ,
   0x40 ,0xb1 ,0x6e, 0xb1 ,0x57 ,0x6c, 0x54 ,0xb9, 0x59 ,0xe7 ,
   0x94, 0x4b ,0x14 ,0x00 ,0x40, 0xb1 ,0x6e ,0xb1 ,0x57 ,0x6c ,
   0x54 ,0xb9, 0x59, 0xe7 ,0x94 ,0x4b, 0x14, 0x00 ,0x40, 0xb1, 
   0x6e ,0xb1, 0x57 ,0x6c ,0x54, 0xb9 ,0x59 ,0xe7, 0x94, 0x4b ,
   0x14, 0x00 ,0x40, 0xb1 ,0x6e ,0xb1, 0x57 ,0x6c, 0x54 ,0xb9 ,
   0x59, 0xe7 ,0x94, 0x4b, 0x14, 0x00 ,0x40, 0xb1 ,0x6e, 0xb1 ,
   0x57 ,0x6c ,0x54 ,0xb9 ,0x59, 0xe7 ,0x94, 0x4b ,0x14, 0x00 ,
   0x40 ,0xb1 ,0x6e ,0xb1 ,0x57, 0x6c ,0x54, 0xb9 ,0x59, 0xe7, 
   0x94 ,0x4b ,0x14, 0x00 ,0x40 ,0xb1, 0x6e ,0xb1, 0x57 ,0x6c ,
   0x54, 0xb9 ,0x59, 0xe7, 0x94, 0x4b, 0x14, 0x00, 0x40, 0xb1, 
   0x6e, 0xb1, 0x57, 0x6c, 0x54, 0xb9, 0x59, 0xe7, 0x94, 0x4b, 
   0x14, 0x00, 0x40, 0xb1, 0x6e, 0xb1, 0x57 ,0x6c ,0x54 ,0xb9 ,
   0x59 ,0xe7, 0x94, 0x4b ,0x14, 0x00 ,0x40, 0xb1 ,0x6e ,0xb1 ,
   0x57, 0x6c ,0x54 ,0xb9, 0x59 ,0xe7, 0x94 ,0x4b ,0x14, 0x00 ,
   0x40 ,0xb1 ,0x6e, 0xb1 ,0x57 ,0x6c ,0x54 ,0xb9 ,0x59 ,0xe7, 
   0x94, 0x4b ,0x14 ,0x00, 0x40, 0xb1 ,0x6e, 0xb1, 0x57 ,0x6c, 
   0x54 ,0xb9 ,0x59, 0xe7 ,0x94 ,0x4b, 0x14, 0x00 ,0x40, 0xb1 ,
   0x6e, 0xb1 ,0x57 ,0x6c, 0x54 ,0xb9, 0x59 ,0xe7 ,0x94, 0x4b ,
   0x14, 0x00, 0x40, 0xb1 ,0x6e, 0xb1 ,0x57, 0x6c ,0x54 ,0xb9 ,
   0x59 ,0xe7 ,0x94, 0x4b ,0x14, 0x00 ,0x40, 0xb1 ,0x6e ,0xb1 ,
   0x57 ,0x6c ,0x54, 0xb9 ,0x59, 0xe7 ,0x94, 0x4b, 0x14 ,0x00 ,
   0x40, 0xb1 ,0x6e ,0xb1, 0x57 ,0x6c, 0x54 ,0xb9 ,0x59, 0xe7 ,
   0x94, 0x4b, 0x14, 0x00, 0x40, 0xb1, 0x6e, 0xb1, 0x57, 0x6c, 
   0x54, 0xb9, 0x59, 0xe7, 0x94, 0x4b, 0x14, 0x00, 0x40, 0xb1, 
   0x6e, 0xb1, 0x57, 0x6c, 0x54 ,0xb9 ,0x59 ,0xe7 ,0x94 ,0x4b, 
   0x14, 0x00 ,0x40, 0xb1 ,0x6e, 0xb1 ,0x57 ,0x6c ,0x54, 0xb9 ,
   0x59 ,0xe7, 0x94 ,0x4b, 0x14 ,0x00 ,0x40, 0xb1 ,0x6e ,0xb1 ,
   0x57, 0x6c ,0x54 ,0xb9 ,0x59 ,0xe7 ,0x94 ,0x4b, 0x14, 0x00 ,
   0x40 ,0xb1, 0x6e, 0xb1 ,0x57, 0x6c, 0x54 ,0xb9, 0x59 ,0xe7 ,
   0x94, 0x4b ,0x14 ,0x00, 0x40, 0xb1 ,0x6e, 0xb1 ,0x57, 0x6c ,
   0x54 ,0xb9, 0x59 ,0xe7, 0x94 ,0x4b ,0x14, 0x00 ,0x40, 0xb1, 
   0x6e, 0xb1 ,0x57, 0x6c ,0x54, 0xb9 ,0x59 ,0xe7 ,0x94 ,0x4b ,
   0x14, 0x00 ,0x40, 0xb1 ,0x6e, 0xb1 ,0x57 ,0x6c ,0x54 ,0xb9 ,
   0x59, 0xe7 ,0x94, 0x4b ,0x14, 0x00, 0x40 ,0xb1 ,0x6e, 0xb1 ,
   0x57 ,0x6c, 0x54 ,0xb9, 0x59 ,0xe7 ,0x94, 0x4b ,0x14, 0x00, 
   0x40, 0xb1, 0x6e, 0xb1, 0x57, 0x6c, 0x54, 0xb9, 0x59, 0xe7, 
   0x94, 0x4b, 0x14, 0x00, 0x40, 0xb1, 0x6e, 0xb1, 0x57, 0x6c, 
   0x54, 0xb9, 0x59 ,0xe7 ,0x94 ,0x4b ,0x14 ,0x00, 0x40, 0xb1 ,
   0x6e, 0xb1 ,0x57, 0x6c ,0x54 ,0xb9 ,0x59, 0xe7 ,0x94 ,0x4b, 
   0x14 ,0x00, 0x40 ,0xb1 ,0x6e, 0xb1 ,0x57 ,0x6c ,0x54, 0xb9 ,
   0x59 ,0xe7 ,0x94 ,0x4b ,0x14 ,0x00, 0x40, 0xb1 ,0x6e ,0xb1, 
   0x57, 0x6c ,0x54, 0xb9, 0x59 ,0xe7, 0x94 ,0x4b ,0x14, 0x00 ,
   0x40 ,0xb1, 0x6e, 0xb1 ,0x57, 0x6c ,0x54, 0xb9 ,0x59 ,0xe7, 
   0x94 ,0x4b, 0x14 ,0x00 ,0x40, 0xb1 ,0x6e, 0xb1, 0x57, 0x6c ,
   0x54, 0xb9 ,0x59, 0xe7 ,0x94 ,0x4b ,0x14 ,0x00 ,0x40, 0xb1 ,
   0x6e, 0xb1 ,0x57, 0x6c ,0x54 ,0xb9 ,0x59 ,0xe7 ,0x94, 0x4b ,
   0x14, 0x00 ,0x40, 0xb1, 0x6e ,0xb1 ,0x57, 0x6c ,0x54 ,0xb9, 
   0x59 ,0xe7, 0x94 ,0x4b ,0x14, 0x00 ,0x40, 0xb1, 0x6e, 0xb1, 
   0x57, 0x6c, 0x54, 0xb9, 0x59, 0xe7, 0x94, 0x4b, 0x14, 0x00, 
   0x40, 0xb1, 0x6e, 0xb1, 0x57, 0x6c, 0x54, 0xb9, 0x59, 0xe7, 
   0x94 ,0x4b ,0x14 ,0x00 ,0x40 ,0xb1, 0x6e, 0xb1 ,0x57, 0x6c ,
   0x54, 0xb9 ,0x59 ,0xe7 ,0x94, 0x4b ,0x14 ,0x00, 0x40 ,0xb1, 
   0x6e ,0xb1 ,0x57, 0x6c ,0x54 ,0xb9 ,0x59, 0xe7 ,0x94 ,0x4b ,
   0x14 ,0x00 ,0x40 ,0xb1, 0x6e, 0xb1 ,0x57 ,0x6c, 0x54, 0xb9 ,
   0x59, 0xe7, 0x94 ,0x4b, 0x14 ,0x00 ,0x40, 0xb1 ,0x6e ,0xb1, 
   0x57, 0x6c ,0x54, 0xb9 ,0x59, 0xe7 ,0x94 ,0x4b, 0x14 ,0x00, 
   0x40 ,0xb1 ,0x6e, 0xb1 ,0x57, 0x6c, 0x54, 0xb9 ,0x59, 0xe7 ,
   0x94, 0x4b ,0x14 ,0x00 ,0x40 ,0xb1 ,0x6e, 0xb1 ,0x57, 0x6c ,
   0x54, 0xb9 ,0x59 ,0xe7 ,0x94 ,0x4b ,0x14, 0x00 ,0x40, 0xb1 ,
   0x6e, 0xb1, 0x57 ,0x6c ,0x54, 0xb9 ,0x59 ,0xe7, 0x94 ,0x4b, 
   0x14 ,0x00 ,0x40, 0xb1 ,0x6e, 0xb1, 0x57, 0x6c, 0x54, 0xb9, 
   0x59, 0xe7, 0x94, 0x4b, 0x14, 0x00, 0x4f, 0xb1, 0x6e, 0xb1, 
   0x57, 0x6c, 0x54, 0xb9, 0x59, 0xe7, 0x94, 0x4b, 0x94 ,0x07 ,
   0x49 ,0xb1 ,0x6e ,0xb1, 0x57, 0x6c ,0x54, 0xb9 ,0x59, 0xe7 ,
   0x94 ,0x4b ,0x94, 0x04 ,0x49 ,0xb1, 0x6e ,0xb1, 0x57 ,0x6c ,
   0x54, 0xb9 ,0x59 ,0xe7 ,0x94, 0x4b ,0x94 ,0x04 ,0x49 ,0xb1 ,
   0x6e ,0xb1, 0x57, 0x6c ,0x54 ,0xb9, 0x59, 0xe7 ,0x94, 0x4b, 
   0x94 ,0x07, 0x49 ,0xb1 ,0x6e, 0xb1 ,0x57 ,0x6c, 0x54, 0xb9 ,
   0x59, 0xe7 ,0x94, 0x4b ,0x94 ,0x04, 0x49 ,0xb1, 0x00 ,0x00 ,
   0x00, 0x00 ,0x50, 0x00, 0x00, 0x00 ,0x00, 0x48 ,0x94, 0x04 ,
   0x4f ,0xb1 ,0x00 ,0x00 ,0x00, 0x00 ,0x50, 0x00 ,0x00, 0x00 ,
   0x00 ,0x48 ,0x94 ,0x07 ,0x40, 0xb1 ,0x3c, 0x12 ,0x8f, 0xc4, 
   0x53 ,0x1e ,0x86, 0xc4 ,0xe3 ,0x49, 0x14 ,0x00, 0x40 ,0xb1 ,
   0x24, 0x12 ,0x88, 0x44, 0x52, 0x12, 0x84, 0x44, 0x22, 0x49, 
   0x14, 0x00, 0x40, 0xb1, 0x24, 0x12, 0x88, 0x44, 0x50, 0x02, 
   0x84, 0x44, 0x22, 0x48, 0x14, 0x00, 0x40 ,0xb1 ,0x30 ,0x1e ,
   0x8f ,0xc7, 0x53, 0x1e ,0x84, 0x47 ,0xe2, 0x49 ,0x14 ,0x00 ,
   0x00, 0x00 ,0x10 ,0x10, 0x08 ,0x04, 0x02 ,0x10 ,0x04, 0x44 ,
   0x02 ,0x01 ,0x00, 0x00 ,0x00 ,0x00 ,0x10 ,0x10 ,0x08 ,0x44, 
   0x02, 0x12 ,0x04 ,0x44, 0x22, 0x01 ,0x00, 0x00, 0x00 ,0x00, 
   0x10 ,0x10 ,0x0f, 0xc4 ,0x03 ,0x1e, 0x0f, 0xc4 ,0xe3, 0x01 ,
   0x00, 0x00 ,};
/* the milk.com barcode generator; http://www.milk.com/barcode/ */
