#define milk_barcode_width 107
#define milk_barcode_height 68
static char milk_barcode_bits[] = {
   0x00 ,0x00 ,0x00 ,0x80 ,0x93 ,0x42, 0x02, 0x00 ,0x08, 0x00 ,
   0x00, 0x00 ,0x00 ,0x00 ,0x00, 0x00 ,0x00 ,0x80, 0x94 ,0x42, 
   0x02 ,0x02 ,0x00, 0x00 ,0x00 ,0x00 ,0x00, 0x00 ,0x00 ,0x00 ,
   0x00 ,0x80 ,0x94 ,0x42, 0x02, 0x2f ,0x8d ,0x04, 0x00, 0x00 ,
   0x00, 0x00, 0x00 ,0x00, 0x00 ,0x80 ,0x93, 0xc2 ,0x79 ,0x22, 
   0x89, 0x04 ,0x00, 0x00 ,0x00, 0x00 ,0x00 ,0x00, 0x00 ,0x80, 
   0x94 ,0x42 ,0x02, 0xe2 ,0x09, 0x03, 0x00, 0x00 ,0x00, 0x00 ,
   0x00, 0x00 ,0x00 ,0x80 ,0x94 ,0x42 ,0x02, 0xe2 ,0x89, 0x04 ,
   0x00, 0x00 ,0x00 ,0x00 ,0x00 ,0x00 ,0x00, 0x80 ,0xf3, 0x5e ,
   0x02, 0x2e, 0x9d ,0x04 ,0x00, 0x00 ,0x00 ,0x00, 0x00 ,0x00, 
   0x00 ,0x00 ,0x00, 0x00 ,0x00, 0x00, 0x00, 0x00, 0x00, 0x00, 
   0x00, 0x00, 0x40, 0xb1, 0x62, 0x2c, 0x16, 0x8b, 0x55, 0xa7, 
   0xd9, 0x6c, 0x13, 0x9a, 0x15, 0x00, 0x40, 0xb1, 0x62 ,0x2c ,
   0x16 ,0x8b ,0x55 ,0xa7, 0xd9, 0x6c ,0x13, 0x9a ,0x15, 0x00 ,
   0x40 ,0xb1 ,0x62, 0x2c ,0x16 ,0x8b, 0x55 ,0xa7, 0xd9 ,0x6c ,
   0x13, 0x9a ,0x15 ,0x00 ,0x40, 0xb1 ,0x62 ,0x2c ,0x16 ,0x8b ,
   0x55 ,0xa7, 0xd9, 0x6c ,0x13 ,0x9a, 0x15, 0x00 ,0x40, 0xb1, 
   0x62 ,0x2c, 0x16 ,0x8b ,0x55, 0xa7 ,0xd9 ,0x6c, 0x13, 0x9a ,
   0x15, 0x00 ,0x40, 0xb1 ,0x62 ,0x2c, 0x16 ,0x8b, 0x55 ,0xa7 ,
   0xd9, 0x6c ,0x13, 0x9a, 0x15, 0x00 ,0x40, 0xb1 ,0x62, 0x2c ,
   0x16 ,0x8b ,0x55 ,0xa7 ,0xd9, 0x6c ,0x13, 0x9a ,0x15, 0x00 ,
   0x40 ,0xb1 ,0x62 ,0x2c ,0x16, 0x8b ,0x55, 0xa7 ,0xd9, 0x6c, 
   0x13 ,0x9a ,0x15, 0x00 ,0x40 ,0xb1, 0x62 ,0x2c, 0x16 ,0x8b ,
   0x55, 0xa7 ,0xd9, 0x6c, 0x13, 0x9a, 0x15, 0x00, 0x40, 0xb1, 
   0x62, 0x2c, 0x16, 0x8b, 0x55, 0xa7, 0xd9, 0x6c, 0x13, 0x9a, 
   0x15, 0x00, 0x40, 0xb1, 0x62, 0x2c, 0x16 ,0x8b ,0x55 ,0xa7 ,
   0xd9 ,0x6c, 0x13, 0x9a ,0x15, 0x00 ,0x40, 0xb1 ,0x62 ,0x2c ,
   0x16, 0x8b ,0x55 ,0xa7, 0xd9 ,0x6c, 0x13 ,0x9a ,0x15, 0x00 ,
   0x40 ,0xb1 ,0x62, 0x2c ,0x16 ,0x8b ,0x55 ,0xa7 ,0xd9 ,0x6c, 
   0x13, 0x9a ,0x15 ,0x00, 0x40, 0xb1 ,0x62, 0x2c, 0x16 ,0x8b, 
   0x55 ,0xa7 ,0xd9, 0x6c ,0x13 ,0x9a, 0x15, 0x00 ,0x40, 0xb1 ,
   0x62, 0x2c ,0x16 ,0x8b, 0x55 ,0xa7, 0xd9 ,0x6c ,0x13, 0x9a ,
   0x15, 0x00, 0x40, 0xb1 ,0x62, 0x2c ,0x16, 0x8b ,0x55 ,0xa7 ,
   0xd9 ,0x6c ,0x13, 0x9a ,0x15, 0x00 ,0x40, 0xb1 ,0x62 ,0x2c ,
   0x16 ,0x8b ,0x55, 0xa7 ,0xd9, 0x6c ,0x13, 0x9a, 0x15 ,0x00 ,
   0x40, 0xb1 ,0x62 ,0x2c, 0x16 ,0x8b, 0x55 ,0xa7 ,0xd9, 0x6c ,
   0x13, 0x9a, 0x15, 0x00, 0x40, 0xb1, 0x62, 0x2c, 0x16, 0x8b, 
   0x55, 0xa7, 0xd9, 0x6c, 0x13, 0x9a, 0x15, 0x00, 0x40, 0xb1, 
   0x62, 0x2c, 0x16, 0x8b, 0x55 ,0xa7 ,0xd9 ,0x6c ,0x13 ,0x9a, 
   0x15, 0x00 ,0x40, 0xb1 ,0x62, 0x2c ,0x16 ,0x8b ,0x55, 0xa7 ,
   0xd9 ,0x6c, 0x13 ,0x9a, 0x15 ,0x00 ,0x40, 0xb1 ,0x62 ,0x2c ,
   0x16, 0x8b ,0x55 ,0xa7 ,0xd9 ,0x6c ,0x13 ,0x9a, 0x15, 0x00 ,
   0x40 ,0xb1, 0x62, 0x2c ,0x16, 0x8b, 0x55 ,0xa7, 0xd9 ,0x6c ,
   0x13, 0x9a ,0x15 ,0x00, 0x40, 0xb1 ,0x62, 0x2c ,0x16, 0x8b ,
   0x55 ,0xa7, 0xd9 ,0x6c, 0x13 ,0x9a ,0x15, 0x00 ,0x40, 0xb1, 
   0x62, 0x2c ,0x16, 0x8b ,0x55, 0xa7 ,0xd9 ,0x6c ,0x13 ,0x9a ,
   0x15, 0x00 ,0x40, 0xb1 ,0x62, 0x2c ,0x16 ,0x8b ,0x55 ,0xa7 ,
   0xd9, 0x6c ,0x13, 0x9a ,0x15, 0x00, 0x40 ,0xb1 ,0x62, 0x2c ,
   0x16 ,0x8b, 0x55 ,0xa7, 0xd9 ,0x6c ,0x13, 0x9a ,0x15, 0x00, 
   0x40, 0xb1, 0x62, 0x2c, 0x16, 0x8b, 0x55, 0xa7, 0xd9, 0x6c, 
   0x13, 0x9a, 0x15, 0x00, 0x40, 0xb1, 0x62, 0x2c, 0x16, 0x8b, 
   0x55, 0xa7, 0xd9 ,0x6c ,0x13 ,0x9a ,0x15 ,0x00, 0x40, 0xb1 ,
   0x62, 0x2c ,0x16, 0x8b ,0x55 ,0xa7 ,0xd9, 0x6c ,0x13 ,0x9a, 
   0x15 ,0x00, 0x40 ,0xb1 ,0x62, 0x2c ,0x16 ,0x8b ,0x55, 0xa7 ,
   0xd9 ,0x6c ,0x13 ,0x9a ,0x15 ,0x00, 0x40, 0xb1 ,0x62 ,0x2c, 
   0x16, 0x8b ,0x55, 0xa7, 0xd9 ,0x6c, 0x13 ,0x9a ,0x15, 0x00 ,
   0x40 ,0xb1, 0x62, 0x2c ,0x16, 0x8b ,0x55, 0xa7 ,0xd9 ,0x6c, 
   0x13 ,0x9a, 0x15 ,0x00 ,0x40, 0xb1 ,0x62, 0x2c, 0x16, 0x8b ,
   0x55, 0xa7 ,0xd9, 0x6c ,0x13 ,0x9a ,0x15 ,0x00 ,0x40, 0xb1 ,
   0x62, 0x2c ,0x16, 0x8b ,0x55 ,0xa7 ,0xd9 ,0x6c ,0x13, 0x9a ,
   0x15, 0x00 ,0x40, 0xb1, 0x62 ,0x2c ,0x16, 0x8b ,0x55 ,0xa7, 
   0xd9 ,0x6c, 0x13 ,0x9a ,0x15, 0x00 ,0x40, 0xb1, 0x62, 0x2c, 
   0x16, 0x8b, 0x55, 0xa7, 0xd9, 0x6c, 0x13, 0x9a, 0x15, 0x00, 
   0x40, 0xb1, 0x62, 0x2c, 0x16, 0x8b, 0x55, 0xa7, 0xd9, 0x6c, 
   0x13 ,0x9a ,0x15 ,0x00 ,0x40 ,0xb1, 0x62, 0x2c ,0x16, 0x8b ,
   0x55, 0xa7 ,0xd9 ,0x6c ,0x13, 0x9a ,0x15 ,0x00, 0x40 ,0xb1, 
   0x62 ,0x2c ,0x16, 0x8b ,0x55 ,0xa7 ,0xd9, 0x6c ,0x13 ,0x9a ,
   0x15 ,0x00 ,0x40 ,0xb1, 0x62, 0x2c ,0x16 ,0x8b, 0x55, 0xa7 ,
   0xd9, 0x6c, 0x13 ,0x9a, 0x15 ,0x00 ,0x40, 0xb1 ,0x62 ,0x2c, 
   0x16, 0x8b ,0x55, 0xa7 ,0xd9, 0x6c ,0x13 ,0x9a, 0x15 ,0x00, 
   0x40 ,0xb1 ,0x62, 0x2c ,0x16, 0x8b, 0x55, 0xa7 ,0xd9, 0x6c ,
   0x13, 0x9a ,0x15 ,0x00 ,0x40 ,0xb1 ,0x62, 0x2c ,0x16, 0x8b ,
   0x55, 0xa7 ,0xd9 ,0x6c ,0x13 ,0x9a ,0x15, 0x00 ,0x40, 0xb1 ,
   0x62, 0x2c, 0x16 ,0x8b ,0x55, 0xa7 ,0xd9 ,0x6c, 0x13 ,0x9a, 
   0x15 ,0x00 ,0x40, 0xb1 ,0x62, 0x2c, 0x16, 0x8b, 0x55, 0xa7, 
   0xd9, 0x6c, 0x13, 0x9a, 0x15, 0x00, 0x4f, 0xb1, 0x62, 0x2c, 
   0x16, 0x8b, 0x55, 0xa7, 0xd9, 0x6c, 0x13, 0x9a, 0x15 ,0x03 ,
   0x49 ,0xb1 ,0x62 ,0x2c, 0x16, 0x8b ,0x55, 0xa7 ,0xd9, 0x6c ,
   0x13 ,0x9a ,0x15, 0x02 ,0x49 ,0xb1, 0x62 ,0x2c, 0x16 ,0x8b ,
   0x55, 0xa7 ,0xd9 ,0x6c ,0x13, 0x9a ,0x15 ,0x02 ,0x49 ,0xb1 ,
   0x62 ,0x2c, 0x16, 0x8b ,0x55 ,0xa7, 0xd9, 0x6c ,0x13, 0x9a, 
   0x15 ,0x02, 0x49 ,0xb1 ,0x62, 0x2c ,0x16 ,0x8b, 0x55, 0xa7 ,
   0xd9, 0x6c ,0x13, 0x9a ,0x15 ,0x02, 0x49 ,0xb1, 0x00 ,0x00 ,
   0x00, 0x00 ,0x50, 0x00, 0x00, 0x00 ,0x00, 0x98 ,0x15, 0x02 ,
   0x4f ,0xb1 ,0x00 ,0x00 ,0x00, 0x00 ,0x50, 0x00 ,0x00, 0x00 ,
   0x00 ,0x98 ,0x95 ,0x07 ,0x40, 0xb1 ,0x24, 0x1e ,0x8f, 0xc7, 
   0x53 ,0x1e ,0x06, 0xc3 ,0xe3 ,0x99, 0x15 ,0x00, 0x40 ,0xb1 ,
   0x24, 0x12 ,0x89, 0x44, 0x52, 0x12, 0x04, 0x42, 0x02, 0x99, 
   0x15, 0x00, 0x40, 0xb1, 0x24, 0x12, 0x89, 0x44, 0x52, 0x12, 
   0x04, 0x02, 0x02, 0x99, 0x15, 0x00, 0x40 ,0xb1 ,0x3c ,0x12 ,
   0x89 ,0x44, 0x52, 0x12 ,0x04, 0xc2 ,0xe3, 0x99 ,0x15 ,0x00 ,
   0x00, 0x00 ,0x20 ,0x12, 0x89 ,0x44, 0x02 ,0x12 ,0x04, 0x42 ,
   0x00 ,0x01 ,0x00, 0x00 ,0x00 ,0x00 ,0x20 ,0x12 ,0x89 ,0x44, 
   0x02, 0x12 ,0x04 ,0x42, 0x02, 0x01 ,0x00, 0x00, 0x00 ,0x00, 
   0x20 ,0x1e ,0x8f, 0xc7 ,0x03 ,0x1e, 0x8f, 0xc7 ,0xe3, 0x01 ,
   0x00, 0x00 ,};
/* the milk.com barcode generator; http://www.milk.com/barcode/ */
