#define milk_barcode_width 107
#define milk_barcode_height 68
static char milk_barcode_bits[] = {
   0x00 ,0x00 ,0x00 ,0x9c ,0x14 ,0x12, 0x00, 0x00 ,0x00, 0x00 ,
   0x00, 0x00 ,0x00 ,0x00 ,0x00, 0x00 ,0x00 ,0xa4, 0x14 ,0x12, 
   0x00 ,0x00 ,0x00, 0x20 ,0x00 ,0x00 ,0x00, 0x00 ,0x00 ,0x00 ,
   0x00 ,0xa4 ,0x14 ,0x12, 0x48, 0xef ,0xa5 ,0xf7, 0x00, 0x00 ,
   0x00, 0x00, 0x00 ,0x00, 0x00 ,0x9c ,0x14, 0xce ,0x4b ,0x29, 
   0xa5, 0x20 ,0x00, 0x00 ,0x00, 0x00 ,0x00 ,0x00, 0x00 ,0xa4, 
   0x14 ,0x12 ,0x48, 0x29 ,0xa5, 0x20, 0x00, 0x00 ,0x00, 0x00 ,
   0x00, 0x00 ,0x00 ,0xa4 ,0x14 ,0x12 ,0x78, 0xe9 ,0xa5, 0x20 ,
   0x00, 0x00 ,0x00 ,0x00 ,0x00 ,0x00 ,0x00, 0x9c ,0xf7, 0x12 ,
   0x40, 0x0f, 0xbd ,0xe0 ,0x00, 0x00 ,0x00 ,0x00, 0x00 ,0x00, 
   0x00 ,0x00 ,0x00, 0x00 ,0x60, 0x80, 0x01, 0x00, 0x00, 0x00, 
   0x00, 0x00, 0x40, 0xb1, 0x68, 0xbd, 0x9e, 0x89, 0x56, 0xb3, 
   0x4d, 0x27, 0x91, 0x28, 0x14, 0x00, 0x40, 0xb1, 0x68 ,0xbd ,
   0x9e ,0x89 ,0x56 ,0xb3, 0x4d, 0x27 ,0x91, 0x28 ,0x14, 0x00 ,
   0x40 ,0xb1 ,0x68, 0xbd ,0x9e ,0x89, 0x56 ,0xb3, 0x4d ,0x27 ,
   0x91, 0x28 ,0x14 ,0x00 ,0x40, 0xb1 ,0x68 ,0xbd ,0x9e ,0x89 ,
   0x56 ,0xb3, 0x4d, 0x27 ,0x91 ,0x28, 0x14, 0x00 ,0x40, 0xb1, 
   0x68 ,0xbd, 0x9e ,0x89 ,0x56, 0xb3 ,0x4d ,0x27, 0x91, 0x28 ,
   0x14, 0x00 ,0x40, 0xb1 ,0x68 ,0xbd, 0x9e ,0x89, 0x56 ,0xb3 ,
   0x4d, 0x27 ,0x91, 0x28, 0x14, 0x00 ,0x40, 0xb1 ,0x68, 0xbd ,
   0x9e ,0x89 ,0x56 ,0xb3 ,0x4d, 0x27 ,0x91, 0x28 ,0x14, 0x00 ,
   0x40 ,0xb1 ,0x68 ,0xbd ,0x9e, 0x89 ,0x56, 0xb3 ,0x4d, 0x27, 
   0x91 ,0x28 ,0x14, 0x00 ,0x40 ,0xb1, 0x68 ,0xbd, 0x9e ,0x89 ,
   0x56, 0xb3 ,0x4d, 0x27, 0x91, 0x28, 0x14, 0x00, 0x40, 0xb1, 
   0x68, 0xbd, 0x9e, 0x89, 0x56, 0xb3, 0x4d, 0x27, 0x91, 0x28, 
   0x14, 0x00, 0x40, 0xb1, 0x68, 0xbd, 0x9e ,0x89 ,0x56 ,0xb3 ,
   0x4d ,0x27, 0x91, 0x28 ,0x14, 0x00 ,0x40, 0xb1 ,0x68 ,0xbd ,
   0x9e, 0x89 ,0x56 ,0xb3, 0x4d ,0x27, 0x91 ,0x28 ,0x14, 0x00 ,
   0x40 ,0xb1 ,0x68, 0xbd ,0x9e ,0x89 ,0x56 ,0xb3 ,0x4d ,0x27, 
   0x91, 0x28 ,0x14 ,0x00, 0x40, 0xb1 ,0x68, 0xbd, 0x9e ,0x89, 
   0x56 ,0xb3 ,0x4d, 0x27 ,0x91 ,0x28, 0x14, 0x00 ,0x40, 0xb1 ,
   0x68, 0xbd ,0x9e ,0x89, 0x56 ,0xb3, 0x4d ,0x27 ,0x91, 0x28 ,
   0x14, 0x00, 0x40, 0xb1 ,0x68, 0xbd ,0x9e, 0x89 ,0x56 ,0xb3 ,
   0x4d ,0x27 ,0x91, 0x28 ,0x14, 0x00 ,0x40, 0xb1 ,0x68 ,0xbd ,
   0x9e ,0x89 ,0x56, 0xb3 ,0x4d, 0x27 ,0x91, 0x28, 0x14 ,0x00 ,
   0x40, 0xb1 ,0x68 ,0xbd, 0x9e ,0x89, 0x56 ,0xb3 ,0x4d, 0x27 ,
   0x91, 0x28, 0x14, 0x00, 0x40, 0xb1, 0x68, 0xbd, 0x9e, 0x89, 
   0x56, 0xb3, 0x4d, 0x27, 0x91, 0x28, 0x14, 0x00, 0x40, 0xb1, 
   0x68, 0xbd, 0x9e, 0x89, 0x56 ,0xb3 ,0x4d ,0x27 ,0x91 ,0x28, 
   0x14, 0x00 ,0x40, 0xb1 ,0x68, 0xbd ,0x9e ,0x89 ,0x56, 0xb3 ,
   0x4d ,0x27, 0x91 ,0x28, 0x14 ,0x00 ,0x40, 0xb1 ,0x68 ,0xbd ,
   0x9e, 0x89 ,0x56 ,0xb3 ,0x4d ,0x27 ,0x91 ,0x28, 0x14, 0x00 ,
   0x40 ,0xb1, 0x68, 0xbd ,0x9e, 0x89, 0x56 ,0xb3, 0x4d ,0x27 ,
   0x91, 0x28 ,0x14 ,0x00, 0x40, 0xb1 ,0x68, 0xbd ,0x9e, 0x89 ,
   0x56 ,0xb3, 0x4d ,0x27, 0x91 ,0x28 ,0x14, 0x00 ,0x40, 0xb1, 
   0x68, 0xbd ,0x9e, 0x89 ,0x56, 0xb3 ,0x4d ,0x27 ,0x91 ,0x28 ,
   0x14, 0x00 ,0x40, 0xb1 ,0x68, 0xbd ,0x9e ,0x89 ,0x56 ,0xb3 ,
   0x4d, 0x27 ,0x91, 0x28 ,0x14, 0x00, 0x40 ,0xb1 ,0x68, 0xbd ,
   0x9e ,0x89, 0x56 ,0xb3, 0x4d ,0x27 ,0x91, 0x28 ,0x14, 0x00, 
   0x40, 0xb1, 0x68, 0xbd, 0x9e, 0x89, 0x56, 0xb3, 0x4d, 0x27, 
   0x91, 0x28, 0x14, 0x00, 0x40, 0xb1, 0x68, 0xbd, 0x9e, 0x89, 
   0x56, 0xb3, 0x4d ,0x27 ,0x91 ,0x28 ,0x14 ,0x00, 0x40, 0xb1 ,
   0x68, 0xbd ,0x9e, 0x89 ,0x56 ,0xb3 ,0x4d, 0x27 ,0x91 ,0x28, 
   0x14 ,0x00, 0x40 ,0xb1 ,0x68, 0xbd ,0x9e ,0x89 ,0x56, 0xb3 ,
   0x4d ,0x27 ,0x91 ,0x28 ,0x14 ,0x00, 0x40, 0xb1 ,0x68 ,0xbd, 
   0x9e, 0x89 ,0x56, 0xb3, 0x4d ,0x27, 0x91 ,0x28 ,0x14, 0x00 ,
   0x40 ,0xb1, 0x68, 0xbd ,0x9e, 0x89 ,0x56, 0xb3 ,0x4d ,0x27, 
   0x91 ,0x28, 0x14 ,0x00 ,0x40, 0xb1 ,0x68, 0xbd, 0x9e, 0x89 ,
   0x56, 0xb3 ,0x4d, 0x27 ,0x91 ,0x28 ,0x14 ,0x00 ,0x40, 0xb1 ,
   0x68, 0xbd ,0x9e, 0x89 ,0x56 ,0xb3 ,0x4d ,0x27 ,0x91, 0x28 ,
   0x14, 0x00 ,0x40, 0xb1, 0x68 ,0xbd ,0x9e, 0x89 ,0x56 ,0xb3, 
   0x4d ,0x27, 0x91 ,0x28 ,0x14, 0x00 ,0x40, 0xb1, 0x68, 0xbd, 
   0x9e, 0x89, 0x56, 0xb3, 0x4d, 0x27, 0x91, 0x28, 0x14, 0x00, 
   0x40, 0xb1, 0x68, 0xbd, 0x9e, 0x89, 0x56, 0xb3, 0x4d, 0x27, 
   0x91 ,0x28 ,0x14 ,0x00 ,0x40 ,0xb1, 0x68, 0xbd ,0x9e, 0x89 ,
   0x56, 0xb3 ,0x4d ,0x27 ,0x91, 0x28 ,0x14 ,0x00, 0x40 ,0xb1, 
   0x68 ,0xbd ,0x9e, 0x89 ,0x56 ,0xb3 ,0x4d, 0x27 ,0x91 ,0x28 ,
   0x14 ,0x00 ,0x40 ,0xb1, 0x68, 0xbd ,0x9e ,0x89, 0x56, 0xb3 ,
   0x4d, 0x27, 0x91 ,0x28, 0x14 ,0x00 ,0x40, 0xb1 ,0x68 ,0xbd, 
   0x9e, 0x89 ,0x56, 0xb3 ,0x4d, 0x27 ,0x91 ,0x28, 0x14 ,0x00, 
   0x40 ,0xb1 ,0x68, 0xbd ,0x9e, 0x89, 0x56, 0xb3 ,0x4d, 0x27 ,
   0x91, 0x28 ,0x14 ,0x00 ,0x40 ,0xb1 ,0x68, 0xbd ,0x9e, 0x89 ,
   0x56, 0xb3 ,0x4d ,0x27 ,0x91 ,0x28 ,0x14, 0x00 ,0x40, 0xb1 ,
   0x68, 0xbd, 0x9e ,0x89 ,0x56, 0xb3 ,0x4d ,0x27, 0x91 ,0x28, 
   0x14 ,0x00 ,0x40, 0xb1 ,0x68, 0xbd, 0x9e, 0x89, 0x56, 0xb3, 
   0x4d, 0x27, 0x91, 0x28, 0x14, 0x00, 0x4f, 0xb1, 0x68, 0xbd, 
   0x9e, 0x89, 0x56, 0xb3, 0x4d, 0x27, 0x91, 0x28, 0x94 ,0x01 ,
   0x49 ,0xb1 ,0x68 ,0xbd, 0x9e, 0x89 ,0x56, 0xb3 ,0x4d, 0x27 ,
   0x91 ,0x28 ,0x94, 0x00 ,0x49 ,0xb1, 0x68 ,0xbd, 0x9e ,0x89 ,
   0x56, 0xb3 ,0x4d ,0x27 ,0x91, 0x28 ,0x94 ,0x00 ,0x49 ,0xb1 ,
   0x68 ,0xbd, 0x9e, 0x89 ,0x56 ,0xb3, 0x4d, 0x27 ,0x91, 0x28, 
   0x94 ,0x07, 0x49 ,0xb1 ,0x68, 0xbd ,0x9e ,0x89, 0x56, 0xb3 ,
   0x4d, 0x27 ,0x91, 0x28 ,0x94 ,0x04, 0x49 ,0xb1, 0x00 ,0x00 ,
   0x00, 0x00 ,0x50, 0x00, 0x00, 0x00 ,0x00, 0x28 ,0x94, 0x04 ,
   0x4f ,0xb1 ,0x00 ,0x00 ,0x00, 0x00 ,0x50, 0x00 ,0x00, 0x00 ,
   0x00 ,0x28 ,0x94 ,0x07 ,0x40, 0xb1 ,0x3c, 0x06 ,0x03, 0xc3, 
   0x53 ,0x0c ,0x8f, 0xc4 ,0xe3 ,0x29, 0x14 ,0x00, 0x40 ,0xb1 ,
   0x24, 0x02 ,0x01, 0x42, 0x52, 0x08, 0x89, 0x44, 0x22, 0x29, 
   0x14, 0x00, 0x40, 0xb1, 0x24, 0x02, 0x01, 0x42, 0x52, 0x08, 
   0x88, 0x44, 0x22, 0x29, 0x14, 0x00, 0x40 ,0xb1 ,0x3c ,0x1e ,
   0x0f ,0xc2, 0x53, 0x08 ,0x8f, 0xc7 ,0xe3, 0x29 ,0x14 ,0x00 ,
   0x00, 0x00 ,0x20 ,0x12, 0x09 ,0x02, 0x02 ,0x08 ,0x01, 0x44 ,
   0x22 ,0x01 ,0x00, 0x00 ,0x00 ,0x00 ,0x20 ,0x12 ,0x09 ,0x02, 
   0x02, 0x08 ,0x09 ,0x44, 0x22, 0x01 ,0x00, 0x00, 0x00 ,0x00, 
   0x20 ,0x1e ,0x8f, 0x07 ,0x02 ,0x1e, 0x0f, 0xc4 ,0xe3, 0x01 ,
   0x00, 0x00 ,};
/* the milk.com barcode generator; http://www.milk.com/barcode/ */
